<?xml version="1.0" encoding="utf-8"?>
<!-- Generator: Adobe Illustrator 16.0.0, SVG Export Plug-In . SVG Version: 6.00 Build 0)  -->
<!DOCTYPE svg PUBLIC "-//W3C//DTD SVG 1.1//EN" "http://www.w3.org/Graphics/SVG/1.1/DTD/svg11.dtd">
<svg version="1.1" id="Layer_1" xmlns="http://www.w3.org/2000/svg" xmlns:xlink="http://www.w3.org/1999/xlink" x="0px" y="0px"
	 width="176px" height="103px" viewBox="0 0 176 103" enable-background="new 0 0 176 103" xml:space="preserve">
<g>
	<g>
		<path fill-rule="evenodd" clip-rule="evenodd" fill="#FADFCB" d="M115,1c2.972,2.492,7.031-0.51,10.004,1.98
			c1.459,1.442,3.198,2.384,5.231,2.621c8.33,0.97,13.934,6.381,19.381,11.964c1.481,1.519,2.944,3.545,1.398,5.761
			c-1.68,2.41-3.852,0.975-5.796,0.165c-1.379-0.574-2.75-1.14-4.228-1.401c-2.187-0.653-4.357-1.353-6.418-2.353
			c-3.217-2.151-6.527-3.092-10.617-3.134c-4.113-0.041-8.734-1.569-11.896-4.194c-3.912-3.247-7.632-3.314-11.95-2.203
			c-2.015-0.056-4.006,0.944-6.037,0.151c-3.337-3.214-7.431-3.079-11.592-2.587c-2.267,0.269-4.576,1.045-6.619-0.724
			c0.18-2.496,2.274-2.578,3.948-2.926c3.707-0.768,7.376-1.699,11.087-2.438C92.89,1.091,95.068,2.153,97,1C103,1,109,1,115,1z"/>
		<path fill-rule="evenodd" clip-rule="evenodd" fill="#E2A58F" d="M98.065,103.027c-0.1,0.319-0.122,0.644-0.065,0.973
			c-3.333,0-6.667,0-10,0c-1.016-0.652-2.033-1.306-3.049-1.958c-0.661-1.456-1.85-2.756-1.361-4.561
			c0.497-1.004,1.397-1.332,2.423-1.457c0.769-0.046,1.515,0.065,2.246,0.295c2.461,1.62,6.07,0.703,7.969,3.574
			c-0.145,2.312-1.818,2.015-3.51,2.048C94.545,102.516,96.66,101.205,98.065,103.027z"/>
		<path fill-rule="evenodd" clip-rule="evenodd" fill="#BA765E" d="M177,64c-2.437,3.074-2.919,7.35-6.117,9.956
			c-0.937,0.164-1.358-0.427-1.696-1.148c-0.411-1.229-0.422-2.492-0.307-3.767c0.522-3.219,2.919-5.172,4.981-7.355
			c1.501-0.65,2.416,0.104,3.139,1.314C177,63.333,177,63.667,177,64z"/>
		<path fill-rule="evenodd" clip-rule="evenodd" fill="#D1A79D" d="M172.955,47.017c1.349,1.661,2.696,3.322,4.045,4.983
			c0,1.667,0,3.333,0,5c-0.603,0.783-1.131,1.773-2.353,0.854c-0.9-3.271-2.316-6.374-3.192-9.659
			C171.643,47.405,171.983,46.808,172.955,47.017z"/>
		<path fill-rule="evenodd" clip-rule="evenodd" fill="#C5988D" d="M175.019,58.023c0.66-0.341,1.321-0.683,1.981-1.023c0,2,0,4,0,6
			c-0.991-0.318-1.982-0.637-2.974-0.955c-0.991-1.038-0.553-2.082-0.018-3.13C174.271,58.536,174.606,58.236,175.019,58.023z"/>
		<path fill-rule="evenodd" clip-rule="evenodd" fill="#FBF0EA" d="M97,1c-1.762,1.817-4.034,0.655-6.043,1.036
			c-1.349,0.615-2.684,0.785-3.99-0.112C86.983,1.616,86.994,1.308,87,1C90.333,1,93.667,1,97,1z"/>
		<path fill-rule="evenodd" clip-rule="evenodd" fill="#F3CDBE" d="M86.967,1.924c1.331,0.037,2.661,0.074,3.991,0.111
			c-4.668,2.62-10.511,1.692-14.964,4.96c-0.647,1.162-1.777,1.61-2.943,2.007c-5.478,1.463-10.598,3.373-13.626,8.773
			c-1.316,2.347-1.225,3.518,1.621,4.117c2.895,0.608,5.871,0.664,8.731,1.423c3.777,0.007,7.277-1.119,10.665-2.645
			c1.618-0.729,3.116-2.091,4.978-0.572c0.34,0.577,0.673,1.238,0.503,1.861c-1.125,4.131,0.995,4.597,4.445,4.49
			c7.506-0.233,12.553,4.764,12.006,11.478c-2.264,1.679-3.958-0.253-5.855-0.924c-2.675-0.945-5.304-2.902-8.153-0.389
			c-5.363-0.002-10.252-2.146-15.343-3.357c1.53-3.535,4.594-0.887,6.802-1.689c0.667-0.03-0.237-1.06,0.072-0.47
			c-2.372,0.913-4.908-0.044-7.3,0.648c-0.515,0.074-1.021,0.034-1.52-0.111c-5.209-4.433-11.674-5.543-18.078-6.817
			c-2.969-1.886-1.165-4.514-1.066-6.879c7.07-8.632,16.75-12.524,27.233-14.881C81.721,2.483,84.364,2.291,86.967,1.924z"/>
		<path fill-rule="evenodd" clip-rule="evenodd" fill="#F9DECA" d="M11.989,7.973c3.343-3.754,6.066-4.151,7.612-0.381
			c3.633,8.862,11.48,9.195,18.982,10.268c3.429,0.49,6.971,0.187,10.462,0.243c0.33,2.384-1.619,3.367-2.914,4.76
			c-0.611,0.477-1.284,0.831-2.021,1.067c-2.789,0.618-5.605,0.449-8.418,0.297c-5.085-2.169-10.813-2.995-15.022-7.054
			c-0.887-0.729-1.589-1.627-2.303-2.512c-1.475-1.59-2.686-3.487-4.923-4.186C12.489,9.916,11.354,9.455,11.989,7.973z"/>
		<path fill-rule="evenodd" clip-rule="evenodd" fill="#FAE0CD" d="M11.989,7.973c0.631,0.678,1.262,1.354,1.894,2.031
			c2.029,0.845,2.579,2.973,3.883,4.451c1.28,2.353,4.527,3.354,4.539,6.581c-0.682,1.401-1.924,2.06-3.319,2.521
			c-0.472,0.082-0.945,0.074-1.416-0.021c-4.348-3.158-8.741-6.176-14.584-4.525c-1.843-2.114-1.155-3.71,1.023-5.002
			C6.256,14.223,8.164,13.985,8,11C8.84,9.345,9.951,8.049,11.989,7.973z"/>
		<path fill-rule="evenodd" clip-rule="evenodd" fill="#CA805F" d="M59.058,98.894c-1.368-0.339-2.736-0.678-4.104-1.018
			c-1.843-2.277-4.809-1.661-7.113-2.76c-0.165-0.484-0.115-0.945,0.145-1.386c0.996-0.818,2.221-0.901,3.415-1.082
			c0.806-0.136,1.717-0.121,2.322-0.713c2.912-2.849,5.974-2.964,9.317-0.772c1.436,0.941,3.063,1.158,4.728,0.499
			c0.467-0.095,0.921-0.048,1.367,0.11c1.278,1.127,1.864,2.653,2.427,4.196c0.132,0.729,0.006,1.392-0.51,1.951
			c-0.708,0.301-1.416,0.601-2.123,0.9c-1.152-1.174-2.501-0.164-3.747-0.337C63.144,98.697,61.05,98.026,59.058,98.894z"/>
		<path fill-rule="evenodd" clip-rule="evenodd" fill="#E4BCAF" d="M45.956,21.956c1.029-1.285,2.059-2.57,3.089-3.854
			c0.963-0.054,1.925-0.108,2.887-0.163c2.744,1.601-0.882,4.321,1.065,6.063c0.765,0.629,1.965,0.861,2.367,1.75
			c1.522,3.37,4.151,4.353,7.63,4.114c1.229-0.085,2.731,0.007,3.203,1.693c-1.893,2.717-5.131,1.288-7.526,2.47
			c-4.449,0.443-8.796-0.784-13.225-0.811c-1.704-0.01-3.191-0.788-3.682-2.687c2.448-2.944,5.433-0.18,8.093-0.771
			c0.536-0.336,1.562,1.058,1.588-0.117c0.036-1.575-1.453-2.46-2.632-3.36C47.357,25.173,45.93,24.045,45.956,21.956z"/>
		<path fill-rule="evenodd" clip-rule="evenodd" fill="#E2AB92" d="M6.194,71.156c-0.3-2.911,1.329-5.362,1.922-8.061
			c1.929-0.209,3.755-1.198,5.772-0.767c0.881,0.251,1.714,0.624,2.559,0.97c2.069,1.121,5.932,1.291,5.381,4.097
			c-0.614,3.122-4.275,0.73-6.46,1.468c-1.308,0.441-3.289-0.865-3.949,1.001c-0.736,2.08,1.186,2.742,2.637,3.492
			c1.151,0.847,2.222,1.746,2.037,3.393c-1.083,1.445-2.917,0.588-4.22,1.369c-1.713-0.891-3.699-1.368-4.813-3.169
			C7.507,73.518,6.387,72.443,6.194,71.156z"/>
		<path fill-rule="evenodd" clip-rule="evenodd" fill="#FAE7CC" d="M17.957,49.926c0.518-0.756,1.275-0.91,2.12-0.844
			c1.154,1.905,1.862,3.92,1.535,6.197c-0.988,1.313-2.166,2.444-3.41,3.515c-1.542,1.23-3.535,1.354-5.255,2.158
			c-1.609,0.588-3.216,1.444-4.863,0.103c-0.011-1.43-0.51-2.962,0.855-4.106C12.243,54.99,14.39,51.547,17.957,49.926z"/>
		<path fill-rule="evenodd" clip-rule="evenodd" fill="#C67D60" d="M48.014,93.946c-0.007,0.344-0.014,0.687-0.021,1.03
			c0.346,0.19,0.467,0.391,0.364,0.602c-0.105,0.215-0.213,0.323-0.324,0.323c-8.896-1.773-17.203-4.877-24.281-10.756
			c0.176-0.792,0.667-1.32,1.384-1.663c0.738-0.227,1.469-0.192,2.192,0.065c5.493,2.793,10.357,6.971,16.815,7.657
			C45.537,91.971,47.839,91.468,48.014,93.946z"/>
		<path fill-rule="evenodd" clip-rule="evenodd" fill="#C77E5D" d="M27.751,42.838c1.165-1.545,0.014-2.215-1.03-3.114
			c-2.508-2.157-4.778-4.542-6.014-7.711c0.373-0.306,0.802-0.425,1.28-0.39c0.678,0.205,1.25,0.589,1.781,1.043
			c2.854,2.586,5.989,4.825,8.994,7.235c0.964,1.427,2.481,2.184,3.803,3.182c1.704,1.286,2.967,2.766,1.633,5.06
			c-2.013,1.098-3.302-0.279-4.683-1.354C32.199,44.593,29.326,44.658,27.751,42.838z"/>
		<path fill-rule="evenodd" clip-rule="evenodd" fill="#E9C5AF" d="M20.969,54.992c1.488-3.64-2.093-0.822-2.596-2.098
			c0.504-1.245,3.094-1.691,1.703-3.813c0.948-0.38,1.896-0.761,2.843-1.142c1.159-0.013,2.313-0.22,3.478-0.097
			c0.736,0.02,1.462,0.108,2.186,0.255c1.64,0.615,3.628,0.457,4.786,2.144c0.128,3.208-2.344,2.748-4.276,3.048
			c-1.766,0.009-3.823-0.556-4.255,2.148C23.475,55.895,21.975,57.549,20.969,54.992z"/>
		<path fill-rule="evenodd" clip-rule="evenodd" fill="#D28C71" d="M83.98,98.057c0.206,1.357,2.284,2.258,0.971,3.985
			c-4.44-0.139-7.582-4.041-12.032-4.149c-0.72-0.913-0.815-1.866-0.186-2.867c1.467-0.918,3.029-0.219,4.551-0.279
			C79.83,95.212,82.604,95.228,83.98,98.057z"/>
		<path fill-rule="evenodd" clip-rule="evenodd" fill="#F2CBB8" d="M2.984,19.01c5.533-2.86,10.08-1.652,15.017,3.99
			c0.575,0.595,0.592,1.258,0.238,1.964c-2.752,0.094-4.538-1.992-6.801-2.998c-2.013-1.101-4.189-1.167-6.401-1.01
			C4.048,20.628,3.409,19.932,2.984,19.01z"/>
		<path fill-rule="evenodd" clip-rule="evenodd" fill="#B6533E" d="M32.841,50.148c-1.619-0.377-3.238-0.754-4.857-1.13
			c2.161-2.345-0.303-3.967-0.917-5.879c0.187-0.193,0.415-0.294,0.684-0.301c2.607-0.037,4.973,0.433,6.335,3.013
			c0.283,1.502,2.336,3.013-0.021,4.504C33.624,50.486,33.216,50.417,32.841,50.148z"/>
		<path fill-rule="evenodd" clip-rule="evenodd" fill="#D9A18C" d="M12.027,20.94c1.985,1.363,3.97,2.728,5.955,4.091
			c0.8,0.172,1.321,0.642,1.541,1.437c-0.063,1.031-0.119,2.074-1.643,1.675c-2.299-4.361-7.039-4.456-10.837-6.195
			C8.253,19.38,10.244,20.676,12.027,20.94z"/>
		<path fill-rule="evenodd" clip-rule="evenodd" fill="#C26E41" d="M11.874,78.118c0.549-3.491,2.74-0.611,4.075-1.05
			c0.228,0.033,0.456,0.067,0.686,0.097c1.688,0.885,2.976,2.169,3.855,3.863c0.171,0.72,0.109,1.379-0.495,1.897
			C17.288,81.323,14.581,79.721,11.874,78.118z"/>
		<path fill-rule="evenodd" clip-rule="evenodd" fill="#D58E78" d="M25.96,49.029c-1.171,0.078-2.37,0.229-3.041-1.09
			c0.78-1.508,1.434-3.113,3.08-3.944c0.472,0.14,0.93,0.367,1.409,0.434c1.191,0.167,2.466,0.426,2.643,1.769
			c0.234,1.783-1.7,1.031-2.463,1.74C27.12,48.372,26.458,48.594,25.96,49.029z"/>
		<path fill-rule="evenodd" clip-rule="evenodd" fill="#E9C5AF" d="M17.957,49.926c-2.815,2.75-5.631,5.5-8.447,8.251
			c-0.19-0.409-0.38-0.818-0.571-1.229C11.329,53.817,13.833,50.832,17.957,49.926z"/>
		<path fill-rule="evenodd" clip-rule="evenodd" fill="#EEC6B0" d="M8.083,61.055c1.637-0.354,3.275-0.708,4.912-1.062
			c2.176,0.38,1.143,1.838,1.007,2.995c-1.982-1.058-3.873,2.981-5.887,0.106C8.105,62.415,8.094,61.735,8.083,61.055z"/>
		<path fill-rule="evenodd" clip-rule="evenodd" fill="#C36D58" d="M25.96,49.029c0.473-1.72,2.212-1.768,3.403-2.508
			c-0.331-1.97-2.699-1.095-3.364-2.526c0.124-0.574,0.443-0.905,1.068-0.855c0.246,0.209,0.46,0.53,0.742,0.607
			c1.63,0.447,3.459,1.075,3.678,2.812c0.303,2.41-2.933,0.719-3.502,2.459C27.31,49.021,26.635,49.025,25.96,49.029z"/>
		<path fill-rule="evenodd" clip-rule="evenodd" fill="#F1C9B8" d="M8,11c1.004,0.181,2.375,0.604,1.341,1.729
			c-1.319,1.435-2.966,3.406-5.335,1.279C5.694,13.478,6.874,12.274,8,11z"/>
		<path fill-rule="evenodd" clip-rule="evenodd" fill="#C47751" d="M19.995,82.926c0.001-0.641,0.002-1.28,0.003-1.921
			c2.868-1.026,4.421,0.161,5.011,2.975c-0.418,0.389-0.837,0.777-1.256,1.166C22.5,84.405,21.247,83.666,19.995,82.926z"/>
		<path fill-rule="evenodd" clip-rule="evenodd" fill="#B55627" d="M48.033,95.901c-0.032-0.308-0.045-0.616-0.04-0.925
			c2.561,0.388,5.701-0.613,6.961,2.899C52.647,97.218,50.34,96.56,48.033,95.901z"/>
		<path fill-rule="evenodd" clip-rule="evenodd" fill="#E6B6A1" d="M12.027,20.94c-1.661,0.343-3.596-0.678-4.985,1.007
			c-0.669-0.33-1.337-0.66-2.006-0.991C7.363,19.437,9.693,19.48,12.027,20.94z"/>
		<path fill-rule="evenodd" clip-rule="evenodd" fill="#EBC1AE" d="M17.879,28.143c0.825-0.448,1.053-1.194,1.032-2.065
			c2.909-0.209,3.063,1.464,2.485,3.636c-1.267,1.241-1.813-0.274-2.647-0.693C18.459,28.727,18.169,28.435,17.879,28.143z"/>
		<path fill-rule="evenodd" clip-rule="evenodd" fill="#B75B2E" d="M59.058,98.894c2.146-1.774,4.658-0.568,6.986-0.858
			c0.314,0.213,0.415,0.421,0.304,0.623c-0.109,0.199-0.218,0.3-0.327,0.3C63.7,98.937,61.379,98.915,59.058,98.894z"/>
		<path fill-rule="evenodd" clip-rule="evenodd" fill="#A82C12" d="M72.79,95.082c0.043,0.937,0.086,1.874,0.129,2.811
			c-0.623,0.009-1.246,0.019-1.868,0.027c-0.047-0.621-0.095-1.243-0.143-1.864c-0.475-0.826,0.005-1.193,0.7-1.458
			C72.072,94.587,72.47,94.74,72.79,95.082z"/>
		<path fill-rule="evenodd" clip-rule="evenodd" fill="#C87A4D" d="M6.194,71.156c0.75,1.159,2.678,2.05,0.866,3.793
			C5.976,73.867,5.802,72.576,6.194,71.156z"/>
		<path fill-rule="evenodd" clip-rule="evenodd" fill="#DAA489" d="M18.749,29.02c0.743,0.334,1.486,0.669,2.229,1.004
			c0.918,0.38,1.485,0.933,0.981,2.008c-0.417-0.006-0.834-0.012-1.252-0.019C19.542,31.35,19.096,30.217,18.749,29.02z"/>
		<path fill-rule="evenodd" clip-rule="evenodd" fill="#A32610" d="M66.021,98.958c0.007-0.308,0.015-0.615,0.023-0.923
			c1.153-0.441,2.57-1.856,2.883,0.785C67.959,98.866,66.99,98.912,66.021,98.958z"/>
		<path fill-rule="evenodd" clip-rule="evenodd" fill="#C7846B" d="M169.864,72.844c0.34,0.371,0.679,0.742,1.019,1.112
			c-6.125,7.408-12.054,15.057-21.884,17.947c-0.515-0.472-0.814-1.054-0.895-1.749c-0.028-0.45,0.014-0.896,0.11-1.335
			c0.131-0.427,0.345-0.813,0.614-1.169c0.773-0.748,1.65-1.396,2.271-2.303c0.523-0.725,1.087-1.408,1.862-1.879
			c0.396-0.208,0.815-0.363,1.245-0.485c2.479-0.379,4.429-1.631,5.933-3.613c1.38-1.338,2.749-2.681,3.144-4.683
			c0.566-1.507,0.446-3.268,1.856-4.84C167.034,70.25,167.981,72.403,169.864,72.844z"/>
		<path fill-rule="evenodd" clip-rule="evenodd" fill="#B48078" d="M148.993,89.977c0.002,0.643,0.004,1.285,0.006,1.927
			c-6.326,0.949-12.671,1.54-19.074,0.974c-0.315-2.051,1.219-2.857,2.546-3.809c2.467-1.155,4.748-2.648,7.113-3.995
			c0.869-0.333,1.739-0.675,2.632-0.071C142.712,89.057,146.431,88.73,148.993,89.977z"/>
		<path fill-rule="evenodd" clip-rule="evenodd" fill="#D38E74" d="M123.033,93.24c-5.646,3.236-12.382,3.562-18.046,6.749
			c-2.461-0.324-0.798-1.713-0.702-2.704c0.28-0.455,0.648-0.824,1.092-1.12c5.467-3.265,11.066-6.001,17.74-4.358
			C123.459,92.306,123.43,92.784,123.033,93.24z"/>
		<path fill-rule="evenodd" clip-rule="evenodd" fill="#DE9D87" d="M104.983,97.982c-0.076,0.669-1.06,1.34,0.004,2.007
			c-1.973,1.776-4.392,2.534-6.922,3.038c-1.965,0-3.93,0-6.042,0c0.458-2.429,3.173-1.442,3.979-3.023
			C98.688,97.96,101.459,96.298,104.983,97.982z"/>
		<path fill-rule="evenodd" clip-rule="evenodd" fill="#922613" d="M123.033,93.24c0.047-0.372,0.095-0.743,0.143-1.115
			c0.33-0.974,1.095-1.563,1.879-2.14c2.173-1.224,4.379-2.325,7.004-1.694c0.706,0.361,1.271,0.802,0.945,1.728
			c-1.026,0.953-2.053,1.905-3.078,2.858C127.628,92.998,125.33,93.119,123.033,93.24z"/>
		<path fill-rule="evenodd" clip-rule="evenodd" fill="#E4B096" d="M172.955,47.017c-0.328,0.334-0.657,0.667-0.985,1
			c-3.381,1.759-5.752,0.202-7.425-2.578c-1.527-2.539-2.855-5.212-4.207-7.854c-2.632-4.999-5.909-9.703-7.153-15.351
			c-0.305-0.367-0.571-0.758-0.827-1.159c-0.623-1.054-1.121-2.153-1.271-3.386c0.187-1.119-0.27-2.685,1.743-2.56
			c4.26,3.096,7.099,7.403,9.063,12.08C164.854,34.255,169.152,40.482,172.955,47.017z"/>
		<path fill-rule="evenodd" clip-rule="evenodd" fill="#F7D6C3" d="M151.992,18.008c0.342,0.987,0.684,1.976,1.025,2.964
			c2.147,3.523,0.56,5.844-2.455,7.75c-3.124,1.976-4.842-0.093-6.565-2.211c-0.727-0.893-1.525-1.724-2.274-2.599
			c-0.615-0.875-1.214-1.76-0.725-2.91c2.506-0.255,4.389,1.319,6.49,2.234c0.956,0.417,1.839,0.775,2.711-0.131
			c0.892-0.929,0.547-1.925-0.057-2.708c-5.026-6.523-10.869-12.029-19.392-13.304c-2.879-0.431-5.274-0.697-5.747-4.112
			c8.66,0.474,16.535,2.971,23.057,8.952C149.288,14.012,151.051,15.744,151.992,18.008z"/>
		<path fill-rule="evenodd" clip-rule="evenodd" fill="#EFC0A9" d="M151.992,18.008c-2.152-1.479-4.017-3.146-3.932-6.074
			c1.565,1.101,3.714,1.333,4.771,3.194C151.751,15.855,152.073,16.99,151.992,18.008z"/>
		<path fill-rule="evenodd" clip-rule="evenodd" fill="#F5D1C0" d="M100,9.001c4.424-0.95,8.083-1.88,12.527,2.101
			c3.062,2.743,8.459,5.101,13.825,4.033c3.673-0.729,6.134,1.748,8.658,3.857c-6.604,2.169-13.138,5.765-19.666-0.523
			c-2.065-1.989-4.672-0.475-6.899,0.663c-2.475,1.521-5.013,2.272-7.881,1.002c-2.565-1.136-5.149,0.126-7.729,0.162
			c-1.794,0.026-3.598,0.156-5.293-0.626c-1.9-2.301,0.263-3.493,1.459-4.757C91.991,11.751,96.058,10.463,100,9.001z"/>
		<path fill-rule="evenodd" clip-rule="evenodd" fill="#F3CBB9" d="M107.999,17.999c3.503-1.714,6.717-4.116,10.001,0.972
			c1.38,2.137,5.019,2.926,7.785,1.499c3.004-1.55,6.074-1.485,9.226-1.478c1.996,0.67,3.991,1.34,5.987,2.01
			c0.334,0.667,0.669,1.333,1.003,2c2.75,4.636-2.028,5.922-3.894,8.371c-1.681,2.207-3.37,0.505-5.099-0.579
			c-3.66-2.295-8.326,0.754-8.767,5.762c-0.143,1.625,0.246,3.293-0.596,4.836c-0.985,1.341-1.537,3.358-3.917,2.545
			c-1.802-3.652-0.793-7.831-2.254-11.626c-0.847-2.197,1.244-3.076,3.144-3.582c1.265-0.337,2.897-0.577,2.9-2.231
			c0.005-2.001-1.891-1.99-3.279-2.373c-0.799-0.221-1.688-0.572-2.446-0.372C112.553,25.133,109.798,22.409,107.999,17.999z"/>
		<path fill-rule="evenodd" clip-rule="evenodd" fill="#FDEDD4" d="M72.996,7.994c0.999-0.333,1.999-0.666,2.998-0.999
			c5.395,0.132,10.709-1.777,16.226-0.127c2.234,0.669,2.911,1.074,1.776,3.129c-1.126,2.599-3.55,3.396-5.917,4.278
			c-7.278,2.692-15.074,2.407-22.56,3.914c-1.542,0.311-3.084,0.292-3.813-1.455c-0.715-1.714,0.375-2.892,1.535-3.865
			C66.094,10.475,70.006,10.149,72.996,7.994z"/>
		<path fill-rule="evenodd" clip-rule="evenodd" fill="#F7D6C5" d="M88,12.999c2.397-0.206,3.805-2.386,5.997-3.002
			C96,9.679,97.884,8.641,100,9.001c-4.352,3.309-10.015,4.912-13.001,9.997C86.537,19.739,85.854,20.042,85,20
			c-4.263,1.734-8.569,3.372-12.767,5.251c-1.644,0.735-2.046,0.166-2.236-1.247c2.509-4.487,7.339-5.467,11.462-7.438
			C83.715,15.488,86.045,14.607,88,12.999z"/>
		<path fill-rule="evenodd" clip-rule="evenodd" fill="#EEBEAD" d="M88,97.007c-0.664-0.01-1.328-0.02-1.992-0.029
			c-1.17-1.224-4.72,0.184-3.759-3.401c1.861-1.193,4.135-0.763,6.099-1.564c2.161-0.438,4.334-0.426,6.515-0.209
			c4.246,0.859,8.68-1.378,12.85,0.759c1.105,1.774-0.455,2.283-1.448,3.064C100.465,99.862,94.138,97.184,88,97.007z"/>
		<path fill-rule="evenodd" clip-rule="evenodd" fill="#E9B19F" d="M88,97.007c1.124-1.428,2.788-1.21,4.152-0.947
			c4.743,0.916,9.354,0.911,13.846-1.068c0.562,1.105-0.443,1.48-0.97,2.079c-0.001,0.305-0.016,0.608-0.044,0.912
			c-2.994,0.674-5.987,1.348-8.981,2.021C93.593,98.314,89.997,99.794,88,97.007z"/>
		<path fill-rule="evenodd" clip-rule="evenodd" fill="#E9B49F" d="M81.987,94.01c1.34,0.989,2.68,1.979,4.021,2.968
			c-0.843,0.044-1.607,0.238-2.027,1.078c-2.214-1.029-4.45-1.981-6.94-2.098c-1.563-1.188-5.083-0.709-3.731-4.382
			C76.629,90.863,79.251,92.639,81.987,94.01z"/>
		<path fill-rule="evenodd" clip-rule="evenodd" fill="#D8A38E" d="M174.981,58.987c-0.318,1.019-0.637,2.038-0.955,3.058
			c-0.057,3.077-4.052,3.853-4.065,6.955c-3.347-2.227-3.939-6.158-5.78-9.321c-0.004-0.489,0.084-0.965,0.237-1.428
			c0.212-0.433,0.484-0.827,0.808-1.185C169.019,53.848,169.924,54.026,174.981,58.987z"/>
		<path fill-rule="evenodd" clip-rule="evenodd" fill="#E5B39F" d="M164.979,58.984c1.479,3.429,4.132,6.273,4.982,10.016
			c-0.032,1.282-0.063,2.564-0.097,3.846c-2.662,2.202-3.442-0.264-4.459-2.159c-0.753,1.618,0.027,3.311-1.248,4.439
			c-0.459-0.276-0.786-0.664-0.988-1.161c-0.267-0.738-0.377-1.506-0.412-2.286c-0.054-1.545,0.039-3.084,0.211-4.619
			C163.874,64.429,160.928,60.827,164.979,58.984z"/>
		<path fill-rule="evenodd" clip-rule="evenodd" fill="#E3B49E" d="M174.981,58.987c-1.639,0.124-2.745-1.013-3.749-1.933
			c-2.299-2.106-3.815-1.167-5.245,0.926c-1.959-3.15-1.179-7.564-4.643-10.023c-1.502-2.76-1.879-5.713-1.525-8.796
			c0.159-0.853,0.474-1.621,1.192-2.165c1.256,1.918,3.1,3.684,3.645,5.785c1.053,4.064,3.793,5.015,7.313,5.235
			c1.906,3.064,3.756,6.146,3.049,10.007C175.008,58.345,174.995,58.666,174.981,58.987z"/>
		<path fill-rule="evenodd" clip-rule="evenodd" fill="#EFC6B6" d="M85,20c0.432-0.802,1.177-0.979,1.999-1.002
			c3.395-0.155,6.823,0.421,10.175-0.791c0.968-0.35,2.635-0.354,3.27,0.242c2.807,2.636,5.113,0.722,7.556-0.45
			c1.286,0.091,3.421-0.164,3.256,1.401c-0.543,5.153,2.282,3.06,4.845,2.87c2.389-0.178,4.907,0.467,7.264,1.122
			c1.424,0.396,2.646,1.604,2.445,3.353c-0.188,1.647-1.47,3.07-2.892,3.017c-5.426-0.205-4.876,1.885-3.185,5.843
			c1.024,2.398,0.24,5.57,0.27,8.395c3.16,4.44,6.691,8.668,8.118,14.108c-4.319,1.101-5.851-3.577-9.224-4.44
			c-0.953-0.695-1.765-1.59-2.222-2.634c-1.753-4.011-4.72-6.102-9.123-6.111c-2.454-1.805-5.439-3.184-5.559-6.874
			c-1.263-7.709-4.961-10.66-12.747-10.063c-1.912,0.146-3.827-0.274-5.179-1.297c-2.034-1.537,1.132-2.631,0.893-4.217
			C84.838,21.667,84.978,20.824,85,20z"/>
		<path fill-rule="evenodd" clip-rule="evenodd" fill="#FCE7D1" d="M41.976,30.025c0.574,1.111,1.435,1.803,2.723,1.894
			c4.787,0.337,9.574,0.68,14.36,1.021c2.839-0.998,5.973,0.215,8.762-1.171c1.838-0.097,3.628,0.02,5.17,1.199
			c5.714-0.911,10.654,2.404,16.102,2.95c0.393-0.263,0.813-0.336,1.268-0.198c1.424,0.746,2.962,1.178,4.508,1.606
			c1.487,0.635,2.746,1.467,2.862,3.294c-1.535,4.853-5.719,4.224-9.405,4.421c-1.463,0.078-2.906-0.602-4.346-0.978
			c-9.604-2.681-19.198-5.057-29.336-2.957c-3.263,0.676-6.073-1.325-8.748-3.027c-1.669-1.063-3.155-2.501-5.362-2.246
			c-0.747,0.044-1.485-0.011-2.202-0.225c-1.404-0.819-2.858-1.514-4.528-1.609C25.95,34.262,22.17,29.041,19,23
			c0.951-0.655,1.902-1.31,2.853-1.964c0.771-0.539,1.366-0.111,1.958,0.345c4.224,4.812,10.714,4.352,15.942,6.831
			C40.682,28.586,41.513,29.082,41.976,30.025z"/>
		<path fill-rule="evenodd" clip-rule="evenodd" fill="#F9DECB" d="M88,12.999c-1.277,2.208-3.195,3.396-5.559,4.435
			c-4.284,1.881-8.31,4.348-12.443,6.57c-3.52,0.413-6.896-0.635-10.338-1.004c-3.437-0.369-3.787-2.139-2.198-4.775
			c3.544-5.882,8.665-9.39,15.535-10.23c-1.49,2.512-4.215,2.996-6.605,4.041c-1.994,0.872-4.548,2.145-3.796,4.38
			c0.782,2.326,3.066,0.186,4.687-0.013C74.234,15.551,81.316,15.488,88,12.999z"/>
		<path fill-rule="evenodd" clip-rule="evenodd" fill="#ECC6BD" d="M66.01,31.012c-0.166-0.002-0.337-0.031-0.497-0.002
			c-6.09,1.088-10.613-0.619-12.516-7.007c6.591,0.799,13.417,0.991,18.012,6.957C69.357,32.373,67.689,32.209,66.01,31.012z"/>
		<path fill-rule="evenodd" clip-rule="evenodd" fill="#E2A991" d="M97.044,39.955c-1.029-0.641-2.058-1.282-3.087-1.923
			c-1.231-0.848-2.85-0.94-3.961-2.024c-0.301-0.028-0.603-0.058-0.902-0.089c-0.191-2.113,0.253-3.15,2.691-2.045
			c3.345,1.518,6.8,2.793,10.208,4.173c1.658,2.326,3.616,4.351,5.98,5.969c0.823,1.389,1.979,2.675,1.399,4.496
			c-1.565,0.305-1.546,2.929-3.633,2.491c-1.069-1.22-0.756-2.964-1.639-4.249C102.193,44.023,98.35,43.302,97.044,39.955z"/>
		<path fill-rule="evenodd" clip-rule="evenodd" fill="#EEBDA9" d="M72.992,32.968c-1.665,0.003-3.33,0.005-4.996,0.008
			c0.311-2.724,3.015-0.583,3.987-1.962c2.918,0,5.837,0,9.624,0C78.413,33.006,75.219,30.786,72.992,32.968z"/>
		<path fill-rule="evenodd" clip-rule="evenodd" fill="#E1AA97" d="M71.984,31.014c-0.858,1.611-3.116,0.378-3.987,1.962
			c-2.979-0.012-5.959-0.023-8.938-0.035c1.892-2.178,5.065,0.269,6.951-1.929c1.667-0.017,3.333-0.034,5-0.052
			C71.334,30.984,71.659,31.002,71.984,31.014z"/>
		<path fill-rule="evenodd" clip-rule="evenodd" fill="#EEBEAC" d="M20.926,16.062c3.615,1.948,6.23,6.114,11.248,4.959
			c1.552-0.358,1.124,2.414,2.845,2.009c0.961,2.584-0.815,2.7-2.559,2.845c-2.81-1.195-6.493-0.28-8.477-3.487
			C23.722,19.913,19.669,19.271,20.926,16.062z"/>
		<path fill-rule="evenodd" clip-rule="evenodd" fill="#D8AEA4" d="M45.956,21.956c1.652,1.489,3.325,2.957,4.951,4.476
			c1.58,1.476,3.063,3.003,0.029,4.531c-0.685-0.652-1.548-0.413-2.354-0.481c-5.522-0.465-6.254-1.789-3.82-6.895
			c0.06-0.226,0.122-0.45,0.183-0.675C45.282,22.593,45.619,22.274,45.956,21.956z"/>
		<path fill-rule="evenodd" clip-rule="evenodd" fill="#E3AC96" d="M32,25c1.437,0.002,2.905,0.052,3.02-1.971
			c3.309-0.038,6.618-0.077,9.926-0.117c0,0,0.071,0.156,0.071,0.156c-0.49,2.13-1.775,3.653-3.622,4.756
			C37.907,28.067,34.549,27.875,32,25z"/>
		<path fill-rule="evenodd" clip-rule="evenodd" fill="#D4927B" d="M20.926,16.062c0.032,2.523,3.07,3.426,3.182,5.906
			c-0.307,0.407-0.627,0.418-0.961,0.031c-0.431-0.321-0.861-0.643-1.292-0.964c-1.658-1.975-3.316-3.949-4.973-5.924
			c-0.094-1.841,0.819-1.752,2.044-1.067C19.592,14.717,20.259,15.39,20.926,16.062z"/>
		<path fill-rule="evenodd" clip-rule="evenodd" fill="#DDA48F" d="M18.925,14.044c-0.869-0.004-1.617,0.222-2.043,1.067
			c-1-1.702-1.999-3.405-2.998-5.107C16.886,9.698,17.462,12.425,18.925,14.044z"/>
		<path fill-rule="evenodd" clip-rule="evenodd" fill="#F9DCCA" d="M19,23c4.111,4.669,7.635,10.217,15,10.01
			c0.221,1.077-0.504,1.498-1.296,1.876c-3.519,0.966-6.646-0.03-9.589-1.933c-0.385-0.308-0.77-0.615-1.155-0.922
			c-0.327-0.67-0.654-1.339-0.981-2.009c0.099-1.728-0.084-3.308-2.066-3.945c-0.311-0.349-0.621-0.697-0.93-1.046
			c0.006-0.677,0.013-1.354,0.019-2.031C18.334,23,18.667,23,19,23z"/>
		<path fill-rule="evenodd" clip-rule="evenodd" fill="#D89A7E" d="M68.025,91.98c-0.202,1.727-1.082,2.09-2.734,1.657
			c-7.676-2.012-7.685-1.978-13.292,0.357c-0.566-0.893-0.171-1.902-0.351-2.847c-0.901-4.72-0.596-5.036,4.445-4.75
			c5.292,2.643,5.273,2.632,8.298-2.546c0.866-1.482,1.395-3.538,3.891-2.851c0.668,0.81,0.84,1.78,0.943,2.78
			c0.059,0.509,0.074,1.018,0.07,1.528c-0.029,1.542,0.047,3.088-0.183,4.624C68.958,90.727,68.529,91.374,68.025,91.98z"/>
		<path fill-rule="evenodd" clip-rule="evenodd" fill="#DAA088" d="M55.99,87.005c-1.908,0.427-6.636-1.28-2.564,3.605
			c1.043,1.25-1.137,2.147-1.427,3.385c-1.328-0.016-2.657-0.031-3.985-0.048c-0.93-1.516-3.134-0.368-4.04-1.934
			c3.941-2.035,4.391-4.613,1.344-7.889c-0.651-0.7-0.942-1.743-1.095-2.752c0.19-3.895,2.473-3.15,4.858-2.202
			c1.685,1.296,3.875,1.722,5.496,3.089C56.031,83.485,56.792,85.046,55.99,87.005z"/>
		<path fill-rule="evenodd" clip-rule="evenodd" fill="#C06B44" d="M68.025,91.98c-0.002-0.668-0.005-1.337-0.007-2.005
			c0.838-1.59,0.676-3.204,0.118-4.828c-0.02-0.37-0.041-0.74-0.061-1.111c0.334-0.356,0.746-0.541,1.234-0.556
			c0.472,0.098,0.865,0.326,1.17,0.702c0.701,1.278,0.648,2.676,0.645,4.067c0,0.455-0.05,0.907-0.124,1.357
			c-0.084,0.447-0.232,0.875-0.428,1.287c-0.371,0.605-0.882,1.016-1.602,1.128C68.655,92.011,68.34,91.996,68.025,91.98z"/>
		<path fill-rule="evenodd" clip-rule="evenodd" fill="#B5542D" d="M68.97,92.022c0.291-0.321,0.582-0.643,0.872-0.965
			c1.537,0.838,2.601,1.949,2.237,3.882c-0.39,0.372-0.779,0.744-1.169,1.116C69.767,94.949,69.172,93.58,68.97,92.022z"/>
		<path fill-rule="evenodd" clip-rule="evenodd" fill="#D09B8B" d="M41.986,26.949c0.573-1.635,1.805-2.757,3.03-3.882
			c0.021,5.735,0.021,5.735,5.921,7.896c-3.078,0.549-5.961-0.747-8.961-0.938c-0.732-0.294-1.465-0.587-2.197-0.881
			C40.106,28.002,41.411,27.843,41.986,26.949z"/>
		<path fill-rule="evenodd" clip-rule="evenodd" fill="#EECFBD" d="M14.003,62.988c-0.336-0.998-0.671-1.997-1.007-2.995
			c1.313-1.56,3.574-0.746,5.01-1.999c2.366-1.834,5.277-0.534,7.817-1.37c3.236,0.278,5.619,3.712,9.265,2.49
			c0.709-0.03,1.402,0.058,2.088,0.236c1.137,0.367,2.316,0.665,3.05,1.736c-0.245,2.765-2.247,2.815-4.314,2.813
			c-1.561-0.001-3.144-1.098-5.039,0.249c3.579,2.853,7.595-0.549,10.987,1.136c1.507,0.784,3.122,1.385,4.399,2.563
			c0.372,0.691,0.399,1.396,0.081,2.112c-1.381,1.375-3.037,1.236-4.485,0.397c-1.884-1.091-3.742-0.749-5.667-0.457
			c-4.416-1.036-9.517,0.608-13.259-2.662c-2.128-1.86-4.453-2.526-6.934-3.225C15.172,63.979,14.435,63.779,14.003,62.988z"/>
		<path fill-rule="evenodd" clip-rule="evenodd" fill="#EAC5B9" d="M15.949,77.068c-0.654-1.018-1.308-2.035-1.962-3.053
			c-1.245-1.211-2.286-2.552-1.438-4.381c0.811-1.751,2.667-1.242,3.999-1.314c5.03-0.271,9.812,0.232,13.336,4.69
			c1.609,2.037,2.415,3.581-0.098,5.32c-0.719,0.398-1.5,0.583-2.315,0.616c-2.228-0.279-4.467,0.183-6.704-0.022
			c-1.731-0.297-3.272-1.089-4.819-1.865L15.949,77.068z"/>
		<path fill-rule="evenodd" clip-rule="evenodd" fill="#E9B9A8" d="M29,77.999c0.32-1.01,2.249-1.172,1.443-2.785
			c-1.906-3.818-11.38-7.558-15.675-6.127c-3.354,1.116-0.391,3.304-0.782,4.929c-2.947,0.275-4.696-1.513-4.537-4.01
			c0.176-2.754,2.522-2.283,4.849-2.357c2.241-0.07,4.486,0.484,6.98,0.209c-0.788-2.953-4.026-2.052-5.284-3.844
			c2.522-0.186,4.67,0.246,6.798,2.031c2.457,2.063,5.758,2.004,8.927,2.024c1.764,0.012,3.523,0.611,5.284,0.945
			c-0.479,3.241-3.417,2.239-5.119,2.992c0.755,3.218,4.276,5.519,2.851,9.425C31.728,82.113,29.627,81.285,29,77.999z"/>
		<path fill-rule="evenodd" clip-rule="evenodd" fill="#ECD8CB" d="M26.017,56.981c-2.3,3.265-5.44-0.109-8.011,1.013
			c0.644-1.341,1.652-2.321,2.964-3.002c1.336,1.029,2.678-0.472,4.016,0.01C26.718,54.938,26.608,55.834,26.017,56.981z"/>
		<path fill-rule="evenodd" clip-rule="evenodd" fill="#DEA791" d="M45.007,81.997c0.64,0.934,1.295,1.856,1.917,2.801
			c3.53,5.367,3.527,5.368-2.949,7.216c-6.971,0.086-11.845-4.326-17.083-7.96c4.108-2.381,7.186,1.462,10.843,1.782
			c2.162,0.569,4.097,1.867,6.514,2.075c-1.545-0.987-1.237-2.329-0.995-3.661C43.585,83.302,44.076,82.477,45.007,81.997z"/>
		<path fill-rule="evenodd" clip-rule="evenodd" fill="#E2AB92" d="M38.004,86.998c-3.971,0.029-7.05-3.306-11.11-2.944
			c-0.629-0.024-1.257-0.05-1.886-0.074c-1.504-1.271-2.902-2.721-5.01-2.975c-1.585-1.074-3.143-2.177-4.051-3.946
			c1.777-0.19,3.479,0.02,5.045,0.951c2.072,0.975,4.25,1.494,6.547,1.512C31.359,81.548,36.531,81.689,38.004,86.998z"/>
		<path fill-rule="evenodd" clip-rule="evenodd" fill="#F3CCC0" d="M46.063,68.037c-1.714,0.039-3.296-0.186-4.063-2.036
			c0.575-1.725,2.076-2.084,3.553-2.109c6.405-0.108,8.946-4.668,11.226-9.561c0.661-1.418,0.872-3.007-0.104-4.229
			c-1.155-1.447-2.302,0.594-3.54,0.396c-2.149-0.094-4.221-0.797-6.389-0.779c-1.653,0.014-3.037-0.776-3.52-2.284
			c-1.439-4.497-4.809-5.977-9.08-6.295c-0.844-0.063-1.544-0.55-2.154-1.136c-3.732-1.377-6.64-3.793-8.878-7.051
			c3.33-0.002,6.486,1.61,9.875,1.057c1.468,1.361,3.584-0.568,5.014,0.987c0.667-0.001,1.333-0.002,2-0.002
			c4.879,4.796,9.93,9.005,17.509,5.946c4.29-1.731,7.753-0.165,10.731,2.996c-0.142,3.396-0.115,6.803-0.672,10.174
			c-3.745,2.964-4.974,7.914-9.123,10.798c-3.264,2.269-6.424,3.789-10.29,4.063C47.351,68.902,46.671,68.548,46.063,68.037z"/>
		<path fill-rule="evenodd" clip-rule="evenodd" fill="#ECBDAB" d="M31.993,40.004c5.323,0.011,10.623,0.013,12.135,6.845
			c0.327,1.479,1.27,1.989,2.947,1.7c2.075-0.358,4.153,0.074,5.907,1.438c-0.459,2.803-2.406,4.39-4.664,5.729
			c-2.057,1.211-3.35-0.221-4.721-1.374c-1.241-1.044-2.016-2.605-3.624-3.237c-0.822-0.421-1.592-0.91-2.125-1.693
			c-0.208-0.435-0.202-0.868,0.017-1.299c0.516-2.291-0.639-3.559-2.574-4.522C33.783,42.838,31.85,42.334,31.993,40.004z"/>
		<path fill-rule="evenodd" clip-rule="evenodd" fill="#A5301D" d="M37.865,48.111c0.099,0.274,0.188,0.552,0.268,0.832
			c0.107,1.2,0.213,2.399-1.392,2.729c-1.325,0.07-2.337-0.337-2.679-1.762c1.757-1.342-1.567-2.713,0.023-4.058
			C35.346,46.605,36.605,47.358,37.865,48.111z"/>
		<path fill-rule="evenodd" clip-rule="evenodd" fill="#D5B5B5" d="M26.017,56.981c-0.028-0.824-0.226-1.561-1.032-1.979
			c-0.445-0.622-1.407-1.537-1.249-1.818c0.966-1.711,2.754-1.058,4.276-1.16c0.484,0.212-0.79,1.61,0.888,1.152
			c1.316-0.358,2.789-0.384,4.068,0.446c0.124,2.296,1.129,4.315,2.023,6.37C31.007,61.953,28.746,58.769,26.017,56.981z"/>
		<path fill-rule="evenodd" clip-rule="evenodd" fill="#BB7E6F" d="M32.936,54.085c-1.608-0.037-3.239,0.08-4.82-0.147
			c-2.715-0.391,0.018-1.27-0.103-1.915c1.573-0.721,4.188,1.243,4.829-1.874c0.406-0.079,0.813-0.158,1.221-0.237
			c0.958,0.374,1.916,0.748,2.874,1.123c0.66,1.363,1.734,2.635,0.954,4.319c-0.601,0.429-1.276,0.592-2.005,0.593
			C34.494,55.971,33.691,55.065,32.936,54.085z"/>
		<path fill-rule="evenodd" clip-rule="evenodd" fill="#DB9980" d="M72.079,94.939c-0.745-1.294-1.49-2.588-2.236-3.882
			c0.075-0.365,0.151-0.73,0.227-1.096c1.75-0.403,2.474,0.617,2.883,2.076c0.788,1.906,2.818,2.518,4.088,3.92
			c-1.416-0.292-2.832-0.585-4.25-0.876C72.54,95.099,72.303,95.052,72.079,94.939z"/>
		<path fill-rule="evenodd" clip-rule="evenodd" fill="#F5D6C8" d="M163.883,73.96c0.091,0.389,0.183,0.777,0.274,1.166
			c0.057,2.389-1.476,3.669-3.308,4.74c-1.241-1.387-1.285-1.413-2.408,0.418c-1.073,1.753-2.797,2.669-4.443,3.703
			c-0.282,0.062-0.566,0.092-0.854,0.092c-4.522,0.766-3.957-2.791-3.726-5.062c0.408-4.014-0.317-7.534-2.55-10.814
			c-0.184-0.516-0.117-1.002,0.188-1.454c2.764-1.615,5.092-0.294,6.516,1.771c2.174,3.154,4.69,4.925,8.592,4.51
			C162.818,72.961,163.365,73.539,163.883,73.96z"/>
		<path fill-rule="evenodd" clip-rule="evenodd" fill="#CA978B" d="M148.993,89.977c-5.276,0.75-6.992-0.482-7.1-5.098
			c-1.015-2.232,1.673-4.152,0.56-6.173c-0.078-0.886-1.157-0.24-0.494-0.313c0.114-0.013,0.165,0.034,0.188,0.133
			c0.336,1.447,1.221,3.068-1.169,3.645c-1.051-0.956-1.145-2.266-1.328-3.544c-0.007-2.311-1.458-4.361-1.236-6.717
			c0.117-0.537,0.423-0.928,0.912-1.176c5.846,0.913,6.424,5.571,6.827,10.055c0.272,3.033,0.388,5.949,2.817,8.163
			C148.978,89.294,148.985,89.636,148.993,89.977z"/>
		<path fill-rule="evenodd" clip-rule="evenodd" fill="#DFB0A1" d="M148.97,88.952c-3.784-0.482-4.042-3.188-3.986-6.188
			c0.091-4.957-0.691-9.518-5.973-11.769c-1.226,0.02-1.367-0.55-0.814-1.5c3.269-2.552,6.325-1.741,9.289,0.584
			c1.455,3.178,0.928,6.484,0.636,9.773c-1.457,2.927-0.154,5.552,0.921,8.202C149.035,88.355,149.011,88.654,148.97,88.952z"/>
		<path fill-rule="evenodd" clip-rule="evenodd" fill="#EFCCBD" d="M146.984,80.993c-0.006-3.66-0.013-7.321-0.019-10.981
			c-0.51-0.44-0.583-0.983-0.373-1.592c0.138-0.143,0.275-0.284,0.414-0.427c4.462,2.182,4.347,6.173,3.736,10.128
			c-0.405,2.628-0.724,4.895,2.399,5.958c-0.383,0.637-0.768,1.273-1.151,1.911C147.674,86.979,147.063,84.252,146.984,80.993z"/>
		<path fill-rule="evenodd" clip-rule="evenodd" fill="#E0BDB4" d="M146.984,80.993c1.605,1.729,1.854,4.817,5.007,4.997
			c-0.427,1.482-1.588,1.916-2.949,2.064C146.166,86.34,144.88,84.161,146.984,80.993z"/>
		<path fill-rule="evenodd" clip-rule="evenodd" fill="#EEC3AE" d="M153.998,83.987c1.319-1.637,2.837-3.153,3.918-4.935
			c2.182-3.596,1.908,0.782,2.935,0.815C159.47,82.743,157.142,84.044,153.998,83.987z"/>
		<path fill-rule="evenodd" clip-rule="evenodd" fill="#93312A" d="M133.004,90.019c-0.402-0.38-0.805-0.76-1.207-1.14
			c0.235-2.314,2.507-2.491,3.832-3.668c1.039-0.643,2.117-1.135,3.389-0.853c0.715,0.298,1.257,0.705,0.993,1.607
			C137.675,87.317,135.34,88.668,133.004,90.019z"/>
		<path fill-rule="evenodd" clip-rule="evenodd" fill="#AA5740" d="M140.011,85.966c-0.368-0.339-0.736-0.678-1.104-1.017
			c-0.344-1.744,0.649-2.509,2.134-2.914c1.524-0.956,0.339-2.765,1.362-4.112c1.729,2.558-0.03,4.722-0.508,6.957
			C141.267,85.241,140.639,85.604,140.011,85.966z"/>
		<path fill-rule="evenodd" clip-rule="evenodd" fill="#E6AD98" d="M105.027,97.07c0.323-0.692,0.646-1.386,0.97-2.078
			c0.667-0.664,1.335-1.328,2.003-1.992c0.51-2.266,2.433-3.083,4.229-3.854c2.924-1.254,5.584-2.894,8.077-4.838
			c1.504-1.131,2.953-2.354,4.78-2.965c0.7-0.188,1.4-0.196,2.102-0.002c2.675,1.671,1.378,3.463,0.206,5.315
			c-0.881,1.394-3.169,2.056-2.329,4.367c-0.295,0.941-1.078,1.045-1.89,1.101C116.625,91.935,110.874,94.677,105.027,97.07z"/>
		<path fill-rule="evenodd" clip-rule="evenodd" fill="#EDC1B1" d="M125.064,91.024c-2.405,0.062-2.999-0.344-1.167-2.556
			c1.497-1.809,5.517-2.709,3.103-6.47c1.223-3.606,4.127-3.388,6.709-2.396c2.317,0.89,2.079,2.848,0.811,4.897
			c-0.788,1.271,1.337,0.623,1.494,1.504c-1.405,0.958-2.812,1.916-4.217,2.874C129.553,89.594,127.309,90.31,125.064,91.024z"/>
		<path fill-rule="evenodd" clip-rule="evenodd" fill="#F4CDBF" d="M160.982,39.01c-0.404,3.079,0.744,5.984,1.006,8.988
			c-2.242,1.923-4.193,0.432-6.19-0.519c-1.537-0.413-2.626-1.843-4.412-1.954c-1.508,1.782,1.528,4.014-0.51,5.708
			c-3.466-0.325-4.725-2.942-5.258-5.72c-1.516-7.9-8.495-9.23-14.163-12.115c-1.616-0.822-2.717,0.106-3.436,1.765
			c-2.201,5.082-2.528,9.805,1.624,14.222c1.432,1.522,3.949,2.946,2.293,5.825C125.501,53.203,121.914,47.495,123,41
			c-0.659-4.102,0.17-7.653,3.195-10.771c2.221-2.289,4.279-2.682,7.055-1.163c1.257,0.688,2.403,3.495,3.196,2.269
			c1.578-2.439,5.119-3.068,5.513-6.343c0.079-0.655,0.031-1.326,0.042-1.989c0.772,0.607,1.466,1.391,2.335,1.787
			c1.858,0.847,1.332,5.069,4.948,3.395c3.161-1.464,4.211-3.916,3.733-7.212c0.319,0.023,0.638,0.043,0.958,0.061
			c1.465,3.69,0.753,7.023-2.656,10.683C158.049,30.624,158.867,35.528,160.982,39.01z"/>
		<path fill-rule="evenodd" clip-rule="evenodd" fill="#F0C3AE" d="M160.982,39.01c-1.737-0.831-2.724-2.317-3.479-4
			c-0.804-1.789-1.562-3.344-3.889-1.46c-1.063,0.86-2.176,0.243-2.787-0.999c-0.504-1.027-1.385-2.471-0.079-3.055
			c4.059-1.816,3.116-5.289,3.227-8.464c1.5,5.693,4.734,10.623,7.036,15.964C161.002,37.667,160.992,38.338,160.982,39.01z"/>
		<path fill-rule="evenodd" clip-rule="evenodd" fill="#EFCCBD" d="M123,41c1.021,5.937,3.501,10.936,8.993,14.001
			c1.206-0.242,2.387-0.145,3.549,0.254c3.206,2.008,7.086,3.002,9.471,6.253c1.199,1.635,2.128,3.373,1.983,5.496
			c0,0.33,0.004,0.66,0.011,0.989l-0.034,0.034c-1.539,1.433-3.206,0.673-4.649,0.015c-4.789-2.182-8.912-5.553-13.657-7.848
			c-0.712-0.345-1.001-1.285-0.673-2.188c-3.073-4.436-6.528-8.654-7.992-14.008C121.001,42.999,122,41.999,123,41z"/>
		<path fill-rule="evenodd" clip-rule="evenodd" fill="#F9DBC9" d="M94.998,92.995c-2.333,0.003-4.666,0.007-6.999,0.01
			c-5.053-0.507-11.068,2.126-14.291-4.375c0.012-0.563,0.26-0.986,0.739-1.281c4.529-2.539,8.707,0.492,13.062,0.807
			c2.948,0.704,5.845,0.475,8.815-0.071c2.672-0.491,5.575-1.347,7.829,1.246C101.964,92.705,98.095,91.885,94.998,92.995z"/>
		<path fill-rule="evenodd" clip-rule="evenodd" fill="#F4CBBE" d="M94.998,92.995c2.804-1.596,5.598-3.22,9.005-3.007
			c3.944-1.951,8.443-2.586,12.044-5.447c1.408-1.119,3.462-1.046,4.995,0.492c-3.554,3.955-9.081,4.68-13.042,7.967
			C103.666,92.998,99.332,92.997,94.998,92.995z"/>
		<path fill-rule="evenodd" clip-rule="evenodd" fill="#F0C3B2" d="M73.969,88.023c1.835,3.209,4.592,5.044,8.158,3.671
			c2.573-0.991,3.688,2.083,5.872,1.311c-1.757,1.812-4.009,0.661-6.012,1.005c-3.385,1.055-5.829-2.205-9.035-1.973
			c-0.961-0.691-1.923-1.383-2.884-2.075c0.014-0.343,0.028-0.686,0.042-1.028C70.984,86.88,71.878,84.914,73.969,88.023z"/>
		<path fill-rule="evenodd" clip-rule="evenodd" fill="#F3CBB7" d="M151,50.999c0.275-2.521-3.78-4.858-0.909-7.196
			c2.367-1.927,3.412,2.728,5.915,2.202c1.429,3.028,4.311,4.769,6.383,7.225c1.191,1.411,3.181,2.417,2.633,4.794
			c-0.01,0.32-0.024,0.641-0.042,0.961c-2.696,2.38,0.67,5.504-0.983,8.013c-1.15-0.121-2.023-0.822-2.954-1.41
			c-0.953-0.683-1.63-1.572-2.009-2.685c-0.489-2.368-2.072-3.849-3.877-5.337C153.117,55.883,150.762,54.205,151,50.999z"/>
		<path fill-rule="evenodd" clip-rule="evenodd" fill="#EDBEAA" d="M165.021,58.023c-2.261-2.428-4.474-4.903-6.801-7.267
			c-1.333-1.353-2.501-2.688-2.215-4.752c1.771,1.335,3.627,2.416,5.983,1.993c5.471,1.67,3.611,6.276,3.998,9.983
			C165.665,57.992,165.344,58.006,165.021,58.023z"/>
		<path fill-rule="evenodd" clip-rule="evenodd" fill="#FCE5D2" d="M159.993,63.005c0.664,0.67,1.329,1.34,1.993,2.011
			c2.105,1.922,1.02,4.721,1.915,6.976c-0.006,0.656-0.011,1.313-0.018,1.97c-0.834,0.013-1.679-0.06-2.497,0.055
			c-3.379,0.47-6.39,1.038-7.789-3.645c-0.724-2.422-3.53-3.92-6.602-3.367c-2.071-5.768-7.373-8.016-11.994-11.006
			c-1.003-1.129-1.244-2.464-1.076-3.914c0.264-1.462,0.598-2.909,0.744-4.401c0.158-1.622,0.149-3.495,2.055-4.186
			c2.158-0.782,3.86,0.357,5.356,1.759c1.209,1.132,2.072,2.587,3.295,3.711c1.798,1.751,2.594,4.197,4.165,6.097
			c1.896,2.293,3.858,4.6,7.163,4.79C158.742,59.971,159.337,61.496,159.993,63.005z"/>
		<path fill-rule="evenodd" clip-rule="evenodd" fill="#F5D6C8" d="M163.901,71.991c-0.639-2.325-1.276-4.65-1.915-6.976
			c0.968,0.358,1.623,1.034,2.01,1.981C163.965,68.662,163.933,70.326,163.901,71.991z"/>
		<path fill-rule="evenodd" clip-rule="evenodd" fill="#E0BAAA" d="M127.993,58.007c6.523,2.966,11.264,9.313,18.979,10.021
			c-0.002,0.661-0.004,1.322-0.007,1.984c-3.001-0.314-6.002-1.683-9.001,0.01c-0.855,0.816-1.868,0.911-2.96,0.65
			c-2.071-1.117-4.24-1.448-6.566-0.937c-1.739,0.383-3.515,0.735-5.191-0.296c-1.294-2.012,0.362-3.174,1.291-4.528
			c0.324-0.428,1.993-0.652,0.257-1.438c-1.831-0.829-3.965-0.82-5.73-1.665c-2.856-1.367-6.566-2.35-5.342-6.962
			c1.571-1.153,3.123-2.361,5.276-1.85C122.963,52.933,124.36,57.477,127.993,58.007z"/>
		<path fill-rule="evenodd" clip-rule="evenodd" fill="#E9BDAB" d="M118.999,52.996c-1.571,0.917-2.909,2.413-5.01,2.013
			c-0.533,0.555-1.179,0.654-1.896,0.474c-2.181-1.319-2.914-3.428-3.159-5.803c0.021-0.227,0.045-0.454,0.07-0.682
			c-0.344-1.661-0.687-3.322-1.03-4.983C115.133,42.731,116.408,48.671,118.999,52.996z"/>
		<path fill-rule="evenodd" clip-rule="evenodd" fill="#F8DAC8" d="M67.997,43.998c-5.117-3.122-10.193-2.312-15.559-0.399
			c-3.273,1.166-12.241-5.471-12.437-8.604c2.066-1.514,3.278-1.117,5.327,0.803c3.176,2.978,6.938,4.885,12.12,3.756
			c6.456-1.406,13.306-1.446,19.515,1.554c2.328,1.125,5.075-0.066,7.045,1.871c-1.253,1.494-3.184,1.188-4.767,1.81
			C75.392,46.01,71.787,43.714,67.997,43.998z"/>
		<path fill-rule="evenodd" clip-rule="evenodd" fill="#F5D7BA" d="M78.986,43.983c1.412-1.644,3.335-0.733,5.022-1.005
			c3.308,0.566,6.526,1.46,9.966,0.128c1.71-0.663,2.907-1.243,3.068-3.15c2.543,2.146,5.959,3.152,7.924,6.057
			c1.046,2.52,0.468,4.174-2.439,4.588c-6.377-3.123-13.187-3.994-20.199-3.813C80.901,46.227,79.479,45.656,78.986,43.983z"/>
		<path fill-rule="evenodd" clip-rule="evenodd" fill="#D5947A" d="M41.986,26.949c0.015,1.484-0.918,2.017-2.206,2.194
			c-5.633-2.177-12.613-1.22-16.635-7.145c0.321-0.003,0.641-0.013,0.961-0.031C26.229,24.304,29.519,23.6,32,25
			C35.189,26.362,38.494,27.138,41.986,26.949z"/>
		<path fill-rule="evenodd" clip-rule="evenodd" fill="#F8DAC8" d="M38.002,34.997c-1.646-0.455-4.057,2.971-5.014-0.987
			c0.337-0.333,0.674-0.667,1.012-1C35.578,33.182,37.667,32.324,38.002,34.997z"/>
		<path fill-rule="evenodd" clip-rule="evenodd" fill="#F3CDBE" d="M89.996,36.008c1.597,0.134,2.967,0.713,3.961,2.024
			C92.271,38.072,90.734,37.82,89.996,36.008z"/>
		<path fill-rule="evenodd" clip-rule="evenodd" fill="#EAB9A1" d="M102.018,49.968c2.614-0.102,3.072-1.812,2.949-3.955
			c1.723,1.378,0.771,3.317,1.049,4.998c0.321,0.321,0.414,0.703,0.313,1.14c-0.743,1.492-2.087,2.597-2.694,4.179
			c-0.789,1.999-1.659,3.953-2.983,5.674c-0.278,0.363-0.594,0.686-0.935,0.988c-1.467,1.041-2.347,2.677-3.84,3.701
			c-3.911,2.683-5.621,2.09-7.334-2.609c-0.006-1.04,0.48-1.815,1.298-2.412c5.72-2.295,6.563-3.683,5.719-9.527
			c-0.123-0.854-0.065-1.631,0.484-2.333C98.079,48.298,100.057,48.821,102.018,49.968z"/>
		<path fill-rule="evenodd" clip-rule="evenodd" fill="#D39882" d="M105.988,51.99c0.007-0.327,0.016-0.653,0.027-0.979
			c1.236-0.314,0.554-3.476,2.988-2.013h-0.001c0.656,3.09,1.487,6.136,2.383,9.167c0.087,0.505,0.044,0.998-0.117,1.483
			c-2.32,1.622-4.599,1.351-6.854-0.159C103.726,56.734,104.745,54.339,105.988,51.99z"/>
		<path fill-rule="evenodd" clip-rule="evenodd" fill="#E4AE95" d="M55.99,87.005c-0.088-4.568-5.144-4.182-6.986-7.001
			c0.366-0.84,1.086-1.543,1.905-1.229c3.716,1.429,6.772-0.514,9.976-1.755c2.15-0.311,3.591-1.575,4.676-3.384
			c1.321-2.201,2.936-4.461,5.766-4.029c3.157,0.482,1.97,3.782,2.916,5.739c0.156,0.438,0.218,0.89,0.202,1.354
			c-0.109,0.453-0.309,0.863-0.585,1.236c-0.299,0.348-0.644,0.647-1.017,0.914c-1.557,0.846-2.882,2.233-4.858,2.133
			c-1.854,0.873-2.251,2.71-2.966,4.371C62.947,90.17,60.22,90.65,55.99,87.005z"/>
		<path fill-rule="evenodd" clip-rule="evenodd" fill="#B26C66" d="M67.985,80.983c1.482-1.294,2.845-2.783,4.952-3.067
			c0.549,3.253-2.366,4.227-3.984,6.054c-0.294,0.016-0.587,0.037-0.879,0.066C68.045,83.019,68.015,82.001,67.985,80.983z"/>
		<path fill-rule="evenodd" clip-rule="evenodd" fill="#AA4219" d="M68.135,85.147c1.19,1.64,1.25,3.251-0.118,4.828
			C68.057,88.366,68.096,86.757,68.135,85.147z"/>
		<path fill-rule="evenodd" clip-rule="evenodd" fill="#DDB3A0" d="M60.998,77.996c-3.577,3.187-7.824,2.362-11.994,2.008
			c-1.719-0.111-4.367-2.085-3.997,1.993c-0.03,0.822-0.202,1.573-1.013,1.999C40.48,84.546,36.944,85.162,35,81
			c-2.271-3.355-2.765-7.828-8.077-10.644c4.481,0.037,7.651,1.189,10.08-1.342c1.456-0.975,2.821-2.3,4.47-0.143
			c1.134,1.483,2.941,1.063,4.535,1.139c4.523,2.924,9.457,4.282,14.854,3.876C64.671,75.131,63.109,76.555,60.998,77.996z"/>
		<path fill-rule="evenodd" clip-rule="evenodd" fill="#F9DBC9" d="M73.969,88.023c-1.673-1.335-2.795-0.334-3.859,0.91
			c-0.04-1.649-0.079-3.299-0.118-4.948c-0.277-1.12,0.566-1.473,1.298-1.905c7.857-2.277,16.243-0.73,24.059-3.322
			c1.115-0.039,2.202,0.085,3.209,0.617c1.471,1.61,1.312,3.302,0.24,5.038c-1.984,1.219-3.984,0.128-5.978,0.045
			c-6.627-0.732-12.707,1.453-18.808,3.529L73.969,88.023z"/>
		<path fill-rule="evenodd" clip-rule="evenodd" fill="#AD594B" d="M71.126,83.044c-0.378,0.313-0.756,0.628-1.134,0.941
			c-0.346-0.005-0.691-0.01-1.038-0.016c0.083-2.838,3.267-3.633,3.984-6.054c0,0,0,0.018,0,0.018
			c3.436-1.516,6.762-3.442,10.758-2.862c1.791,0.609,3.693,0.529,5.531,0.864c1.027,0.386,2.146,0.701,1.85,2.198
			c-2.146,1.738-4.757,0.959-7.159,1.327C79.51,80.136,75.14,80.954,71.126,83.044z"/>
		<path fill-rule="evenodd" clip-rule="evenodd" fill="#FADECC" d="M48.025,54.966c1.652-1.659,3.304-3.319,4.957-4.979
			c1.692-0.108,2.499-3.718,4.294-1.747c1.524,1.673,1.826,4.107,0.808,6.849C55.246,62.732,49.334,65.282,42,66.001
			c-2.282,0.05-4.556-0.166-6.799,0.719c-0.98,0.386-2.388,0.383-3.347-0.032c-1.601-0.691-3.659-1.8-3.206-3.761
			c0.399-1.725,2.545-0.794,3.913-0.882c2.523-0.162,5.406,2.645,7.491-0.969c0.814-1.201,2.256-1.163,3.389-1.734
			c0.371-0.209,0.746-0.407,1.107-0.627C45.889,57.632,47.078,56.411,48.025,54.966z"/>
		<path fill-rule="evenodd" clip-rule="evenodd" fill="#D8B6AB" d="M60.998,75.001c-5.583,0.096-11.394,0.879-14.99-4.991
			c0.018-0.657,0.036-1.315,0.055-1.974c0.643-0.007,1.285-0.015,1.927-0.021c3.579,0.655,6.883-0.774,10.279-1.421
			c2.081-0.396,4.097-1.278,6.027,0.352C65.086,70.405,63.122,72.736,60.998,75.001z"/>
		<path fill-rule="evenodd" clip-rule="evenodd" fill="#C19FA5" d="M32.936,54.085c1.018,0.305,2.035,0.61,3.053,0.915
			c2.786,0.846,4.411,2.043,1.419,4.653c-0.124,0.163-0.255,0.319-0.387,0.476c-0.676-0.046-1.352-0.091-2.028-0.137
			C32.591,58.621,31.108,56.93,32.936,54.085z"/>
		<path fill-rule="evenodd" clip-rule="evenodd" fill="#D5B5B5" d="M44.006,60.221c-1.125,1.182-2.602,0.732-3.955,0.854
			c-1.059-0.158-2.248,0.094-3.03-0.947c0,0.001-0.024-0.201-0.024-0.201c0.655-0.604,1.459-0.865,2.315-1.013
			C41.06,58.69,42.785,58.552,44.006,60.221z"/>
		<path fill-rule="evenodd" clip-rule="evenodd" fill="#E5B4A1" d="M35,81c2.425,2.72,6.215,1.34,8.994,2.996
			c0.274,6.097,0.274,6.097-5.99,3.002c-2.887-3.556-7.219-4.839-10.999-6.991c-0.531-0.664-0.627-1.329,0.001-1.992
			C27.671,78.01,28.336,78.005,29,78C30.732,79.535,32.376,81.248,35,81z"/>
		<path fill-rule="evenodd" clip-rule="evenodd" fill="#E8BAAA" d="M27.006,78.015c0,0.664-0.001,1.328-0.001,1.992
			c-3.011,2.363-4.102-1.052-6.013-1.998C22.996,78.337,25.003,76.379,27.006,78.015z"/>
		<path fill-rule="evenodd" clip-rule="evenodd" fill="#EAC7C0" d="M64.004,67.032c-4.391,0.328-8.793,0.718-12.918,2.357
			c-1.756,0.698-2.403-0.162-3.096-1.376c5.05-0.103,8.851-3.157,12.283-6.135c2.524-2.189,2.763-6.652,6.726-7.879
			c3.169,1.424,5.346,3.81,6.741,6.961C71.229,66.155,69.315,67.348,64.004,67.032z"/>
		<path fill-rule="evenodd" clip-rule="evenodd" fill="#EEC7B7" d="M73.002,61c-2.47-1.932-4.165-4.527-6.003-7
			c-0.147-3.382-1.26-6.86,0.999-10.002c1.29-1.311,2.636-2.49,4.51-0.987c1.987,1.594,4.3,0.787,6.479,0.973
			c1.011,0.658,2.021,1.317,3.033,1.977c-0.132,0.183-0.265,0.364-0.393,0.551c-3.301,1.715-5.187,4.707-6.984,7.762
			C74.122,56.519,78.246,59.913,73.002,61z"/>
		<path fill-rule="evenodd" clip-rule="evenodd" fill="#9E2F21" d="M44.006,60.221c-1.602-0.127-3.204-0.254-4.807-0.381
			c-0.193-1.667,0.255-3.491-1.184-4.855c-1.236-1.078-2.353-2.188-1.079-3.951c0.398-0.696,0.797-1.393,1.197-2.09
			c0.543,0.399,1.087,0.799,1.63,1.197c2.749,2.739,4.635,5.934,5.187,9.832C44.624,60.012,44.309,60.095,44.006,60.221z"/>
		<path fill-rule="evenodd" clip-rule="evenodd" fill="#DAA188" d="M44.951,59.973c-2.831-2.696-3.556-6.503-5.186-9.832
			c2.017-0.341,2.591,1.303,3.697,2.434c1.179,1.206,2.14,3.367,4.563,2.393C47.574,56.987,47.327,59.134,44.951,59.973z"/>
		<path fill-rule="evenodd" clip-rule="evenodd" fill="#B48684" d="M38.016,54.984c2.286,1.158,2.349,2.857,1.184,4.856
			c-0.734,0.028-1.468,0.058-2.203,0.087c-0.333-1.644,2.06-3.845-1.008-4.928C36.664,54.995,37.34,54.989,38.016,54.984z"/>
		<path fill-rule="evenodd" clip-rule="evenodd" fill="#F3CCBE" d="M136.014,86.005c-1.125,0.08-2.25,0.16-3.459,0.246
			c-0.947-2.194,4.341-3.39,1.188-5.602c-2.29-1.607-4.671-0.059-6.743,1.35c-0.667,0-1.333,0.001-2,0.002
			c-1.184,0.854-2.307,0.411-3.427-0.158c-0.411-0.299-0.695-0.694-0.877-1.167c0.468-2.88,2.559-4.068,5.045-4.852
			c2.146-0.391,4.145-1.477,6.396-1.405c3.077,0.651,6.612,0.177,8.63,3.466c0.091,1.383,0.182,2.767,0.272,4.15
			c-0.711,0.972-1.422,1.943-2.133,2.914C137.942,85.301,136.978,85.653,136.014,86.005z"/>
		<path fill-rule="evenodd" clip-rule="evenodd" fill="#F8DDCA" d="M140.768,77.885c-2.928-0.966-5.855-1.932-8.784-2.897
			c-2.785-0.729-5.212,1.618-7.996,0.936c-1.5-0.446-3.014-0.882-3.196-2.819c1.5-1.794,3.808-1.042,5.64-1.806
			c0.495-0.164,1-0.272,1.513-0.358c1.847-0.254,3.699-0.314,5.561-0.223c1.808,0.52,3.926-0.128,5.449,1.449
			C139.905,73.962,140.606,75.838,140.768,77.885z"/>
		<path fill-rule="evenodd" clip-rule="evenodd" fill="#CD907A" d="M138.953,72.166c-1.954-0.105-3.908-0.212-5.861-0.317
			c-0.876-2.175-0.049-2.601,1.912-1.861c0.987,0.011,1.975,0.022,2.962,0.033c0.348,0.325,0.696,0.65,1.045,0.976
			C138.991,71.387,138.972,71.776,138.953,72.166z"/>
		<path fill-rule="evenodd" clip-rule="evenodd" fill="#FCE6D2" d="M122.032,81.021c0.989,0.327,1.979,0.653,2.968,0.98
			c-1.319,1.011-2.64,2.021-3.959,3.032c-2.697-0.295-4.978,0.182-7.028,2.335c-2.681,2.815-6.409,2.727-10.01,2.62
			c-2.571-1.813-5.302-0.976-8.014-0.486c-3.037,0.547-6.087,1.287-8.997-0.495c0.542-0.703,1.334-1.114,2.144-1.043
			c3.906,0.344,4.643-1.688,3.861-4.95c2.006,0.308,3.893,1.349,6.009,0.979C106.354,80.462,114.141,80.341,122.032,81.021z"/>
		<path fill-rule="evenodd" clip-rule="evenodd" fill="#F6D6C5" d="M159.993,63.005c-1.706-3.171-5.489-1.19-7.813-3.238
			c-3.146-2.771-5.183-6.224-7.182-9.766c-2.52-5.288-5.69-9.894-12.418-11.453c0.197,4.684,1.912,8.984,2.415,13.454
			c0.002,1.332,0.004,2.664,0.006,3.996c-1.104-0.027-2.284,0.178-3.009-0.997c-0.92-4.066-5.391-5.767-6.462-9.813
			c-0.53-2.001,0.582-12.142,2.252-13.1c3.021-1.734,5.83,0.387,8.134,1.811c1.705,1.054,3.148,1.825,5.159,2.252
			c4.407,0.935,4.15,5.604,5.495,8.666c1.112,2.531,1.996,4.781,4.429,6.183c2.032,2.235,3.175,5.143,6.308,6.58
			C159.027,58.368,160.316,60.584,159.993,63.005z"/>
		<path fill-rule="evenodd" clip-rule="evenodd" fill="#FDEDD6" d="M92.997,83.014c0.416,1.71,3.427,2.438,2.327,4.416
			c-1.013,1.82-3.394,1.628-5.384,1.575c-0.981-0.025-1.965,0-2.948,0.002c-4.377,0.308-8.505-2.561-12.979-1.02
			c0.103-0.781-0.225-2.22,0.626-2.169C80.978,86.191,86.489,81.29,92.997,83.014z"/>
		<path fill-rule="evenodd" clip-rule="evenodd" fill="#FADECE" d="M134.996,52.002c-3.106-3.895-3.049-8.72-3.648-13.276
			c-0.205-1.556,1.146-2.574,3.092-1.515c5.255,2.859,10.178,5.932,10.56,12.79c-0.147-0.072-0.3-0.135-0.439-0.219
			c-2.58-1.559-3.406-6.285-6.953-5.382C134.192,45.271,137.184,49.835,134.996,52.002z"/>
		<path fill-rule="evenodd" clip-rule="evenodd" fill="#DCAC9B" d="M135.004,69.987c-1.164,0.081-1.963,0.536-1.913,1.862
			c-2.022,0.055-4.045,0.109-6.068,0.165c-1.599-1.159-3.504-0.079-5.128-0.709c-0.713-0.013,0.236,1.104-0.033,0.494
			c1.739-0.406,3.47-0.613,5.156,0.215c-1.747,1.706-3.983,0.677-5.966,1.067c-4.009,2.598-8.489,1.008-12.741,1.445
			c-3.26-0.514-6.675,0.519-9.842-0.955c-1.434-1.437-0.036-1.864,0.875-2.468c4.038-0.492,8.299-0.199,11.65-3.211
			c1.894-0.577,3.602-1.8,5.695-1.695c0.466,0.075,0.898,0.252,1.288,0.515c0.195,3.99,3.706,0.742,5.026,2.291
			c2.177,0.139,4.241-0.377,6.358-0.826C131.41,67.743,133.758,67.438,135.004,69.987z"/>
		<path fill-rule="evenodd" clip-rule="evenodd" fill="#D6ADA0" d="M111.998,54.991c0.664,0.006,1.327,0.012,1.991,0.018
			c0.611,3.828,3.338,5.24,6.722,6.024c2.917,0.675,6.184,0.846,7.834,4.173c-1.496,0.937-2.43-0.504-3.552-0.201
			c-1.203,1.265-2.541,2.176-4.411,1.693c-1.348-0.557-2.531-1.728-4.199-1.127c-0.438,0.08-0.877,0.096-1.32,0.056
			c-2.831-1.285-2.629-4.453-4.09-6.592l0.019-0.061C110.79,57.511,110.773,56.094,111.998,54.991z"/>
		<path fill-rule="evenodd" clip-rule="evenodd" fill="#E4C5BB" d="M119.994,65.996c1.666-0.331,3.333-0.661,4.999-0.991
			c0.154,1.74-1.433,2.613-1.989,3.999c-2.229,1.385-4.653,1.003-7.053,0.937c-0.534-1.976,1.701-1.765,2.052-2.943
			C118.39,66.111,118.888,65.45,119.994,65.996z"/>
		<path fill-rule="evenodd" clip-rule="evenodd" fill="#E2A991" d="M111.998,54.991c0.147,1.45-0.293,2.751-1.007,3.983
			c-2.46-2.968-1.954-6.526-1.988-9.977C110.001,50.995,111,52.993,111.998,54.991z"/>
		<path fill-rule="evenodd" clip-rule="evenodd" fill="#EDCAAA" d="M102.018,49.968c-2,0.379-4.262-0.788-6.021,1.016
			c-3.025,2.355-5.387-0.436-8.038-1.018c-2.056-1.216-5.458-0.426-5.965-3.967c0,0,0.025-0.038,0.025-0.039
			c5.73-1.5,11.191,0.834,16.79,1.219C100.4,47.288,101.266,48.666,102.018,49.968z"/>
		<path fill-rule="evenodd" clip-rule="evenodd" fill="#E7B197" d="M88.011,48.99c2.923-0.379,4.921,2.943,7.985,1.993
			c3.027,6.169,0.305,11.173-5.994,11.016c-2.375-1.346-4.166-3.29-5.688-5.521c-0.499-1.812-0.089-3.629,0.009-5.434
			C84.458,48.542,85.811,47.933,88.011,48.99z"/>
		<path fill-rule="evenodd" clip-rule="evenodd" fill="#EDC4B1" d="M85.006,56.987c2.789,0.551,3.954,2.72,4.996,5.012
			c-0.332,0.669-0.664,1.338-0.997,2.007c0.365,0.889-0.186,1.334-0.83,1.737c-3.485,3.42-8.411,1.367-12.327,3.227
			c-0.88,0.418-1.579-0.302-2.021-1.033c-0.595-0.984-0.335-2.019,0.359-2.77c2.72-2.938,4.146-6.838,7.152-9.559
			C83.315,54.06,84.34,55.05,85.006,56.987z"/>
		<path fill-rule="evenodd" clip-rule="evenodd" fill="#E7B197" d="M87.997,64.999c0.336-0.331,0.672-0.662,1.008-0.993
			c2.229,3.926,4.326,4.221,7.42,0.817c1.064-1.172,1.59-2.869,3.575-2.823c1.376,3.112-1.413,4.723-2.496,6.955
			c-5.421,5.185-12.3,4.421-18.94,4.639c-1.746-2.257,0.401-3.636,1.644-3.951C83.356,68.843,85.395,66.511,87.997,64.999z"/>
		<path fill-rule="evenodd" clip-rule="evenodd" fill="#DEA58F" d="M96.99,67.975c0.634-2.178,2.817-3.575,3.01-5.975l0,0
			c1.581-1.71,2.573-3.714,2.996-6.002c0.077-2.023,1.402-3.114,2.992-4.008c0.535,2.776-0.943,5.305-0.99,8.01
			c0.726,1.232,0.015,2.288-0.404,3.384c-1.187,2.151-2.496,4.193-4.855,5.268C98.706,68.899,97.746,68.848,96.99,67.975z"/>
		<path fill-rule="evenodd" clip-rule="evenodd" fill="#E7B197" d="M102.996,55.998c0.28,2.64-0.398,4.8-2.996,6.002
			C100.999,59.999,101.998,57.999,102.996,55.998z"/>
		<path fill-rule="evenodd" clip-rule="evenodd" fill="#C29084" d="M103.972,62.983c0.342-0.994,0.685-1.988,1.026-2.983
			c1.729-1.947,4.166,0.485,5.975-0.965c3.443,0.498,1.895,5.198,5.02,5.965c0.389,1.455-0.845,1.431-1.642,1.805
			c-2.236,0.535-4.403,0.336-5.7-1.715C107.47,63.222,105.623,63.461,103.972,62.983z"/>
		<path fill-rule="evenodd" clip-rule="evenodd" fill="#E7BAA9" d="M87.997,64.999c-1.914,4.437-7.504,4.301-9.987,8.029
			c0.009,2.826-1.598,3.453-4.029,2.959c-1.072-0.14-2.006-0.5-1.812-1.813c0.205-1.385,1.376-3.251-0.779-3.696
			c-1.86-0.384-3.434,1.163-4.213,2.777c-1.304,2.702-2.809,4.858-6.179,4.74c-0.327-0.999,3.079-1.997,0-2.995
			c1.002-2.656,2.004-5.313,3.006-7.969c3.648-1.043,7.128-2.336,8.998-6.032c1.414-2.132,1.199-1.938-0.423-3.741
			c-1.34-1.488,0.137-2.507,1.417-3.265c0.473-0.132,0.876-0.385,1.262-0.684c1.345-1.042,2.223-3.256,4.283-2.621
			c2.496,0.769,2.125,3.301,2.459,5.312c-2.583,3.163-3.859,7.268-7.195,9.904c-0.697,0.552-0.81,1.485,0.009,2.13
			c0.715,0.562,1.05-0.097,1.519-0.568c0.553-0.556,1.659-1.451,1.912-1.282C81.889,68.62,84.741,65.167,87.997,64.999z"/>
		<path fill-rule="evenodd" clip-rule="evenodd" fill="#C88671" d="M73.98,75.987c1.492-0.784,3.236-1.225,4.029-2.96
			c4.515-0.667,9.049-1.232,13.537-2.047c2.071-0.376,4.091-1.173,5.444-3.006c1.002,0,2.003,0,3.004,0
			c-0.17,3.195-2.986,3.496-5.062,4.52c-1.76,0.868-3.492,1.825-5.377,2.435c-5.242,0.409-10.438,1.167-15.623,2.022
			C73.952,76.63,73.968,76.309,73.98,75.987z"/>
		<path fill-rule="evenodd" clip-rule="evenodd" fill="#B26C66" d="M73.933,76.951c5.189-1.903,10.594-2.643,16.074-2.973
			c1.641-0.669,3.286-1.268,5.03-0.322c1.072,1.214,1.125,2.544,0.448,3.952c-2.188-0.672-4.397-1.239-6.725-1.124
			c-1.576-0.176-3.224,0.418-4.728-0.459c-3.904-0.561-7.177,2.546-11.095,1.908C73.269,77.606,73.601,77.278,73.933,76.951z"/>
		<path fill-rule="evenodd" clip-rule="evenodd" fill="#F5CFBF" d="M71.126,83.044c3.723-4.251,8.913-4.386,13.938-4.902
			c1.958-0.202,3.943-0.135,5.917-0.189c1.773-0.867,3.181,0.812,4.847,0.696c0.385,0.349,0.497,0.771,0.338,1.266
			C88.042,82.74,79.419,81.573,71.126,83.044z"/>
		<path fill-rule="evenodd" clip-rule="evenodd" fill="#F5CFBF" d="M122.032,81.021c-4.742,2.125-9.945,0.349-14.85,1.83
			c-2.55,0.77-5.336,1.641-8.177,1.142c-0.838-1.271-1.036-2.546-0.025-3.83c1.625-1.906,3.744-1.406,5.805-1.205
			c3.067,1.05,6.246,0.567,9.386,0.657c2.302,0.214,4.8-0.554,6.762,1.35C121.299,80.983,121.665,81.002,122.032,81.021z"/>
		<path fill-rule="evenodd" clip-rule="evenodd" fill="#C3724C" d="M104.733,80.122c-1.918,0.014-3.835,0.026-5.753,0.04
			c-0.938-0.082-1.878-0.165-2.815-0.248c-0.105-0.261-0.201-0.524-0.287-0.792c0.547-1.097,1.504-1.629,2.635-1.931
			c3.304,0.235,6.76-0.274,9.677,1.924C107.557,81.236,106.06,80.385,104.733,80.122z"/>
		<path fill-rule="evenodd" clip-rule="evenodd" fill="#A6321D" d="M97.912,78.108c-0.678,0.338-1.356,0.676-2.034,1.014
			c-1.735,0.045-3.395-0.235-4.896-1.17c-0.391-0.792-1.113-0.972-1.899-1.037c-0.376-0.173-0.51-0.36-0.402-0.564
			c0.112-0.212,0.226-0.318,0.345-0.318c2.205-0.057,4.683-1.036,6.043,1.777C96.097,77.137,97.053,77.16,97.912,78.108z"/>
		<path fill-rule="evenodd" clip-rule="evenodd" fill="#A84E37" d="M89.024,76.032c-0.02,0.298-0.001,0.592,0.057,0.884
			c-1.712-0.129-3.603,0.75-5.049-0.892C85.696,76.027,87.36,76.03,89.024,76.032z"/>
		<path fill-rule="evenodd" clip-rule="evenodd" fill="#E7B79E" d="M82,56.001c-0.145-0.071-0.346-0.104-0.426-0.219
			c-0.706-1.023-4.77-1.792-5.963-1.188c-0.654,0.33-1.225,0.003-1.616-0.6c1.777-3.554,2.917-7.747,7.999-7.995
			c1.358,2.299,4.367,1.278,6.017,2.991c-1.124,0.227-3.231-0.345-2.457,1.801c0.83,2.298-0.96,4.1-0.548,6.196
			C84.091,56.393,83.482,54.866,82,56.001z"/>
		<path fill-rule="evenodd" clip-rule="evenodd" fill="#E2AC96" d="M120.933,80.964c-2.344-0.032-4.687-0.065-7.029-0.098
			c-0.068-1.793,1.485-2.101,2.579-2.832c0.868-1.23,3.414,0.397,3.55-2.101c1.245-1.301,2.694-0.531,4.08-0.421
			c0.884,0.164,2.235-0.265,1.872,1.477C123.463,77.249,122.28,79.212,120.933,80.964z"/>
		<path fill-rule="evenodd" clip-rule="evenodd" fill="#EABCA8" d="M125.984,76.989c-0.437-0.821-1.214-0.976-2.037-1.042
			c-0.312-0.23-0.406-0.446-0.282-0.647c0.117-0.192,0.233-0.289,0.348-0.289c2.66,0.922,5.307-2.525,7.972-0.023
			C129.984,75.654,127.984,76.321,125.984,76.989z"/>
		<path fill-rule="evenodd" clip-rule="evenodd" fill="#F6D2C3" d="M124.013,75.011c-0.012,0.313-0.033,0.626-0.065,0.938
			c-1.374,0.169-2.899-0.318-4.027,0.924c-0.899,0.875-2.142,0.739-3.22,1.092c-7.213,0.284-14.436,0.622-20.988-3.294
			c-0.275-0.993,0.067-1.642,1.076-1.914c3.72,1.279,7.474,1.039,11.238,0.223c4.341,0.034,8.683,0.068,13.024,0.103
			C122.039,73.725,123.026,74.368,124.013,75.011z"/>
		<path fill-rule="evenodd" clip-rule="evenodd" fill="#BA877E" d="M97.133,73.21c-0.413,0.259-0.825,0.517-1.238,0.775
			c-0.293,0.491-0.603,0.524-0.93,0.032c-1.652-0.014-3.306-0.026-4.958-0.039c2.781-2.912,7.439-2.702,9.987-6.003
			c1.326-1.664,2.652-3.328,3.978-4.992c2.218-1.572,4.224-2.956,5.322,1.219c0.601,2.279,2.925,1.715,4.705,1.811
			c0.161,2.327-2.109,1.507-3.073,2.376c-3.254,2.273-7.247,2.273-10.837,3.516c-0.72,0.306-1.44,0.611-2.16,0.917
			C97.849,73.331,97.583,73.461,97.133,73.21z"/>
		<path fill-rule="evenodd" clip-rule="evenodd" fill="#AC695C" d="M100.089,71.904c2.972-3.156,7.287-2.563,10.907-3.91
			c1.047-0.433,1.183,0.062,0.948,0.933C108.399,71.537,104.497,72.729,100.089,71.904z"/>
		<path fill-rule="evenodd" clip-rule="evenodd" fill="#FCE7D5" d="M97.133,73.21c0.248-0.164,0.514-0.293,0.796-0.388
			c3.365,0.052,6.731,0.104,10.097,0.156C104.431,74.728,100.79,74.382,97.133,73.21z"/>
		<path fill-rule="evenodd" clip-rule="evenodd" fill="#BA7C6A" d="M111.944,68.927c-0.316-0.312-0.632-0.622-0.948-0.933
			c1.001-0.661,2.002-1.321,3.003-1.981c0.817-0.037,1.577-0.187,1.993-1.013l0.012-0.007c0.712-0.591,1.58-0.605,1.976,0.144
			c0.419,0.793-0.248,1.406-1.019,1.75C115.288,67.566,113.616,68.246,111.944,68.927z"/>
		<path fill-rule="evenodd" clip-rule="evenodd" fill="#C29084" d="M116.961,66.887c0.677-1.135,0.641-1.909-0.957-1.894
			c1.756-1.362,3.282-1.809,3.99,1.003c-0.664,0.333-1.327,0.667-1.991,1.001C117.655,66.96,117.309,66.923,116.961,66.887z"/>
		<path fill-rule="evenodd" clip-rule="evenodd" fill="#D49D89" d="M127.018,72.015c-1.938,0-3.876,0-5.813,0
			c1.972-0.806,3.964-1.79,5.818,0H127.018z"/>
		<path fill-rule="evenodd" clip-rule="evenodd" fill="#DEA38A" d="M94.965,74.018c0.311-0.02,0.621-0.03,0.931-0.032
			c6.788,2.8,13.992,2.778,21.145,3.104c0.307,0.589,0.164,1.033-0.429,1.332c-2.827,1.005-5.604,2.697-8.659,0.646
			c-3.347-0.32-6.693-0.64-10.04-0.96c-0.948-0.098-1.896-0.197-2.844-0.297C95.033,76.546,94.999,75.281,94.965,74.018z"/>
		<path fill-rule="evenodd" clip-rule="evenodd" fill="#C97C55" d="M107.952,79.067c3.112,0.414,6.039-0.678,9.046-1.115
			c0.292,0.231,0.393,0.466,0.302,0.705c-0.092,0.24-0.185,0.361-0.28,0.361c-1.038,0.616-2.077,1.232-3.116,1.849
			c-3.08,0.049-6.21,0.716-9.168-0.746C105.849,79.901,107.155,80.264,107.952,79.067z"/>
		<path fill-rule="evenodd" clip-rule="evenodd" fill="#D39070" d="M117.02,79.019c-0.007-0.355-0.014-0.71-0.021-1.065
			c0.003-0.289,0.017-0.577,0.042-0.863c0.96-0.071,1.921-0.144,2.881-0.217C120.022,79.032,117.646,77.844,117.02,79.019z"/>
	</g>
</g>
</svg>
