<?xml version="1.0" encoding="utf-8"?>
<!-- Generator: Adobe Illustrator 16.0.0, SVG Export Plug-In . SVG Version: 6.00 Build 0)  -->
<!DOCTYPE svg PUBLIC "-//W3C//DTD SVG 1.1//EN" "http://www.w3.org/Graphics/SVG/1.1/DTD/svg11.dtd">
<svg version="1.1" id="Layer_1" xmlns="http://www.w3.org/2000/svg" xmlns:xlink="http://www.w3.org/1999/xlink" x="0px" y="0px"
	 width="176px" height="103px" viewBox="0 0 176 103" enable-background="new 0 0 176 103" xml:space="preserve">
<g>
	<g>
		<path fill-rule="evenodd" clip-rule="evenodd" fill="#7C5C3C" d="M177,65c-0.49,0.047-1.346-0.039-1.417,0.159
			c-4.386,12.168-13.663,19.726-24.351,25.967c-1.654-0.866-1.654-0.866-0.217-4.338c0.555-1.112,1.314-2.007,2.565-2.362
			c3.045,0.035,4.94-1.758,6.483-4.103c1.266-1.767,2.807-3.373,3.23-5.625c1.102-1.659-0.52-6.515,4.537-3.682
			c0.917,0.514,0.773-1.726,1.179-2.666c1.116-2.994,3.295-5.333,4.938-8.004c0.334-0.305,0.718-0.526,1.15-0.661
			c1.615-0.038,1.113,1.668,1.901,2.314C177,63,177,64,177,65z"/>
		<path fill-rule="evenodd" clip-rule="evenodd" fill="#B48452" d="M163.871,33.038C167.87,39.62,171.775,46.267,177,52c0,2,0,4,0,6
			c-0.699,0.633-1.233,1.431-2.006,1.989v0.002c-3.568-0.066-5.503-2.605-7.551-4.978c-0.014-0.662-0.37,0.119-0.123-0.451
			c2.789-6.451-1.074-10.902-4.383-15.687C161.695,37.079,159.118,34.242,163.871,33.038z"/>
		<path fill-rule="evenodd" clip-rule="evenodd" fill="#E5C3B1" d="M96,1c6.333,0,12.667,0,19,0c0.31,0.615,0.184,1.123-0.375,1.525
			c-5.491,1.643-11.09,0.66-16.65,0.67c-0.591-0.11-1.137-0.333-1.641-0.658C95.797,2.118,95.686,1.605,96,1z"/>
		<path fill-rule="evenodd" clip-rule="evenodd" fill="#AA896A" d="M98.117,103.063c-0.133,0.3-0.172,0.612-0.117,0.937
			c-3.333,0-6.667,0-10,0c-0.078-0.286-0.137-0.576-0.18-0.869c0.331-0.479,0.769-0.821,1.311-1.034
			c0.813-0.293,1.655-0.412,2.516-0.423C93.869,101.824,96.279,101.122,98.117,103.063z"/>
		<path fill-rule="evenodd" clip-rule="evenodd" fill="#F5E8E1" d="M96,1c-0.02,0.313-0.048,0.626-0.086,0.938
			c-1.077,1.271-2.571,1.351-4.067,1.435c-1.75-0.143-3.643,0.147-4.898-1.553C86.968,1.546,86.985,1.273,87,1C90,1,93,1,96,1z"/>
		<path fill-rule="evenodd" clip-rule="evenodd" fill="#A27547" d="M174.994,59.989c0.03-1.308,0.718-1.95,2.006-1.989
			c0,1.333,0,2.667,0,4C176.331,61.33,175.663,60.659,174.994,59.989z"/>
		<path fill-rule="evenodd" clip-rule="evenodd" fill="#F8EFE8" d="M115.043,1.965C114.994,1.645,114.979,1.323,115,1c2,0,4,0,6,0
			c0.002,0.301,0.011,0.601,0.026,0.901C119.051,3.678,117.056,3.647,115.043,1.965z"/>
		<path fill-rule="evenodd" clip-rule="evenodd" fill="#DDB589" d="M8.139,62.043c-0.004-1.731-0.623-3.566,0.852-5.049
			c0.759,0.324,1.316,0.961,2.065,1.297c2.567,0.735,4.699-0.971,7.082-1.245c0.971-0.125,1.923-0.05,2.859,0.241
			c5.262,2.294,9.361,6.1,13.229,10.207c-4.041,2.882-8.192,1.73-12.356,0.354c-2.62-1.76-5.625-2.492-8.632-3.228
			C11.341,64.157,9.398,63.773,8.139,62.043z"/>
		<path fill-rule="evenodd" clip-rule="evenodd" fill="#795A3A" d="M26.086,44.092c1.669-1.519,3.069-2.764,0.209-4.793
			c-2.557-1.814-4.458-4.451-5.829-7.361c0.405-0.274,0.852-0.374,1.335-0.327c3.992,2.361,7.083,5.979,11.258,8.092
			c0.512,0.933,0.14,1.825-0.108,2.725c-0.732,2.706,1.606,3.746,2.967,5.211c2.134,2.298,4.39,4.495,5.375,7.554
			c0.597,1.856,1.383,4.038-1.93,4.208c-1.284-1.738-2.37-3.762-5.047-3.509c-2.151-0.583-4.388-0.478-6.565-0.853
			c-0.815-0.367-2.031-0.561-1.69-1.78c0.43-1.54,1.846-1.964,3.27-2.203c1.553-0.117,3.109,0.01,4.023,0.096
			c1.31,0.018,0.481-0.929,0.709-0.303c-1.26,0.392-2.54,0.045-3.817,0.104c-2.431-0.928-5.841,0.58-7.224-2.921
			c0.276-0.445,0.551-0.892,0.827-1.337c1.262-0.072,2.497-0.331,3.888-0.503C27.057,45.496,25.593,45.504,26.086,44.092z"/>
		<path fill-rule="evenodd" clip-rule="evenodd" fill="#7B5C3D" d="M48.033,95.867c-12.745-1.681-22.526-9.554-33.062-15.845
			c-1.692-1.01-3.303-2.156-4.951-3.239c-0.269-0.435-0.272-0.87-0.013-1.311c2.437-2.32,4.37-0.345,6.413,0.74
			c2.103,1.444,4.232,2.851,6.399,4.202c7.402,4.801,14.547,10.134,23.693,11.267c2.057,0.804,4.273,0.925,6.387,1.492
			c0.727,0.324,1.256,0.807,1.313,1.659c-0.268,0.444-0.646,0.756-1.13,0.939C51.412,96.479,49.7,94.956,48.033,95.867z"/>
		<path fill-rule="evenodd" clip-rule="evenodd" fill="#D7A482" d="M86.949,1.819c1.642,0.099,3.285,0.198,4.927,0.297
			c-0.545,2.839-3.135,2.529-4.982,2.942c-7.205,1.609-14.32,3.441-21.035,6.576c-3.389,1.083-5.954,3.216-7.979,6.113
			c-1.11,1.589-2.234,3.253-4.41,3.564c-0.473-0.104-0.831-0.372-1.094-0.773c-0.474-0.829-0.563-1.738-0.532-2.671
			c7.188-8.457,16.809-12.46,27.297-14.81C81.707,2.483,84.344,2.224,86.949,1.819z"/>
		<path fill-rule="evenodd" clip-rule="evenodd" fill="#EAC57D" d="M8.905,10.916c0.22-1.811,1.019-3.01,3.058-2.9
			c0.968,0.462,2.003,0.819,2.694,1.718c1.288,1.471,1.897,3.381,3.173,4.863c1.69,2.131,4.007,3.696,5.445,6.05
			c0.155,0.432,0.178,0.876,0.096,1.326c-1.016,2.03-2.938,1.546-4.646,1.674c-0.444,0.014-0.877-0.048-1.303-0.178
			c-1.287-0.627-1.801-1.91-2.56-2.988c-1.526-2.312-3.763-2.871-6.345-2.577c-1.579,0.207-3.138,0.991-4.751,0.18
			c-0.785-1.767,0.252-2.629,1.641-3.316C6.729,13.626,8.735,13.105,8.905,10.916z"/>
		<path fill-rule="evenodd" clip-rule="evenodd" fill="#765737" d="M52.987,95.011c0.338-0.006,0.677-0.011,1.015-0.017
			c1.803-1.71,2.613-4.591,5.675-4.823c3.072,0.429,5.789,2.839,9.164,1.645c3.698,4.387,3.359,5.404-1.966,6.496
			c-2.275,0.466-4.632-0.372-6.846,0.576c-2.223-0.012-4.228-0.767-6.146-1.813C53.946,96.23,52.307,96.123,52.987,95.011z"/>
		<path fill-rule="evenodd" clip-rule="evenodd" fill="#C69060" d="M51.843,17.868c0.878,0.437,1.132,1.209,1.136,2.115
			c-0.104,3.184-0.915,6.257,0.682,9.518c1.266,2.585-1.307,2.224-2.905,2.209c-0.961-0.247-1.953-0.341-2.911-0.577
			c-4.694-1.163-5.333-2.447-3.458-6.957c0.319-0.768,0.563-1.544,0.71-2.357c0.25-2.332,1.795-3.235,3.898-3.518
			C49.945,18.157,50.894,18.013,51.843,17.868z"/>
		<path fill-rule="evenodd" clip-rule="evenodd" fill="#EECE89" d="M14.001,5.906c2.252-2.102,4.319-0.829,5.263,1.07
			c2.287,4.604,6.199,7.587,9.751,10.966c0.488,0.89,0.072,1.881,0.315,2.808c-0.192,0.404-0.485,0.692-0.9,0.862
			c-3.101-0.041-4.997-2.272-6.725-4.248c-2.034-2.326-4.323-4.455-6.087-7.021C14.897,8.932,14.202,7.509,14.001,5.906z"/>
		<path fill-rule="evenodd" clip-rule="evenodd" fill="#C19873" d="M8.139,62.043c4.611,1.694,10.022,1.14,13.884,4.939
			c0.485,1.195-0.198,1.908-1.048,2.554c-2.057,0.987-4.362,0.512-6.489,1.1c-0.477,0.088-0.959,0.107-1.442,0.071
			c-1.838-0.32-2.73-1.753-3.678-3.125c-1.277-1.264-0.572-3.056-1.2-4.496C8.157,62.738,8.148,62.391,8.139,62.043z"/>
		<path fill-rule="evenodd" clip-rule="evenodd" fill="#856342" d="M88.919,102.942c-0.366,0.063-0.732,0.125-1.098,0.188
			c-4.54-1.098-8.745-3.021-12.849-5.196c-2.733-1.956-6.063-3.514-5.255-7.844c1.444-0.849,2.221,0.272,3.119,1.046
			c3.305,3.916,8.642,4.225,12.566,7.046C86.91,99.52,89.406,100.134,88.919,102.942z"/>
		<path fill-rule="evenodd" clip-rule="evenodd" fill="#AE8055" d="M8.166,63.086c0.612,1.307,1.225,2.613,1.837,3.919
			c0.994,2.302,1.164,5.172,4.199,6.064c1.116,0.542,2.011,1.279,2.285,2.566c-0.001,0.502-0.163,0.947-0.479,1.336
			c-1.943-0.671-3.687-2.747-5.994-0.849c-2.064-1.1-2.992-3.053-3.817-5.083C6.054,68.19,7.462,65.726,8.166,63.086z"/>
		<path fill-rule="evenodd" clip-rule="evenodd" fill="#CB9D67" d="M15.991,20.024C16.661,21.016,17.331,22.008,18,23
			c0.565,0.565,0.596,1.21,0.28,1.903c-1.896,1.04-2.425-1.08-3.652-1.591c-2.466-1.025-4.71-3.172-7.688-1.433
			c-2.719,0.111-3.563-1.905-4.426-3.9c0.488-0.371,0.986-0.387,1.497-0.048c1.565-0.828,3.251-1.004,4.986-0.919
			C11.568,17.46,13.867,18.539,15.991,20.024z"/>
		<path fill-rule="evenodd" clip-rule="evenodd" fill="#63492D" d="M70.081,89.906c-0.852,4.188,4.21,4.774,4.892,8.028
			c-5.002-0.001-9.858,2.271-14.944,0.953c1.678-1.631,3.818-0.626,5.721-0.985c5.503-1.039,5.527-1.042,2.274-5.918
			c-1.764-1.91-1.45-4.073-0.773-6.28c0.453-0.773,1.039-1.124,1.896-0.579c0.864,0.976,1.074,2.201,1.294,3.425
			C70.486,89.044,70.363,89.497,70.081,89.906z"/>
		<path fill-rule="evenodd" clip-rule="evenodd" fill="#DDB57C" d="M14.031,52.004c1.835-2.205,4.46-2.475,7.034-2.865
			c4.898-0.294,4.603,2.806,3.994,6.113c-1.141,0.949-2.431,1.335-3.901,1.036c-1.429-2.032-3.705-2.382-5.878-2.94
			C14.593,53.148,14.179,52.699,14.031,52.004z"/>
		<path fill-rule="evenodd" clip-rule="evenodd" fill="#F1D197" d="M29.013,20.018c-1.137-0.692-0.069-1.383,0.002-2.075
			c1.204-0.931,2.078-3.116,4.064-1.068c1.011,2.889,3.716,1.088,5.481,1.959c1.771,0.875,4.197-0.225,5.651,1.777
			c-1.918,3.209-5.049,3.16-7.884,2.263C33.866,22.095,31.191,21.611,29.013,20.018z"/>
		<path fill-rule="evenodd" clip-rule="evenodd" fill="#9B754F" d="M6.94,21.88c1.865-3.727,4.416-1.555,6.515-0.514
			c1.698,0.841,3.041,2.399,4.541,3.64c0.74,0.149,1.234,0.582,1.489,1.29c0.027,0.976-0.016,1.897-1.404,1.718
			C15.639,23.66,10.63,23.969,6.94,21.88z"/>
		<path fill-rule="evenodd" clip-rule="evenodd" fill="#BA8A5C" d="M25.021,54.982c-0.446-0.456-1.349-1.2-1.27-1.325
			c2.101-3.334-0.721-3.665-2.686-4.52c0.652-0.368,1.304-0.737,1.956-1.106c2.38,1.745,5.449,0.741,7.951,1.996
			c0.644,1.145-0.417,1.411-0.993,1.928c-1.181,0.215-2.36,0.434-3.13,1.505c0.386,0.194,0.772,0.389,1.158,0.583
			c0.219,1.407-0.75,1.533-1.752,1.626C25.772,55.57,25.357,55.348,25.021,54.982z"/>
		<path fill-rule="evenodd" clip-rule="evenodd" fill="#DFB47C" d="M29.013,20.018c2.374,0.068,4.534,0.079,6.889,1.438
			c2.436,1.406,5.688,1.099,8.012-1.393c0.16-0.612,0.839-0.748,1.133-1.238c1.316-0.175,2.633-0.351,3.949-0.525
			c-1.178,1.087-3.211,1.472-3.016,3.683c-0.329,0.781-0.793,1.445-1.588,1.821c-2.891,0.873-5.84,0.564-8.778,0.424
			c-2.292-0.961-4.529-2.053-6.671-3.335C28.961,20.601,28.984,20.309,29.013,20.018z"/>
		<path fill-rule="evenodd" clip-rule="evenodd" fill="#D9B07F" d="M45.047,18.825c-0.377,0.412-0.754,0.825-1.132,1.237
			c-3.449-0.375-6.907-0.687-10.342-1.156c-1.479-0.202-1.427-1.084-0.494-2.032C36.936,18.334,41.057,18.176,45.047,18.825z"/>
		<path fill-rule="evenodd" clip-rule="evenodd" fill="#B07E50" d="M26.086,44.092c0.961,1.536,3.294,0.146,4.569,2.971
			c-2.564-0.867-4.376,2.357-6.807-0.368C24.027,45.339,24.823,44.515,26.086,44.092z"/>
		<path fill-rule="evenodd" clip-rule="evenodd" fill="#CB9D67" d="M18.082,28.014c0.775-0.45,0.9-1.187,0.876-1.988
			c3.959-0.009,3.539,2.767,3.411,5.36c-0.117,0.203-0.238,0.404-0.359,0.606c-0.513-0.018-1.026-0.035-1.541-0.054
			C19.24,30.892,18.626,29.474,18.082,28.014z"/>
		<path fill-rule="evenodd" clip-rule="evenodd" fill="#CB9A66" d="M14.031,52.004c0.306,0.309,0.613,0.617,0.919,0.926
			c-0.841,2.706-2.949,4.364-5.013,6.059c-0.315-0.665-0.631-1.329-0.946-1.994C10.08,54.733,11.882,53.193,14.031,52.004z"/>
		<path fill-rule="evenodd" clip-rule="evenodd" fill="#CB9C68" d="M8.905,10.916c1.857,3.375-1.906,2.773-2.915,4.121
			c-1.093,0.639-1.897,0.662-1.95-0.915C6.172,13.829,7.125,11.745,8.905,10.916z"/>
		<path fill-rule="evenodd" clip-rule="evenodd" fill="#C59766" d="M14.001,5.906c1.837,0.711,2.073,2.278,2.116,3.95
			c-0.144,0.141-0.288,0.281-0.431,0.423c-0.608,0.08-1.169-0.232-1.771-0.22c-0.651-0.682-1.301-1.363-1.952-2.045
			C12.642,7.313,13.322,6.609,14.001,5.906z"/>
		<path fill-rule="evenodd" clip-rule="evenodd" fill="#856749" d="M6.196,71.04c1.862,1.25,2.587,3.354,3.817,5.082
			c0.016,0.221,0.018,0.44,0.007,0.661C7.337,75.806,5.477,74.281,6.196,71.04z"/>
		<path fill-rule="evenodd" clip-rule="evenodd" fill="#654C33" d="M52.987,95.011c-0.151,0.883,2.197,0.683,0.895,2.064
			c-2.091,0.282-3.953-0.546-5.85-1.208C49.474,94.365,51.323,95.225,52.987,95.011z"/>
		<path fill-rule="evenodd" clip-rule="evenodd" fill="#E5C07E" d="M4.04,14.122c0.425,0.785,1.168,0.892,1.95,0.915
			c-0.602,1.005-2.132,1.376-1.979,2.896c-0.496,0.016-0.993,0.032-1.493,0.048C1.335,16.026,2.439,14.977,4.04,14.122z"/>
		<path fill-rule="evenodd" clip-rule="evenodd" fill="#876542" d="M151.994,86.987c0.753,1.565-2.432,2.405-0.762,4.139
			c-6.275,1.928-12.701,2.138-19.185,1.677c1.532-2.697,5.488-2.909,6.391-6.251c1.452-2.405,4.586-3.84,4.131-6.921
			c0.152-1.045-0.902-0.332-0.246-0.451c0.164-0.03,0.23,0.127,0.146,0.459c-0.259,1.026,0.629,2.973-1.807,2.277
			c-0.793-1.006-0.87-2.203-0.933-3.405c-0.102-1.338,0.129-2.745-0.842-3.898c-1.553-2.114-4.656-0.661-6.23-2.715
			c-0.362-1.165,0.051-1.999,1.084-2.577c1.285-0.536,2.592-0.494,3.91-0.154c2.642,1.112,5.128,2.457,6.913,4.809
			c0.553,1.15,0.656,2.387,0.688,3.636c-0.08,2.775-0.063,5.521-0.924,8.265c-0.95,3.033,0.58,3.559,3.122,2.331
			C148.894,87.53,150.167,86.212,151.994,86.987z"/>
		<path fill-rule="evenodd" clip-rule="evenodd" fill="#836140" d="M124.214,93.162c-6.399,2.281-12.798,4.563-19.197,6.845
			c-2.529,0.752-2.495-0.532-1.842-2.315c0.382-0.679,0.93-1.19,1.603-1.573c3.032-1.055,5.542-3.206,8.63-4.162
			c3.066-0.343,6.146-0.416,9.23-0.424C123.458,91.79,123.993,92.325,124.214,93.162z"/>
		<path fill-rule="evenodd" clip-rule="evenodd" fill="#5D4429" d="M124.214,93.162c-0.376-0.363-0.753-0.728-1.13-1.091
			c0.361-0.85,1.104-1.29,1.845-1.737c0.754-0.433,1.526-0.831,2.302-1.228c2.995-1.374,6.262-2.198,8.836-4.409
			c1.004-0.813,1.961-1.694,3.122-2.297c0.589-0.287,1.21-0.423,1.868-0.362c1.439-0.978,0.6-2.757,1.327-4.334
			c0.905,5.065,0.631,5.78-3.377,9.312c-2.493,3.387-6.515,4.167-9.998,5.865C127.41,92.975,125.813,93.068,124.214,93.162z"/>
		<path fill-rule="evenodd" clip-rule="evenodd" fill="#9B714A" d="M104.002,98.002c-0.564,1.125-0.648,2.007,1.015,2.005
			c-2.042,1.6-4.338,2.628-6.899,3.057c-2.376-0.021-4.752-0.04-7.129-0.06c0.228-3.169,3.205-2.762,5.018-3.877
			C98.663,98.71,101.058,96.375,104.002,98.002z"/>
		<path fill-rule="evenodd" clip-rule="evenodd" fill="#795B3D" d="M129.009,92.881c2.965-2.581,6.521-4.156,9.998-5.865
			c-0.423,4.211-3.862,4.794-6.96,5.787C131.034,92.829,130.021,92.855,129.009,92.881z"/>
		<path fill-rule="evenodd" clip-rule="evenodd" fill="#E0B38D" d="M115.043,1.965c1.995-0.021,3.989-0.042,5.983-0.063
			c8.898,1.389,17.846,2.637,25.319,8.338c0.634,0.484,1.145,1.13,1.713,1.7c1.568,3.066,4.935,4.864,5.912,8.354
			c0.283,1.424,0.233,2.838-0.105,4.246c-0.686,2.531-1.967,4.798-3.166,7.107c-0.303,0.405-0.687,0.695-1.163,0.867
			c-0.798,0.112-1.487-0.063-1.991-0.74c-0.846-1.837-0.004-3.456,0.646-5.102c1.491-4.163,0.149-7.374-3.188-10.051
			c-3.91-3.136-8.011-5.704-13.016-6.911c-4.299-1.037-8.669-1.938-12.645-4.214c-3.281-1.877-7.107-1.146-10.738-1.152
			c-2.503,0.051-5.002,0.108-7.498,0.114c-1.729,0.004-3.86,0.323-4.046-2.414C103.055,2.018,109.049,1.991,115.043,1.965z"/>
		<path fill-rule="evenodd" clip-rule="evenodd" fill="#B5845F" d="M153.003,19.997c-1.247-2.932-5.246-4.175-4.944-8.058
			c8.77,4.411,13.237,12.045,15.813,21.099c-1.289,0.706-2.125,1.606-1.252,3.153c0.482,0.853,0.954,1.725,1.549,2.497
			c3.745,4.866,8.069,9.578,3.833,16.313c-0.44,0.254-0.873,0.229-1.3-0.033c-1.426-2.966-3.393-5.563-5.522-8.053
			c-0.893-1.529-1.325-3.19-1.425-4.947c1.286-7.611-3.211-13.546-5.818-20.026C153.688,21.264,153.512,20.551,153.003,19.997z"/>
		<path fill-rule="evenodd" clip-rule="evenodd" fill="#DFB373" d="M164.263,74.911c-0.063,2.549-1.844,4.103-3.364,5.807
			c-1.925,1.938-4.167,3.295-6.892,3.77c-1.625-0.106-3.851,2.456-4.718-1.054c-0.519-5.125,1.805-10.7-2.415-15.245
			c-0.158-0.461-0.14-0.916,0.047-1.365c3.005-1.802,5.736-0.303,6.689,2.071c1.838,4.577,5.651,4.843,9.386,5.703
			C163.45,74.574,163.87,74.689,164.263,74.911z"/>
		<path fill-rule="evenodd" clip-rule="evenodd" fill="#A27547" d="M167.019,55.021c0.327-0.003,0.654-0.009,0.982-0.02
			c2.331,1.663,4.662,3.326,6.993,4.989c-1.107,3.037-3.091,5.522-5.056,8.018c-3.169-2.057-4.778-5.094-5.481-8.706
			C165.064,57.73,165.623,56.125,167.019,55.021z"/>
		<path fill-rule="evenodd" clip-rule="evenodd" fill="#B68350" d="M165.005,59.044c1.645,2.988,3.289,5.977,4.934,8.965
			c0.017,0.648,0.052,1.296,0.048,1.943c-0.01,1.47,0.08,3.163-1.706,3.599c-2.041,0.497-1.83-1.842-2.848-2.726
			c-0.938,1.231,0.137,3.004-1.171,4.086c0.001,0-0.444,0.159-0.444,0.159c-1.068-1.082-1.066-2.482-1.162-3.856
			c0.016-2.483,0.001-4.956-0.334-7.438c-0.251-1.861,0.173-3.642,1.879-4.83C164.468,58.979,164.736,59.011,165.005,59.044z"/>
		<path fill-rule="evenodd" clip-rule="evenodd" fill="#C29460" d="M150.018,83.005c0.645,3.078,2.832,0.139,4.036,1.034
			c0.271,0.238,0.346,0.455,0.226,0.65c-0.112,0.185-0.221,0.277-0.326,0.277c-0.652,0.674-1.306,1.348-1.959,2.021
			c-1.327,0.69-2.654,1.381-3.982,2.072c-4.617-0.895-2.68-4.415-2.848-7.085c0.165-0.469,0.444-0.87,0.823-1.193
			C147.62,80.987,149.524,80.713,150.018,83.005z"/>
		<path fill-rule="evenodd" clip-rule="evenodd" fill="#876542" d="M153.953,84.967c0.04-0.309,0.073-0.618,0.101-0.928
			c2.021-1.644,4.42-2.508,6.845-3.319C159.344,83.378,157.858,86.149,153.953,84.967z"/>
		<path fill-rule="evenodd" clip-rule="evenodd" fill="#EAC49C" d="M97.061,2.045c3.788,2.692,8.008,0.061,11.939,0.969
			c2.64,2.406,7.021,1.086,9.268,4.338c-0.417,2.287-2.23,2.768-4.074,2.887c-2.044,0.133-3.849,0.844-5.649,1.688
			c-2.827,0.605-5.642,0.9-8.376-0.387c-1.248-3.525-3.598-4.806-7.396-4.262c-3.383,0.484-6.882-0.225-10.286,0.551
			C77.245,8.481,72.294,9.892,67.9,12.994c-1.293,0.913-2.706,1.905-4.508,1.405c-1.701-2.184,0.822-2.39,1.6-3.413
			c7.583-4.674,16.347-5.664,24.698-7.95c0.757-0.207,1.46-0.609,2.187-0.92c1.346-0.059,2.692-0.118,4.038-0.179
			C96.297,1.973,96.679,2.009,97.061,2.045z"/>
		<path fill-rule="evenodd" clip-rule="evenodd" fill="#AF7E50" d="M96.022,100.038c-1.359,1.529-3.897,1.059-5.034,2.966
			c-0.689-0.021-1.378-0.041-2.068-0.062c-0.682-1.962-2.759-2.507-3.976-3.924c1.354-1.508,3.188-1.28,4.935-1.373
			C92.164,97.831,94.744,97.27,96.022,100.038z"/>
		<path fill-rule="evenodd" clip-rule="evenodd" fill="#CF9F7C" d="M20.989,68.985c0.344-0.667,0.689-1.335,1.034-2.003
			c4,0.788,7.999,1.82,12.009,0.044c0.518-0.975,1.379-1.477,2.405-1.758c1.077-0.163,2.082-0.086,2.823,0.858
			c-1.226,5.632-3.216,6.671-10.059,5.25c-0.564-0.354-0.468,0.758-0.271,0.12c3.831,1.705,3.991,4.146,1.436,7.141
			c-0.991,0.445-2.024,0.511-3.083,0.35c-2.108-0.743-4.313-1.347-5.526-3.505C23.918,73.034,23.615,70.873,20.989,68.985z"/>
		<path fill-rule="evenodd" clip-rule="evenodd" fill="#F6DEA2" d="M9.937,58.988c0.601-2.905,3.111-4.229,5.014-6.058
			c1.275-0.112,1.739-2.032,3.31-1.485c-2.118,3.387,5.446,0.782,2.786,4.504c0.328,2.669-2.436,0.763-3.039,2.054
			C15.344,58.552,12.958,61.368,9.937,58.988z"/>
		<path fill-rule="evenodd" clip-rule="evenodd" fill="#E8C17E" d="M36.088,66.048c-0.476,0.767-1.231,0.946-2.056,0.979
			C28.662,65.5,25.767,60.399,21,58.001c1.34-1.384,3.064-1.537,4.843-1.524c2.438,0.915,4.967,1.699,6.416,4.115
			c-0.313-0.624,0.347,0.861-0.163,0.434c-0.051-0.043-0.255,0.097-0.388,0.152C34.774,61.354,34.795,64.273,36.088,66.048z"/>
		<path fill-rule="evenodd" clip-rule="evenodd" fill="#F2D28E" d="M25.984,56.994c-1.531,0.981-3.236,1.102-4.985,1.007
			c-0.998,0.001-1.995,0.001-2.992,0.002c1.013-0.685,2.025-1.368,3.039-2.054c1.326-0.322,2.65-0.645,3.975-0.967
			c0.283,0.059,0.568,0.102,0.856,0.13C26.609,55.7,26.495,56.336,25.984,56.994z"/>
		<path fill-rule="evenodd" clip-rule="evenodd" fill="#BD8E62" d="M31.795,42.154c0.354-0.688,0.708-1.376,1.063-2.063
			c2.187-1.966,4.662-0.896,7.057-0.68c2.356,1.135,3.739,3.169,4.738,5.448c0.911,2.078,2.359,3.053,4.605,2.874
			c1.458,0.137,2.984,0.104,3.938,1.529c-0.139,2.887-2.173,4.719-3.779,6.79c-0.407,0.257-0.854,0.394-1.336,0.399
			c-3.722-0.573-5.637-3.723-8.294-5.82c-0.541-0.438-0.993-0.952-1.353-1.546c-0.834-2.49-2.504-4.139-5.008-4.945
			C32.589,43.72,31.741,43.304,31.795,42.154z"/>
		<path fill-rule="evenodd" clip-rule="evenodd" fill="#CE9D68" d="M39.994,40.011c-2.369,0.876-4.76-0.335-7.135,0.079
			c-4.868-1.023-7.95-4.438-10.85-8.098l0.168-0.182c4.545-0.36,8.878,0.087,12.504,3.264
			C35.945,37.264,40.239,36.209,39.994,40.011z"/>
		<path fill-rule="evenodd" clip-rule="evenodd" fill="#D5A16E" d="M25.984,56.994c-0.035-0.628-0.07-1.256-0.106-1.883
			c0.822-0.131,1.656-0.242,2.131-1.068c2.403-0.212,4.792-0.321,6.995,0.947c0.688,0.641,2.307,1.294,1.922,1.901
			c-1.844,2.912,1.085,1.799,1.88,2.448c0.929,0.465,3.233-0.169,1.751,2.207c-2.954,1.526-5.745,0.636-8.514-0.566
			C30.075,59.572,27.577,58.972,25.984,56.994z"/>
		<path fill-rule="evenodd" clip-rule="evenodd" fill="#62482B" d="M41.169,60.889c-0.865-0.918-2.057-0.713-3.132-0.912
			c-0.304-0.874,0.089-1.136,0.903-1.027c2.883-0.31,1.84-1.944,1.261-3.542c-1.298-3.579-4.281-5.774-6.697-8.452
			c-1.179-1.307-3.625-2.332-1.708-4.802c0.72,0.314,1.441,0.629,2.163,0.942c1.229,2.372,3.966,3.431,5.115,5.872
			c0.329,0.328,0.657,0.657,0.986,0.985c2.167,3.22,4.625,6.296,5.105,10.353C44.005,61.684,42.734,62.304,41.169,60.889z"/>
		<path fill-rule="evenodd" clip-rule="evenodd" fill="#AE7E51" d="M38.94,58.949c-0.301,0.343-0.602,0.686-0.903,1.028
			c-1.446-0.017-2.979,0.394-4.52-1.201c1.554-0.81,3.942-1.631,1.486-3.786C37.762,54.872,40.278,54.994,38.94,58.949z"/>
		<path fill-rule="evenodd" clip-rule="evenodd" fill="#A3764C" d="M29.98,51.955c0.331-0.643,0.662-1.285,0.993-1.928
			c1.526-0.104,2.928,0.157,4.819,1.928C33.345,51.955,31.663,51.955,29.98,51.955z"/>
		<path fill-rule="evenodd" clip-rule="evenodd" fill="#A57750" d="M45.99,92.961c-9.27-1.437-16.726-6.519-24.006-11.951
			c2.115-1.871,4.028-0.708,5.783,0.538c4.119,2.925,9.238,3.356,13.63,5.611c1.349,0.692,2.911,0.283,4.151-0.749
			c2.507-4.887,3.886-5.734,8.835-4.132c2.52,0.816,4.037-0.04,5.718-1.485c2.296-1.973,4.662-2.261,7.026-0.061
			c0.227,0.442,0.32,0.908,0.271,1.404c-1.472,3.525-1.987,7.868-7.073,8.317c-1.537,0.008-2.57-1.019-3.722-1.806
			c-1.834-1.535-3.638-1.591-5.081,0.417C50.103,91.04,48.087,92.024,45.99,92.961z"/>
		<path fill-rule="evenodd" clip-rule="evenodd" fill="#B48358" d="M46.995,86.997c-2.459,2.379-4.817,2.314-7.98,0.788
			c-5.488-2.65-11.335-4.558-17.032-6.775c-2.203-1.033-4.253-2.293-5.976-4.037c-0.001-0.33-0.001-0.659,0-0.988
			c2.057-0.89,3.723,0.38,5.509,0.995c1.78,0.614,3.418,1.99,5.493,1.03c0.991,0.009,1.982,0.017,2.974,0.025
			c1.054,0.421,2.077,0.893,2.884,1.728c1.355,1.446,2.814,1.958,4.746,0.964c2.048-1.054,4.058-0.895,5.755,0.865
			C44.435,83.485,45.901,85.116,46.995,86.997z"/>
		<path fill-rule="evenodd" clip-rule="evenodd" fill="#996E46" d="M45.99,92.961c1.299-2.1,3.622-3.141,5.06-5.249
			c1.656-2.427,4.099-2.646,5.943,0.297c-1.789,1.69-1.501,4.77-4.001,5.983C50.561,94.304,48.28,93.602,45.99,92.961z"/>
		<path fill-rule="evenodd" clip-rule="evenodd" fill="#84613D" d="M52.991,93.992c1.966-1.572-0.757-6.28,4.001-5.983
			c1.554-0.155,1.959,1.4,2.998,2.012c0.3,0.212,0.402,0.426,0.307,0.644c-0.096,0.219-0.193,0.329-0.292,0.329
			c-3.256-0.549-2.465,4.974-6.003,4.001C53.666,94.66,53.328,94.326,52.991,93.992z"/>
		<path fill-rule="evenodd" clip-rule="evenodd" fill="#D29E71" d="M50.899,30.941c0.782-0.278,3.494,0.905,1.55-1.529
			c-2.787-3.491-0.827-6.362,0.53-9.429c0.015,0.338,0.031,0.676,0.047,1.014c1.849,1.92,4.407,1.658,6.715,2.173
			c1.791,0.55,3.561,1.15,5.248,1.978c0.875,0.427,1.728,0.89,2.542,1.429c1.186,1.564,4.396,1.931,3.005,5.035
			c-3.807,0.968-7.767,1.073-11.575,2.053c-2.409-0.173-4.813-0.45-7.237-0.258c-3.96-0.061-7.954,0.206-11.802-1.017
			c-1.453-0.462-3.597-0.435-2.71-3.038c0.329-0.477,0.771-0.805,1.319-0.987c0.541-0.13,1.091-0.152,1.643-0.084
			C43.703,29.342,47.133,30.815,50.899,30.941z"/>
		<path fill-rule="evenodd" clip-rule="evenodd" fill="#E3B884" d="M60,24.004c-2.311-1.034-6.565,2.439-6.974-3.007
			c3.109-1.49,4.098-4.934,6.52-7.079c1.612-1.428,3.238-2.681,5.448-2.932c-0.658,1.008-1.316,2.016-1.974,3.022
			c0.351,0.751-0.048,1.292-0.495,1.822c-1.648,1.369-1.535,2.622,0.115,3.962c1.25,1.016,2.569,2.065,2.634,3.921
			c-0.214,0.448-0.55,0.757-1.013,0.935C62.821,24.548,61.335,24.771,60,24.004z"/>
		<path fill-rule="evenodd" clip-rule="evenodd" fill="#F2D294" d="M37.897,29.191c-0.454,1.223-0.064,1.562,1.261,1.862
			c4.24,0.963,8.518,0.944,12.808,0.964c3.583,0.956,7.304,1.024,10.938,1.683c0.855,2.844-1.396,4.079-2.936,5.687
			c-4.825-0.449-9.099-2.85-13.756-3.908c-6.705,0.155-12.801-2.74-19.22-4.012c-3.976-0.788-6.531-4.487-7.998-8.464
			c1.057-1.041,2.764,0.482,3.723-0.944c0.737-0.701,1.36-0.242,1.988,0.188c1.768,2.188,4.042,3.285,6.861,3.597
			C34.043,26.119,36.539,26.661,37.897,29.191z"/>
		<path fill-rule="evenodd" clip-rule="evenodd" fill="#E7BE7A" d="M18.994,23.003c3.424,4.301,6.817,8.131,13.188,8.383
			c4.933,0.195,9.524,3.468,14.789,2.639c-1.621,2.234,2.081,3.081,1.332,5.094c-0.515,1.148-1.324,1.966-2.567,2.293
			c-1.741,0.038-3.695-0.447-4.428-1.784c-1.929-3.517-5.128-3.383-8.302-3.632c0.105-0.692,0.951-1.833-0.459-1.838
			c-3.656-0.014-6.966-1.341-10.368-2.346c-1.5-1.692,0.039-5.073-3.218-5.786c-0.321-0.34-0.641-0.68-0.961-1.02
			C17.998,24.337,17.999,23.669,18,23C18.331,22.999,18.663,23,18.994,23.003z"/>
		<path fill-rule="evenodd" clip-rule="evenodd" fill="#C18B66" d="M24.03,23.014c-0.437-0.318-0.873-0.638-1.311-0.955
			c0.095-0.195,0.184-0.394,0.265-0.595c-1.219-2.818-3.534-4.787-5.469-7.052c-0.677-1.377-2.655-2.27-1.603-4.292
			c0,0,0.202-0.262,0.203-0.263c3.492,3.551,6.948,7.14,10.518,10.609c0.467,0.454,1.526,0.3,2.311,0.427
			c2.318-0.101,4.485,0.229,6.081,2.162c0.992,1.653-0.058,2.29-1.383,2.791C30.077,26.139,27.061,24.553,24.03,23.014z"/>
		<path fill-rule="evenodd" clip-rule="evenodd" fill="#876341" d="M18.067,13.898c2.602,1.895,4.365,4.334,4.917,7.563
			c-2.029-2.111-4.058-4.225-6.087-6.339C16.566,14.024,17.087,13.742,18.067,13.898z"/>
		<path fill-rule="evenodd" clip-rule="evenodd" fill="#E5C07E" d="M15.991,20.024c-2.79,0.06-4.728-1.858-6.994-3.012
			C12.041,16.36,14.492,17.088,15.991,20.024z"/>
		<path fill-rule="evenodd" clip-rule="evenodd" fill="#9E754C" d="M18.067,13.898c-0.39,0.407-0.779,0.815-1.169,1.224
			c-0.994-1.688-1.987-3.375-2.981-5.063c0.701-1.184,1.339-0.193,1.998,0.06C15.969,11.757,17.373,12.625,18.067,13.898z"/>
		<path fill-rule="evenodd" clip-rule="evenodd" fill="#906942" d="M60.006,90.993c-0.004-0.324-0.009-0.648-0.015-0.973
			c4.644-0.647,4.244-5.729,7.036-8.005c1.324,0.67,2.007,1.554,0.998,3c-0.001,2.323-0.001,4.646-0.002,6.969
			c-0.301,2.168-1.555,2.216-3.174,1.418C63.23,92.605,61.62,91.797,60.006,90.993z"/>
		<path fill-rule="evenodd" clip-rule="evenodd" fill="#996E4F" d="M50.899,30.941c-3.801,0.24-7.514-0.027-10.95-1.896
			c0.198-0.465,0.404-0.932-0.398-1.04c-1.49-0.3-3.663,0.549-3.627-2.211c2.75-1.812,6.387-0.772,9.052-2.839
			c0.335-0.324,0.67-0.649,1.005-0.974c0.119,0.116,0.361,0.267,0.339,0.345C44.557,28.701,44.556,28.7,50.899,30.941z"/>
		<path fill-rule="evenodd" clip-rule="evenodd" fill="#D7AC83" d="M20.989,68.985c2.505-0.378,3.838,1.412,4.224,3.214
			c0.411,1.918-1.499,2.567-3.211,2.81C17.169,76.799,15.811,73.037,14,70C16.097,68.059,18.671,69.403,20.989,68.985z"/>
		<path fill-rule="evenodd" clip-rule="evenodd" fill="#CB9A6B" d="M14,70c2.914,1.275,4.006,5.461,8.001,5.009
			c1.669,1,3.338,2,5.008,3.001c-0.887,1.936-2.158,1.96-3.929,1.056c-2.286-1.167-4.708-2.066-7.072-3.081
			c-0.666-0.665-1.331-1.33-1.996-1.995c-1.048-1.146-1.798-2.37-1.025-3.984C13.325,70.003,13.662,70.002,14,70z"/>
		<path fill-rule="evenodd" clip-rule="evenodd" fill="#BE8C5D" d="M12.987,70.005c0.701,1.235,1.159,2.534,1.025,3.984
			c-5.037-0.204-3.707-4.063-4.009-6.984C10.998,68.005,11.992,69.005,12.987,70.005z"/>
		<path fill-rule="evenodd" clip-rule="evenodd" fill="#AE8057" d="M90.004,98.997c-1.686,0.007-3.373,0.015-5.06,0.021
			c-4.124-2.636-9.676-2.703-12.809-7.122c0.563-0.607,1.288-0.805,2.082-0.835c5.082,2.617,10.752,3.828,15.796,6.552
			C90.357,98.077,90.354,98.539,90.004,98.997z"/>
		<path fill-rule="evenodd" clip-rule="evenodd" fill="#D29F6C" d="M74.006,91.992c-0.625-0.031-1.249-0.063-1.872-0.095
			c-0.685-0.664-1.37-1.327-2.055-1.99c-0.064-0.283-0.127-0.566-0.187-0.851c0.995-2.206,2.638-1.816,4.369-1.102
			c1.081,0.62,1.996,1.368,2.02,2.763C75.895,91.802,74.578,91.232,74.006,91.992z"/>
		<path fill-rule="evenodd" clip-rule="evenodd" fill="#DCAC7C" d="M74.029,88.971c-1.398-0.908-2.776-0.842-4.136,0.086
			c-1.213-0.731-0.776-1.933-0.851-2.988c0.428-1.438,0.038-3.297,2.017-3.944c6.792-0.484,12.783-4.74,19.791-4.234
			c0.516,0.062,1.021,0.179,1.52,0.321c1.99,0.701,4.056,0.439,6.101,0.458c1.892,0.009,3.785-0.034,5.647,0.386
			c3.243,1.004,6.578,0.427,9.87,0.563c2.253,0.016,4.505,0.012,6.757,0.015c1.952,0.161,4.104-0.288,5.447,1.753
			c-0.042,1.416-1.011,1.881-2.186,2.137c-6.421-0.648-12.738,0.478-19.077,1.196c-0.505,0.161-1.023,0.27-1.546,0.354
			c-3.418,0.732-6.657-1.009-10.042-0.718c-6.366-0.107-12.874-0.921-18.299,3.669C74.723,88.359,74.384,88.674,74.029,88.971z"/>
		<path fill-rule="evenodd" clip-rule="evenodd" fill="#6C5034" d="M70.938,82.97c-0.632,1.033-1.264,2.065-1.896,3.099
			c-0.339-0.351-0.678-0.702-1.017-1.053c-0.333-1-0.666-2-0.999-3c-0.007-0.338-0.015-0.677-0.023-1.016
			c1.994-5.407,7.25-5.544,11.586-7.184c2.569-0.235,5.127-0.525,7.687-0.833c2.207-0.266,4.74-0.271,4.813,3.112
			c-2.262,0.611-4.512,0.61-6.56,0.095c1.791,1.55,4.962-1.291,6.676,1.524C84.367,79.149,77.375,79.99,70.938,82.97z"/>
		<path fill-rule="evenodd" clip-rule="evenodd" fill="#AE7B5D" d="M44.976,22.956c-2.131,3.556-5.611,3.124-8.975,3.037
			c-1.346,0.751-2.62,1.274-3.032-0.951c1.266-0.062,1.981-0.692,2.056-1.986C38.342,23.022,41.659,22.989,44.976,22.956z"/>
		<path fill-rule="evenodd" clip-rule="evenodd" fill="#C18D5B" d="M137.979,70.022c-1.327-0.014-2.653-0.027-3.98-0.04
			c-3.406,0.067-6.83,0.994-10.207-0.185c-1.799-0.722,0.531-3.563-2.003-3.93c0.191-1.513,1.278-1.709,2.567-1.725
			c0.171-0.044,0.076-0.252-0.386-0.302c-8.865-0.947-13.079-6.983-15.944-14.516c-0.866-1.574-1.414-3.185-0.548-4.946
			c4.147-0.192,7.391,1.896,10.106,4.603c2.666,2.656,5.472,5.248,7.535,8.467c1.391,2.169,3.334,3.093,5.903,2.553
			c0.729-0.068,1.451-0.034,2.17,0.099c4.557,1.322,7.828,4.396,10.775,7.917C142.375,69.89,140.556,71.088,137.979,70.022z"/>
		<path fill-rule="evenodd" clip-rule="evenodd" fill="#AA8154" d="M123.022,69.024c3.644,0.494,7.476-1.17,10.977,0.958
			c-0.746,0.395-0.949,1.064-0.935,1.845c-0.707,1.085-1.831,1.342-2.998,1.513c-7.271,1.596-14.644,1.144-21.998,1.06
			c-3.407-0.268-6.873,0.443-10.229-0.604c-0.532-0.251-0.876-0.666-1.03-1.233c3.843-3.536,8.392-2.037,12.575-1.325
			c2.977,0.508,0.376-0.825,0.48-1.087c0.957-2.398,2.783-3.071,5.129-2.901C117.2,69.935,120.476,67.838,123.022,69.024z"/>
		<path fill-rule="evenodd" clip-rule="evenodd" fill="#DDAF71" d="M139.945,82.835c-0.946,0.755-1.893,1.51-2.839,2.265
			c-3.488-0.418-1.007-3.693-2.46-5.082c-1.491-1.59-5.118-1.785-3.546-5.382c0.223-0.411,0.52-0.761,0.88-1.059
			c2.76-1.432,5.323,0.622,8.015,0.456c1.331,1.089,0.979,2.558,0.892,3.965C139.858,79.472,141.193,81.404,139.945,82.835z"/>
		<path fill-rule="evenodd" clip-rule="evenodd" fill="#A0764D" d="M146.018,81.015c0.412,2.744-1.359,6.029,1.994,8.044
			c-1.362,1.257-2.721,2.499-4.607,0.809c-1.682-1.507-1.487-2.969-0.217-4.713c1.571-2.159,0.541-4.775,0.869-7.166
			C146.159,78.058,146.495,79.272,146.018,81.015z"/>
		<path fill-rule="evenodd" clip-rule="evenodd" fill="#AF8156" d="M146.018,81.015c-0.654-1.009-1.309-2.018-1.962-3.026
			c-0.028-1.311-0.058-2.62-0.087-3.93c-0.95-1.629-1.466-3.277-0.239-5.012c1.726-0.845,2.911-0.051,3.924,1.286
			c1.014,3.625,1.688,7.231-0.68,10.643C146.655,80.986,146.336,80.999,146.018,81.015z"/>
		<path fill-rule="evenodd" clip-rule="evenodd" fill="#EECE88" d="M139.995,74.033c-0.123,1.957-1.328,1.298-2.381,0.978
			c-1.841-0.56-3.645-1.325-5.642-0.992c-0.841,0.758-1.761,0.88-2.763,0.344c-1.029-1.223-0.037-1.735,0.81-2.3
			c1.015-0.078,2.03-0.156,3.045-0.234C135.332,72.696,138.501,70.734,139.995,74.033z"/>
		<path fill-rule="evenodd" clip-rule="evenodd" fill="#AA8154" d="M144,69c-0.011,1.686-0.021,3.371-0.031,5.058
			c-1.997-1.345-3.993-2.69-5.989-4.035c2.001-0.668,4.002-1.336,6.003-2.005c0.118,0.162,0.236,0.323,0.354,0.485
			C144.225,68.668,144.112,68.834,144,69z"/>
		<path fill-rule="evenodd" clip-rule="evenodd" fill="#C79363" d="M139.945,82.835c0.24-1.627-0.495-3.443,0.941-4.837
			c0.057,1.347,0.112,2.693,0.169,4.04C140.686,82.304,140.315,82.569,139.945,82.835z"/>
		<path fill-rule="evenodd" clip-rule="evenodd" fill="#BB8760" d="M123.941,82.958c0.684-0.321,1.367-0.643,2.051-0.964
			c0.744-1.646,2.037-2.032,3.683-1.607c2.236,1.339,1.761,2.854,0.175,4.3c-1.602,1.46-3.16,2.882-2.788,5.346
			c-0.677,0.329-1.354,0.659-2.031,0.988c-1.365,0.548-2.85,1.098-3.94-0.26c-0.465-0.578,0.004-1.95-1.473-0.817
			c-1.958,1.502-4.535,1.765-6.618,3.059c-2.544,1.578-4.878,3.575-7.994,4.016c-1.629-3.309,2.012-3.769,3.038-5.645
			c1.298-1.395,3.1-2.095,4.528-3.313C115.737,84.971,119.512,83.232,123.941,82.958z"/>
		<path fill-rule="evenodd" clip-rule="evenodd" fill="#C39062" d="M108.987,91.964c-0.645,2.223-4.225,2.132-3.982,5.053
			c-0.334,0.329-0.668,0.657-1.003,0.985c-2.66,0.679-5.32,1.357-7.979,2.036c-1.851-1.245-3.95-1.054-6.019-1.041
			c-0.009-0.328-0.015-0.656-0.02-0.984c1.623-2.58,4.622-1.913,6.902-2.945c2.454-0.81,4.688-2.145,7.12-3.003
			C105.652,91.483,107.298,90.523,108.987,91.964z"/>
		<path fill-rule="evenodd" clip-rule="evenodd" fill="#A3754D" d="M112.999,93.002c2.552-3.251,6.576-3.909,10.693-6.153
			c-2.311,2.986-2.628,4.772,1.338,4.172c-0.648,0.35-1.298,0.699-1.946,1.05C119.837,93.621,116.37,92.788,112.999,93.002z"/>
		<path fill-rule="evenodd" clip-rule="evenodd" fill="#C79363" d="M127.062,90.032c-4.264-2.188-0.229-3.554,0.62-5.06
			c0.748-1.326,3.834-1.261,2.317-3.969c0.929-3.868,3.641-2.38,5.985-1.993c2.044,1.722-1.359,4.446,1.121,6.088
			C134.41,88.071,130.687,88.951,127.062,90.032z"/>
		<path fill-rule="evenodd" clip-rule="evenodd" fill="#E2B59E" d="M148.999,27c-0.331,1.666-0.662,3.332-0.993,4.997
			c-2.887,2.235-1.829,7.26-6.049,8.56c-4.308-1.595-7.297-4.397-8.275-9.043c-2.132-5.423,0.517-8.893,4.78-11.705
			c1.293-0.506,2.45-0.059,3.589,0.515C144.305,22.607,147.599,23.821,148.999,27z"/>
		<path fill-rule="evenodd" clip-rule="evenodd" fill="#E9C599" d="M148.999,27c-2.515-1.787-5.454-3.076-7.007-5.988
			c0.11-0.712,2.05-0.205,1.134-1.401c-1.095-1.43-2.349-3.434-4.061-3.498c-7.531-0.285-12.114-7.436-19.432-8.039
			c-0.652-0.054-1.177-0.578-1.635-1.072c-3.061-1.191-7.295,0.266-8.999-3.987c8.875-1.386,15.975,4.599,24.201,5.822
			c6.14,0.913,10.419,4.85,14.691,8.684C150.786,20.116,151.199,23.538,148.999,27z"/>
		<path fill-rule="evenodd" clip-rule="evenodd" fill="#D5A082" d="M160.986,42.01c0.344,1.663,0.688,3.325,1.03,4.988
			c0.257,0.951-0.322,1.389-1.059,1.73c-2.317-0.245-3.092,0.204-5.005,2.712c-0.702,0.921-1.672,1.532-2.797,1.87
			c-2.464-0.261-3.186-2.1-3.722-4.106c1.043-3.892-0.032-8.105,2.161-11.914c0.988-1.716-2.457-3.049-1.59-5.285l-0.001-0.001
			c1.806-1.985,2.336-4.514,2.977-6.995c0.007-1.67,0.015-3.341,0.021-5.012c0.333,0.334,0.665,0.668,0.998,1.002
			C155.643,28.231,159.643,34.679,160.986,42.01z"/>
		<path fill-rule="evenodd" clip-rule="evenodd" fill="#D9A98F" d="M150.006,32.005c2.086,2.701,5.702,5.056,1.332,8.924
			c-0.735,0.65-0.537,3.014-0.017,4.274c0.794,1.921-0.378,2.717-1.32,3.793c-1.644,1.303-3.251,0.312-4.867-0.064
			c-2.961-2.298-1.896-6.016-3.126-8.93c1.511-0.681,1.993-1.912,2.008-3.491c0.025-2.619,1.367-4.151,3.99-4.514
			C148.673,32,149.34,32.002,150.006,32.005z"/>
		<path fill-rule="evenodd" clip-rule="evenodd" fill="#D9A98F" d="M152.981,25.009c-0.132,2.698,0.741,5.823-2.977,6.995
			C149.884,29.198,151.808,27.264,152.981,25.009z"/>
		<path fill-rule="evenodd" clip-rule="evenodd" fill="#C6906E" d="M160.986,42.01c-3.093-6.749-7.417-13.09-6.985-21.011
			C158.373,27.323,162.104,33.86,160.986,42.01z"/>
		<path fill-rule="evenodd" clip-rule="evenodd" fill="#C48D65" d="M161.003,48.007c0.338-0.337,0.676-0.673,1.014-1.009
			c2.938,1.883,5.002,4.309,5.001,8.023c0.099,1.726-0.272,3.217-2.013,4.022l-0.021-0.115
			C159.588,54.11,158.907,52.241,161.003,48.007z"/>
		<path fill-rule="evenodd" clip-rule="evenodd" fill="#F0CC84" d="M163.913,71.048c-0.031,1.34-0.063,2.681-0.095,4.021
			c-0.83,0.711-1.743,2.128-2.809,0.755c-2.002-2.58-4.043-1.406-6.17-0.34c-0.34-5.75-2.477-8.033-7.835-8.493
			c-3.705-3.688-7.882-6.808-12.028-9.975c-1.038-2.446-1.69-4.925-0.62-7.539c0.265-0.44,0.657-0.706,1.165-0.795
			c3.471,5.209,9.43,7.743,13.394,12.424c1.14,1.346,2.602,1.282,4.119,1.113c2.574,0.16,5.294-0.662,7.637,1.107
			C164.263,64.846,163.025,68.391,163.913,71.048z"/>
		<path fill-rule="evenodd" clip-rule="evenodd" fill="#D7A76D" d="M135.998,57c4.677,2.22,9.016,4.813,11.007,9.992
			c-0.001,0.328,0.001,0.656,0.008,0.984c-0.164,0.158-0.328,0.316-0.492,0.476c-0.929,0.351-1.779,0.225-2.54-0.426l0.002-0.009
			c-4.068-1.704-6.722-5.62-10.982-7.023c-1.275-1.484-2.214-3.049-1.217-5.078C133.584,54.735,134.781,55.906,135.998,57z"/>
		<path fill-rule="evenodd" clip-rule="evenodd" fill="#D2A26B" d="M146.974,80.976c0.001-3.653,0.002-7.306,0.003-10.959
			c-0.571-0.667-0.568-1.331,0.009-1.992c0,0,0.026-0.047,0.026-0.048c3.197,1.108,3.806,3.941,3.887,6.674
			c0.083,2.773-0.558,5.569-0.881,8.354C149.206,82.023,146.729,83.542,146.974,80.976z"/>
		<path fill-rule="evenodd" clip-rule="evenodd" fill="#CF9A6E" d="M163.913,71.048c-1.312-2.354-0.856-5.698-3.95-7.055
			c-0.889-1.506-1.733-3.039-2.762-4.459c-1.267-2.267-4.574-3.222-4.211-6.532c1.029-2.104,4.65-2.772,2.616-6.368
			c2.373,0.408,3.666,1.774,5.396,1.372c-1.879,4.811,3.063,7.135,3.981,10.924C161.704,62.71,165.003,67.073,163.913,71.048z"/>
		<path fill-rule="evenodd" clip-rule="evenodd" fill="#EDCDBA" d="M100.008,10.977c2.998,0.003,5.997,0.007,8.995,0.01
			c4.625-1.158,9.22-0.678,13.633,0.781c3.45,1.141,6.407,3.479,9.919,4.621c1.115,0.362,1.89,1.361,1.542,2.765
			c-5.904,3.6-12.035,4.352-18.45,1.445c-1.365-0.619-2.761-1.36-4.274-0.714c-9.523,4.068-19.46,2.199-29.278,2.111
			c-2.069-0.787-3.184-2.157-2.721-4.479c3.776-3.923,8.922-5.383,13.663-7.575C95.426,9.81,98.043,8.216,100.008,10.977z"/>
		<path fill-rule="evenodd" clip-rule="evenodd" fill="#F6DEB4" d="M94,10.991c-4.667,2.005-9.333,4.01-14,6.015
			c-4.689,0.079-9.388,0.031-14.017,1.037c-1.897-0.254-4.743,0.726-3.974-3.021c0.336-0.337,0.673-0.675,1.01-1.013
			c4.874-1.426,8.329-5.771,13.633-6.465c1.782-0.232,3.549-0.496,5.347-0.551c3.08,0.722,6.169-0.138,9.249,0.052
			C93.774,7.2,95.562,7.948,94,10.991z"/>
		<path fill-rule="evenodd" clip-rule="evenodd" fill="#EECEA7" d="M133.998,18.996c-5.267-1.912-9.521-6.282-15.242-6.852
			c-3.262-0.325-6.509-0.707-9.753-1.158c0.9-2.024,2.683-2.05,4.503-1.986c1.823,0.063,3.604,0.032,4.493-1.999
			c4.539,0.454,9.129,0.602,12.348,4.728c1.223,1.566,3.218,2.518,5.269,2.217c4.188-0.614,6.194,2.349,8.553,4.806
			c0.589,0.613,1.079,1.476,0.538,2.196c-0.744,0.994-1.798-0.158-2.714,0.064c-0.995-0.332-1.99-0.664-2.985-0.995
			C137.039,21.142,135.434,20.482,133.998,18.996z"/>
		<path fill-rule="evenodd" clip-rule="evenodd" fill="#F2D4AA" d="M94,10.991c-0.089-4.681-3.671-3.098-5.773-2.724
			c-2.446,0.435-4.478,0.852-6.228-1.274c5.489-2.237,11.268-0.647,16.89-1.014c2.1-0.137,0.626,3.276,1.119,4.998
			C98.002,9.879,96.001,10.289,94,10.991z"/>
		<path fill-rule="evenodd" clip-rule="evenodd" fill="#C28F72" d="M31.99,80.019c-0.669-0.661-1.338-1.322-2.007-1.983
			c2.569-2.997-0.615-5.067-1.512-8.085c4.918,1.855,8.785,1.427,10.541-3.892c0.943-1.144,2.196-1.172,3.511-0.984
			c0.725,0.189,1.333,0.549,1.709,1.223c-0.155,1.595,0.245,2.954,1.7,3.854c1.216,2.407,2.244,4.938,5.633,5.005
			c0.902,0.018,1.801,0.707,1.548,1.973c-1.189,1.125-2.723,1.201-4.188,1.196C43.217,78.308,37.607,79.185,31.99,80.019z"/>
		<path fill-rule="evenodd" clip-rule="evenodd" fill="#E9C27D" d="M43.037,65.911c-1.341,0.049-2.683,0.098-4.024,0.147
			c-0.976-0.004-1.951-0.008-2.925-0.012c-0.928-0.134-2.723-0.021-2.53-0.795c0.971-3.9-2.03-2.818-3.945-2.986
			c0.44-1.796,1.651-1.023,2.431-1.284c3.042-0.031,6.084-0.062,9.127-0.093c1.25-0.332,2.5-0.665,3.749-0.997
			c0.8-1.48,1.142-3.329,3.113-3.867c0.272-0.038,0.545-0.061,0.82-0.066c3.182-2.846,4.16,0.314,5.659,2.071
			c0.486,2.183-0.609,3.808-1.893,5.369c-1.433,1.309-3.032,2.266-5.045,2.312C46.059,65.665,44.534,65.457,43.037,65.911z"/>
		<path fill-rule="evenodd" clip-rule="evenodd" fill="#E9C38D" d="M54.004,58c-1.777-0.528-2.577-3.521-5.151-2.041
			c0.835-2.35,2.06-4.437,4.06-5.999c0.557-0.995,1.026-2.055,2.033-2.719c0.854-0.558,1.75-0.824,2.748-0.396
			c4.001,3.232,4.095,4.313,0.832,9.413C57.079,56.987,55.896,58.418,54.004,58z"/>
		<path fill-rule="evenodd" clip-rule="evenodd" fill="#D6A573" d="M33.004,35.995c3.2-0.702,6.609-2.783,8.364,2.447
			c0.413,1.23,3.026,1.723,4.627,2.555c0.76,0.138,1.288,0.584,1.657,1.243c0.443,2.244,2.067,4.258,1.34,6.736
			c-2.494,0.182-4.642-0.025-5.213-3.187c-0.432-2.388-2.621-3.782-3.785-5.779C38.621,37.007,34.866,38.148,33.004,35.995z"/>
		<path fill-rule="evenodd" clip-rule="evenodd" fill="#D8A582" d="M48.993,48.977c-1.151-2.185-2.374-4.348-1.992-6.97
			c2.83-0.293,4.858,1.625,7.152,2.719c1.193,0.57,1.92,1.831,0.84,3.271c-0.405,0.959-1.062,1.653-2.08,1.964
			C51.891,48.495,50.327,49.191,48.993,48.977z"/>
		<path fill-rule="evenodd" clip-rule="evenodd" fill="#996F46" d="M48.031,56.024c-0.903,1.397-0.956,3.479-3.113,3.867
			c-2.556-2.854-3.955-6.274-4.858-9.938C43.424,51.049,44.791,54.767,48.031,56.024z"/>
		<path fill-rule="evenodd" clip-rule="evenodd" fill="#795A3A" d="M39.074,48.968c-2.085-1.627-5.412-2.172-5.115-5.872
			C36.785,44.077,39.098,45.505,39.074,48.968z"/>
		<path fill-rule="evenodd" clip-rule="evenodd" fill="#AF7E5F" d="M77.938,74.952C74.091,76.604,70.115,78.02,67.003,81
			c-2.581-0.909-4.93-1.286-6.954,1.36c-1.515,1.98-3.267,2.351-5.91,0.959c-3.801-2-6.379-0.356-7.144,3.678
			c-2.306-0.885-3.812-2.41-3.995-4.992c0.321-3.344,2.329-3.856,5.199-3.257c3.257,0.68,6.551,1.141,9.712-0.496
			c6.464-1.423,12.306-4.784,18.822-6.057c0.758-0.075,1.471,0.054,2.12,0.473C79.745,73.908,78.787,74.408,77.938,74.952z"/>
		<path fill-rule="evenodd" clip-rule="evenodd" fill="#BC8869" d="M58.004,79.008c-2.548,3.216-6.316,1.952-8.899,1.188
			c-3.017-0.892-4.491-0.253-6.105,1.808c-1.507-0.776-3.384-1.797-4.66-0.485c-3.214,3.301-4.738,1.091-6.35-1.5
			c6.564-4.061,13.942-2.458,21.009-3.02C55.456,75.704,56.909,76.909,58.004,79.008z"/>
		<path fill-rule="evenodd" clip-rule="evenodd" fill="#DCB290" d="M66.999,26.994c-0.817-0.027-1.566-0.195-2-0.993
			c-0.592-0.653-0.59-1.315-0.029-1.985l0.042-0.036c3.683-3.202,8.302-0.535,12.267-1.973c8.808,0.527,17.619,1.056,26.291,2.852
			c4.872,1.78,9.334,4.464,14.076,6.512c5.101,2.201,9.188,5.679,13.244,9.289c0.367,0.353,0.683,0.744,0.971,1.164
			c0.677,1.163,1.147,2.334,0.074,3.534c-0.935,0.571-1.93,0.6-2.958,0.332c-0.948-0.294-2.087-0.636-2.535-1.413
			c-3.314-5.759-9.332-7.126-14.84-9.33c-4.609-0.935-8.178-4.366-13.18-4.84c-2.942-0.278-5.885,0.364-8.768-0.344
			c-4.953-2.376-10.146-2.804-15.492-1.895C71.675,28.291,69.228,28.587,66.999,26.994z"/>
		<path fill-rule="evenodd" clip-rule="evenodd" fill="#D6A675" d="M66.999,26.994c5.523,0.356,10.938-1.794,16.499-0.695
			c2.359,0.466,4.865,0.52,6.5,2.703c3.042,2.343,7.355,1.451,10.308,4.033c1.188,0.804,2.705,1.216,3.288,2.743
			c0.118,0.495,0.111,0.989-0.013,1.484c-0.303,0.736-0.846,1.203-1.606,1.421c-2.924,0.195-5.197-1.66-7.737-2.604
			c-2.741-1.02-5.289-1.348-7.979-0.145c-3,0.446-5.709-0.838-8.548-1.374c-2.4-0.454-4.83-0.29-7.184,0.506
			c-2.586,0.252-5.236,0.96-7.515-1.02c-3.875,0.379-7.563-0.256-11.043-2.03c2.457-0.06,4.923-0.201,7.239,0.888
			c6.929-1.187,13.893-1.526,20.303-1.362c-2.347-0.629-5.58,0.699-8.5-0.598C69.748,29.552,67.699,28.958,66.999,26.994z"/>
		<path fill-rule="evenodd" clip-rule="evenodd" fill="#90674E" d="M32.969,25.042c0.768,1.091,1.944,0.88,3.032,0.951
			c1.755,1.813,4.011,0.674,6.016,1.021c0.276,2.578-2.254,0.762-2.92,1.865c-0.399,0.104-0.799,0.208-1.198,0.313
			c-3.182-1.28-6.392-2.356-9.844-2.792c-1.829-0.231-3.096-1.757-4.023-3.387C27.258,22.596,29.925,24.65,32.969,25.042z"/>
		<path fill-rule="evenodd" clip-rule="evenodd" fill="#AB7851" d="M71.009,30.945c3.265,0,6.529,0,9.793,0
			c-7.249,0.385-14.313,2.748-21.599,1.961C62.864,30.59,67,31.145,71.009,30.945z"/>
		<path fill-rule="evenodd" clip-rule="evenodd" fill="#D6A675" d="M64.969,24.016c0.01,0.662,0.02,1.323,0.029,1.985
			c-1.762-0.426-3.605-0.648-4.998-1.997C61.656,24.008,63.313,24.012,64.969,24.016z"/>
		<path fill-rule="evenodd" clip-rule="evenodd" fill="#72523C" d="M39.096,28.879c0.974-0.622,1.947-1.244,2.92-1.865
			c1.437,2.841-1.225,1.511-2.067,2.031C39.659,29.021,39.375,28.966,39.096,28.879z"/>
		<path fill-rule="evenodd" clip-rule="evenodd" fill="#EAC39E" d="M77.022,23.009c-3.889,1.743-8.049,0.14-12.012,0.971
			c-1.094-1.188-1.982-2.74-3.32-3.498c-3.892-2.203-2.486-3.804,0.319-5.46c0.667,3.184,3.235,1.545,4.99,1.97
			c3.11,0.183,4.634,3.186,7.33,4.104C75.257,21.689,76.369,22.028,77.022,23.009z"/>
		<path fill-rule="evenodd" clip-rule="evenodd" fill="#EBC592" d="M48.007,39.003c-0.27-1.676-4.1-2.61-1.037-4.979
			c4.143,2.179,9.039,2.381,13.025,4.97c0.381-0.328,0.822-0.471,1.325-0.434c1.279,0.508,3.12,0.449,2.725,2.67
			c-0.936,0.91-2.148,1.254-3.343,1.643C55.572,44.536,51.051,44.186,48.007,39.003z"/>
		<path fill-rule="evenodd" clip-rule="evenodd" fill="#F7DDA7" d="M60.992,39.009c-0.332-0.003-0.665-0.008-0.997-0.016
			c-0.085-2.313,2.253-3.148,3.014-4.946c2.65-0.024,5.3-0.051,7.95-0.076c2.698,0.11,6.096-2.582,7.697,1.917
			c-0.227,1.213-1.045,1.568-2.137,1.33c-3.795-0.825-6.978,0.673-10.064,2.591C64.559,40.049,62.771,39.562,60.992,39.009z"/>
		<path fill-rule="evenodd" clip-rule="evenodd" fill="#DFB28C" d="M48.007,39.003c3.906,2.829,8.095,4.429,12.985,3.001
			c1.156,3.655-1.219,4.485-3.995,4.995c-0.668,0.332-1.336,0.664-2.004,0.997C54.2,43.501,48.685,45.311,47,42.007
			c-0.335-0.337-0.67-0.673-1.005-1.01C46.383,40.047,47.047,39.377,48.007,39.003z"/>
		<path fill-rule="evenodd" clip-rule="evenodd" fill="#CA9A72" d="M97.021,96.031c-2.087,1.576-4.806,0.911-7.035,1.981
			c-5.649-1.15-10.922-3.299-15.979-6.021c0.437-0.808,1.191-0.975,2.016-1.002c1.071-0.504,2.028-0.038,2.999,0.338
			C84.941,93.202,91.199,93.782,97.021,96.031z"/>
		<path fill-rule="evenodd" clip-rule="evenodd" fill="#E1B791" d="M78.011,91.991c-0.663-0.334-1.326-0.667-1.989-1.001
			c-0.664-0.673-1.329-1.346-1.993-2.02c0.019-0.343,0.038-0.686,0.056-1.028c2.966-0.139,5.955-0.568,8.816,0.702
			c0.83,1.467,3.741,2.113,1.847,4.656C82.559,92.565,80.184,92.797,78.011,91.991z"/>
		<path fill-rule="evenodd" clip-rule="evenodd" fill="#F5DBAE" d="M82,89.007c-2.738,0.384-5.39,0.125-7.916-1.063
			c2.04-3.468,5.64-4.314,9.101-4.828c3.203-0.476,6.534-0.084,9.808-0.074c3.596,1.146,7.196,2.24,11.003,0.949l-0.003,0.001
			c1.041-0.745,2.233-0.412,3.368-0.462c1.097-0.048,1.945,0.34,2.179,1.525c0.213,1.079-0.173,1.981-1.046,2.6
			c-1.777,1.257-3.766,2.053-5.889,2.51c-1.478,0.24-3.222-0.284-4.433,0.453C92.303,94.193,87.114,92.276,82,89.007z"/>
		<path fill-rule="evenodd" clip-rule="evenodd" fill="#EFCC9B" d="M102.003,89.002c0.917-0.298,1.99-0.388,2.715-0.938
			c1.312-0.997,4.325-0.436,3.896-2.772c-0.424-2.31-3.025-0.895-4.621-1.301c6.595-1.407,13.166-3.267,19.948-1.032
			c-3.324,2.594-8.102,2.564-10.929,6.055c-3.454,1.271-6.811,3.243-10.687,1.482C101.791,90.091,101.685,89.593,102.003,89.002z"/>
		<path fill-rule="evenodd" clip-rule="evenodd" fill="#D09C6B" d="M135.984,79.011c-2.25-0.103-4.414,0.056-5.985,1.993
			c-1.455-0.155-2.754,0.324-4.007,0.99c-1.409-1.71-3.386-0.705-5.077-1.06c-0.162-0.464-0.159-0.927,0.004-1.391
			c1.463-2.833,4.188-3.716,6.974-4.512c1.363,0.215,2.71-1.068,4.086-0.062C130.226,79.38,135.366,76.954,135.984,79.011z"/>
		<path fill-rule="evenodd" clip-rule="evenodd" fill="#D29F6C" d="M70.938,82.97c5.767-5.405,13.008-4.803,20.071-4.921
			c0.948-0.321,1.172,0.105,0.987,0.955c-6.213-1.21-11.186,3.546-17.152,3.572C73.541,82.582,72.24,82.832,70.938,82.97z"/>
		<path fill-rule="evenodd" clip-rule="evenodd" fill="#66492D" d="M91.996,79.004c-0.329-0.318-0.658-0.638-0.987-0.955
			c-1.939-2.128-4.717-0.337-6.904-2.096c2.311,0,4.622,0,6.932,0c1.868-2.283,3.53-0.737,5.229,0.268
			c3.865,1.476,8.395,0.329,11.942,3.036c-1.105,2.078-2.774,1.179-4.34,0.825c-1.931-0.04-3.861-0.081-5.791-0.122
			c-1.888-1.206-4.194,0.258-6.08-0.955L91.996,79.004z"/>
		<path fill-rule="evenodd" clip-rule="evenodd" fill="#805D3A" d="M103.869,80.082c1.357-0.368,3.006,0.409,4.091-1.035
			c2.258-1.939,5.118-1.743,7.763-1.901c1.721-0.103,3.512,0.714,1.186,2.798c-0.891,0.58-2.053,0.346-2.935,0.965
			C110.577,80.981,107.132,81.652,103.869,80.082z"/>
		<path fill-rule="evenodd" clip-rule="evenodd" fill="#EFCC9B" d="M103.996,83.99c-3.837,1.643-7.549,1.838-11.003-0.949
			C96.661,83.357,100.328,83.674,103.996,83.99z"/>
		<path fill-rule="evenodd" clip-rule="evenodd" fill="#A4794F" d="M113.974,80.908c0.671-0.307,1.342-0.613,2.013-0.92
			c1.436-0.652,2.889-1.145,4.473-0.513c0.188,0.181,0.377,0.362,0.564,0.544c-0.009,0.309-0.045,0.614-0.107,0.916
			C118.602,80.926,116.288,80.917,113.974,80.908z"/>
		<path fill-rule="evenodd" clip-rule="evenodd" fill="#D29F6C" d="M91.998,79.005c2.027,0.311,4.208-0.353,6.079,0.955
			C96.031,79.768,93.79,80.815,91.998,79.005z"/>
		<path fill-rule="evenodd" clip-rule="evenodd" fill="#7D6040" d="M94.933,77.054c-0.96-1.564-2.379-1.504-3.896-1.1
			c-1.117-2.146-3.103-2.379-4.99-1.731c-2.691,0.922-5.383,0.764-8.108,0.729c0.352-0.652,0.704-1.305,1.056-1.957
			c1.122-1.77,2.941-2.04,4.792-2.244c2.899-0.073,5.846,0.136,8.519-1.363c1.277-0.587,2.436-1.399,3.696-2.019
			c2.519-0.371,4.519-1.896,6.688-3.043c2.489-0.625,4.639-1.362,7.019,1.166c1.79,1.901,4.128-0.602,6.146-1.454
			c3.258-1.063,4.537-0.318,2.853,3.128c-0.781,0.721-1.579,1.397-2.743,0.789c-1.616,0.806-5.252-0.878-4.051,3.472
			c0.253,0.915-1.25,0.464-1.94,0.548c-4.315,0.525-8.767-1.024-12.996,0.852c-0.01,1.265-0.767,2.264-1.197,3.381
			C95.576,76.568,95.296,76.853,94.933,77.054z"/>
		<path fill-rule="evenodd" clip-rule="evenodd" fill="#CF9D6E" d="M103.009,37.014c-0.003-0.338-0.006-0.675-0.009-1.012
			c0.738-1.688,2.188-2.203,3.7-1.583c3.228,1.322,6.705,1.696,9.943,3.093c3.891,1.678,6.939,3.772,8.189,8.028
			c1.017,3.462,3.734,5.378,6.819,6.866c1.143,1.101,1.362,2.29,0.345,3.595c0.334,1.665,0.668,3.329,1.003,4.993
			c-0.666,0-1.332,0-1.998-0.001c-6.304-1.046-8.99-6.638-12.004-10.912c-3.521-4.994-7.517-8.522-13.037-10.65
			C104.723,38.952,103.52,38.396,103.009,37.014z"/>
		<path fill-rule="evenodd" clip-rule="evenodd" fill="#936B44" d="M116.007,65.006c-2.893,1.118-5.795,6.173-8.657-0.316
			c-0.561-1.27-2.72,1.878-4.358,0.299c-1.424-2.02,0.009-3.779,0.614-5.542c0.815-2.371,1.121-4.769,1.039-7.242
			c-0.003-2.04,0.162-4.09-0.409-6.095c-0.175-1.354-0.156-2.644,1.21-3.456c1.218-0.261,2.031,0.205,2.451,1.372
			c0.041,1.73,0.166,3.442,1.13,4.964C109.915,54.955,112.317,60.261,116.007,65.006z"/>
		<path fill-rule="evenodd" clip-rule="evenodd" fill="#C69164" d="M107.896,44.025c-0.636-0.335-1.271-0.671-1.907-1.006
			c-2.026-1.105-4.299-2.011-4.024-4.977c0.348-0.343,0.696-0.687,1.044-1.03c10.447,1.89,15.496,10.305,21.092,17.847
			c1.957,2.639,4.816,3.866,6.901,6.135c-2.567,1.614-4.727,0.264-5.938-1.631c-2.322-3.634-5.771-6.217-8.229-9.67
			C114.619,46.583,110.042,47.227,107.896,44.025z"/>
		<path fill-rule="evenodd" clip-rule="evenodd" fill="#AE7D50" d="M116.007,65.006c-6.75-3.411-7.233-9.554-6.981-16.017
			c2.194,2.102,3.319,5.092,4.344,7.624c1.359,3.359,3.386,4.438,6.241,4.278c2.594-0.146,3.931,2.473,6.435,2.186
			c1.115-0.129,2.027,0.605,1.651,1.838c-0.321,1.052-1.274,0.675-2.081,0.408c-1.313-0.435-2.61-0.606-3.651,0.626
			c-1.039,1.423-2.261,2.156-3.969,1.052c0.207-0.749,0.823-1.766,0.542-2.196C117.799,63.673,116.863,64.786,116.007,65.006z"/>
		<path fill-rule="evenodd" clip-rule="evenodd" fill="#D1A567" d="M117.995,67.001c1.323-0.35,2.646-0.7,3.97-1.052
			c3.999-0.23,1.716,1.701,1.058,3.075c-1.908,1.193-4.032,0.998-6.134,0.956c-1.718-0.034-1.11-1.124-0.924-2.024
			C116.641,67.638,117.317,67.319,117.995,67.001z"/>
		<path fill-rule="evenodd" clip-rule="evenodd" fill="#DCAE77" d="M95.134,75.754c-0.119-1.438,0.907-2.153,1.843-2.927
			c0-0.001,0.159,0.433,0.159,0.433c3.619,0.27,7.243,0.72,10.836-0.233c7.361-0.041,14.751,0.571,22.048-0.964
			c-0.337,0.64-0.674,1.28-1.01,1.92c-0.224,0.858-0.814,1.322-1.644,1.53c-1.026,0.399-2.111,0.463-3.191,0.56
			c-5.315,0.084-10.556,1.059-15.855,1.316C103.837,77.551,99.431,77.09,95.134,75.754z"/>
		<path fill-rule="evenodd" clip-rule="evenodd" fill="#F7D58C" d="M107.972,73.026c-3.577,1.703-7.2,1.31-10.837,0.233
			C100.732,72.491,104.358,73.048,107.972,73.026z"/>
		<path fill-rule="evenodd" clip-rule="evenodd" fill="#AA8154" d="M128.001,75.008c0.336-0.342,0.672-0.684,1.008-1.025
			c0.988,0.012,1.977,0.024,2.964,0.036c0.044,0.317,0.046,0.635,0.006,0.952c-1.326,0.343-2.652,0.687-3.979,1.029
			c-0.346-0.221-0.461-0.441-0.346-0.662C127.77,75.118,127.885,75.008,128.001,75.008z"/>
		<path fill-rule="evenodd" clip-rule="evenodd" fill="#C18D5B" d="M146.985,68.024c-0.003,0.664-0.006,1.328-0.009,1.992
			c-0.992-0.339-1.984-0.678-2.977-1.017c-0.007-0.325-0.014-0.649-0.02-0.975C144.982,68.025,145.983,68.024,146.985,68.024z"/>
		<path fill-rule="evenodd" clip-rule="evenodd" fill="#D4A68A" d="M102.005,89.977c3.725,0.32,7.371-0.268,11.008-0.963
			c-1.342,0.983-2.684,1.968-4.025,2.95c-4.434,0.048-7.652,3.671-11.967,4.066c-6.704,0.386-12.852-1.851-19.01-4.039
			c2.377,0.058,4.813-0.313,7.025,0.958c0.765-0.684,1.688-1.14,2.677-0.906c4.159,0.985,8.026,0.601,11.602-1.956
			C100.04,89.568,101.076,89.144,102.005,89.977z"/>
		<path fill-rule="evenodd" clip-rule="evenodd" fill="#E5C0AC" d="M77.022,23.009c-1.101-0.053-2.295,0.173-3.02-1.008
			c2.408-2.403,5.333-0.666,8-0.999c7.746-0.01,15.492-0.019,23.237-0.033c0.498-0.001,1.229,0.154,1.46-0.107
			c4.402-4.998,8.707-1.771,13.224-0.124c4.856,1.771,9.319-1.579,14.076-1.741c1.669,0.34,3.339,0.68,5.009,1.02
			c-2.063,3.397-7.372,5.61-4.01,10.987c-2.479,2.726-5.489,2.701-8.691,1.691c-2.546-2.594-5.611-3.375-9.255-3.514
			c-4.478-0.172-8.59-2.522-13.051-3.179c-4.947-1.306-10.03-0.885-15.045-1.291C84.985,24.389,81.199,22.303,77.022,23.009z"/>
		<path fill-rule="evenodd" clip-rule="evenodd" fill="#E9C29F" d="M125.998,32.001c3.054,0.148,6.073-0.005,8.999-0.998
			c0,4.82,4.266,6.316,7.011,8.999c3.302,1.799,1.937,5.353,3.002,7.991c0.559,0.576,0.586,1.223,0.257,1.916
			c-1.812,0.932-2.9-0.396-3.607-1.543c-2.461-3.994-4.141-2.844-5.653,0.637c-0.327,0.002-0.653,0.004-0.98,0.006
			c-1.433-0.846-2.26-2.1-2.522-3.734c0.437-1.521-0.118-2.587-1.505-3.271l-0.001-0.001c-1.145-1.781-2.5-3.367-3.988-4.886
			C125.648,35.728,124.359,34.089,125.998,32.001z"/>
		<path fill-rule="evenodd" clip-rule="evenodd" fill="#DFB181" d="M144.988,50.002c0.007-0.669,0.015-1.339,0.021-2.008
			c1.664,0.334,3.327,0.668,4.991,1.002c0.996,1.336,1.993,2.671,2.989,4.006c1.672,1.998,3.344,3.996,5.016,5.995
			c-1.619,1.428-3.152,0.678-4.37-0.461c-1.434-1.34-3.048-1.802-4.902-1.83C146.031,55.282,144.434,53.242,144.988,50.002z"/>
		<path fill-rule="evenodd" clip-rule="evenodd" fill="#F1D29B" d="M144.988,50.002c1.368,1.98,1.586,4.727,4.006,6.005
			c2.345,1.751,4.196,3.785,4.01,6.987c-1.196,0.5-2.861,1.748-3.632,0.467c-2.963-4.927-8.576-6.706-12.204-10.784
			c-0.979-1.101-1.221-2.309-1.162-3.674c0.006-0.976-0.008-1.952,0.021-2.928c0.036-1.203,0.352-2.315,1.655-2.674
			c1.121-0.309,1.731,0.648,2.467,1.255C142.025,46.202,142.507,49.008,144.988,50.002z"/>
		<path fill-rule="evenodd" clip-rule="evenodd" fill="#DFB280" d="M132.991,45.005c0.576,1.387,2.15,2.266,2.033,4.004
			c-0.28,2.737,0.184,5.384,0.974,7.991c-1.334-0.333-2.668-0.666-4.001-0.999c-0.042-1.098,0.172-2.281-1.001-3.003
			c-2.128-2.301-4.236-4.607-1.995-7.998c1-0.001,1.999-0.002,2.999-0.002C132.334,44.532,132.664,44.513,132.991,45.005z"/>
		<path fill-rule="evenodd" clip-rule="evenodd" fill="#E9C182" d="M153.004,62.994c-1.337-2.329-2.673-4.658-4.01-6.987
			c1.795-0.492,3.444-0.646,4.73,1.179c1.007,1.427,2.513,2.012,4.281,1.812c1.567,1.307,2.036,3.045,1.957,4.997
			C157.904,61.845,155.11,64.814,153.004,62.994z"/>
		<path fill-rule="evenodd" clip-rule="evenodd" fill="#EFCDB1" d="M82.001,21.002c-2.459,1.994-5.346,0.563-8,0.999
			c-2.861-0.934-4.902-3.013-7.002-5.01c4.335-1.16,8.669-2.23,13,0.015C79.905,18.72,80.184,20.246,82.001,21.002z"/>
		<path fill-rule="evenodd" clip-rule="evenodd" fill="#C6947D" d="M58.004,79.008c-1.668-0.67-3.336-1.339-5.005-2.009
			c-0.236-0.215-0.497-0.639-0.706-0.614c-4.794,0.552-6.819-2.019-7.292-6.381c0.187-3.268,2.944-3.365,3.721-1.523
			c2.512,5.951,7.179,5.201,11.935,5.001c0.991-0.041,1.977,0.072,2.921-0.315c1.515-0.562,2.808-1.563,4.297-2.174
			c4.716-0.88,8.833-2.76,11.577-6.941c2.508-1.717,5.73-1.575,8.289-3.294c1.366-0.917,2.894-0.304,4.069,0.871
			c0.895,3.223-1.81,4.255-3.563,5.87c-3.385,2.569-7.634,3.373-11.247,5.485C70.652,74.94,64.785,78.412,58.004,79.008z"/>
		<path fill-rule="evenodd" clip-rule="evenodd" fill="#D6A68B" d="M64.01,74.012c-3.885,1.152-7.896,0.914-11.844,0.784
			c-2.093-0.068-2.392-2.128-2.928-3.962c-0.688-2.353-2.124-4.178-4.237-0.83c-0.914-0.129-2.16,0.334-2.549-0.857
			c-0.387-1.184,0.703-1.654,1.552-2.137c0.805-0.961,1.872-1.53,3-2.009c1.667-0.669,3.333-1.339,5-2.008
			c1.664-1.069,3.337-1.479,5.034-0.081C55.332,69.137,61.295,70.555,64.01,74.012z"/>
		<path fill-rule="evenodd" clip-rule="evenodd" fill="#E8C17E" d="M47.004,65.001c-0.096,2.021-1.552,2.009-3,2.009
			c-0.323-0.365-0.646-0.73-0.968-1.098C44.221,65.003,45.222,63.299,47.004,65.001z"/>
		<path fill-rule="evenodd" clip-rule="evenodd" fill="#E1B785" d="M56.994,64.01c-1.389-1.688-3.312-0.75-4.99-1.017
			c0.667-1.664,1.333-3.329,2-4.993c1.126-1.075,2.122-2.412,3.994-1.995c4.744,3.01,4.805,4.336,0.382,8.236
			C57.873,64.438,57.41,64.359,56.994,64.01z"/>
		<path fill-rule="evenodd" clip-rule="evenodd" fill="#E5BAA3" d="M58.001,64.002c3.057-2.667,3.07-5.333-0.003-7.997
			c1.698-3.228,2.705-6.379-1.001-9.006c1.369-1.636,4.034-2.234,3.995-4.995c0.72-1.172,1.898-0.973,3-1.002
			c1.25,0.601,2.337,2.012,3.942,1.017c2.53-1.568,4.631-0.235,6.793,0.852c3.356-0.108,6.484,0.916,9.658,1.798
			c2.514,0.698,5,1.556,7.764,0.857c1.848-0.466,3.145,0.634,3.572,2.562c-0.125,2.915-2.167,2.979-4.26,2.745
			c-3.154-0.353-6.153-1.32-9.119-2.447c-2.689-1.022-5.602-1.81-8.087,0.165c-1.652,1.313-5.136,2.083-1.418,5.768
			c2.183,2.163,0.753,6.361-1.487,9.116c-1.255,1.542-2.855,2.779-4.677,3.687c-1.94,0.919-3.982,1.436-6.074,0.87
			C58.666,67.468,56.831,66.652,58.001,64.002z"/>
		<path fill-rule="evenodd" clip-rule="evenodd" fill="#B8865C" d="M77.001,72.983c2.622-3.908,7.356-3.943,10.991-5.995
			c0.08,0.219,0.16,0.438,0.242,0.656c-0.411,2.42-2.437,3.245-4.239,4.291c-1.667,0.354-3.333,0.707-5,1.06
			C78.33,72.991,77.665,72.987,77.001,72.983z"/>
		<path fill-rule="evenodd" clip-rule="evenodd" fill="#D4A67E" d="M129.001,45c-0.632,2.989,1.642,5.255,1.995,7.998
			c-3.488-0.446-6.083-2.487-6.744-5.711c-1.233-6.023-5.889-8.513-10.657-9.554c-3.391-0.739-6.683-3.917-10.595-1.731
			c-1-0.666-2.001-1.331-3.002-1.997c1.213-1.773,3.093-2.288,4.806-1.47c2.34,1.118,4.895,0.546,7.194,1.459
			C119.402,34.979,124.407,39.672,129.001,45z"/>
		<path fill-rule="evenodd" clip-rule="evenodd" fill="#E2B99E" d="M125.998,32.001c-0.409,4.371,5.159,5.754,4.999,10.001
			c-5.483-3.696-10.263-8.15-16.798-10.689c-3.169-1.231-7.503-2.274-10.199-5.311c3.123-0.48,6.124-0.504,8.989,1.273
			c2.392,1.484,5.167,0.623,7.765,0.688C123.598,28.033,125.56,28.95,125.998,32.001z"/>
		<path fill-rule="evenodd" clip-rule="evenodd" fill="#DBAF84" d="M111.998,33.994c-3.999,0.621-8.001-1.25-12,0.011
			c-1.935-0.888-3.723-2.038-6.018-2.086c-1.828-0.038-3.652-0.592-3.983-2.917c4.704-2.448,9.313,0.611,14.016,0.558
			C106.358,29.532,108.872,33.162,111.998,33.994z"/>
		<path fill-rule="evenodd" clip-rule="evenodd" fill="#E2B99E" d="M132.991,45.005c-0.33,0.001-0.661-0.001-0.991-0.007
			c-0.334-0.999-0.668-1.997-1.002-2.995C132.966,42.139,134.103,42.825,132.991,45.005z"/>
		<path fill-rule="evenodd" clip-rule="evenodd" fill="#AC7A50" d="M101.965,38.043c1.342,1.659,2.683,3.317,4.024,4.977
			c-1.159,0.682-0.921,1.823-0.948,2.877c-0.171,0.104-0.342,0.209-0.513,0.314c-1.215-0.262-2.134-1.166-3.318-1.511
			c-2.058-0.711-3.264-2.44-4.712-3.872c-1.138-1.03-2.525-1.504-4.008-1.769c-2.001-0.537-3.92-1.236-5.491-2.657
			c-0.282-0.411-0.317-0.844-0.112-1.297c1.971-2.68,4.152-1.603,6.497-0.522C96.182,35.872,99.1,36.901,101.965,38.043z"/>
		<path fill-rule="evenodd" clip-rule="evenodd" fill="#F4D7A5" d="M86.887,35.105c0.118,0.265,0.205,0.539,0.261,0.823
			c-2.68,3.522-5.714,4.008-9.148,1.067c-0.458-5.402-4.71-1.978-7.04-3.025c3.368-1.965,6.736-0.659,10.104,0
			C83.005,34.35,84.946,34.728,86.887,35.105z"/>
		<path fill-rule="evenodd" clip-rule="evenodd" fill="#F0D0AD" d="M73.997,44.008C72.234,43.1,70.765,40.827,68.4,43.1
			c-3.173,3.051-3.683,0.176-4.409-2.098c-1-0.664-2-1.329-3-1.994C62.997,39.005,65,39,67.005,38.996
			c5.495-2.231,7.489-1.782,10.449,2.351C77.413,43.673,75.842,44.019,73.997,44.008z"/>
		<path fill-rule="evenodd" clip-rule="evenodd" fill="#F7DFB8" d="M76.999,42.002c-2.261-4.561-6.498-2.551-9.994-3.006
			c3.254-3.743,6.949-4.416,10.995-2c3.217,1.089,6.247,0.562,9.148-1.066c1.953,0.722,3.906,1.444,5.859,2.166
			c1.776,0.989,2.188,2.441,1.276,4.198c-1.016,1.959-2.815,3.034-4.909,2.84C85.111,44.738,80.71,44.664,76.999,42.002z"/>
		<path fill-rule="evenodd" clip-rule="evenodd" fill="#E8C7AB" d="M102.005,89.977c-4.98,4.851-11.109,3.146-16.969,2.974
			c0.223-2.266-3.308-1.641-3.036-3.943c6.669,3.525,13.336,1.071,20.003-0.005C102.001,89.327,102.002,89.652,102.005,89.977z"/>
		<path fill-rule="evenodd" clip-rule="evenodd" fill="#A4794F" d="M128.001,75.008c0,0.331-0.001,0.661-0.001,0.992
			c-2.651,0.774-4.882,2.279-6.977,4.019c0,0.001-0.065-0.061-0.065-0.061c-0.868-0.971-1.492-2.033-1.287-3.409
			c1.341-2.176,3.837-0.177,5.418-1.494C126.06,75.039,127.03,75.023,128.001,75.008z"/>
		<path fill-rule="evenodd" clip-rule="evenodd" fill="#9A704A" d="M120.028,77.008c1.142,0.721,0.947,1.864,0.93,2.95
			c-1.657,0.01-3.314,0.021-4.972,0.03c0.014-0.68,3.102-2.452-0.463-1.807c-2.525,0.457-5.002,0.899-7.563,0.865
			c-4.438-0.035-8.839-0.32-13.027-1.993c0.066-0.433,0.133-0.864,0.2-1.299c4.295-1.619,8.483,1.123,12.759,0.31
			C111.825,77.825,116.151,74.52,120.028,77.008z"/>
		<path fill-rule="evenodd" clip-rule="evenodd" fill="#B8865C" d="M87.992,66.988c1.342-1.655,2.685-3.312,4.028-4.968
			c0.106-0.202,0.212-0.405,0.314-0.61c1.962-2.248,5.863-3.001,5.436-7.085c0.103-1.704,0.32-3.365,1.721-4.574
			c2.023-0.924,4.044-1.858,5.475-3.675c0,0,0.075-0.177,0.075-0.179c1.714,1.811,0.712,4.041,0.941,6.082
			c-1.903,3.648-3.308,7.526-5.341,11.129c-1.178,2.087-2.49,3.831-4.606,4.941c-0.59,1.299-1.61,1.934-3.025,1.957
			c-2.982,1.213-3.468-1.752-4.99-2.982L87.992,66.988z"/>
		<path fill-rule="evenodd" clip-rule="evenodd" fill="#A1744A" d="M96.034,68.05c2.749-3.882,5.244-7.922,6.879-12.401
			c0.612-1.678,1.57-2.843,3.068-3.669c0.83,4.756-1.772,8.723-2.99,13.009C101.059,66.887,99.141,68.817,96.034,68.05z"/>
		<path fill-rule="evenodd" clip-rule="evenodd" fill="#AB7B54" d="M88.019,67.024c2.891-1.061,2.665,3.095,4.989,2.982
			c-2.534,2.838-5.898,1.807-9.014,1.93C85.335,70.299,86.677,68.662,88.019,67.024z"/>
		<path fill-rule="evenodd" clip-rule="evenodd" fill="#D6A46F" d="M120.028,77.008c-4.048-0.282-8.206,0.868-12.135-0.943
			c5.74-0.177,11.401-1.71,17.195-1.011C123.819,76.786,121.244,75.137,120.028,77.008z"/>
		<path fill-rule="evenodd" clip-rule="evenodd" fill="#DAAA98" d="M58.001,64.002c1.893,5.655,5.803,2.215,8.999,1.995
			c3.52-1.327,6.978-3.397,8.24-6.748c1.95-5.181,5.997-5.374,10.231-6.162c3.934-0.731,7.852-1.755,10.84-4.763
			c0.321-0.383,0.733-0.595,1.223-0.664c0.483,0.127,0.853,0.401,1.094,0.843c1.339,6.522-4.748,7.255-8.103,8.839
			c-4.053,1.914-7.506,4.431-11.107,6.876c-3.273,3.376-7.35,5.572-11.419,7.78c-1.377,0.577-2.251,2.15-3.988,2.014
			c-1.886-1.043-3.719-2.2-5.669-3.104c-3.716-1.723-3.955-4.002-1.347-6.897C57.329,64.007,57.665,64.005,58.001,64.002z"/>
		<path fill-rule="evenodd" clip-rule="evenodd" fill="#CFA08C" d="M79,63.998c1.439-2.185,4.203-3.162,5.118-5.905
			c0.473-1.42,1.869-0.637,3.008-0.627c4.23,0.036,6.304-4.361,10.275-5.259c1.193-0.27,0.442-2.732,0.597-4.188
			c0.386-0.277,0.805-0.344,1.258-0.2c0.729,0.585,1.396,1.193,0.798,2.25c-1.045,1.497-1.118,3.201-1.052,4.935
			c-1.525,3.139-4.438,4.896-6.987,7.016l0.006,0.002c-4.592-1.37-7.819,2.772-12.021,2.978C79.055,65.274,78.764,64.899,79,63.998z
			"/>
		<path fill-rule="evenodd" clip-rule="evenodd" fill="#CE9D8A" d="M79,63.998c0.333,0.334,0.666,0.667,0.999,1
			c-2.572,4.781-7.002,6.377-12,7C71.394,68.958,74.876,66.038,79,63.998z"/>
		<path fill-rule="evenodd" clip-rule="evenodd" fill="#DEB1A3" d="M96.975,48.003c-2.407,4.002-6.648,6.078-10.604,6.246
			c-2.689,0.114-4.825,2.154-7.54,1.344c-0.889-0.265-1.016,0.68-1.284,1.566c-1.567,5.18-5.124,8.168-10.546,8.838
			c2.161-2.52,5.698-4.019,5.184-8.428c-0.221-1.897,1.429-4.093-2.437-3.224c-1.394,0.313-1.754-1.063-1.069-2.434
			c2.346-4.693,7.377-6.837,12.584-5.293c3.317,0.983,6.627,1.989,9.947,2.963c1.671,0.491,3.367,0.957,3.794-1.579
			C95.66,47.374,96.317,47.477,96.975,48.003z"/>
		<path fill-rule="evenodd" clip-rule="evenodd" fill="#EAC4A9" d="M96.975,48.003c-0.657,0-1.314,0-1.972,0
			c-0.47-0.898-1.228-2.148-2.139-1.648c-4.618,2.533-8.545-0.277-12.363-1.805c-2.351-0.941-4.516,1.07-6.504-0.542
			c1-0.668,2.001-1.337,3.002-2.006c3.829,0.662,7.637,1.527,11.493,1.932c4.293,0.451,5.752-1.608,4.514-5.838
			c1.603,0.051,2.94,0.667,4.005,1.869c0.864,2.679,1.108,5.355-0.023,8.027L96.975,48.003z"/>
		<path fill-rule="evenodd" clip-rule="evenodd" fill="#E4BA8C" d="M96.987,47.992c-1.062-2.679-1.038-5.354,0.023-8.027
			c1.9,1.058,2.704,3.449,4.957,4.077c1.261,3.014-0.723,3.585-2.976,3.953c-0.332,0.001-0.663,0.009-0.995,0.022
			C97.66,48.01,97.324,48.001,96.987,47.992z"/>
		<path fill-rule="evenodd" clip-rule="evenodd" fill="#D4A474" d="M98.992,47.995c0.953-1.347,3.2-1.72,2.976-3.953
			c1.659-0.296,2.029,1.311,2.998,2.033c0.37,3.805-2.203,3.982-4.914,3.992C99.699,49.377,99.346,48.687,98.992,47.995z"/>
		<path fill-rule="evenodd" clip-rule="evenodd" fill="#C6947D" d="M92.014,62.019c1.896-2.771,4.251-5.083,6.987-7.016
			C98.969,59.628,95.229,60.562,92.014,62.019z"/>
	</g>
</g>
</svg>
