<?xml version="1.0" encoding="utf-8"?>
<!-- Generator: Adobe Illustrator 16.0.0, SVG Export Plug-In . SVG Version: 6.00 Build 0)  -->
<!DOCTYPE svg PUBLIC "-//W3C//DTD SVG 1.1//EN" "http://www.w3.org/Graphics/SVG/1.1/DTD/svg11.dtd">
<svg version="1.1" id="Layer_1" xmlns="http://www.w3.org/2000/svg" xmlns:xlink="http://www.w3.org/1999/xlink" x="0px" y="0px"
	 width="176px" height="103px" viewBox="0 0 176 103" enable-background="new 0 0 176 103" xml:space="preserve">
<g>
	<g>
		<path fill-rule="evenodd" clip-rule="evenodd" fill="#BF743B" d="M96,1c0.333,0,0.667,0,1,0c4.704,2.132,9.67,0.48,14.484,1.005
			c12.459,1.606,24.445,4.639,34.685,12.361c2.614,1.972,5.909,4.775,4.106,8.24c-2.186,4.202-5.485-0.143-8.327-0.229
			c-2.211-0.63-4.429-1.252-6.355-2.576c-2.983-2.352-6.129-6.02-9.656-5.399c-2.982,0.523-5.481,0.04-8.197-0.205
			c-1.707-0.154-3.233-0.69-4.34-2.094c-4.68-5.724-6.238-6.231-11.06-3.585c-0.806,0.502-1.649,0.924-2.555,1.222
			c-0.947,0.27-1.899,0.323-2.856,0.062c-0.453-0.159-0.854-0.409-1.207-0.733c-0.702-1.229-1.65-2.113-3.179-1.931
			c-4.09,0.489-8.304-0.687-12.306,0.944c-1.44,0.615-2.883,1.133-4.36,0.107c-0.29-0.464-0.395-0.967-0.32-1.509
			c2.089-3.585,6.118-2.294,9.143-3.548c1.896-0.786,4.04-1.158,6.133-1.428C92.505,1.112,94.396,2.113,96,1z"/>
		<path fill-rule="evenodd" clip-rule="evenodd" fill="#B06337" d="M141.987,21.019c0.938,0.297,1.857,0.685,2.817,0.872
			c1.587,0.31,3.111,2.936,4.735,0.639c1.391-1.967-0.672-3.637-1.759-4.716c-4.211-4.178-8.845-7.699-14.926-9.069
			c-7.031-1.584-13.277-6.077-20.856-5.754c-0.311-0.262-0.506-0.59-0.566-0.995C111.498,1.593,111.688,1.262,112,1
			c2.667,0,5.333,0,8,0c0.621,1.68,1.802,1.799,3.508,1.839c9.751,0.228,18.495,3.269,25.793,9.952
			c0.707,2.581,3.296,3.882,4.272,6.289c0.671,1.653,1.486,3.265,0.845,5.132c-1.707,2.281-3.85,4.716-6.745,3.846
			C144.604,27.137,142.196,24.726,141.987,21.019z"/>
		<path fill-rule="evenodd" clip-rule="evenodd" fill="#A75A36" d="M90.986,2.156c-4.588,2.879-10.513,1.609-14.991,4.828
			c-3.499,2.054-7.198,3.726-10.827,5.52c-2.274,1.124-4.15,2.516-5.443,4.688c-2.037,1.928-3.325,4.856-6.679,5.033
			c-0.361-0.32-0.607-0.716-0.738-1.181c-0.509-2.001,1.888-3.189,1.454-5.175c7.364-7.211,16.38-11.046,26.359-12.946
			C82.153,2.536,84.424,2.81,86,1c1,0,2,0,3,0C89.467,1.72,90.645,1.221,90.986,2.156z"/>
		<path fill-rule="evenodd" clip-rule="evenodd" fill="#AF6236" d="M111.987,1.964c0.004,0.343,0.008,0.685,0.012,1.026
			c-3.746,0.004-7.492,0.027-11.238,0.003C99.187,2.982,97.335,3.393,97,1c0.333,0,0.667,0,1,0
			C102.586,2.429,107.394,0.647,111.987,1.964z"/>
		<path fill-rule="evenodd" clip-rule="evenodd" fill="#C28D74" d="M111.987,1.964C107.335,1.501,102.539,3.107,98,1
			c4.667,0,9.333,0,14,0C112.006,1.321,112.002,1.643,111.987,1.964z"/>
		<path fill-rule="evenodd" clip-rule="evenodd" fill="#835B4C" d="M176.188,51.707c0.271,0.098,0.541,0.195,0.812,0.293
			c0,4,0,8,0,12c-0.315-0.026-0.62,0.019-0.914,0.135c-1.121-0.863-1.31-2.121-1.448-3.402
			C174.643,57.638,173.631,54.364,176.188,51.707z"/>
		<path fill-rule="evenodd" clip-rule="evenodd" fill="#8C5E4D" d="M98.115,103.064c-0.159,0.297-0.197,0.608-0.115,0.936
			c-3.333,0-6.667,0-10,0c-0.04-0.297-0.096-0.591-0.167-0.883c0.334-0.475,0.773-0.813,1.315-1.023
			c0.812-0.29,1.651-0.408,2.51-0.419C93.876,101.824,96.282,101.124,98.115,103.064z"/>
		<path fill-rule="evenodd" clip-rule="evenodd" fill="#E8D2C7" d="M90.986,2.156C90.226,1.94,89.229,2.13,89,1c2.333,0,4.667,0,7,0
			C94.661,2.828,92.609,1.562,90.986,2.156z"/>
		<path fill-rule="evenodd" clip-rule="evenodd" fill="#A45233" d="M3.881,20.043c-1.02-0.275-0.981-1.243-1.297-1.979
			C8.4,14.438,13.467,15.347,18.469,20.9c1.299,1.912,2.815,3.76,3.628,5.908c1.254,3.315,3.491,5.09,6.92,5.527
			c7.115,2.899,14.315,5.586,20.761,9.936c2.258,1.522,4.345-0.799,6.55-1.158c3.978-0.645,8.141-2.04,10.843,2.607
			c-0.898,5.241,0.573,10.509-0.135,15.757c-1.037,1.841-1.16,3.761-0.483,5.752c-2.072,4.229-6.51,3.77-9.888,4.043
			c-4.079,0.329-8.117,1.413-12.243,1.145c-0.445,0.074-0.885,0.036-1.314-0.104c-1.213-1.399-0.754-3.276-1.372-4.854
			c0.173-0.431,0.45-0.775,0.827-1.045c3.01-0.981,6.48-0.415,9.092-2.728c0.158-0.049,0.319-0.089,0.479-0.131
			c2.511-0.649,6.359,2.148,7.262-0.319c1.116-3.05,1.188-7.123-1.008-10.416c-0.516-0.773-0.475-2.007-1.78-2.077
			c-1.317,0.564-2.286,1.899-3.911,1.74c-1.945-0.241-3.85-0.747-5.824-0.75c-1.841-0.004-3.26-0.903-3.786-2.584
			c-1.57-5.022-5.421-6.053-9.974-6.009c-5.183-0.104-7.414-4.908-11.293-7.093c-1.224-2.016-2.447-4.031-3.671-6.046
			c0.136-2.359-2.104-3.051-3.198-4.55c-0.399-0.219-0.795-0.435-1.199-0.644C10.85,20.499,7.046,21.409,3.881,20.043z"/>
		<path fill-rule="evenodd" clip-rule="evenodd" fill="#572A19" d="M60.003,98.858C41.142,96.44,25.227,87.365,10.005,76.725
			c-0.225-0.468-0.191-0.917,0.098-1.348c2.083-1.966,3.971-0.668,5.743,0.471c3.707,2.384,7.417,4.769,10.95,7.412
			c6.46,3.79,12.846,7.711,20.49,8.794c2.006,0.284,3.936,0.72,5.862-0.198c3.101-2.569,6.338-3.205,9.821-0.729
			c1.757,1.249,3.705,1.02,5.662,0.618c1.872,1.006,2.642,2.66,1.856,4.539c-0.785,1.879-2.662,1.461-4.321,1.322
			C64.008,97.426,61.902,97.676,60.003,98.858z"/>
		<path fill-rule="evenodd" clip-rule="evenodd" fill="#4D2415" d="M60.003,98.858c1.175-2.795,3.653-2.754,6.053-2.651
			c1.193,0.051,2.65,1.484,3.486-0.022c0.905-1.634-0.325-3.034-1.539-4.187c-0.411-0.324-0.704-0.733-0.885-1.225
			c-0.451-1.476-0.346-3.003-0.425-4.515c0.045-1.511-0.463-2.982-0.334-4.503c1.677-4.466,5.547-5.868,9.667-6.929
			c2.291-0.214,4.68,0.11,6.858-0.752c4.595-1.818,8.692-0.66,12.655,1.766c1.162,0.922,2.937,0.947,3.683,2.487
			c-0.681,1.949-2.401,1.775-3.953,1.954c-1.047,0.016-2.078-0.12-3.097-0.344c-6.425-1.615-12.5-0.311-18.415,2.226
			c-0.37,0.23-0.741,0.473-1.081,0.746c-1.695,1.379-1.523,3.299-1.479,5.177c0.055,0.654,0.118,1.306,0.229,1.953
			c0.275,2.808,4.874,4.207,2.566,7.848C69.333,98.257,64.774,100.094,60.003,98.858z"/>
		<path fill-rule="evenodd" clip-rule="evenodd" fill="#562A19" d="M21.822,34.048c2.731-0.837,3.784,1.808,5.221,2.993
			c1.826,1.506,3.628,2.525,5.846,3.025c1.444,2.518,5.192,2.804,5.879,6.063c0.054,0.72-0.103,1.378-0.561,1.95
			c-0.991,0.419-1.882,0.37-2.901-0.945c2.008,2.826,5.836,4.081,4.617,8.137c-2.215,0.903-4.499-0.419-6.725,0.216
			c-2.016-0.142-4.039-0.03-6.061-0.132c-2.191-1.452-1.34-2.632,0.33-3.742c0.407-0.225,0.843-0.381,1.292-0.486
			c0.469-0.042,0.953-0.172,1.399,0.121c-0.856-0.555-1.789-0.116-2.688-0.203c-2.026-0.197-4.184-0.193-4.444-2.996l0.043-0.005
			c1.475-1.116,3.15-1.717,5.146-1.894c-1.064-0.56-2.706-0.358-2.223-2.188c1.913-1.522,3.067-2.813,0.194-4.813
			C24.41,37.91,23.256,35.778,21.822,34.048z"/>
		<path fill-rule="evenodd" clip-rule="evenodd" fill="#7E3B23" d="M10.08,76.079c0.019,0.221-0.006,0.436-0.075,0.646
			c-4.184-1.311-4.54-4.341-3.535-7.945c0.535-1.917,1.146-3.813,1.723-5.719c4.835-2.269,9.398-0.613,13.973,0.959
			c1.472,1.039,3.182,1.887,3.321,4.025c-0.156,0.835-0.667,1.379-1.415,1.729c-1.222,0.459-2.494,0.479-3.774,0.421
			c-0.72-0.034-1.428-0.157-2.123-0.331c-2.748-0.305-5.925-2.339-7.529,1.896C10.219,73.169,10.666,74.693,10.08,76.079z"/>
		<path fill-rule="evenodd" clip-rule="evenodd" fill="#CC8244" d="M8.208,61.911c-0.126-1.4-0.42-2.822,0.546-4.075
			c2.007-1.747,3.755-3.729,5.335-5.865c1.76-2.215,4.339-2.453,6.856-2.843c0.952,0.651,3.09-0.46,2.988,1.473
			c-0.095,1.819-2.4,0.946-3.519,1.885c1.421-0.095,2.145,1.229,3.381,1.337c0.952,0.172,1.833,0.484,2.518,1.206
			c0.398,0.671,0.515,1.388,0.382,2.151c-0.731,2.171-2.449,2.307-4.364,2.203c-1.951-0.106-3.925-0.276-5.818,0.441
			C13.74,60.491,11.302,62.519,8.208,61.911z"/>
		<path fill-rule="evenodd" clip-rule="evenodd" fill="#C17641" d="M17.95,22.058c-4.012-5.599-9.536-5.382-15.365-3.994
			c-0.843-0.704-0.767-1.427-0.044-2.162c2.102-1.354,5.645-1.07,5.562-4.902c0.76-1.725,1.71-3.191,3.95-2.901
			c1.058,0.344,1.993,0.877,2.71,1.749c1.448,2.136,2.918,4.263,3.791,6.725c-0.19,1.494,0.686,2.799,0.775,4.249
			C19.096,21.488,18.647,21.911,17.95,22.058z"/>
		<path fill-rule="evenodd" clip-rule="evenodd" fill="#974A2A" d="M53.762,15.869c3.096,2.208-1.214,3.309-0.766,5.121
			c-0.647,1.924-1.82,3.805-0.454,5.886c0.943,1.247,3.075,2.229,2.222,3.957c-0.93,1.885-3.093,1.258-4.862,0.991
			c-2.969-1.254-7.869-0.679-6.143-6.422c1.016-2.004,2.788-3.524,3.643-5.64c0.385-1.296,1.667-1.114,2.572-1.56
			C51.657,18.105,52.455,16.575,53.762,15.869z"/>
		<path fill-rule="evenodd" clip-rule="evenodd" fill="#A25432" d="M8.208,61.911c2.439-1.386,5.02-2.392,7.781-2.918
			c7.126-1.119,8.217-0.614,10.292,4.763c-1.072,1.629-2.464,2.175-4.283,1.252c-4.475-1.546-9.122-1.871-13.804-1.947
			C8.198,62.677,8.204,62.294,8.208,61.911z"/>
		<path fill-rule="evenodd" clip-rule="evenodd" fill="#612F1D" d="M73.993,97.888c0.745-3.675-4.043-4.585-3.964-7.929
			c1.64-0.56,2.492,0.72,3.558,1.508c1.825,2.036,4.135,3.233,6.761,3.891c3.449,1.816,7.681,2.747,8.544,7.504
			c-0.354,0.085-0.707,0.171-1.06,0.256C82.931,102.139,78.714,99.347,73.993,97.888z"/>
		<path fill-rule="evenodd" clip-rule="evenodd" fill="#CE864A" d="M15.969,5.097c1.487-0.096,2.744,0.599,3.293,1.817
			c2.124,4.713,6.14,7.694,9.744,11.064c0.34,0.88-0.184,1.321-0.854,1.692c-0.462,0.163-0.938,0.246-1.428,0.263
			c-2.573-0.232-4.526-1.605-6.257-3.397c-0.652-0.738-1.155-1.573-1.589-2.453C17.983,11.065,13.236,9.285,15.969,5.097z"/>
		<path fill-rule="evenodd" clip-rule="evenodd" fill="#B16437" d="M26.899,19.095c0.357-0.025,0.713-0.052,1.07-0.078
			c4.182-0.259,8.035,1.366,11.362,2.03c-1.811,0.11-3.933-1.304-6.342-1.722c-1.965-0.34-1.12-1.526-0.03-2.347
			c5.592,1.523,11.249,2.141,17.016,1.225c-0.667,0.589-1.333,1.178-1.999,1.767c-2.811,5.433-7.777,4.496-12.511,4.246
			c-2.333-0.896-4.445-2.302-7.182-2.237C26.735,22.015,24.823,21.27,26.899,19.095z"/>
		<path fill-rule="evenodd" clip-rule="evenodd" fill="#D18847" d="M32.959,16.979c-0.632,1.516-0.121,1.947,1.498,2.082
			c2.886,0.241,5.743,0.819,9.376,1.373c-6.224,3.601-10.838-0.961-15.863-1.417c0.345-0.346,0.691-0.691,1.037-1.038
			C30.268,17.423,31.05,14.974,32.959,16.979z"/>
		<path fill-rule="evenodd" clip-rule="evenodd" fill="#974B2E" d="M23.022,54.799c-1.888,0.351-2.05-3.55-4.784-1.041
			c0.654-2.078,1.909-2.14,2.846-2.666c0.593-0.333,1.833,0.503,1.746-0.715c-0.033-0.459-1.221-0.836-1.883-1.249
			c0.692-0.36,1.386-0.72,2.08-1.08c1.287,1.604,3.037,2.005,4.976,1.915c0.588,0.685,0.589,1.375,0.02,2.071l0.005-0.013
			C26.155,52.581,24.458,53.455,23.022,54.799z"/>
		<path fill-rule="evenodd" clip-rule="evenodd" fill="#9F5A3B" d="M15.969,5.097c-1.184,4.105,3.656,5.496,4.015,8.906
			c-3.351,0.683-3.621-3.205-5.963-4.02c-0.656-0.629-1.313-1.257-1.968-1.886C13.536,7.33,13.614,4.728,15.969,5.097z"/>
		<path fill-rule="evenodd" clip-rule="evenodd" fill="#7C3E27" d="M25.993,43.961c0.907,1.676,3.329,0.334,4.408,2.517
			c-2.403,0.914-4.767,1.601-7.332,1.565C23.44,46.25,24.411,44.887,25.993,43.961z"/>
		<path fill-rule="evenodd" clip-rule="evenodd" fill="#A7603D" d="M8.102,10.999c1.509,0.218,2.312,1.06,0.933,2.161
			c-1.851,1.479-3.706,3.325-6.493,2.741C3.502,13.255,7.181,13.691,8.102,10.999z"/>
		<path fill-rule="evenodd" clip-rule="evenodd" fill="#6F4332" d="M14.878,24.376c-3.192-0.633-6.25-1.638-9.076-3.284
			c3.512-1.538,6.488-0.449,9.211,1.879l0.018,0.016C15.434,23.5,15.382,23.963,14.878,24.376z"/>
		<path fill-rule="evenodd" clip-rule="evenodd" fill="#7D412A" d="M15.014,22.971c-2.963-1.151-5.854-2.661-9.211-1.879
			c-0.855,0.044-1.621-0.077-1.921-1.049C7.706,20.585,12.323,18.116,15.014,22.971z"/>
		<path fill-rule="evenodd" clip-rule="evenodd" fill="#9D5436" d="M14.09,51.971c-0.566,3.057-2.649,4.734-5.334,5.864
			C9.475,54.918,11.769,53.433,14.09,51.971z"/>
		<path fill-rule="evenodd" clip-rule="evenodd" fill="#7D412A" d="M14.878,24.376c0.051-0.463,0.103-0.927,0.154-1.39
			c1.453,1.414,4.418,1.888,3.12,5.015C17.061,26.793,15.969,25.585,14.878,24.376z"/>
		<path fill-rule="evenodd" clip-rule="evenodd" fill="#5C2D1C" d="M175.973,61.007c0.037,1.043,0.075,2.086,0.113,3.128
			c-1.66,7.734-7.314,12.81-12.523,17.995c-2.611,2.6-5.167,5.402-8.616,7.274c-3.465,1.881-6.802,3.253-10.76,2.697
			c-0.478,0.319-1.082,0.241-1.142-0.25c-0.181-1.509,1.193-1.762,2.128-2.349c1.177-0.521,2.294-1.155,3.35-1.896
			c1.037-0.627,2.082-1.245,2.957-2.105c0.753-0.702,1.465-1.445,2.215-2.152c0.473-0.437,0.993-0.801,1.566-1.088
			c1.772-0.688,3.415-1.591,4.788-2.929c0.916-0.833,1.644-1.787,1.959-3.016c0.264-0.829,0.657-1.593,1.104-2.334
			c1.271-1.198,0.105-5.805,4.51-2.897c1.082,0.714,0.785-2.273,1.343-3.475C170.944,65.032,171.336,60.761,175.973,61.007z"/>
		<path fill-rule="evenodd" clip-rule="evenodd" fill="#6A331E" d="M146.007,90.012c0.102,1.314-2.729,0.072-1.82,2.09
			c-4.977,1.712-10.094,0.564-15.146,0.747c2.399-2.605,5.663-4.069,8.384-6.278c1.855-1.507,3.511-3,4.617-5.098
			c0.82-1.19,0.734-2.93,2.234-3.707c3.169,1.177,2.804,3.971,2.995,6.512C147.263,86.277,146.775,88.176,146.007,90.012z"/>
		<path fill-rule="evenodd" clip-rule="evenodd" fill="#441F11" d="M143.016,82.001c-3.337,5.318-7.912,9.042-13.976,10.848
			c-1.62,0.088-3.241,0.175-4.862,0.262c-1.012,0.454-1.374-0.155-1.604-0.979c0.334-2.347,2.532-2.14,4-2.937
			c5.04-2.022,10.27-3.736,13.692-8.401c0.734-1.309,0.398-3.323,2.662-3.847C143.709,78.65,143.779,80.302,143.016,82.001z"/>
		<path fill-rule="evenodd" clip-rule="evenodd" fill="#61301D" d="M122.975,91.973c0.401,0.379,0.802,0.758,1.203,1.138
			c-7.069,2.625-14.138,5.251-21.207,7.877c-2.789,0.72-2.459-0.601-1.524-2.324c3.526-2.92,7.69-4.723,11.776-6.672
			c2.254-0.438,4.588-0.199,6.822-0.83C121.134,91.024,122.149,91.159,122.975,91.973z"/>
		<path fill-rule="evenodd" clip-rule="evenodd" fill="#743924" d="M102.013,99.021c-0.566,1.087-0.713,1.97,0.958,1.967
			c-1.398,1.206-3.023,1.884-4.855,2.077c-2.373-0.021-4.747-0.043-7.12-0.064c0.234-3.207,3.242-2.789,5.082-3.906
			C98.049,98.627,100.016,97.33,102.013,99.021z"/>
		<path fill-rule="evenodd" clip-rule="evenodd" fill="#74351E" d="M175.973,61.007c-2.909,1.554-4.154,4.533-6.001,6.997
			c-3.316-1.881-4.484-5.229-5.801-8.479c0.017-0.474,0.114-0.935,0.273-1.38c2.063-4.47-0.855-7.387-3.277-10.462
			c-0.657-1.449-1.131-2.951-1.385-4.526c-0.213-2.807-0.288-5.621-0.121-8.419c0.125-2.088,0.142-4.471,3.167-4.701
			c3.036,5.974,6.619,11.617,10.406,17.135c1.022,1.489,2.549,2.645,2.954,4.535C176.116,54.808,176.045,57.907,175.973,61.007z"/>
		<path fill-rule="evenodd" clip-rule="evenodd" fill="#853E24" d="M162.828,30.037c-3.149,2.126-1.466,5.357-1.787,8.104
			c-0.226,1.929-0.047,3.904-0.049,5.859c-0.998,0.229-1.607-0.375-1.835-1.157c-1.498-5.148-4.091-9.904-5.4-15.118
			c-0.202-1.259-0.257-2.515,0.181-3.745c-0.404-2.58-1.376-4.817-3.083-6.902c-0.877-1.072-3.036-2.173-1.554-4.287
			C156.314,16.575,160.186,22.824,162.828,30.037z"/>
		<path fill-rule="evenodd" clip-rule="evenodd" fill="#9E5130" d="M153.938,23.98c0.352,1.004,0.704,2.009,1.056,3.013
			c-1.003,1.724-1.935,3.633-4.182,3.902c-4.56,0.546-6.574,3.353-7.134,7.599c-0.114,0.865-0.483,1.572-1.43,1.798
			c-3.681-2.124-6.292-5.598-10.502-7.273c-3.089-1.229-4.822-0.974-6.699,1.335c-3.692-0.022-4.265-1.957-2.796-4.851
			c1.718-3.383,1.172-5.535-2.545-6.22c-3.1-0.571-5.583-1.963-8.112-3.546c-1.332-1.207-4.143-1.172-3.456-4.083
			c0.867-0.684,1.891-0.867,2.95-0.948c1.807-0.058,3.617-0.109,5.363,0.485c4.265,5.337,9.66,4.192,15.134,2.613
			c1.564,0.064,3.085,0.285,4.422,1.183c1.993,0.677,3.987,1.354,5.98,2.031c0.499,0.654,0.95,1.353,1.504,1.957
			C148.164,28.072,148.17,28.067,153.938,23.98z"/>
		<path fill-rule="evenodd" clip-rule="evenodd" fill="#A35431" d="M111.006,15.996c-1.003,0.004-2.006,0.007-3.009,0.01
			c-0.599,0.744-1.131,1.548-1.916,2.126c-5.627,3.421-11.676,1.736-17.613,1.443c-1.856-2.529,0.427-3.789,1.767-5.122
			c1.356-1.349,3.229-2.114,4.674-3.417c0.375-0.287,0.782-0.52,1.211-0.715c1.297-0.425,2.784-0.285,3.884-1.307
			c0.43-0.8,1.173-0.987,1.994-1.021c3.444-1.965,6.538-1.768,9.14,1.478C111.242,11.647,110.231,13.804,111.006,15.996z"/>
		<path fill-rule="evenodd" clip-rule="evenodd" fill="#E1974B" d="M76.002,7.977c1.463,0.212,2.75-0.294,3.993-0.981
			c2.896-0.538,5.728,1.083,8.69,0.162c1.056-0.328,2.377,0.191,2.636,1.636c0.208,1.168-0.634,1.806-1.532,2.292
			c-1.46,0.791-3.079,1.215-4.58,1.919c-6.655,1.978-13.3,4.004-20.282,4.521c-1.154,0.085-2.388,0.359-3.102-0.894
			c-0.576-1.011-0.249-2.196,0.608-2.638C66.834,11.726,70.399,7.524,76.002,7.977z"/>
		<path fill-rule="evenodd" clip-rule="evenodd" fill="#C1753E" d="M76.002,7.977c-5.394,1.229-9.648,4.345-13.651,7.996
			c7.934,0.268,15.191-2.39,22.643-3.993c1.577-0.905,2.537-0.163,3.256,1.223c-0.226,1.303-1.241,1.73-2.312,2.102
			c-3.715,1.484-7.636,1.808-11.562,2.339c-3.71,0.501-7.474,0.969-11.057,2.454c-2.462,1.021-5.22,1.168-4.331-3.104
			c0.002-1.688,1-3.058,2.278-3.636c4.873-2.201,8.913-6.367,14.728-6.372C75.998,7.315,76,7.646,76.002,7.977z"/>
		<path fill-rule="evenodd" clip-rule="evenodd" fill="#B16336" d="M111.006,15.996c-3.959-1.979-1.443-3.986-0.024-5.988
			c1.316-0.615,2.057,0.522,3.017,0.993c2.33,1.928,7.81,2.894,10.292,1.99c2.229-0.811,4.304,0.472,6.012,1.418
			c2.076,1.148,4.32,2.419,5.705,4.578c-1.668,0.003-3.335,0.006-5.003,0.009c-2.443-1.594-5.217-1.566-7.968-1.597
			c-2.122-0.023-4.225-0.066-6.037-1.396C115.001,16.001,113.004,15.999,111.006,15.996z"/>
		<path fill-rule="evenodd" clip-rule="evenodd" fill="#D48846" d="M88.012,13.015c-1.005-0.346-2.012-0.69-3.018-1.035
			c1.844-0.895,3.688-1.788,5.531-2.683C86.97,8.463,83.135,9.4,79.995,6.995c4.825-2.219,9.992-0.502,14.977-1.216
			c2.076-0.297,1.858,1.726,1.01,3.209c-1.46,2.645-4.379,3.065-6.701,4.402C88.798,13.468,88.375,13.34,88.012,13.015z"/>
		<path fill-rule="evenodd" clip-rule="evenodd" fill="#B56738" d="M113.998,11.001c-1.006-0.331-2.011-0.662-3.017-0.993
			c-2.528-2.753-5.772-2.313-8.984-2.015c2.367-3.967,5.309-2.658,8.251-0.854C111.813,8.098,113.128,9.345,113.998,11.001z"/>
		<path fill-rule="evenodd" clip-rule="evenodd" fill="#B76839" d="M88.971,12.979c1.884-2.127,4.531-2.912,7.011-3.991
			c0.343,0.008,0.686,0.015,1.028,0.022c0.604,1.141-0.458,1.436-1.009,1.989L96,11.001C93.753,12,92.071,15.011,88.971,12.979z"/>
		<path fill-rule="evenodd" clip-rule="evenodd" fill="#AA5934" d="M96.001,11c0.336-0.663,0.672-1.326,1.009-1.989
			c0.998,0.001,1.996,0.002,2.993,0.004C99.236,10.82,97.711,11.097,96.001,11z"/>
		<path fill-rule="evenodd" clip-rule="evenodd" fill="#AA5934" d="M88.971,12.979c2.658,0.459,4.535-1.854,7.029-1.979
			c-1.853,3.48-6.705,3.963-7.999,8.001c-1.021,2.388-3.27,2.059-5.222,2.384c-2.763,0.105-4.234,2.258-6.519,3.76
			c1.22,2.274,7.905,3.387,1.684,6.863c-3.199,0.432-6.389,0.785-9.523-0.329c-0.411-0.271-0.712-0.644-0.994-1.056
			c-1.045-1.528,0.91-4.085-1.173-4.912c-2.452-0.975-5.188-0.413-7.781,0.146c-2.467,0.531-4.678,2.746-7.471,1.14
			c-1.061-2.575-0.229-4.522,1.995-6.008c0.002,0.339,0.005,0.678,0.008,1.017c4.902,0.589,10.616-0.507,14.436-2.122
			c4.815-2.035,9.073-3.352,14.516-3.23c1.488,0.033,2.972-1.326,4.071-2.624c0.818-0.034,1.564-0.208,1.985-1.016
			C88.331,12.996,88.65,12.984,88.971,12.979z"/>
		<path fill-rule="evenodd" clip-rule="evenodd" fill="#B76839" d="M86.026,14.03c-1.845,3.729-4.218,6.375-8.734,3.784
			c-3.27-1.876-4.735,0.703-5.79,2.676c-1.027,1.921-2.077,2.814-4.132,2.504c-4.079-0.616-8.095-0.443-12.064,0.746
			c-1.467,0.44-2.154-0.332-2.303-1.733c1.996-1.671,3.991-3.343,5.985-5.015c0.275,1.851,0.971,3.53,3.168,2.344
			c5.426-2.932,11.373-2.821,17.228-3.467C81.639,15.621,83.815,14.664,86.026,14.03z"/>
		<path fill-rule="evenodd" clip-rule="evenodd" fill="#833D23" d="M96.008,100.013c-1.328,1.571-3.887,1.077-5.013,2.987
			c-0.7-0.045-1.4-0.091-2.102-0.138c-2.223-3.252-5.753-4.797-8.904-6.838c-0.074-2.044,1.653-2.244,2.708-1.847
			C87.229,95.885,92.24,96.563,96.008,100.013z"/>
		<path fill-rule="evenodd" clip-rule="evenodd" fill="#813C23" d="M24,69c0.333-0.333,0.667-0.667,1-1
			c1.893-0.938,3.581,0.093,5.24,0.683c2.2,0.781,4.153,0.779,6.061-0.705c3.138-2.439,5.414-1.778,6.722,2.011
			c0.325,0.003,0.65,0.007,0.976,0.01c5.819,1.771,12.074,2.183,17.408,5.444c1.641,1.004,2.394,0.069,3.267-1.004
			c4.568-5.618,5.805-12.313,6.241-19.266c0.1-1.586-1.296-2.67-1.427-4.187c0.201-1.427,0.983-2.234,2.455-2.311
			c1.87,0.986,4.552,1.063,4.614,4.091c-1.457,2.813-2.725,5.577-0.27,8.588c0.831,1.019,0.83,2.475,0.667,3.786
			c-0.283,2.274,0.496,3.351,2.945,3.254c2.337-0.092,3.282,1.146,2.546,3.47c-1.823,1.901-4.328,2.728-6.485,4.104
			c-3.702,0.949-6.889,2.663-8.964,6.029c-0.325,0.633-0.613,1.294-1.271,1.675c-1.335,0.639-2.661,1.273-3.75,2.34
			c-2.681,2.625-5.317,2.327-7.662-0.411c-1.535-1.793-3.508-2.28-5.583-2.53c-0.373,0.249-0.546,0.533-0.462,0.875
			c0.62,2.521,3.39,5.731-0.422,7.276c-3.549,1.438-7.377,0.367-10.037-2.97c-0.157-0.441-0.208-0.897-0.172-1.362
			c-2.74-5.326-5.448-10.669-10.598-14.183c-0.46-0.059-0.898-0.188-1.323-0.369C24.641,71.485,23.329,70.75,24,69z"/>
		<path fill-rule="evenodd" clip-rule="evenodd" fill="#8D4227" d="M69.997,50.997c2.011,1.415,3.169,2.891,2.136,5.715
			c-0.871,2.38-1.868,4.984-0.535,7.717c0.542,1.111-0.26,2.374-1.01,3.183c-2.051,2.21-3.342,4.813-4.789,7.415
			c-1.364,2.454-3.782,5.989-5.967,0.242c-0.27-0.712-0.811-1.219-1.467-1.063c-5.605,1.327-9.759-2.2-14.368-4.207
			c1.493-1.299,3.566-0.885,4.929-1.316c5.62-1.782,12.221,1.02,17.083-3.675c2.309-3.029,2.552-6.177,0.541-9.459
			C66.606,53.199,66.592,50.803,69.997,50.997z"/>
		<path fill-rule="evenodd" clip-rule="evenodd" fill="#BF703D" d="M67.002,44.022c-3.254-2.923-7.21-2.002-10.997-2.007
			c-6.609-0.352-12.511-2.395-17.247-7.229c0.11-0.879,0.693-1.344,1.444-1.672c7.378-1.353,13.747,1.859,20.248,4.468
			c4.722,0.765,9.498-0.559,14.217,0.361c1.905,0.583,3.381,1.59,3.673,3.749c-0.866,2.348-2.829,2.477-4.796,2.113
			c-1.822-0.337-3.507-0.311-5.161,0.534C67.874,44.448,67.416,44.33,67.002,44.022z"/>
		<path fill-rule="evenodd" clip-rule="evenodd" fill="#CF8344" d="M40,33.998c-0.344,0.321-0.687,0.644-1.03,0.966
			c-3.621,0.863-6.33-2.913-9.968-1.957c-3.971,0.484-6.503-0.855-7.623-5.04c-0.568-2.124-2.25-3.949-3.428-5.909
			c0.347-0.349,0.694-0.696,1.041-1.045c1.497-0.002,2.938,0.329,4.377,0.708c0.615,0.298,1.159,0.696,1.675,1.141
			c1.811,1.813,3.982,2.75,6.542,2.995c2.487,0.238,4.766,1.114,6.634,2.866c0.388,0.648,0.452,1.329,0.205,2.039
			c-0.264,0.451-0.707,0.637-1.178,0.779c0.22,0.337,0.565,0.067,0.85,0.178C39.164,32.132,40.407,32.362,40,33.998z"/>
		<path fill-rule="evenodd" clip-rule="evenodd" fill="#BC6E3D" d="M52.927,49.938c1.426-0.561,2.389-1.604,3.073-2.939
			c3.918,0.527,2.779,3.723,2.387,5.654c-0.78,3.852-2.467,7.461-6.369,9.366c-2.28,4.497-6.502,2.537-9.994,3.004
			c-0.135-0.181-0.269-0.361-0.405-0.541c-0.229-2.145,1.368-2.722,2.901-3.097c1.558-0.382,2.148-1.142,1.765-2.68
			c-0.09-1.997,0.856-3.583,1.993-5.098C49.776,52.324,50.226,49.699,52.927,49.938z"/>
		<path fill-rule="evenodd" clip-rule="evenodd" fill="#8D452A" d="M52.927,49.938c-1.277,1.383-2.555,2.765-3.833,4.147
			c-2.838,1.866-5.1,1.176-7.045-1.466c-1.544-2.097-2.795-4.355-4.019-6.639c-0.717-1.696-2.382-2.186-3.829-2.88
			c-1.407-0.677-2.107-1.489-1.312-3.036c5.275-0.354,9.818,0.481,11.208,6.69c0.327,1.459,1.183,2.129,2.893,1.803
			C49.093,48.157,51.139,48.653,52.927,49.938z"/>
		<path fill-rule="evenodd" clip-rule="evenodd" fill="#B26138" d="M29.001,33.007c0.933-1.631,1.933-2.49,3.919-1.172
			c1.88,1.248,4.022,2.103,6.049,3.129c5.678,2.351,11.357,4.701,17.036,7.052c-3.276,3.012-6.006,2.128-9.65-0.111
			c-4.137-2.542-7.99-6.201-13.491-6.193C31.367,35.714,29.721,34.724,29.001,33.007z"/>
		<path fill-rule="evenodd" clip-rule="evenodd" fill="#AD5C37" d="M52.018,62.02c1.95-3.245,4.508-6.12,5.504-9.938
			c0.56-2.146,0.777-3.918-1.522-5.083c0.853-1.062,1.716-0.87,2.387,0.124c3.057,4.53,2.429,9.896,3.209,14.927
			c0.202,1.305-1.173,2.013-2.443,1.756C56.752,63.321,54.394,62.627,52.018,62.02z"/>
		<path fill-rule="evenodd" clip-rule="evenodd" fill="#994D2C" d="M67.002,44.022c0.319-0.031,0.639-0.049,0.959-0.052
			c3.3-2.282,6.688,0.213,10.026-0.184c-0.042,3.983-3.667,3.848-5.989,5.21c-0.956,0.377-1.619,1.048-2.001,2
			c-2.032,1.046-3.243,2.585-2.995,4.998c0.729,1.601,1.722,3.266-1,4.004c-0.08-4.014,0.07-8.052-0.344-12.03
			C65.475,46.209,66.406,45.277,67.002,44.022z"/>
		<path fill-rule="evenodd" clip-rule="evenodd" fill="#8D4227" d="M43.023,69.988c-2.017-2.442-4.009-3.022-6.714-0.667
			C32.224,72.876,28.757,68.676,25,68c-1.001-0.997-2.001-1.994-3.002-2.992c1.328-0.322,2.655-0.646,3.982-0.968
			c0.433,0.149,0.827,0.368,1.189,0.646c2.085,1.529,4.273,2.533,6.895,1.37c1.138-0.475,2.274-0.945,3.501-1.146
			c1.614-0.226,3.142-0.093,4.418,1.069C45.422,66.514,42.541,68.688,43.023,69.988z"/>
		<path fill-rule="evenodd" clip-rule="evenodd" fill="#984A2E" d="M66.001,59.999c1.463-1.053,0.855-2.622,1-4.004
			c3.404,3.15,3.001,6.81-0.991,9.012C64.371,63.341,64.353,61.671,66.001,59.999z"/>
		<path fill-rule="evenodd" clip-rule="evenodd" fill="#BC6E3D" d="M41.983,65.98c-1.661,0.003-3.322,0.006-4.983,0.009
			c1.054-3.264,3.025-2.074,4.967-1.023l0.056,0.058C42.011,65.343,41.998,65.661,41.983,65.98z"/>
		<path fill-rule="evenodd" clip-rule="evenodd" fill="#73361F" d="M37.995,87.005c1.606,3.473,5.114,3.673,8.01,3.768
			c3.39,0.11,3.511-2.111,1.727-4.674c-0.875-1.257-2.319-2.642-0.839-4.39c0.385-0.456,1.037-0.687,1.566-1.021
			c1.062,2.558,4.301,0.702,5.406,2.416c2.895,4.49,5.547,5.126,8.852,0.436c0.448-0.637,2.152-0.389,3.274-0.55
			c0.781,5.314-2.108,8.759-6.267,6.913c-3.9-1.731-4.829,0.21-5.726,3.095c-6.493,2.291-12.397-0.804-17.922-3.014
			c-3.384-1.354-7.179-3.217-10.066-5.991C30.842,81.667,34.137,85.456,37.995,87.005z"/>
		<path fill-rule="evenodd" clip-rule="evenodd" fill="#813C23" d="M37.995,87.005c-4.435,0.746-7.55-3.76-11.985-3.011
			c-3.542-2.364-7.084-4.729-10.627-7.091c-1.64-1.094-3.243-2.436-5.304-0.825c-0.542-1.349-1.934-2.68-0.085-4.08
			c1.575,0.142,2.923,0.968,4.389,1.445c4.399,1.949,8.254,5.868,13.765,3.757c5.299,1.235,7.277,5.816,9.856,9.792L37.995,87.005z"
			/>
		<path fill-rule="evenodd" clip-rule="evenodd" fill="#67311C" d="M53.999,92.998c0.572-1.739-1.789-3.619-0.05-5.134
			c1.848-1.611,3.329,0.498,4.899,1.102c4.005,1.539,5.337,0.472,7.144-5.976c0.334-0.331,0.669-0.662,1.004-0.992
			c0.706,1.236,1.163,2.533,0.979,3.988c-0.765,1.676-0.79,3.351,0.013,5.022c0.002,0.33,0.007,0.66,0.016,0.989
			c-1.617,4.083-3.941,1.034-5.374,0.159C59.342,90.148,56.625,90.088,53.999,92.998z"/>
		<path fill-rule="evenodd" clip-rule="evenodd" fill="#592C1A" d="M75.96,75.969c1.476-2.139,2.995-4.211,6.034-3.982
			c3.046-2.35,7.135-0.584,10.257-2.617c1.14-0.505,2.294-0.975,3.493-1.317c2.123-0.355,4.037-1.344,6.045-2.043
			c1.936-0.266,2.799-1.364,2.893-3.326c0.049-1.03,0.801-1.807,1.89-2.025c1.177-0.237,2.087,0.449,2.293,1.42
			c1.393,6.531,4.885,3.025,7.928,1.721c4.693-0.033,2.569,2.387,1.588,4.402c-0.59,0.49-1.279,0.774-2.013,0.955
			c-0.312,0.081-0.787,0.035-0.93,0.23c-4.302,5.912-10.829,3.011-16.319,4.161c-0.391,0.163-0.794,0.308-1.187,0.46
			c-1.009,0.399-1.626,1.187-2.085,2.133c-0.221,0.367-0.516,0.657-0.879,0.878c-3.642-2.147-7.333-3.808-11.617-1.689
			C80.994,76.493,78.435,75.864,75.96,75.969z"/>
		<path fill-rule="evenodd" clip-rule="evenodd" fill="#AE5D37" d="M91.981,79.009c0.956,0.021,1.912,0.043,2.869,0.063
			c6.332-0.41,12.623,0.604,18.944,0.536c2.304,0.079,4.609-0.094,6.914,0.003c1.975,0.165,4.153-0.278,5.492,1.811
			c-0.107,1.411-1.073,1.893-2.281,2.112c-4.614,0.025-9.254-0.719-13.839,0.41c-2.161,0.461-4.415,0.352-6.529,1.104
			c-5.235,1.074-10.255-1.096-15.428-0.997c-3.488-1.378-6.865,0.823-10.301,0.336c-2.074-0.294-4.842,0.935-5.766-2.305
			l-0.086-0.106C78.66,81.113,84.888,77.141,91.981,79.009z"/>
		<path fill-rule="evenodd" clip-rule="evenodd" fill="#70361F" d="M120.905,80.92c-2.303-0.014-4.605-0.026-6.908-0.039
			c-0.667-0.304,1.02-1.415-0.308-1.271c-5.033,0.547-10.003,0.835-14.695-1.604c-1.383-0.166-2.951,0.429-4.026-0.988
			c0.042-0.396,0.084-0.792,0.126-1.188c1.454-2.16,3.611-2.062,5.791-1.746c7.377,1.068,14.756,1.99,22.22,0.932
			c0.815,0.134,1.533,0.452,2.027,1.15C125.15,79.015,122.383,79.395,120.905,80.92z"/>
		<path fill-rule="evenodd" clip-rule="evenodd" fill="#C27440" d="M72.058,82.082c3.585,1.683,7.272,1.052,10.923,0.382
			c1.774-0.324,3.496-1.006,5.057,0.491c-0.91,1.25-2.44,1.249-3.674,1.845c-3.141,1.706-6.815,1.705-10.041,3.146
			c-1.437,0.6-2.883,0.808-4.343,0.072C70.096,85.838,69.151,83.286,72.058,82.082z"/>
		<path fill-rule="evenodd" clip-rule="evenodd" fill="#572817" d="M98.994,78.006c5.961,1.622,11.938,1.319,18.041-0.1
			c-0.26,2.044-2.421,1.686-3.038,2.976c-6.488,0.524-12.82-0.597-19.146-1.81C96.252,78.797,97.904,79.495,98.994,78.006z"/>
		<path fill-rule="evenodd" clip-rule="evenodd" fill="#A25133" d="M91.981,79.009c-3.963-0.143-7.692,0.236-11.302,2.39
			c-2.552,1.521-5.784,0.41-8.708,0.577C78.213,78.099,84.853,76.904,91.981,79.009z"/>
		<path fill-rule="evenodd" clip-rule="evenodd" fill="#9E5030" d="M69.98,88.019c1.338-0.938,2.689-0.882,4.049-0.052
			c0.231,0.053,0.462,0.105,0.696,0.154c0.434,0.215,0.824,0.491,1.18,0.819c0.724,1.138,2.378,2.137,0.574,3.671
			c-1.294,0.521-2.438,0.121-3.535-0.574c-0.972-0.692-1.943-1.385-2.915-2.078C70.013,89.313,69.997,88.665,69.98,88.019z"/>
		<path fill-rule="evenodd" clip-rule="evenodd" fill="#572A19" d="M67.987,91.009c-1.467-1.671-1.445-3.345-0.012-5.022
			C67.979,87.66,67.982,89.335,67.987,91.009z"/>
		<path fill-rule="evenodd" clip-rule="evenodd" fill="#73371F" d="M38.03,45.981c1.983,0.868,2.919,2.72,3.852,4.438
			c1.605,2.959,3.606,4.799,7.212,3.665c-0.726,1.615-1.452,3.23-2.178,4.845c-0.357,1.1-1.09,1.55-2.234,1.294
			c-4.404-2.882-4.784-7.967-6.679-12.225C38.011,47.327,38.021,46.654,38.03,45.981z"/>
		<path fill-rule="evenodd" clip-rule="evenodd" fill="#431E10" d="M38.002,47.999c3.268,3.407,3.455,8.613,6.948,11.889
			c-0.4,1.477-1.531,1.867-2.877,1.945c-1.466-0.157-2.85-0.552-4.026-1.492c-0.366-2.13,1.467-3.471,1.918-5.31
			c-1.305-3.952-4.976-6.035-8.334-10.339C34.599,46.233,36.3,47.116,38.002,47.999z"/>
		<path fill-rule="evenodd" clip-rule="evenodd" fill="#A25432" d="M26.064,57.01c-0.065-0.637-0.131-1.272-0.197-1.908
			c0.347-0.565,0.788-0.651,1.322-0.258c1.964-1.408,3.932-0.872,5.901-0.011c0.079,0.198,0.158,0.396,0.238,0.594
			c-0.029,0.659-0.285,1.234-0.65,1.769c-0.809,0.959-1.521,2.002-2.399,2.911c-0.387,0.222-0.801,0.305-1.244,0.258
			c-0.643-0.213-1.175-0.596-1.656-1.063C26.681,58.687,26.406,57.829,26.064,57.01z"/>
		<path fill-rule="evenodd" clip-rule="evenodd" fill="#71351F" d="M39.965,55.031c1.221,2.373,0.381,3.938-1.931,4.927
			c-0.745,0.836-1.657,0.893-2.647,0.57c-1.667-1.451,1.417-4.991-2.41-5.503c0,0,0.11-0.189,0.111-0.19
			C35.441,52.819,37.678,54.79,39.965,55.031z"/>
		<path fill-rule="evenodd" clip-rule="evenodd" fill="#95472B" d="M27.189,54.844c-0.44,0.085-0.88,0.17-1.321,0.257
			c-0.949-0.099-1.898-0.198-2.846-0.3c0.389-3.232,2.836-2.755,5.005-2.779C27.565,52.908,25.725,53.385,27.189,54.844z"/>
		<path fill-rule="evenodd" clip-rule="evenodd" fill="#95472B" d="M28.022,52.034c-0.006-0.69-0.013-1.381-0.02-2.071
			c1.735,0.086,3.561-0.3,5.643,1.207C31.644,52.475,29.72,51.735,28.022,52.034z"/>
		<path fill-rule="evenodd" clip-rule="evenodd" fill="#9C4C2F" d="M27.994,77.992c-4.072,3.937-7.032-0.924-10.529-1.45
			c-1.257-0.189-2.322-1.651-3.475-2.533c-1.271-4.591-0.705-5.298,4.014-5.014c0.663,0.006,1.326,0.013,1.988,0.02
			c2.094,0.811,4.142,1.714,6.012,2.978c0.332,0.004,0.664,0.007,0.997,0.01C30.051,73.548,31.059,75.432,27.994,77.992z"/>
		<path fill-rule="evenodd" clip-rule="evenodd" fill="#8E4429" d="M18.003,68.995c-3.775-0.279-4.188,2.132-4.014,5.014
			c-1.711,0.084-3.24-0.193-3.995-2.011c-1.263-2.306-0.706-3.873,2.016-3.916C14.011,68.05,16.241,67.219,18.003,68.995z"/>
		<path fill-rule="evenodd" clip-rule="evenodd" fill="#8D4227" d="M26.003,71.992c-2.63,0.271-4.255-1.486-6.012-2.979
			C21.328,69.01,22.664,69.005,24,69C24.668,69.997,25.336,70.995,26.003,71.992z"/>
		<path fill-rule="evenodd" clip-rule="evenodd" fill="#A65D32" d="M26.064,57.01c0.942,0.413,1.603,1.094,1.955,2.065
			c0.952,1.759,0.72,3.602,0.389,5.455c-0.645,0.962-1.414,1.286-2.404,0.468c-0.008-0.319-0.016-0.64-0.023-0.959
			c-2.025-4.266-5.458-5.743-9.991-5.046c2.115-1.795,4.604-1.021,6.904-0.785C24.332,58.354,25.397,58.478,26.064,57.01z"/>
		<path fill-rule="evenodd" clip-rule="evenodd" fill="#753922" d="M24.019,22.962c-0.387-0.286-0.774-0.571-1.161-0.857
			c-2.21-1.16-3.939-2.769-4.803-5.178c-1.345-2.314-2.69-4.629-4.035-6.943c3.049-0.234,3.513,3.367,5.963,4.02
			c0.365,0.626,0.73,1.253,1.095,1.88c0.685,2.473,3.938,3.021,4.302,5.738C25.22,22.365,24.75,22.798,24.019,22.962z"/>
		<path fill-rule="evenodd" clip-rule="evenodd" fill="#B76D3B" d="M18.055,16.927c1.937,1.414,3.621,3.063,4.804,5.178
			c-1.615,0.786-2.847,0.222-3.868-1.092C18.42,19.71,16.696,18.671,18.055,16.927z"/>
		<path fill-rule="evenodd" clip-rule="evenodd" fill="#A04F2F" d="M51.001,26.998c4.754-1.115,9.087-3.862,14.349-3.086
			c2.848,0.42,5.958-0.257,2.875,4.104c-0.485,0.687-0.156,1.948-0.203,2.944c-1.531,1.807-3.964,0.997-5.773,2.008
			c-1.017,0.397-2.02,0.829-3.091,1.073c-5.752,0.273-11.359-0.849-16.992-1.753c-0.563-2.435,1.261-2.03,2.607-2.194
			c1.645,0.603,3.479,0.074,5.096,0.849c1.28,0,2.561,0,4.023,0C53.822,28.87,51.823,28.346,51.001,26.998z"/>
		<path fill-rule="evenodd" clip-rule="evenodd" fill="#66311D" d="M49.87,30.942c-1.593-0.003-3.186-0.005-4.778-0.008
			c-2.184-1.386-5.132,0.13-7.152-1.882c-3.082-1.115-6.138-2.189-9.477-2.487c-2.02-0.181-3.455-1.785-4.443-3.604
			c0.329-0.323,0.658-0.646,0.987-0.968c2.768,0.598,5.593,0.976,8.22,2.117c3.83,1.197,7.634,1.134,11.421-0.202
			c0.086-0.03,0.269,0.15,0.377,0.261c0.208,0.214,0.203,0.505,0.015,0.845C41.862,30.893,48.369,28.877,49.87,30.942z"/>
		<path fill-rule="evenodd" clip-rule="evenodd" fill="#7E3C23" d="M45.04,25.015c-4.021,1.626-8.046,1.93-12.075,0.024
			c0.342-1.019,1.43-1.263,2.06-1.981c4.485-0.325,9.421,1.242,12.952-3.088C48.575,22.569,45.819,23.217,45.04,25.015z"/>
		<path fill-rule="evenodd" clip-rule="evenodd" fill="#92472B" d="M72.944,92.037c1.355-0.016,2.711-0.031,4.067-0.047
			c2.78-1.829,5.777-2.207,8.839-0.98c1.919,0.769,3.863,0.519,5.803,0.646c1.035,0.01,2.069,0.047,3.095,0.185
			c5.365,0.21,10.738,0.477,15.605-2.464c2.931-1.198,4.698-4.183,7.806-5.114c1.221-0.339,2.42-0.378,3.562,0.281
			c1.196,2.95-2.043,3.206-2.953,4.881c-1.52,1.843-3.821,2.421-5.774,3.566c-3.66,2.01-7.32,4.019-10.98,6.029
			c-2.001,0.331-4.002,0.661-6.004,0.992c-4.146-1.072-8.244-2.245-11.989-4.442c-1.323-0.776-2.838-1.029-4.029,0.454
			C76.916,95.978,74.567,94.648,72.944,92.037z"/>
		<path fill-rule="evenodd" clip-rule="evenodd" fill="#91462A" d="M35.025,23.058c-0.07,1.301-0.797,1.919-2.06,1.981
			c-2.484-1.457-6.114,0.083-7.959-3.045c-0.903-2.298-4.054-3.151-3.928-6.111c1.834,1.264,3.464,2.898,5.822,3.211
			c-0.781,2.159,0.71,2.028,2.008,1.904C31.276,20.771,33.404,21.127,35.025,23.058z"/>
		<path fill-rule="evenodd" clip-rule="evenodd" fill="#803B22" d="M164.984,58.985c1.663,3.006,3.325,6.013,4.987,9.019
			c-0.001,0.981,0.031,1.963-0.009,2.942c-0.058,1.429-0.58,2.65-2.147,2.833c-1.979,0.231-1.597-1.624-2.118-3.052
			c-1.297,1.339-0.013,3.479-1.763,4.229c-1.175-1.075-1.193-2.527-1.306-3.953c0-2.247-0.103-4.484-0.283-6.732
			C162.176,62.145,161.846,59.605,164.984,58.985z"/>
		<path fill-rule="evenodd" clip-rule="evenodd" fill="#B16239" d="M155.061,83.098c-0.347,0.305-0.693,0.609-1.04,0.915
			c-4.157,0.393-4.7-0.314-4.214-5.458c0.849-2.133,3.469-1.312,4.704-2.819c0.642-0.854,1.35-1.634,2.235-2.24
			c0.37-0.235,0.765-0.417,1.178-0.563c3.406-0.763,3.508,2.604,5.114,4.097c0.225,1.651-1.452,1.875-2.138,2.844
			c-0.695,0.938-1.974-2.076-2.603,0.467C157.942,81.779,156.068,82.069,155.061,83.098z"/>
		<path fill-rule="evenodd" clip-rule="evenodd" fill="#9F5332" d="M151.002,77.998c-1.145,3.084-1.129,5.586,3.019,6.014
			c-0.659,0.693-1.317,1.387-1.977,2.08c-3.355,0.492-4.976-1.282-5.497-4.33c-0.645-3.765-1.522-7.529-0.627-11.386
			c0.334-1.198,0.947-2.169,2.171-2.634C152.286,70.599,152.956,72.961,151.002,77.998z"/>
		<path fill-rule="evenodd" clip-rule="evenodd" fill="#813F26" d="M146.968,70.017c0.01,2.604,0.289,5.24-0.033,7.802
			c-0.538,4.275,1.288,6.823,5.109,8.272c-0.606,1.276-1.615,1.919-3.028,1.927C146.778,88.243,147.491,85.52,146,85
			c-0.021-2.52,0.276-5.13-1.992-7.012c-0.97-1.57-2.07-3.076-2.441-4.946c0.057-1.8,1.013-3.116,2.299-4.256
			C145.229,68.362,146.165,69.024,146.968,70.017z"/>
		<path fill-rule="evenodd" clip-rule="evenodd" fill="#C67B41" d="M163.038,77.028c-2.4,0.163-2.147-4.049-5.048-3.06
			c-1.106-3.153,0.316-5.387,2.653-7.289c3.046-0.004,2.567,2.645,3.295,4.386c-0.001,1.298-0.002,2.595-0.003,3.892
			C163.079,75.406,163.146,76.255,163.038,77.028z"/>
		<path fill-rule="evenodd" clip-rule="evenodd" fill="#954C2B" d="M155.061,83.098c0.96-1.33,2.05-2.586,2.854-4.005
			c2.098-3.699,1.933,0.786,2.986,0.78C159.377,81.713,157.609,83.111,155.061,83.098z"/>
		<path fill-rule="evenodd" clip-rule="evenodd" fill="#783C24" d="M146,85c2.312-0.3,2.338,1.685,3.016,3.018
			c-0.577,1.308-1.575,1.979-3.009,1.994C144.202,88.344,146.698,86.67,146,85z"/>
		<path fill-rule="evenodd" clip-rule="evenodd" fill="#5D2F1C" d="M142.017,72.983c1.571,1.308,2.041,3.053,1.991,5.005
			c-0.159,1.38,0.454,2.951-0.992,4.013c0-1.29,0-2.579,0-4.506c-1.63,1.584-0.36,3.696-2.001,4.513
			c-1.087-0.886-1.158-2.147-1.275-3.393c-0.077-1.156-0.115-2.322-0.704-3.374c-0.624-2.765-4.632-1.129-5.179-3.982
			C137.245,68.685,139.951,69.325,142.017,72.983z"/>
		<path fill-rule="evenodd" clip-rule="evenodd" fill="#9C4D30" d="M140.907,78.001c0.035,1.336,0.071,2.671,0.107,4.007
			c-3.664,4.413-8.67,6.483-13.987,8.012c-3.374-0.653-3.64-1.778-1.033-4.851c0.952-1.123,3.188-2.091,0.01-3.167
			c-1.407-1.734-3.401-0.704-5.098-1.082c0.209-2.503,2.387-2.968,4.076-3.938c1.753-2.002,3.956-2.807,6.584-2.48
			c1.363,1.107,3.092,1.979,4.157,3.19C137.626,79.854,139.146,78.741,140.907,78.001z"/>
		<path fill-rule="evenodd" clip-rule="evenodd" fill="#894126" d="M126.004,82.002c1.33-0.556,2.932-1.809,3.993-0.179
			c1.224,1.88-0.974,2.364-2.021,3.18c-3.447,2.687-3.47,2.7-0.949,5.017c-1.351,0.651-2.701,1.303-4.053,1.953
			c-0.99,0.012-1.98,0.022-2.971,0.034c-0.83,0.376-1.239-0.021-1.07-0.788c0.264-1.197-0.033-2.091-0.94-2.229
			c0.683-1.983,2.889-2.484,3.968-4.083c-0.151-1.51,0.379-2.303,2.023-1.919C124.657,82.659,125.331,82.331,126.004,82.002z"/>
		<path fill-rule="evenodd" clip-rule="evenodd" fill="#793921" d="M117.993,88.99c1.657-0.555,3.313-1.109,5.098-1.707
			c0.79,2.811-4.064,1.921-3.087,4.724c-2.116,1.906-4.682,0.604-7.012,0.984C114.092,90.948,116.354,90.359,117.993,88.99z"/>
		<path fill-rule="evenodd" clip-rule="evenodd" fill="#904328" d="M141.998,39.998c0.985-5.168,1.952-10.202,8.996-10.284
			c1.343-0.016,2.667-1.769,3.999-2.721c2,5.67,4,11.339,5.999,17.008c0.686,1.245,1.165,2.542,1.02,3.998
			c-2.574,2.493-5.47-1.182-8.092,0.43c-4.217-0.134-6.104-4.274-9.637-5.589c-0.831-0.382-1.604-0.845-2.194-1.563
			C141.839,40.867,141.82,40.439,141.998,39.998z"/>
		<path fill-rule="evenodd" clip-rule="evenodd" fill="#974B2A" d="M144.002,41.999c4.547-0.023,6.057,5.021,10.005,5.995
			c4.735,2.162,9.589,4.195,11,10.01c-0.009,0.327-0.017,0.654-0.022,0.981c-3.266,3.774,0.011,8.114-1.045,12.08
			c-0.976-1.354-1.951-2.71-2.927-4.064c-0.683-1.012-1.633-1.832-2.147-2.971c-0.506-0.975-0.852-2.009-1.187-3.049
			c-2.087-4.259-6.105-6.91-8.918-10.603C146.737,47.724,144.857,45.219,144.002,41.999z"/>
		<path fill-rule="evenodd" clip-rule="evenodd" fill="#883E23" d="M165.007,58.004c-2.712-4.386-7.5-6.489-11-10.009
			c0.781-1.497,1.797-2.457,3.398-1.052c1.384,1.214,2.997,1.036,4.606,1.056C166.314,51.123,167.331,54.519,165.007,58.004z"/>
		<path fill-rule="evenodd" clip-rule="evenodd" fill="#994D2E" d="M112.001,18.999c3.419,2.925,8.487,1.944,11.883,5.195
			c2.026,1.94,3.327,3.312,0.243,5.233c-3.632,2.264-1.423,3.431,0.874,4.572c1.857,0.931,1.224,2.264,0.595,3.601
			c-0.854,1.172-0.698,2.451-0.335,3.723c0.668,2.333,0.948,4.292-1.943,5.615c-1.813,0.829-0.868,3.297-1.637,4.881
			c-0.295,0.679-0.741,1.237-1.311,1.706c-1.597,1.103-2.72,0.683-3.436-1.061c-1.563-4.284-6.711-3.6-9.195-6.607
			c-0.822-0.791-1.61-1.618-2.429-2.416c-1.491-1.715-3.594-3.012-3.872-5.572c0.22-2.266-1.153-4.596,0.255-6.818
			c3.1-0.682,4.856,0.62,4.688,3.736c-0.138,2.565,1.386,3.477,3.234,4.337c0.848,0.395,1.624,0.292,2.146-0.531
			c1.1-1.732,1.745-3.52,0.739-5.569c-2.153-4.386-0.622-9.078-1.069-13.611C111.621,19.273,111.811,19.136,112.001,18.999z"/>
		<path fill-rule="evenodd" clip-rule="evenodd" fill="#AA5D35" d="M124.995,36.998C125.625,36,125.623,35,125.001,34
			c1.266-3.512,2.028-5.699,6.681-2.326c3.61,2.617,8.139,3.904,10.316,8.324c-0.002,0.332,0.001,0.664,0.008,0.996
			c-0.182,0.146-0.362,0.291-0.543,0.438c-3.682,0.747-6.275-1.474-9.132-3.908c0.049,2.861,2.315,4.101,2.58,6.212
			c2.418,3.034,1.97,6.74,2.417,10.238c0.061,2.862,2.402,3.434,4.386,4.36c1.283,0.915,2.161,2.257,3.397,3.231
			c0.298,0.368,0.498,0.783,0.627,1.238c0.126,0.985,0.006,1.888-0.852,2.542c-5.616-2.218-11.895-3.517-14.022-10.466
			c-0.63-2.056-2.585-2.882-4.224-3.992c-1.779-1.205-2.996-2.335-0.976-4.713C128.233,43.151,125.072,40.092,124.995,36.998z"/>
		<path fill-rule="evenodd" clip-rule="evenodd" fill="#A55A32" d="M116.999,16.004c3.067-0.001,6.146,0.146,9.201-0.049
			c2.478-0.158,4.016,0.739,4.804,3.041c-3.574,2.489-7.496,0.966-11.284,0.974C116.885,19.976,117.884,17.341,116.999,16.004z"/>
		<path fill-rule="evenodd" clip-rule="evenodd" fill="#994D2E" d="M105.997,16.997c0.434-0.801,1.178-0.975,2-0.991
			c1.335,0.998,2.669,1.995,4.004,2.993l-0.004,0.004C109.189,20.752,107.233,19.951,105.997,16.997z"/>
		<path fill-rule="evenodd" clip-rule="evenodd" fill="#92472B" d="M105.997,16.997c1.777,1.337,3.634,2.433,6,2.006
			c2.695,4.54-1.236,9.948,2.133,14.601c1.89,2.608-0.854,5.096-2.232,7.093c-1.185,1.716-2.976-0.565-4.181-1.132
			c-1.68-0.79-4.467-1.662-2.462-5.16c1.26-2.199-1.982-2.371-3.257-3.402c-6.989-1.566-14.288-1.379-21.159-3.317
			c-4.331-1.222-3.897-3.587,1.162-7.683c2.06,0.023,4.141,0.178,6-1c4.497-1.2,9.041,0.523,13.627-0.267
			C103.375,18.434,104.575,17.643,105.997,16.997z"/>
		<path fill-rule="evenodd" clip-rule="evenodd" fill="#A35233" d="M82.001,20.002c-0.373,0.535-0.762,1.06-1.115,1.607
			c-0.74,1.146-2.805,1.694-2.042,3.486c0.619,1.451,2.31,1.465,3.679,2.001c4.74,1.856,10.029-1.357,14.597,1.852
			c1.41,0.991,3.24,1.386,4.878,2.054c-0.993,2.336,2.264,4.686-0.022,7.018c-3.717,1.064-6.212-2.271-9.566-2.686
			c-1.46-0.181-2.788-1.177-3.604,0.865c-0.628,0.412-1.317,0.503-2.046,0.428c-2.188-0.391-4.311-1.014-6.395-1.771
			c-2.565-1.068-5.499,0.091-8.003-1.313c-1.031-1.129-0.48-1.727,0.739-1.969c1.942-0.386,4.018,0.518,5.896-0.584
			c1.484-2.59,0.071-3.073-2.168-3.033c-1.042,0.019-1.993-0.417-2.366-1.411c-0.502-1.339,0.478-2.316,1.437-2.767
			C78.093,22.748,79.315,20.184,82.001,20.002z"/>
		<path fill-rule="evenodd" clip-rule="evenodd" fill="#8E4328" d="M78.996,30.99c0.629,0.062,1.259,0.123,2.786,0.271
			c-3.691,1.584-7.128-0.435-9.807,1.673c-1.32,1.491-3.01,1.266-4.707,1.03c-1.747-0.695-3.88-0.387-5.288-1.991
			c1.775-1.758,4.034-0.635,6.042-1.014C71.68,30.97,75.338,30.98,78.996,30.99z"/>
		<path fill-rule="evenodd" clip-rule="evenodd" fill="#77361F" d="M93.026,70.021c-3.21,3.278-7.313,1.544-11.033,1.965
			c-0.086-1.483,0.169-3.311-2.356-2.331c-1.006,0.391-1.952,0.286-2.779-0.424c-0.748-0.642-1.999-1.582-1.461-2.352
			c3.186-4.563-6.902-9.628,0.603-13.882c0.9-1.362,1.502-2.91,2.711-4.083c0.997-0.968,2.236-2.076,3.389-0.938
			c3.01,2.972,6.915,1.467,10.297,2.434c7.733,4.293,8.564,8.592,2.981,15.365C94.332,67.044,93.043,68.182,93.026,70.021z"/>
		<path fill-rule="evenodd" clip-rule="evenodd" fill="#813B22" d="M91.999,51.001c-3.42-0.461-7.385,2.14-10.177-2.005
			c-0.87-1.291-1.541-0.019-2.215,0.678c-1.137,1.172-2.398,2.223-3.607,3.324c0.204-2.871-4.208-1.126-4.001-4.001
			c0.81-3.108,4.836-2.328,6.022-4.98c1.022-0.502,1.844,0.038,2.684,0.501c3.48,2.479,8.398,1.771,11.475,5.154
			C92.373,50.149,92.312,50.593,91.999,51.001z"/>
		<path fill-rule="evenodd" clip-rule="evenodd" fill="#8D4227" d="M27.994,77.992c1.854-2.359,0.312-4.155-0.994-5.99
			c1.829-1.856,2.7,0.104,3.387,1.098c2.685,3.884,4.742,8.201,8.465,11.343c1.359,1.146,1.219,2.29-0.847,2.551
			C33.763,84.999,32.987,79.149,27.994,77.992z"/>
		<path fill-rule="evenodd" clip-rule="evenodd" fill="#D08444" d="M66.969,32.964c1.669-0.01,3.338-0.019,5.006-0.028
			c3.009,0.554,6.247-0.908,9.099,1.031c-0.713,0.91-1.734,1.146-2.795,1.29c-3.737,0.158-7.5,0.264-11.221-0.006
			c-3.297-0.238-5.59,0.753-7.027,3.708C53.679,35.99,47.186,33.593,40,33.998c-0.901-0.631-1.923-1.145-2.677-1.918
			c-1.31-1.343,0.37-0.85,0.791-1.13c1.614-1.164,2.905-0.743,3.964,0.81c5.951,0.431,11.902,0.861,17.853,1.293
			C62.265,32.136,64.614,32.33,66.969,32.964z"/>
		<path fill-rule="evenodd" clip-rule="evenodd" fill="#DE934A" d="M60.03,38.959c-0.764-4.19,0.978-5.433,5.109-5.032
			c4.243,0.412,8.557,0.092,12.839,0.092c1.431,3.109-1.022,3.901-2.977,4.991C70.011,38.992,65.021,38.976,60.03,38.959z"/>
		<path fill-rule="evenodd" clip-rule="evenodd" fill="#D48946" d="M75.002,39.01c0.682-1.85,3.104-2.66,2.977-4.991
			c1.031-0.017,2.062-0.034,3.094-0.052c2.023,0.648,4.046,1.298,6.069,1.946c-0.781,1.748-2.764,2.146-3.894,3.273
			c-0.153,1.777,3.481,2.394,1.067,4.54c-2.474,0.73-4.779,0.879-6.285-1.781C77.312,40.667,76.348,39.641,75.002,39.01z"/>
		<path fill-rule="evenodd" clip-rule="evenodd" fill="#A45233" d="M78.031,41.945c2.169,1.386,4.594,0.988,6.961,1.001
			c1.933-0.719,3.642-0.271,5.198,0.996c0.173,0.556,0.081,1.063-0.272,1.525c-3.443,2.763-6.674,0.851-9.932-0.456
			c-0.655-0.332-1.31-0.664-1.964-0.995c-3.353-0.016-6.706-0.03-10.059-0.046c1.157-2.188,2.953-2.379,4.976-1.464
			C74.787,43.342,76.418,42.899,78.031,41.945z"/>
		<path fill-rule="evenodd" clip-rule="evenodd" fill="#974A2A" d="M42.077,31.76c-1.322-0.27-2.645-0.539-3.965-0.81
			c-0.057-0.633-0.114-1.266-0.172-1.897c2.577-0.106,5.149-0.196,7.151,1.883C44.046,31.062,42.889,30.781,42.077,31.76z"/>
		<path fill-rule="evenodd" clip-rule="evenodd" fill="#CC8243" d="M28.042,63.918c-1.466-1.608-0.238-3.229-0.023-4.844
			c0.333,0.309,0.665,0.616,0.998,0.925c4.415-0.896,8.479,2.991,12.979,0.951c0.985-0.354,1.971-0.708,2.956-1.063
			c0.655-0.319,1.311-0.638,1.965-0.957c1.572,1.775,1.55,3.21-1.119,3.378c-1.966,0.125-3.42,0.51-3.829,2.657
			c-1.667,0.288-3.583-0.63-4.968,1.023c-0.999,0.35-1.998,0.7-2.997,1.05C31.259,67.444,29.513,65.943,28.042,63.918z"/>
		<path fill-rule="evenodd" clip-rule="evenodd" fill="#A25432" d="M28.042,63.918c1.987,1.04,3.974,2.08,5.961,3.121
			c-3.31,1.841-5.797,0.459-8-2.041C26.863,64.978,27.618,64.759,28.042,63.918z"/>
		<path fill-rule="evenodd" clip-rule="evenodd" fill="#853D23" d="M91.999,51.001C92,50.668,92,50.334,92,50
			c4.5-1.395,9.033-1.995,13.654-0.591c2.31,2.643-0.154,4.733-1.125,6.679c-2.302,4.613-4.085,9.665-8.54,12.882
			c-0.988,0.351-1.976,0.701-2.963,1.052c-4.031-1.358-0.621-2.728,0.177-3.621c2.71-3.037,5.737-5.528,3.951-10.569
			C96.131,52.941,93.111,53.193,91.999,51.001z"/>
		<path fill-rule="evenodd" clip-rule="evenodd" fill="#773A23" d="M142.017,72.983c-2.485-1.698-4.994-3.212-7.994-1.074
			c-1.092,1.39-2.685,1.361-4.22,1.496c-7.26,1.415-14.597,1.203-21.933,1.033c-3.34-0.373-6.94,0.775-9.92-1.693
			c3.603-1.664,7.416-0.295,11.091-0.802c0.877-0.12,3.753,1.527,1.997-2.009c-0.361-0.729,2.955-1.991,5.003-1.902
			c2.07,1.763,4.432,0.179,6.625,0.563c7.138-1.125,14.242-0.839,21.328,0.411C144.149,70.737,142.568,71.604,142.017,72.983z"/>
		<path fill-rule="evenodd" clip-rule="evenodd" fill="#AF6038" d="M107.986,73.013c7.38-0.119,14.784,0.342,22.121-0.884
			c0.826,0.56,1.69,1.108,0.694,2.235c-2.084,1.329-4.492,1.297-6.816,1.621c-7.924,2.036-15.749,0.568-23.566-0.72
			c-1.866-0.307-3.622-0.302-5.325,0.565c-0.015-1.429,0.632-2.344,2.056-2.657C100.77,73.632,104.387,73.918,107.986,73.013z"/>
		<path fill-rule="evenodd" clip-rule="evenodd" fill="#74361F" d="M95.989,68.97c3.271-6.362,7.507-12.218,9.982-18.999
			c-0.658-0.706-1.395-1.355-1.701-2.323c-0.313-0.966-0.402-1.95-0.237-2.956c0.34-0.935,0.514-2.068,1.975-1.7
			c0.674,0.667,1.348,1.334,2.021,2.001c0.699,1.321,1.575,2.559,1.915,4.052c0.164,1.021,0.072,2.019-0.273,2.992
			c-2.85,4.834-4.238,10.422-7.681,14.954C100.058,67.855,98.311,69.283,95.989,68.97z"/>
		<path fill-rule="evenodd" clip-rule="evenodd" fill="#642F1C" d="M101.99,66.99c1.854-5.222,3.167-10.695,7.008-14.988
			c0.379,0.307,0.663,0.685,0.856,1.129c0.53,5.069,2.336,9.373,7.146,11.87c-1.171,1.344-2.957,1.314-4.434,1.978
			c-2.634,1.183-4.729,1.707-4.071-2.606c0.12-0.793,0.032-3.1-1.846-2.891c-1.744,0.194-0.751,1.769-0.789,2.819
			C105.77,66.857,103.915,67.004,101.99,66.99z"/>
		<path fill-rule="evenodd" clip-rule="evenodd" fill="#74361F" d="M117.001,65.001C111.679,64.412,109.146,60.614,109,53
			c2.426-1.344,4.389,0.413,4.709,1.989c1.07,5.254,5.708,6.271,9.181,8.708c0.296,0.413,0.415,0.875,0.389,1.38
			c-1.22,1.973-2.605,3.643-5.31,2.868c-0.364-1.211,1.636-2.302,0.185-3.51C118.019,64.323,117.396,64.798,117.001,65.001z"/>
		<path fill-rule="evenodd" clip-rule="evenodd" fill="#9F5830" d="M117.969,67.945c1.683-0.969,3.366-1.938,5.05-2.906
			c1.298,0.045,2.351,0.517,2.402,1.958c0.084,2.329-2.138,2.144-3.435,2.963c-1.974-0.67-4.928,1.684-5.946-1.929
			C116.684,68.003,117.326,67.975,117.969,67.945z"/>
		<path fill-rule="evenodd" clip-rule="evenodd" fill="#D48647" d="M107.986,73.013c-3.589,1.694-7.206,1.411-10.838,0.16
			c0.273-0.13,0.541-0.272,0.802-0.427C101.295,72.834,104.641,72.923,107.986,73.013z"/>
		<path fill-rule="evenodd" clip-rule="evenodd" fill="#D78C48" d="M83.978,83.982c1.077-1.435,2.672-0.816,4.059-1.026
			c5.312,0.342,10.623,0.684,15.935,1.025c2.183-1.276,4.899,0.476,7.005-1.239c2.085-0.143,4.516-1.164,5.271,2.074
			c-1.313,1.51-2.909,2.588-4.835,3.166c-4.716,0.508-9.365,2.37-14.194,0.75c-2.893-2.024-5.919-3.612-9.629-3.445
			C86.279,85.346,84.924,85.127,83.978,83.982z"/>
		<path fill-rule="evenodd" clip-rule="evenodd" fill="#C57641" d="M115.97,84.975c-0.993-2.333-3.054-1.952-4.964-1.952
			c-0.365,0.386-0.711,0.351-1.039-0.048c4.674-1.553,9.347-1.616,14.018,0.014c-0.675,0.641-1.349,1.28-2.023,1.92
			c-1.308,0.039-2.614,0.079-3.922,0.118C117.335,85.563,116.645,85.583,115.97,84.975z"/>
		<path fill-rule="evenodd" clip-rule="evenodd" fill="#CF8245" d="M109.967,82.975c0.346,0.016,0.692,0.031,1.039,0.048
			c-2.134,1.867-4.692,0.616-7.034,0.959C105.731,82.227,107.964,83.287,109.967,82.975z"/>
		<path fill-rule="evenodd" clip-rule="evenodd" fill="#803F26" d="M123.985,75.985c2.081-1.595,4.812-0.93,7.036-2.025
			c0.628-0.585,1.297-0.542,1.991-0.133c0.26,0.922-0.006,1.375-1.029,1.153c-2.333,0.667-4.667,1.335-7.001,2.002
			C124.649,76.649,124.317,76.317,123.985,75.985z"/>
		<path fill-rule="evenodd" clip-rule="evenodd" fill="#E3994D" d="M83.978,83.982c4.622,0.421,10.012-1.652,13.016,4.013
			c-2.992,3.085-6.875,2.17-10.514,2.348c-1.322-0.202-2.655-0.352-3.99-0.448c-2.558-1.782-5.816-0.517-8.464-1.924
			c0,0,0.002-0.003,0.003-0.004c0.185-0.837-0.348-2.507,1.011-2.202C78.378,86.514,80.964,84.324,83.978,83.982z"/>
		<path fill-rule="evenodd" clip-rule="evenodd" fill="#B06338" d="M82.028,88.972c1.315,0.021,2.63,0.04,3.945,0.061
			c1.101,0.745,2.509,0.646,3.639,1.317c0.925,0.762,2.775,0.695,2.388,2.641c-5.039,0.297-9.9-2.058-14.99-1
			c-0.676-0.991-1.352-1.981-2.028-2.972C77.324,87.911,79.675,88.313,82.028,88.972z"/>
		<path fill-rule="evenodd" clip-rule="evenodd" fill="#C27440" d="M82.028,88.972c-2.34,1.271-4.696,0.097-7.045,0.047
			c-0.319-0.349-0.638-0.698-0.957-1.048C76.723,88.07,79.714,85.818,82.028,88.972z"/>
		<path fill-rule="evenodd" clip-rule="evenodd" fill="#A65D32" d="M41.995,60.95c-4.688,4.622-8.669-0.409-12.979-0.951
			c0.341-0.016,0.681-0.03,1.021-0.045c0.621-0.507,1.299-0.89,2.112-0.988c1.119-0.109,2.066,0.296,2.917,0.983
			c0.989,0.003,1.978,0.006,2.967,0.009C39.354,60.289,40.674,60.62,41.995,60.95z"/>
		<path fill-rule="evenodd" clip-rule="evenodd" fill="#98482C" d="M35.067,59.949c-1.021,0.004-2.042,0.009-3.063,0.013
			c-0.85-0.984-0.721-1.97-0.002-2.956c0.326-0.66,0.651-1.32,0.976-1.98c2.065-0.119,3.841,0.481,5.322,2.096
			C37.704,58.671,34.731,57.487,35.067,59.949z"/>
		<path fill-rule="evenodd" clip-rule="evenodd" fill="#974B2E" d="M32.001,57.006c0.001,0.985,0.001,1.972,0.002,2.957
			c-0.656-0.003-1.311-0.006-1.966-0.009C29.998,58.509,30.702,57.559,32.001,57.006z"/>
		<path fill-rule="evenodd" clip-rule="evenodd" fill="#77341F" d="M66.969,32.964c-2.346,0.029-4.691,0.059-7.038,0.088
			c0.428-0.845,1.2-1.036,2.05-1.077C63.649,32.274,65.566,31.324,66.969,32.964z"/>
		<path fill-rule="evenodd" clip-rule="evenodd" fill="#BA6B3C" d="M92,92.99c-1-0.662-2.001-1.325-3.001-1.987
			c5.919-3.078,12.475-2.135,18.751-2.942c1.468-0.189,2.984-0.063,4.235-1.068c1.033-1.256,2.411-1.831,3.984-2.018
			c0.689,0.017,1.379,0.034,2.069,0.052c-2.534,1.391-3.866,4.484-7.042,4.966c-5.111,2.191-10.893,0.808-16.005,2.994
			C93.994,92.988,92.997,92.989,92,92.99z"/>
		<path fill-rule="evenodd" clip-rule="evenodd" fill="#A45234" d="M94.992,92.986c4.759-4.074,10.519-2.805,16.005-2.994
			C106.297,94.383,100.505,92.941,94.992,92.986z"/>
		<path fill-rule="evenodd" clip-rule="evenodd" fill="#CD8244" d="M159.95,64.032c0.11,1.077,2.192,1.448,1.063,2.969
			c-1.376,2.163-2.424,4.469-3.021,6.969c-0.33,0.02-0.66,0.03-0.99,0.031c-0.575,0.539-1.233,0.627-1.957,0.362
			c-2.122-4.291-7.399-6.532-7.787-11.961c1.36-3.501,3.81-2.691,5.915-1.141C155.26,62.799,157.565,63.422,159.95,64.032z"/>
		<path fill-rule="evenodd" clip-rule="evenodd" fill="#B86B3C" d="M147.987,63.012c0.996,4.513,6.991,5.844,6.995,10.988
			c0.034,0.669,0.04,1.337,0.021,2.006c0.6,4.546-3.234,0.19-4.001,1.992c0.223-3.697-0.121-7.223-3.03-9.968
			c-0.361,0.329-0.774,0.418-1.242,0.271c-1.104-0.82-2.386-1.551-1.739-3.296c0.005-1.002,0.01-2.005,0.014-3.008
			C146.339,61.336,147.161,62.179,147.987,63.012z"/>
		<path fill-rule="evenodd" clip-rule="evenodd" fill="#C67B41" d="M155.003,76.006c-1.017-0.658-1.041-1.327-0.021-2.006
			c0.673,0,1.346,0,2.019,0.001C156.335,74.669,155.669,75.337,155.003,76.006z"/>
		<path fill-rule="evenodd" clip-rule="evenodd" fill="#904529" d="M147.021,67.976c0.318,0.007,0.636,0.025,0.951,0.055
			c-0.334,0.662-0.669,1.324-1.003,1.986c-0.992-0.336-1.983-0.673-2.975-1.01c-7.261,2.052-14.746-1.081-22.008,0.954
			c1.396-1.421,4.518-2.479,1.031-4.923c0.001,0.001-0.035-0.056-0.035-0.056c1.079-1.274,2.691-0.563,4.583-1.008
			c-8.206-0.836-9.37-2.663-7.574-10.994c0.342-0.334,0.684-0.667,1.024-1c1.351-0.425,2.223,0.484,2.992,1.264
			C130.578,59.887,139.269,63.196,147.021,67.976z"/>
		<path fill-rule="evenodd" clip-rule="evenodd" fill="#B06038" d="M131.983,74.98c0.314-0.302,0.628-0.604,0.942-0.905
			c2.691-2.21,4.905,0.284,7.326,0.742c0.893,0.923,0.773,2.053,0.655,3.184c-1.22,2.591-2.18,6.79-4.977,0.984
			C135.04,77.139,130.261,79.268,131.983,74.98z"/>
		<path fill-rule="evenodd" clip-rule="evenodd" fill="#CC8344" d="M140.252,74.817c-2.637,1.672-4.771-1.599-7.325-0.743
			c-0.636-0.037-1.271-0.075-1.905-0.114c-0.306-0.611-0.61-1.222-0.915-1.832c1.306-0.072,2.61-0.145,3.916-0.218
			C136.361,72.316,139.44,71.139,140.252,74.817z"/>
		<path fill-rule="evenodd" clip-rule="evenodd" fill="#AB5F34" d="M144.002,41.999c5,6.333,10.001,12.665,15.002,18.998
			c-5.586,1.063-9.489-1.645-12.797-5.704c-0.928-1.203-1.301-2.623-1.613-4.067c-0.317-2.05-2.043-3.327-2.813-5.129
			c-0.736-1.725-1.213-3.423,0.187-5.061l0.037-0.042C142.819,41.034,143.571,41.197,144.002,41.999z"/>
		<path fill-rule="evenodd" clip-rule="evenodd" fill="#C37940" d="M147.046,54.986c3.144,3.679,7.727,4.495,11.957,6.011
			c0.316,1.012,0.633,2.022,0.948,3.035c-2.712,1.684-4.799,0.827-6.859-1.353c-1.627-1.722-3.637-3.22-5.104,0.332
			c-0.994-0.338-1.988-0.676-2.983-1.015l-0.001-0.001c-1.259-0.733-1.245-2.77-3.033-2.961c-2.674-0.659-6.694,0.028-5.005-4.999
			c0.202-0.094,0.404-0.188,0.605-0.284C140.538,55.623,143.923,54.306,147.046,54.986z"/>
		<path fill-rule="evenodd" clip-rule="evenodd" fill="#A25432" d="M147.021,67.976c-3.319,0.196-6.055-0.907-8.31-3.419
			c-0.845-0.942-1.985-1.887-3.162-2.218c-6.119-1.717-10.422-5.882-14.533-10.358c0.674-2.553-2.171-6.756,3.527-7.041
			c0.932-0.047-0.254-1.958-0.446-3.006c-0.327-1.771-1.94-3.749,0.898-4.936c2.786,3.234,5.122,6.427,0.864,10.349
			c-1.345,1.238,0.054,2.02,1.112,2.493c2.904,1.3,5.277,2.577,5.366,6.604c0.049,2.227,4.509,4.561,4.936,4.489
			c3.863-0.646,4.69,3.81,7.717,4.072C145.667,65.995,146.344,66.985,147.021,67.976z"/>
		<path fill-rule="evenodd" clip-rule="evenodd" fill="#803D24" d="M119.991,52.98c2.268,1.622,0.233,3.698,0.334,5.486
			c0.182,3.224,2.063,4.047,4.325,4.025c1.772-0.017,3.547-1.096,4.845,0.915c0.396,0.613,0.125,1.261-0.392,1.771
			c-1.59,1.567-3.092,0.017-4.634-0.124c-0.493-0.045-0.991-0.048-1.487-0.071c-2.09-1.146-3.952-2.856-6.477-2.966
			c-1.92-0.084-2.523-1.07-2.505-2.817c0.037-3.416-1.725-5.431-5.001-6.199c-0.001-0.333-0.002-0.665-0.002-0.998
			c0.004-1.002,0.009-2.005,0.013-3.008c2.795,1.604,5.621,3.112,8.988,3.008C117.959,53.762,118.903,53.518,119.991,52.98z"/>
		<path fill-rule="evenodd" clip-rule="evenodd" fill="#813B22" d="M106.008,42.991c-0.813,0.438-0.988,1.194-1.022,2.024
			c-2.563-0.702-4.51-2.688-7.075-3.376c-1.189-0.435-2.138-1.296-3.262-1.855c-0.545-0.306-1.033-0.688-1.499-1.101
			c-1.068-1.044-2.569-1.356-3.749-2.213c-0.123-0.172-0.244-0.348-0.365-0.522c-0.283-0.916-1.08-2.132-0.753-2.689
			c0.894-1.522,1.956,0.004,2.861,0.354c3.638,1.4,7.227,2.927,10.833,4.407C103.319,39.677,104.663,41.334,106.008,42.991z"/>
		<path fill-rule="evenodd" clip-rule="evenodd" fill="#8D4328" d="M117.999,52.002c-3.806,1.417-7.041,1.13-8.988-3.008
			c-0.685-1.246-1.171-2.541-0.982-4.002c2.036,1.022,4.09,2.009,6.1,3.079C115.814,48.969,117.989,49.434,117.999,52.002z"/>
		<path fill-rule="evenodd" clip-rule="evenodd" fill="#B6693A" d="M141.968,41.036c-0.947,4.246,3.228,6.438,4.008,9.992
			c-3.481,0.295-4.76-2.226-6.063-4.719c-1.415-2.188-4.048-1.256-5.902-2.302c-0.761-1.437-1.368-2.92-2.771-3.979
			c-2.071-1.564-0.398-3.113,0.61-4.062c1.82-1.71,1.912,0.427,2.446,1.459C135.929,40.582,139.354,39.952,141.968,41.036z"/>
		<path fill-rule="evenodd" clip-rule="evenodd" fill="#C47940" d="M134.01,44.008c2.795-0.97,5.444-1.426,7.006,1.977
			c-1.803,2.435-0.502,6.421-4.002,8.008c0,0-0.048,0.043-0.049,0.043c-0.531-0.307-1.56-0.771-1.52-0.896
			C136.498,49.834,135.982,46.816,134.01,44.008z"/>
		<path fill-rule="evenodd" clip-rule="evenodd" fill="#B86B3C" d="M141.97,59.035c2.722-0.766,2.954,1.019,3.033,2.961
			C143.104,61.919,142.115,60.909,141.97,59.035z"/>
		<path fill-rule="evenodd" clip-rule="evenodd" fill="#DC914A" d="M93.948,38.104c0.346,0.307,0.69,0.613,1.036,0.92
			c0.823,4.17-1.591,5.108-5.022,5.032c-1.743,0.018-3.446-0.144-4.97-1.108c-1.529-1.203-3.058-2.404-5.04-3.963
			c2.627-1.122,4.908-2.096,7.189-3.07c0.632,0.011,1.263,0.023,1.894,0.034l0.009,0.012C90.374,37.37,92.498,36.967,93.948,38.104z
			"/>
		<path fill-rule="evenodd" clip-rule="evenodd" fill="#6E301B" d="M80.281,66.935c-1.685,0.028-2.925-0.565-3.143-2.413
			c-0.166-1.407,5.238-10.275,6.24-10.329c0.838-0.045,6.547,6.205,6.599,7.225C90.136,64.516,85.927,66.909,80.281,66.935z"/>
		<path fill-rule="evenodd" clip-rule="evenodd" fill="#994D2C" d="M105.037,47.971c0.766,0.454,0.934,1.188,0.935,2
			C101.313,49.469,96.659,51.041,92,50c-3.755-2.265-8.67-1.735-12.015-4.988c3.349,0.56,6.699,1.599,10.042-0.03
			c0.567-0.52,1.239-0.627,1.971-0.505c3.698,2.676,8.642,0.789,12.37,3.36C104.592,47.88,104.814,47.925,105.037,47.971z"/>
		<path fill-rule="evenodd" clip-rule="evenodd" fill="#BF733C" d="M91.993,45.007c-0.656-0.009-1.312-0.017-1.967-0.025
			c-0.015-0.31-0.036-0.618-0.064-0.926c2.142-1.211,4.777-1.929,5.022-5.032c1.622-0.284,1.96,1.392,3.015,1.974
			c0.334,0.44,0.398,0.917,0.196,1.433C96.659,44.563,95.146,46.762,91.993,45.007z"/>
		<path fill-rule="evenodd" clip-rule="evenodd" fill="#994D2C" d="M98.049,41.992c-0.018-0.332-0.034-0.664-0.05-0.995
			c2.948,0.263,5.586,1.065,6.986,4.019c0.018,0.985,0.034,1.971,0.052,2.955l-0.12,0.062
			C101.757,47.009,99.966,44.429,98.049,41.992z"/>
		<path fill-rule="evenodd" clip-rule="evenodd" fill="#CF8245" d="M111.985,86.992c-0.527,1.122-1.385,2.033-2.628,1.917
			c-6.934-0.645-13.616,0.982-20.358,2.094c-1.009-0.657-2.017-1.314-3.025-1.971c3.726,0.213,7.391-0.228,11.021-1.037
			C102.058,88.646,106.954,86.819,111.985,86.992z"/>
		<path fill-rule="evenodd" clip-rule="evenodd" fill="#D08544" d="M137.014,53.992c1.617-2.528,0.339-6.503,4.002-8.008
			c0.504,2.813,3.05,3.616,4.961,5.044c-0.106,1.444,0.316,2.746,1.069,3.958C143.524,56.447,140.056,57.376,137.014,53.992z"/>
		<path fill-rule="evenodd" clip-rule="evenodd" fill="#A35233" d="M93.948,38.104c-1.855-0.211-3.976,0.187-4.905-2.143
			C90.995,35.951,92.751,36.387,93.948,38.104z"/>
		<path fill-rule="evenodd" clip-rule="evenodd" fill="#B36437" d="M98.049,41.992c3.099,1.093,5.029,3.516,6.869,6.04
			c-3.086,0.624-11.032-1.236-12.925-3.025C94.794,45.574,96.008,42.951,98.049,41.992z"/>
	</g>
</g>
</svg>
