<?xml version="1.0" encoding="utf-8"?>
<!-- Generator: Adobe Illustrator 16.0.0, SVG Export Plug-In . SVG Version: 6.00 Build 0)  -->
<!DOCTYPE svg PUBLIC "-//W3C//DTD SVG 1.1//EN" "http://www.w3.org/Graphics/SVG/1.1/DTD/svg11.dtd">
<svg version="1.1" id="Layer_1" xmlns="http://www.w3.org/2000/svg" xmlns:xlink="http://www.w3.org/1999/xlink" x="0px" y="0px"
	 width="176px" height="103px" viewBox="0 0 176 103" enable-background="new 0 0 176 103" xml:space="preserve">
<g>
	<g>
		<path fill-rule="evenodd" clip-rule="evenodd" fill="#893F0B" d="M121.032,1.879c1.659,0.38,3.319,0.761,4.979,1.142
			c2.143,2.976,5.646,4.262,8.266,6.651c0.806,2.351,2.133,4.291,4.063,5.923c1.415,1.197,3.264,2.522,1.497,4.826
			c-1.228,0.598-2.336,0.326-3.378-0.448c-4.845-3.517-9.567-7.361-16.219-6.03c-0.451-0.127-0.865-0.333-1.238-0.617
			c-0.396-1.911-1.705-3.71-0.733-5.801c1.038-0.663,2.201-0.742,3.384-0.735c0.324,0.006,0.644,0.065,0.966,0.106
			c0.979,0.125,1.073,0.253,0.067-0.277c-3.224-1.7-6.772-2.189-10.247-2.986c-0.417-0.263-0.677-0.635-0.787-1.114
			C111.701,1.656,112.494,1.455,113,1c0.333,0,0.667,0,1,0C116.219,2.292,118.782,0.835,121.032,1.879z"/>
		<path fill-rule="evenodd" clip-rule="evenodd" fill="#2C180E" d="M3,16c1.944,0.529,2.045-2.47,3.931-2.053
			c0.77-0.537,1.75-0.627,2.271,0.031c2.828,3.574,7.096,5.387,10.256,8.537c0.95,1.501,2.226,2.774,3.141,4.284
			c1.015,1.675,1.093,3.134-1.486,3.281c-2.082-3.776-4.985-6.549-9.421-7.132C8.074,22.473,6.049,19.375,3,18
			C3,17.333,3,16.667,3,16z"/>
		<path fill-rule="evenodd" clip-rule="evenodd" fill="#9E4B0C" d="M96,1c0.667,0,1.333,0,2,0c0.327,0.326,0.589,0.699,0.8,1.111
			c0.147,0.443,0.23,0.897,0.273,1.361c0.059,1.182-0.021,2.346-0.469,3.461c-0.537,1.099-1.362,1.957-2.272,2.75
			c-0.764,0.62-1.614,1.067-2.579,1.283c-1.415,0.259-2.817,0.278-4.177-0.277c-1.223-0.632-0.986-2.393-2.306-2.956
			c-3.387-1.642-7.107,1.737-10.424-0.711c-0.013-1.983,1.62-2.462,2.949-2.639c4.027-0.534,7.786-2.206,11.824-2.612
			C93.011,1.129,94.681,2.062,96,1z"/>
		<path fill-rule="evenodd" clip-rule="evenodd" fill="#936953" d="M98.006,1.995C97.979,1.663,97.977,1.332,98,1c5,0,10,0,15,0
			c-0.346,0.394-0.691,0.786-1.037,1.18C107.285,4.023,102.63,4.21,98.006,1.995z"/>
		<path fill-rule="evenodd" clip-rule="evenodd" fill="#5B483E" d="M175.204,51.693c0.266,0.103,0.53,0.204,0.796,0.307
			c0,4,0,8,0,12c-0.278,0.123-0.569,0.18-0.873,0.17c-1.741-1.412-1.373-3.437-1.547-5.306
			C173.582,56.353,172.97,53.699,175.204,51.693z"/>
		<path fill-rule="evenodd" clip-rule="evenodd" fill="#574D44" d="M98.154,103.105c-0.175,0.277-0.226,0.575-0.154,0.895
			c-3.333,0-6.667,0-10,0c-0.015-0.324-0.029-0.648-0.044-0.973c0.545-0.714,1.319-1.009,2.159-1.188
			c0.553-0.119,1.112-0.168,1.677-0.168C93.981,101.839,96.373,101.128,98.154,103.105z"/>
		<path fill-rule="evenodd" clip-rule="evenodd" fill="#DCCFC7" d="M96,1c-0.973,1.708-2.757,0.536-4.041,1.138
			c-1.695,0.328-3.406,0.932-5.007-0.305C86.978,1.557,86.994,1.278,87,1C90,1,93,1,96,1z"/>
		<path fill-rule="evenodd" clip-rule="evenodd" fill="#E5D7CE" d="M121.032,1.879C118.664,1.774,116.15,2.843,114,1
			c2.333,0,4.667,0,7,0C120.991,1.294,121.002,1.587,121.032,1.879z"/>
		<path fill-rule="evenodd" clip-rule="evenodd" fill="#130D04" d="M89.949,102.934c-0.664,0.031-1.328,0.063-1.993,0.094
			c-2.467-0.92-5.035-1.64-7.379-2.807c-3.839-1.912-7.511-2.857-11.854-1.3c-2.2,0.789-5.039,0.64-7.376,0.059
			C48.897,95.883,36,93.863,25.547,85.465c-3.614-2.903-8.216-4.307-11.538-7.645c-0.256-4.189,2.225-1.981,3.898-1.679
			c3.18,2.246,6.555,4.199,9.83,6.31c6.665,4.363,13.464,8.424,21.526,9.673c2.035,0.745,3.996,0.559,5.546-0.958
			c2.732-2.672,5.354-2.469,8.447-0.505c3.345,2.123,4.07,1.61,4.394-2.399c0.225-2.78-0.348-5.631,0.734-8.343
			c5.16-5.139,10.795-9.313,18.552-9.28c3.086,0.014,5.79-1.354,8.528-2.546c3.104-1.446,6.244-2.826,9.414-4.122
			c3.184-1.303,8.022,0.694,9.573,3.787c0.455,5.215-2.766,5.787-6.833,5.552c-2.645-0.153-5.311-0.106-7.926,0.058
			c-0.315-0.001-0.563,0.157-0.657,0.478c0.295,0.43,0.741,0.584,1.188,0.751c1.398,0.389,2.829,0.187,4.239,0.315
			c0.72,0.055,1.42,0.185,2.116,0.375c3.123,0.664,5.965,2.839,9.479,1.296c1.608-0.707,3.952-1.266,4.824,0.797
			c0.896,2.12-0.707,3.67-2.693,4.585c-7.322,1.092-14.584,0.221-21.824-0.766c-3.137-0.427-6.267-0.725-9.42-0.754
			c-4.323-0.197-8.648-0.371-12.569,1.982c-2.041,1.464-3.058,3.328-2.302,5.879c0.502,1.221,1.32,2.223,2.205,3.181
			c2.057,1.997,4.697,2.906,7.229,4.073C85.007,97.172,88.594,98.814,89.949,102.934z"/>
		<path fill-rule="evenodd" clip-rule="evenodd" fill="#180F04" d="M22.841,49.143c2.695-1.609,3.347-5.129,6.255-6.602
			c1.338-0.678,0.489-1.489-0.242-2.217c-1.02-1.016-1.95-2.12-2.919-3.188c-0.25-0.262-0.35-0.537-0.301-0.826
			c0.05-0.297,0.111-0.445,0.182-0.445c3.918-1.489,5.6,2.75,8.688,3.389c1.097,0.732,1.154,2.335,2.447,2.908
			c1.529,0.904,3.141,1.715,3.888,3.486c0.441,1.022,0.832,2.067,1.308,3.076c1.383,3.589,2.158,7.588,6.329,9.283
			c0.022,1.049-0.491,1.814-1.271,2.444c-1.262,0.751-2.644,1.146-4.082,1.377c-1.473,0.112-2.778-0.314-3.927-1.234
			c-0.711-0.658-0.708-1.593-0.95-2.431c-1.393-1.923-3.413-2.567-5.647-2.777c-2.644-0.247-5.351,0.332-7.925-0.636
			C23.151,53.186,24.515,50.667,22.841,49.143z"/>
		<path fill-rule="evenodd" clip-rule="evenodd" fill="#2B1406" d="M8.174,71.013c0.668-3.02,1.337-6.039,2.006-9.058
			c0.375-0.347,0.812-0.576,1.309-0.694c4.724,0.707,9.333,1.703,12.944,5.196c0.621,0.838,1.177,1.692,0.569,2.781
			c-0.791,0.674-1.751,0.864-2.744,0.958c-2.968,0.017-6.452-0.757-6.236,4.113C10.856,76.345,10.829,76.334,8.174,71.013z"/>
		<path fill-rule="evenodd" clip-rule="evenodd" fill="#8D4A0B" d="M22.841,49.143c0.87,1.274,2.557,0.51,3.625,1.418
			c0.115,1.833-2.303,1.839-2.456,3.435c-0.155,0.711-0.589,1.183-1.243,1.471c-2.6,0.309-5.019,3.721-7.838,0.474
			c-0.358-2.073,1.298-3.243,2.142-4.778C18.635,49.465,20.781,49.428,22.841,49.143z"/>
		<path fill-rule="evenodd" clip-rule="evenodd" fill="#5D280A" d="M21.113,30.081c1.435-0.836,1.767-1.747,0.426-3.05
			c-1.148-1.115-2.535-2.143-2.581-3.996c-0.274-0.255-0.371-0.515-0.289-0.779c0.082-0.268,0.167-0.401,0.253-0.402
			c3.598,0.322,4.305,3.852,6.44,5.8c0.569,1.485,0.621,3.082,0.983,4.615c-0.016,0.473-0.229,0.842-0.606,1.121
			c-1.582,0.567-2.45-0.652-3.505-1.404C21.861,31.351,21.487,30.716,21.113,30.081z"/>
		<path fill-rule="evenodd" clip-rule="evenodd" fill="#201209" d="M8.174,71.013c1.908,2.818,4.286,4.412,7.817,2.994
			c0.638,0.057,1.136,0.376,1.572,0.821c0.484,0.661,0.953,1.329,0.418,2.186c-1.274,0.514-3.258-2.468-3.971,0.807
			C11.02,76.446,7.362,75.646,8.174,71.013z"/>
		<path fill-rule="evenodd" clip-rule="evenodd" fill="#442514" d="M17.07,51.161c0.38,2.069-1.268,3.276-2.06,4.848
			c-0.073,0.222-0.146,0.443-0.215,0.667c-0.857,1.123-1.72,2.242-3.208,2.584c-1.147-0.465-1.263-1.244-0.678-2.235
			C12.09,54.152,14.505,52.578,17.07,51.161z"/>
		<path fill-rule="evenodd" clip-rule="evenodd" fill="#2E251C" d="M22.234,31.985c1.214,0.378,2.428,0.756,3.643,1.134
			c0.947,0.853,0.917,1.763,0.159,2.715c-0.034,0.435-0.067,0.869-0.101,1.304C24.203,35.778,22.932,34.088,22.234,31.985z"/>
		<path fill-rule="evenodd" clip-rule="evenodd" fill="#743D11" d="M10.91,57.024c0.371,0.659,0.742,1.319,1.113,1.979
			c0.896-0.299,1.229,0.226,1.412,0.968c-0.004,1.648-1.671,1.278-2.435,2.006l-0.411,0.008c0,0-0.41-0.027-0.41-0.028
			C10.136,60.269,9.674,58.521,10.91,57.024z"/>
		<path fill-rule="evenodd" clip-rule="evenodd" fill="#1B1006" d="M175.027,58.964c0.033,1.735,0.066,3.471,0.1,5.206
			c-1.664,7.706-7.424,12.657-12.335,18.142c-1.84,2.054-4.103,3.731-6.195,5.555c-5.248,4.57-11.76,4.766-18.177,5.074
			c-3.789,0.182-7.597-0.04-11.396-0.08c0.081-1.918,1.685-2.063,2.877-1.996c7.771,0.436,9.007-5.998,11.582-10.944
			c0.582-1.116,0.313-2.637,1.169-3.756c2.462,0.946,2.462,0.946,3.266,6.408c-0.022,0.487-0.116,0.968-0.251,1.437
			c-0.225,1.344-1.888,2.606-0.503,4.019c0.798,0.813,1.833-0.011,2.728-0.307c0.371-0.211,0.758-0.398,1.138-0.59
			c1.356-0.627,2.383-1.619,3.161-2.888c0.5-0.732,1.066-1.4,1.8-1.916c3.269-1.709,6.69-3.232,8.172-7.017
			c1.183-2.181-0.141-6.598,4.936-5.402c0.622,0.146,0.757-1.639,1.145-2.518c1.388-3.145,3.095-6.093,5.465-8.62
			C174.183,58.591,174.625,58.645,175.027,58.964z"/>
		<path fill-rule="evenodd" clip-rule="evenodd" fill="#1F1308" d="M98.154,103.105c-2.392-0.026-4.782-0.053-7.174-0.08
			c0.152-3.141,3.087-2.73,4.851-3.819c2.963-0.935,5.926-1.878,8.85-2.935c4.198-0.994,6.801-4.505,10.332-6.547
			c1.139-0.658,2.304-1.289,3.524-1.764c1.45-0.564,3.036-2.041,4.497-0.583c1.341,1.338-0.936,2.607-0.642,4.066
			c0.329,0.694,0.815,1.352,0.563,2.189C114.367,95.95,106.492,100.134,98.154,103.105z"/>
		<path fill-rule="evenodd" clip-rule="evenodd" fill="#130D04" d="M122.955,93.634c-0.318-0.544-0.637-1.088-0.955-1.632
			c0.596-1.85,2.399-2.04,3.801-2.787c1.801-0.952,3.891-1.138,5.67-2.15c2.359-2.286,6.527-2.568,7.271-6.622
			c0.72-2.329-0.048-4.854,0.938-7.149c2.952-1.362,5.706-0.327,5.029,2.762c1.358,6.41-5.698,10.013-7.938,14.938
			c-0.729,1.606-2.655,0.814-4.065,1c-1.9,0.25-3.977-0.649-5.682,0.869C125.668,93.118,124.312,93.376,122.955,93.634z"/>
		<path fill-rule="evenodd" clip-rule="evenodd" fill="#301607" d="M151.818,15.033c4.562,2.799,7.062,7.326,9.104,11.913
			c3.449,7.747,7.81,14.914,12.469,21.94c-1.051,1.508-2.722,1.764-4.328,2.158c-3.108,0.298-5.954-0.3-8.32-2.487
			c-3.357-8.12-7.015-16.16-7.46-25.146c-0.303-0.359-0.575-0.74-0.842-1.125c-0.97-2.034-3.438-3.356-2.926-6.103
			C149.998,15.232,150.717,14.748,151.818,15.033z"/>
		<path fill-rule="evenodd" clip-rule="evenodd" fill="#79350B" d="M149.943,16.002c-0.006,2.523,3.129,3.438,3.066,5.99
			c1.551,3.556-1.079,5.263-3.365,6.679c-2.485,1.538-3.913-0.789-5.195-2.414c-1.191-1.511-2.792-2.896-2.678-5.123
			c1.103-1.147,2.229-0.603,3.356-0.054c1.234,0.335,2.514,2.595,3.603,0.867c1.305-2.069-1.268-2.844-2.436-4.002
			c-3.238-3.973-8.591-4.678-12.289-7.937c-3.237-1.675-7.431-2.256-7.995-6.988c7.282,1.158,14.563,2.317,20.118,7.884
			C146.606,13.198,149.771,13.48,149.943,16.002z"/>
		<path fill-rule="evenodd" clip-rule="evenodd" fill="#451F0F" d="M169.003,50.005c1.357-0.787,2.827-1.131,4.388-1.118
			c1.014,0.672,1.683,1.565,1.813,2.807c-0.059,2.424-0.118,4.848-0.177,7.271c-0.338,0.019-0.675,0.037-1.012,0.056
			c-3.437,1.32-4.413-1.436-5.815-3.496C167.422,53.535,167.149,51.613,169.003,50.005z"/>
		<path fill-rule="evenodd" clip-rule="evenodd" fill="#4C240E" d="M149.943,16.002c-1.486-1.538-4.275-2.102-3.814-5.098
			c1.981,1.26,4.356,1.977,5.689,4.129C151.193,15.356,150.568,15.68,149.943,16.002z"/>
		<path fill-rule="evenodd" clip-rule="evenodd" fill="#6E300C" d="M86.952,1.833c1.669,0.102,3.338,0.203,5.007,0.304
			C87.31,4.814,81.553,4.073,76.981,6.989c-0.397,1.359-1.521,1.805-2.71,2.172c-2.085,0.423-3.926,1.587-6.008,2.026
			c-3.79,0.817-6.469,2.937-8.391,6.367c-1.25,2.231-2.736,4.626-5.904,4.623c-0.526-0.561-0.646-1.229-0.521-1.961
			c0.389-2.487,4.194-3.147,3.364-6.29C65.542,6.613,75.832,3.189,86.952,1.833z"/>
		<path fill-rule="evenodd" clip-rule="evenodd" fill="#4C2009" d="M56.812,13.927c1.783,0.121,1.792,1.074,1.041,2.308
			c-0.959,1.575-2.214,2.869-3.846,3.768c-2.205,2.851-0.833,5.194,0.878,7.676c1.685,2.445,1.952,4.511-2.169,4.023
			c-2.114-0.541-4.339-0.616-6.365-1.529c-3.876-2.172-1.506-4.681-0.397-7.129c0.987-2.304,2.136-4.448,4.99-4.822
			C53.679,17.856,54.559,14.952,56.812,13.927z"/>
		<path fill-rule="evenodd" clip-rule="evenodd" fill="#301808" d="M13.991,8.037c1.646-1.828,2.928-4.843,6.051-1.856
			c0.064,1.965,0.519,3.82,1.559,5.509c0.735,1.332,1.641,2.569,2.229,3.985c0.37,1.062,0.733,2.125,0.521,3.279
			c-0.283,0.655-0.755,1.108-1.436,1.339c-1.805-0.143-2.402-1.817-3.557-2.79c-1.562-1.563-2.931-3.279-4.128-5.137
			C14.486,11.02,13.22,9.816,13.991,8.037z"/>
		<path fill-rule="evenodd" clip-rule="evenodd" fill="#733409" d="M50.942,18.221c-2.097,0.95-2.775,3.068-3.945,4.782
			c-0.424,0.354-0.884,0.656-1.374,0.911c-2.928,0.715-5.894,0.466-8.852,0.337c-2.428-0.25-3.659-2.732-5.969-3.216
			c-0.125-0.485-0.031-0.927,0.278-1.321c3.39-1.304,6.287,1.264,9.186,1.133c-1.859-0.151-3.888-1.053-6.053-1.459
			c-2.179-0.408-1.446-1.604-0.337-2.655C39.455,18.492,45.133,19.101,50.942,18.221z"/>
		<path fill-rule="evenodd" clip-rule="evenodd" fill="#4A230B" d="M19.006,21.986c-0.016,0.35-0.032,0.698-0.048,1.048
			c-4.563-2.297-8.074-5.984-12.028-9.087c2.632-0.807,2.528-4.238,4.993-5.206c1.727,0.802,1.511,2.196,1.131,3.646
			c-0.739,2.144,0.251,3.443,2.075,4.409c1.748,0.926,3.582,1.792,4.234,3.919C19.448,21.196,19.337,21.623,19.006,21.986z"/>
		<path fill-rule="evenodd" clip-rule="evenodd" fill="#9F5413" d="M31.075,20.106c-0.063,0.261-0.116,0.524-0.157,0.79
			c-4.434,1.229-5.591-2.773-7.896-4.943c-0.526-1.37-2.192-2.123-2.079-3.84c-0.334-1.219-1.323-2.634,0.924-3.077
			c0.447,1.853,1.631,3.166,3.121,4.254c0.836,1.062,1.811,1.975,2.94,2.72c0.999,0.559,1.998,1.117,2.996,1.677
			C31.717,18.447,31.14,19.292,31.075,20.106z"/>
		<path fill-rule="evenodd" clip-rule="evenodd" fill="#BE6715" d="M31.075,20.106c-1.13-0.739-0.15-1.61-0.15-2.42
			c0.678-1.271,1.57-1.879,2.954-0.952c-0.422,1.675,0.146,2.207,1.942,2.318c2.841,0.175,5.654,0.805,9.479,1.397
			c-3.488,2.003-6.397,2.384-8.674,0.842C34.715,19.999,32.994,20.135,31.075,20.106z"/>
		<path fill-rule="evenodd" clip-rule="evenodd" fill="#63320C" d="M12.047,12.06c0.62-1.131,0.407-2.23-0.124-3.317
			c0.453-0.931,1.248-0.854,2.068-0.705c0.698,1.288,1.396,2.577,2.094,3.865C14.786,13.169,13.439,13.204,12.047,12.06z"/>
		<path fill-rule="evenodd" clip-rule="evenodd" fill="#9B5518" d="M21.867,9.036c-1.084,0.792-0.81,1.992-0.924,3.076
			c-1.656-1.771-2.68-3.639-0.902-5.933C21.374,6.67,21.655,7.831,21.867,9.036z"/>
		<path fill-rule="evenodd" clip-rule="evenodd" fill="#9B5518" d="M27.928,16.01c-1.733-0.092-2.741-0.969-2.94-2.72
			C26.344,13.791,27.133,14.903,27.928,16.01z"/>
		<path fill-rule="evenodd" clip-rule="evenodd" fill="#522208" d="M141.978,21.022c0.71,0.885,1.392,1.794,2.135,2.649
			c1.409,1.622,2.038,4.957,4.548,4.284c2.355-0.632,4.161-3.042,4.35-5.964c0.328,0.006,0.655,0.012,0.983,0.021
			c1.231,6.937-2.376,11.786-9.04,12.123c-1.013,0.052-1.946,0.425-2.925,0.605c-1.649,0.184-3.002-0.493-3.847-1.806
			c-1.335-2.07-2.225-4.411-5.561-3.672c-1.15,0.255-1.917-1.26-2.168-2.396c-0.705-3.188-2.893-4.215-5.829-4.296
			c-2.425-0.067-4.599-0.587-5.885-2.966c-0.575-1.065-1.563-1.925-2.736-1.966c-4.157-0.143-5.919-3.135-7.721-6.143
			c-0.998-0.58-2.055-1.007-3.179-1.278c-1.106-0.464-2.506-0.663-2.222-2.406c2.552-2.592,5.329-1.619,7.689-0.012
			c2.743,1.869,5.739,3.283,8.452,5.172c0.307,0.03,0.613,0.054,0.921,0.071c0.61,0.587,1.413,1.211,2.157,1.051
			c5.961-1.286,9.977,3.145,14.88,4.938c0.738,1.115,1.905,0.951,2.999,1.004C140.839,19.976,141.521,20.27,141.978,21.022z"/>
		<path fill-rule="evenodd" clip-rule="evenodd" fill="#9C4A0B" d="M141.978,21.022c-0.665-0.328-1.331-0.656-1.997-0.984
			c-0.031-2.095-1.609-2.961-3.01-4.121c-1.781-1.475-4.056-2.908-2.965-5.909c4.872,1.327,9.398,3.294,12.993,6.992
			c2.415,4.984,2.315,5.233-2.002,5.004C143.991,21.677,142.984,21.35,141.978,21.022z"/>
		<path fill-rule="evenodd" clip-rule="evenodd" fill="#99460B" d="M97.998,6.995C97.999,5.663,98,4.33,98.001,2.997
			c4.661-0.801,9.323-0.781,13.985-0.01c5.215-0.244,9.865,1.094,14.565,5.221c-2.14-0.1-3.347-0.155-4.554-0.211
			c-1.881-1.22-3.769-2.521-5.24,0.513c-0.884,0.519-2.018,0.917-2.808,0.5C108.861,6.316,103.442,6.64,97.998,6.995z"/>
		<path fill-rule="evenodd" clip-rule="evenodd" fill="#783409" d="M97.998,6.995c4.233-1.808,8.442-2.202,12.693,0.021
			c1.963,1.026,4.133,1.131,6.313,0.963c0.351-0.293,0.671-0.263,0.961,0.091c1.934,1.294,2.541,2.874,1.059,4.904
			c-3.15,0.612-5.406-1.277-7.463-3.064c-2.614-2.271-5.319-3.003-8.561-1.907c-2.108,1.922-4.351,2.899-7.002,0.995
			C96.359,8.024,97.056,7.387,97.998,6.995z"/>
		<path fill-rule="evenodd" clip-rule="evenodd" fill="#783409" d="M136.981,19.034c-2.788-1.068-6.139-0.534-8.323-3.45
			c-0.845-1.127-2.768-0.715-4.217-0.254c-2.269,0.722-3.847,0.146-4.496-2.286C127.083,10.892,131.977,15.121,136.981,19.034z"/>
		<path fill-rule="evenodd" clip-rule="evenodd" fill="#A8510C" d="M117.965,8.069c-0.319-0.04-0.64-0.07-0.961-0.091
			c-0.277-0.895-1.977-1.065-1.36-2.322c0.417-0.852,1.51-0.806,2.212-0.479c1.517,0.706,3.871,0.276,4.143,2.82
			C120.653,8.021,119.31,8.046,117.965,8.069z"/>
		<path fill-rule="evenodd" clip-rule="evenodd" fill="#75310A" d="M111.986,2.987c-4.662,0.003-9.323,0.007-13.985,0.01
			c0.002-0.334,0.003-0.668,0.005-1.002c4.652,0.061,9.305,0.122,13.957,0.184C111.984,2.448,111.992,2.718,111.986,2.987z"/>
		<path fill-rule="evenodd" clip-rule="evenodd" fill="#4A1F09" d="M89.004,9.991c1.664-0.002,3.328-0.005,4.992-0.007
			c0.313,0.425,0.366,0.88,0.161,1.366c-0.906,1.334-2.342,1.692-3.771,2.059c-1.513,0.454-2.879,1.213-2.999,2.927
			c-0.185,2.646-1.692,4.586-3.415,6.669c8.941,1.806,17.999,0.363,26.492,3.619c3.069,1.176,5.929,1.907,6.81,5.606
			c0.729,3.062,2.561,3.113,4.739,1.289c1.393-1.165,2.384-2.808,4.08-3.601c1.574-0.734,3.497-2.555,4.873-0.712
			c1.155,1.546,3.653,3.482,1.302,6.057c-1.983,0.405-4.069,0.336-4.623,3.192c-0.544,2.807-3.304,3.969-5.328,5.604
			c-2.123,1.715-2.932,3.606-0.985,5.904c4.063,4.797,8.104,9.645,14.611,11.284c2.908,1.283,4.524,5.247,8.595,4.118
			c0.686,0.159,1.279,0.5,1.84,0.911c0.897,0.719,1.913,1.355,1.988,2.687c-0.163,0.948-0.567,1.751-1.404,2.286
			c-2.571-0.329-4.834-2.37-7.653-1.378c-1.538-0.093-3.18-0.523-3.977-1.702c-3.558-5.261-9.203-5.095-14.48-5.793
			c-2.718-0.359-5.134-1.025-6.868-3.286c-0.301-0.394-0.543-0.825-0.734-1.281c-0.833-3.955,0.326-8.737-4.578-11.006
			c-2.411-2.909-6.188-4.714-7.151-8.8c0.207-5.854-3.051-8.934-10.278-8.973c-3.534-0.019-6.951-0.609-10.404-1.021
			c-3.126-0.372-5.104-1.781-3.249-5.368c1.631-3.154,1.906-6.705,2.857-10.063c1.386-1.5,3.377-1.65,5.138-2.319
			C86.705,9.943,87.805,9.303,89.004,9.991z"/>
		<path fill-rule="evenodd" clip-rule="evenodd" fill="#A75C0C" d="M89.004,9.991c-0.984,0.348-1.969,0.695-2.954,1.043
			c-4.258,0.955-8.562,1.809-11.711,5.243c-3.302,2.083-7.221,2.18-10.823,3.299c-1.212,0.377-2.881,0.311-3.626-0.905
			c-0.935-1.525,0.342-2.931,1.259-3.933c1.905-2.084,4.532-3.256,6.929-4.702C70.052,9.377,72.026,8.718,74,8.059
			c0.282,2.834-2.284,2.932-3.795,3.978c0.222,0.227,0.342-0.087,0.528-0.081c5.789-2.84,11.726-4.997,18.258-4.962
			C89.619,7.989,89.611,8.989,89.004,9.991z"/>
		<path fill-rule="evenodd" clip-rule="evenodd" fill="#BC670E" d="M68.983,11.977c1.273-1.817,4.098-1.648,5.017-3.919
			c0.994-0.355,1.988-0.712,2.982-1.068c4.002,0.388,8.006-2.787,12.008,0.004c-6.325,2.006-12.649,4.012-18.973,6.018
			C69.439,12.899,69.093,12.556,68.983,11.977z"/>
		<path fill-rule="evenodd" clip-rule="evenodd" fill="#3D1807" d="M93.994,10.994c0.001-0.336,0.002-0.673,0.002-1.01
			c0.667-0.329,1.335-0.658,2.002-0.987c2.334-0.332,4.668-0.663,7.002-0.995c0.719,1.175,1.905,0.961,3.003,1.009
			c0.468,3.585-1.845,4.379-4.514,3.864C98.982,12.391,96.347,12.183,93.994,10.994z"/>
		<path fill-rule="evenodd" clip-rule="evenodd" fill="#351806" d="M96.005,100.007c-1.325,1.587-3.907,1.083-5.024,3.019
			c-0.344-0.03-0.687-0.061-1.03-0.092c-4.253-5.789-12.037-6.139-16.909-10.975c1.102-1.146,2.457-1.046,3.844-0.789
			c4.392,2.916,9.121-0.063,13.629,0.753c0.479,0.115,0.927,0.32,1.343,0.585c1.758,1.857-0.571,2.769-1.029,4.11
			C92.271,98.254,95.205,97.512,96.005,100.007z"/>
		<path fill-rule="evenodd" clip-rule="evenodd" fill="#2C1506" d="M96.002,69.001c-3.227,2.051-6.636,3.211-10.575,3.046
			c-6.825-0.286-11.046,5.085-16.417,7.965c-1.38,2.537-2.086,5.413-4.322,7.523c-1.874,1.771-3.706,2.553-6.082,1.195
			c-2.839-1.227-3.537-5.986-8.242-4.719c1.083,3.103,2.323,6.539-2.321,7.71c-3.563,0.898-8.145-1.715-9.082-4.903
			c5.403-0.097,5.446-0.099,5.218-6.017c-0.065-1.683,0.232-3.319,0.259-4.983c0.03-1.906-0.781-4.62,2.022-4.824
			c2.375-0.173,2.843,2.289,3.264,4.322c0.847,4.09,3.222,5.5,7.15,4.114c1.87-0.659,3.791-1.292,5.482-2.395
			c4.813-4.593,7.647-9.7,5.338-16.684c-1.023-3.095-0.473-6.578-0.144-9.699c0.397-3.77,3.664-5.608,7.559-5.753
			c1.848-0.623,3.694-1.252,5.693-0.893c1.211,0.221,2.319,0.711,3.395,1.286c2.063,1.645,4.862,1.631,7.012,3.083
			c1.728,1.373,2.686,3.479,5.248,4.115c2.545,0.632,2.138,3.042,2.108,5.313c-0.049,3.838-3.346,6.688-2.803,10.585
			C95.849,68.593,95.926,68.797,96.002,69.001z"/>
		<path fill-rule="evenodd" clip-rule="evenodd" fill="#311506" d="M62.999,77.998c-3.592,1.559-6.823,4.645-11.241,2.777
			c-2.147-0.908-4.609-1.688-3.208-4.945c0.543-1.262-0.304-2.223-0.798-3.235c-0.291-0.598-0.757-1.142-1.533-0.892
			c-0.716,0.229-1.033,0.861-0.907,1.56c0.725,4-0.437,8.08,0.14,11.969c0.76,5.131-1.129,4.337-4.172,2.614
			c-0.696-0.395-1.518-0.568-2.282-0.844c-2.517,2.052-4.213-0.771-6.291-1.192c-2.025-0.411-3.806-1.851-5.712-2.804
			c-3.211-1.688-6.668-3.004-9.015-5.992c-0.33-0.669-0.659-1.338-0.988-2.007c1.312-1.177,2.822-0.288,4.242-0.416
			c0.444,0.101,0.833,0.301,1.183,0.591c0.83,0.762,1.168,1.927,2.384,2.404c1.943,0.765,3.63,0.48,4.895-1.083
			c1.342-1.661,0.418-3.008-0.936-4.237c-0.918-0.834-2.431-1.652-1.577-3.169c0.667-1.184,2.104-0.71,3.184-0.465
			c3.167,0.721,6.081,0.771,8.78-1.562c1.68-1.45,3.404-0.409,4.909,0.749c0.552,0.333,1.1,0.68,1.738,0.84
			c1.854,0.1,3.684,1.382,5.557,0.069c0.956-0.631,1.871-1.429,3.138-0.778c0.524,0.404,1.22,0.933,1.139,1.513
			C54.83,75.162,58.602,76.835,62.999,77.998z"/>
		<path fill-rule="evenodd" clip-rule="evenodd" fill="#2A1607" d="M101.958,38.058c2.352,2.646,4.704,5.291,7.057,7.938
			c2.924,3.479,3.076,8.106,4.977,12.01l-0.003,0.002c-0.288,2.971,0.265,5.196,4.017,5.013c1.249-0.062,2.908-0.03,3.044,1.688
			c0.11,1.405-1.082,2.319-2.288,2.928c-1.316,0.664-2.679,1.249-4.221,0.804c-0.183-0.146-0.364-0.295-0.546-0.443
			c-2.992-2.376-6.189-4.666-10.081-2.452c-2.55,1.45-5.234,2.399-7.911,3.457l-0.02-0.018c-1.2-1.617-0.153-2.9,0.853-3.895
			c4.406-4.354,5.482-10.313,7.76-15.684c-0.258-2.679-0.693-5.245-3.787-6.187c-1.072-0.319-2.094-0.74-2.985-1.431
			c-1.017-0.849-2.07-1.646-3.224-2.313c-0.603-0.365-1.179-0.764-1.75-1.179c-1.861-1.739-4.421-3.505,0.106-5.114
			C96.604,33.607,99.945,34.606,101.958,38.058z"/>
		<path fill-rule="evenodd" clip-rule="evenodd" fill="#75300A" d="M71.044,88.963c-1.322-2.877-0.493-5.147,1.964-6.957
			c2.748-1.176,5.68-1.316,8.596-1.445c1.663-0.073,3.283-0.065,4.381-1.599c11.044-0.082,21.89,3.239,33.006,1.929
			c0.981-0.475,1.941-1.008,3.064-1.09c1.653,0.07,3.431-0.117,4.188,1.914c-0.385,1.231-1.295,1.742-2.51,1.839
			c-6.551-0.643-12.988,0.421-19.435,1.329c-1.053,0.271-2.125,0.385-3.209,0.383c-2.338,0.008-4.537-1.042-6.891-0.912
			c-6.302-0.245-12.493,0.135-18.161,3.322c-0.161,0.418-0.377,0.806-0.628,1.175C73.983,89.92,72.514,89.451,71.044,88.963z"/>
		<path fill-rule="evenodd" clip-rule="evenodd" fill="#2A1607" d="M139.997,68.997c3.226-2.424,4.816,0.807,6.991,2.021
			c2.335,4.963,1.562,10.049-1.976,12.993c-0.565-2.697-0.505-5.552-2.011-8.013c-0.448-1.488-0.367-3.763-2.995-2.018
			c-0.31,0.347-0.693,0.475-1.15,0.386c-1.019-0.363-1.933-1.027-3.069-1.064c-1.405-0.122-2.806-0.02-4.21,0.007
			c-1.033,0.032-2.063,0.043-3.096,0.051c-3.32,0.091-6.673-0.341-9.92,0.736c-3.579,0.515-7.174,0.385-10.769,0.332
			c-3.294-0.464-6.931,1.07-9.831-1.682c3.955-1.614,8.092-0.338,12.114-0.788c0.887-0.1,4.264,1.332,1.516-2.014
			c-0.556-0.677,1.503-1.338,2.402-1.948l0.028,0.024c1.327,1.503,3.042,0.495,4.572,0.688c1.253-0.015,2.499-0.116,3.751-0.146
			c4.854-1.159,9.655-1.183,14.438,0.433C137.782,69.332,138.932,69.972,139.997,68.997z"/>
		<path fill-rule="evenodd" clip-rule="evenodd" fill="#1E1205" d="M59.002,87.997c3.801,2.09,4.768-1.631,6.551-3.361
			c1.358-1.318,1.374-3.755,3.457-4.624c-0.004,2.975,0.017,5.949-0.024,8.923c-0.022,1.598,0.465,3.506-1.61,4.244
			c-1.677,0.598-3.414,0.064-4.592-1.062c-2.951-2.819-5.046-2.759-7.581,0.765c-1.364,1.897-4.086,1.77-6.206,0.12
			c0.077-1.06,1.092-1.639,1.389-2.5C52.106,85.518,55.197,85.614,59.002,87.997z"/>
		<path fill-rule="evenodd" clip-rule="evenodd" fill="#241305" d="M59.002,87.997c-5.711-3.082-6.94,2.796-10.004,5.005
			c-8.554-0.646-15.466-4.907-22.002-9.996c4.507-0.188,7.501,4.166,12.002,3.996c1.602,3.488,5.097,3.464,8.031,3.797
			c2.106,0.238,4.433-0.912,3.136-3.99c-0.617-1.466-3.641-3.02-1.202-4.261c1.868-0.951,5.163-1.098,7.05,1.585
			C56.949,85.463,58.002,86.712,59.002,87.997z"/>
		<path fill-rule="evenodd" clip-rule="evenodd" fill="#2C1506" d="M121.942,80.922c-0.983-0.01-1.968-0.02-2.951-0.03
			c0.436-1.168,1.928-2.312,0.998-3.501c-0.706-0.903-2.214-0.355-3.203,0.229c-4.065,2.404-7.35-0.038-10.783-1.626
			c3.93-2.396,8.316-1.459,12.514-1.547c2.33-0.049,4.605-0.045,6.845-0.711c2.097-0.197,4.169-1.271,6.307-0.213
			c1.478,2.205-0.657,2.763-1.759,3.723C127.621,79.237,124.471,79.416,121.942,80.922z"/>
		<path fill-rule="evenodd" clip-rule="evenodd" fill="#722F0A" d="M125.982,74.928c-6.596,1.568-13.32,0.696-19.979,1.065
			c-0.65-0.01-1.301-0.021-1.952-0.031c-1.528-1.143-3.519,0.182-5.051-0.943c-0.379-0.296-0.757-0.591-1.136-0.886
			c3.223-1.562,6.803,0.235,10.054-1.069c3.698-0.03,7.396-0.061,11.095-0.091c0.895-0.711,1.908-0.421,2.896-0.345
			C123.21,73.493,125.769,72.136,125.982,74.928z"/>
		<path fill-rule="evenodd" clip-rule="evenodd" fill="#5F2509" d="M85.985,78.962c0.222,2.391-1.014,3.108-3.224,3.045
			c-3.248-0.095-6.501-0.01-9.752-0.001C76.783,78.641,81.401,78.877,85.985,78.962z"/>
		<path fill-rule="evenodd" clip-rule="evenodd" fill="#5A2609" d="M71.044,88.963c1.327-0.892,2.646-0.846,3.957,0.036
			c2.343-0.387,3.084,0.966,3.225,2.972c-0.395,0.48-0.806,0.493-1.231,0.04c-1.318-0.017-2.636-0.034-3.954-0.051
			C72.375,90.961,71.709,89.962,71.044,88.963z"/>
		<path fill-rule="evenodd" clip-rule="evenodd" fill="#A3540D" d="M107.918,73.063c-3.168,2.077-6.753,0.229-10.054,1.068
			c-1.022-0.535-0.598-0.97,0.098-1.386C101.28,72.852,104.6,72.958,107.918,73.063z"/>
		<path fill-rule="evenodd" clip-rule="evenodd" fill="#2C1506" d="M99,75.019c1.723,0.105,3.593-0.58,5.051,0.944
			C102.334,75.826,100.436,76.658,99,75.019z"/>
		<path fill-rule="evenodd" clip-rule="evenodd" fill="#4D1E08" d="M36.029,42.933c-1.623-0.479-1.812-1.508-1.1-2.88
			c1.079-2.498,3.034-3.316,5.614-2.941c7.558-0.241,14.239,4.866,22.013,3.553c2.538-0.429,4.808,3.659,7.648,0.625
			c1.544-0.395,3.007-0.459,4.084,1.008c0.157,0.471,0.158,0.949,0.03,1.427c-3.577,1.596-5.071,5.755-8.856,7.164
			c-1.557,0.58-0.263,1.616-0.023,2.408c0.628,2.076-0.072,3.486-2.02,4.346c-0.468,0.105-0.938,0.118-1.411,0.049
			c-0.707-0.199-1.229-0.624-1.56-1.277c-0.521-1.568,0.073-3.479-1.453-4.75c-0.292-0.342-0.506-0.722-0.666-1.14
			c-0.1-1.63-0.426-2.817-2.252-1.186c-0.436,0.162-0.88,0.234-1.339,0.246c-1.643-0.181-3.279,0.077-4.902,0.188
			c-3.182,0.216-5.337-0.817-6.448-3.99c-0.624-1.782-1.279-3.977-4.08-3.022C38.234,43.2,37.098,42.377,36.029,42.933z"/>
		<path fill-rule="evenodd" clip-rule="evenodd" fill="#381A07" d="M38.979,41.996c1.631-1.948,3.376-2.439,4.163,0.467
			c1.593,5.885,5.3,7.256,10.737,5.73c0.278-0.078,0.747,0.529,1.127,0.817c0.608,0.938-0.017,1.625-0.469,2.352
			c-0.397,0.52-0.845,0.995-1.302,1.464c-1.534,1.14-2.107,3.526-4.533,3.519c-4.451-0.48-4.903-5.142-7.697-7.356
			c-0.322-1.005-0.644-2.011-0.966-3.016C41.049,44.284,38.033,43.669,38.979,41.996z"/>
		<path fill-rule="evenodd" clip-rule="evenodd" fill="#A5530C" d="M43.084,61.099c1.274-0.387,2.548-0.773,3.822-1.161
			c2.123-0.001,1.848,1.439,1.696,2.81c-2.063,3.537-6.117,2.427-9.074,3.884c-1.07,0.811-2.231,1.379-3.614,1.364
			c-1.948-0.146-3.62-0.766-4.526-2.677c-0.424-1.979,0.21-3.541,1.86-4.693c0.449-0.166,0.921-0.226,1.399-0.187
			c1.905,0.778,3.611,2.627,5.961,1.147C41.434,61.428,42.339,61.675,43.084,61.099z"/>
		<path fill-rule="evenodd" clip-rule="evenodd" fill="#5D280A" d="M40.985,38.01c-2.517-0.797-3.979,1.529-6.055,2.043
			c-3.862,0.488-5.438-3.849-8.895-4.216c-0.052-0.908-0.104-1.814-0.157-2.719c-0.001,0.001,0.162-0.17,0.162-0.17
			c3.919-2.024,7.024-0.002,10.132,2.011c1.513,0.806,2.761-0.325,4.13-0.58c0.711-0.078,1.353,0.067,1.89,0.567
			C42.558,36.272,42.086,37.266,40.985,38.01z"/>
		<path fill-rule="evenodd" clip-rule="evenodd" fill="#4D1E07" d="M34.997,60.992l-0.486-0.025l-0.486,0.017
			c-0.929-0.707-2.252,0.199-3.119-0.763c-0.233-0.394-0.32-0.819-0.267-1.274c0.91-1.75,2.022-3.366,3.326-4.85
			c2.111,1.124,4.684,1.527,6.019,3.861c0.01,0.818-2.846,0.26-0.953,1.983c1.351,0.386,2.702,0.771,4.054,1.157
			c-0.697,0.303-1.394,0.605-2.091,0.908C38.874,62.382,36.827,62.326,34.997,60.992z"/>
		<path fill-rule="evenodd" clip-rule="evenodd" fill="#221205" d="M41.006,48.988c3.828,1.091,4.403,5.86,8.068,7.135
			c0.54,1.129,0.493,1.94-1.05,1.942c-2.884,0.108-4.675-0.996-5.208-4.076C42.519,52.27,41.629,50.651,41.006,48.988z"/>
		<path fill-rule="evenodd" clip-rule="evenodd" fill="#5F2609" d="M33.965,54.097c0.309,2.406-1.001,3.847-2.936,4.912
			c-2.56,0.841-3.128-2.165-5.035-2.586c-1.05-0.361-2.235-0.446-2.977-1.438c0.331-0.33,0.661-0.66,0.992-0.99
			C27.328,54.029,30.646,54.063,33.965,54.097z"/>
		<path fill-rule="evenodd" clip-rule="evenodd" fill="#A44D0D" d="M48.024,58.065c0.35-0.647,0.7-1.296,1.05-1.942
			c1.467-1.275,1.982-3.418,3.9-4.284c0.784,5.304-1.127,9.586-4.977,11.154c-0.021-1.141,0.147-2.349-1.091-3.055
			C47.279,59.313,47.651,58.689,48.024,58.065z"/>
		<path fill-rule="evenodd" clip-rule="evenodd" fill="#4E2108" d="M38.979,41.996c2.213,3.079,2.213,3.079,1.06,3.977
			c-0.789-1.736-2.609-2.111-4.011-3.039C36.758,41.819,37.911,42.039,38.979,41.996z"/>
		<path fill-rule="evenodd" clip-rule="evenodd" fill="#221205" d="M39.031,59.941c-1.218-0.107-2.691,0.386-3.276-1.386
			c1.332-1.024,2.852-0.331,4.229-0.598C39.666,58.619,39.348,59.28,39.031,59.941z"/>
		<path fill-rule="evenodd" clip-rule="evenodd" fill="#3F1A07" d="M36.026,67.098c1-0.411,2-0.821,3-1.232
			c1.29-0.587,2.628-0.335,3.96-0.231c1.313,0.83,1.99,1.851,1.011,3.368c-1.43-0.383-2.608-3.046-4.234-1.092
			c-3.577,4.298-7.789,1.866-12.437,1.443c2.06,2.368,5.782,3.493,4.51,7.069c-0.773,2.172-3.206,3.017-5.138,3.126
			c-2.85,0.161-4.628-1.967-5.695-4.544c1.41-3.897,3.846,0.848,5.577-0.689c0.703-2.11-2.558-3.097-1.581-5.309
			c-0.338-0.666-0.676-1.332-1.013-1.997c1.859-1.766,4.066-0.061,6.048-0.619C32.07,66.311,33.874,68.159,36.026,67.098z"/>
		<path fill-rule="evenodd" clip-rule="evenodd" fill="#4C1D07" d="M30.005,67.012c-2.006,2.243-4.011-0.743-6.017-0.003
			c-3.921-2.729-8.509-3.741-12.988-5.031c0.664-0.668,1.327-1.336,1.991-2.004c0.768-0.834,1.777-1.089,2.849-1.198
			C22.469,58.234,25.792,63.389,30.005,67.012z"/>
		<path fill-rule="evenodd" clip-rule="evenodd" fill="#4E1E08" d="M25.001,69.007c0.481,0.646,0.881,1.378,1.46,1.921
			c1.35,1.266,2.861,2.657,1.451,4.507c-1.454,1.906-3.074,0.331-4.452-0.512c-0.92-0.562-1.667-1.02-2.456,0.082l-0.002,0.004
			c-2.449,0.288-2.489-1.508-2.665-3.128c-0.313-2.886,2.427-1.931,3.666-2.869C23.003,69.01,24.002,69.008,25.001,69.007z"/>
		<path fill-rule="evenodd" clip-rule="evenodd" fill="#3F1A07" d="M22.004,69.012c-2.895,1.571-4.182,3.411-1.001,5.996
			c-1.338,1.79-2.673-0.369-4.01-0.001c-0.334-0.334-0.668-0.667-1.002-1C13.638,68.979,13.638,68.979,22.004,69.012z"/>
		<path fill-rule="evenodd" clip-rule="evenodd" fill="#C4680E" d="M23.017,54.985c1.256,0.027,2.512,0.056,3.768,0.084
			c1.814,3.147,1.019,4.526-2.692,4.104c-2.26-0.257-4.539-0.327-6.793,0.16c-1.523-0.586-2.767-1.363-2.288-3.325l-0.001,0.001
			c1.788,0.38,3.605,0.953,4.939-0.988C20.94,53.578,21.989,54.611,23.017,54.985z"/>
		<path fill-rule="evenodd" clip-rule="evenodd" fill="#9C450B" d="M41.982,35.018c-0.655,0.028-1.311,0.057-1.966,0.085
			c-1.292,0.512-2.634,0.788-4.019,0.869c-3.108-1.701-6.339-3.002-9.958-3.022c-1.484-1.39-1.704-3.065-1.114-4.925
			c1.36-0.592,2.173,0.623,3.251,0.97c4.724,0.986,9.583,1.436,14.008,3.573c0.978,0.085,1.957,0.106,2.937,0.138
			c1.228,0.041,2.448,0.119,3.534,0.776c1.295,2.285-1.823,2.394-1.975,3.978C44.228,38.343,43.073,36.741,41.982,35.018z"/>
		<path fill-rule="evenodd" clip-rule="evenodd" fill="#AD560D" d="M27.05,29.959c-0.708-0.646-1.416-1.29-2.124-1.935
			c-2.75-1.252-3.562-4.402-5.919-6.038c-0.018-0.319-0.027-0.639-0.028-0.959c-0.252-0.245-0.351-0.504-0.298-0.776
			c0.054-0.279,0.119-0.418,0.192-0.419c1.659-0.683,2.844,1.456,4.51,0.755c2.974,1.073,5.016,3.051,5.942,6.116
			C29.143,28.189,28.515,29.367,27.05,29.959z"/>
		<path fill-rule="evenodd" clip-rule="evenodd" fill="#8D4A0B" d="M15.011,56.008c0.705,0.927,1.41,1.854,2.114,2.781
			c-0.06,0.725-0.749,0.803-1.179,1.146c-0.985,0.014-1.97,0.026-2.955,0.039c-0.323-0.323-0.646-0.646-0.969-0.971
			C11.982,56.971,13.787,56.779,15.011,56.008z"/>
		<path fill-rule="evenodd" clip-rule="evenodd" fill="#341809" d="M168.995,55.001c1.25,1.867,2.483,3.757,5.02,4.019
			c-0.93,4.376-4.953,7.168-5.467,12.052c-0.389,3.691-2.724-0.207-4.039-0.508c-1.054,1.943,0.279,4.104-1.494,5.462
			c-0.428-0.34-0.732-0.769-0.92-1.28c-0.467-1.542-0.383-3.127-0.369-4.706c1.177-4.076-1.262-8.742,2.002-12.487
			C165.453,56.653,165.301,51.835,168.995,55.001z"/>
		<path fill-rule="evenodd" clip-rule="evenodd" fill="#572408" d="M145.013,84.011c2.053-4.119,2.024-8.556,1.976-12.994
			c0.038-0.824,0.204-1.584,1.02-2.016c3.226,0.315,3.22,2.954,3.348,5.129c0.12,2.047,0.495,3.587,2.641,4.207
			c3.18,1.529,2.335,3.118,0.067,4.724c-0.367,0.622-0.734,1.244-1.102,1.867c-1.332,1.01-2.588,2.117-3.965,3.069h0.001
			c-3.786,1.124-4.908-0.41-3.982-3.99L145.013,84.011z"/>
		<path fill-rule="evenodd" clip-rule="evenodd" fill="#3B1907" d="M154.063,83.061c0.832-1.361,1.99-2.726-0.053-4.05
			c0.059-0.209,0.117-0.419,0.171-0.63c0.722-1.339,1.251-2.782,2.155-4.027c2.45-2.315,4.513-0.448,6.649,0.62
			c0.01,0.351,0.019,0.701,0.028,1.052C161.499,80.238,158.02,81.953,154.063,83.061z"/>
		<path fill-rule="evenodd" clip-rule="evenodd" fill="#2A1607" d="M145.016,84.007c0.351,2.306,1.061,4.252,3.982,3.99
			c-1.486,1.422-3.214,2.981-5.094,1.096C142.027,87.21,143.576,85.484,145.016,84.007z"/>
		<path fill-rule="evenodd" clip-rule="evenodd" fill="#2A1607" d="M148.997,87.997c0.869-1.607,2-2.877,3.965-3.068
			C152.165,86.628,151.037,87.901,148.997,87.997z"/>
		<path fill-rule="evenodd" clip-rule="evenodd" fill="#481F07" d="M96.005,100.007c-0.445-0.214-0.87-0.498-1.339-0.631
			c-6.463-1.825-6.465-1.82-2.68-6.341c3.001-1.58,5.523-4.182,9.199-4.337c2.904-0.125,5.832,0.076,8.698-0.62
			c1.327-0.222,2.635-0.27,3.838,0.479c0.938,2.62-1.397,2.997-2.788,3.513c-2.632,0.977-4.4,2.756-5.928,4.937
			C102.252,98.745,99.233,99.688,96.005,100.007z"/>
		<path fill-rule="evenodd" clip-rule="evenodd" fill="#331706" d="M105.006,97.006c-0.487-2.774,0.938-4.183,3.349-5.227
			c1.913-0.827,4.285-0.823,5.636-2.797c-0.346-3.4,2.592-3.571,4.581-4.681c1.708-0.694,3.358-1.626,5.311-1.399
			c0.678-0.318,1.354-0.637,2.032-0.955c0.624-1.231,1.607-1.802,2.994-1.626c2.686,1.185,1.529,2.846,0.417,4.322
			c-1.281,1.702-2.844,3.205-3.29,5.406c-1.345,0.65-2.689,1.301-4.035,1.952c-0.697-0.401-3.465,0.897-1.464-1.691
			c0.626-0.81,2.2-0.852,1.918-2.967c-3.602,1.882-7.249,3.125-10.229,5.854C110.201,95.053,108.136,97.119,105.006,97.006z"/>
		<path fill-rule="evenodd" clip-rule="evenodd" fill="#4A1F08" d="M126.035,90.05c-2.353-2.319,0.275-3.323,1.212-4.841
			c0.795-1.289,3.646-1.791,1.754-4.206c1.025-3.541,3.792-2.964,6.416-2.725c0.473,0.198,0.839,0.528,1.094,0.974
			c1.359,4.398-3.868,5.383-4.543,8.732C130.274,89.488,127.987,89.287,126.035,90.05z"/>
		<path fill-rule="evenodd" clip-rule="evenodd" fill="#75320A" d="M136.007,79.994c-0.005-0.327-0.016-0.654-0.032-0.981
			c-1.829-1.192-1.407-2.604-0.401-4.076c0.489-0.48,1.09-0.748,1.747-0.905c0.639-0.104,1.289-0.065,1.935-0.125
			c0.251,0.021,0.502,0.045,0.752,0.074c1.18,2.343,0.124,4.678-0.027,7.016C137.821,83.969,136.909,81.999,136.007,79.994z"/>
		<path fill-rule="evenodd" clip-rule="evenodd" fill="#5D2409" d="M136.007,79.994c1.111,1.179,2.212,2.398,3.973,1.003
			c-0.654,4.64-5.537,4.434-8.011,6.987c-2.583-0.375-0.889-1.366-0.292-2.149C133.146,83.907,135.769,82.836,136.007,79.994z"/>
		<path fill-rule="evenodd" clip-rule="evenodd" fill="#471A07" d="M141.989,34.01c0.766-0.564,1.532-1.617,2.298-1.617
			c6.347,0.006,9.575-3.363,9.706-10.381c0.341,0.534,1.021,1.102,0.972,1.598c-0.785,8.042,3.587,14.707,5.748,21.956
			c0.23,0.772,0.2,1.621,0.292,2.435c-2.154,2.252-4.525-0.516-6.744,0.304c-0.446,0.091-0.886,0.081-1.326-0.027
			c-2.432-1.435-4.493-3.338-7.757-3.321c-2.283,0.012-4.228-1.633-4.01-4.525C141.749,38.333,138.874,35.782,141.989,34.01z"/>
		<path fill-rule="evenodd" clip-rule="evenodd" fill="#3E1908" d="M154.004,47.997c0.168-1.334,0.77-2.315,2.101-1.234
			c1.511,1.227,3.155,1.277,4.9,1.237c2.559,1.095,5.109,2.226,7.998,2.005c-0.477,1.664-0.465,3.33-0.008,4.996
			c-3.422-1.8-2.406,2.347-4.007,2.989C160.876,55.155,156.798,52.282,154.004,47.997z"/>
		<path fill-rule="evenodd" clip-rule="evenodd" fill="#8E410A" d="M144.997,22.004c5.084,0.1,1.087-3.435,2.002-5.004
			c0.416,0.261,0.869,0.477,1.241,0.789c1.85,1.555,3.639,3.327,1.426,5.696C147.396,25.916,146.546,22.578,144.997,22.004z"/>
		<path fill-rule="evenodd" clip-rule="evenodd" fill="#562108" d="M52.86,30.926c5.04,0.145,1.195-2.373,0.692-3.064
			c-2.075-2.856-3.947-5.463,0.453-7.859c0.002,0.666,0.005,1.333,0.007,2c3.296,2.649,6.867-0.225,10.324,0.473
			c1.659,0.334,3.542-0.319,5.309,0.236c2.206,0.604,2.865,1.396,1.527,3.83c-1.245,2.264-4.775,1.926-4.946,4.996
			c-1.343,2.312-3.899,1.415-5.806,2.235c-1.454,0.354-2.92,0.448-4.4,0.227c-0.475-0.068-0.944-0.182-1.405-0.315
			c-1.583-0.585-3.26-0.396-4.896-0.563c-0.74-0.107-1.483-0.123-2.231-0.125c-1.577-0.021-3.151,0.04-4.726-0.095
			c-1.931-0.762-4.752-0.669-3.919-4.082c2.214-1.544,4.248-1.047,6.183,0.546C47.453,30.801,50.302,30.134,52.86,30.926z"/>
		<path fill-rule="evenodd" clip-rule="evenodd" fill="#772F09" d="M68.994,23.984c-3.989-0.402-7.97-0.688-11.902,0.47
			c-2.154,0.634-4.304,1.189-3.079-2.452c2.1-1.347,4.048-2.955,5.033-5.245c1.746-4.061,4.993-5.864,9.031-6.721
			c-2.13,3.096-6.603,3.888-8.054,8.313c5.073,0.601,9.304-2.32,13.951-2.405c0.742-1.014,1.532-1.913,2.971-1.214
			c0.308,0.372,0.439,0.802,0.397,1.283C74.072,18.155,72.006,21.565,68.994,23.984z"/>
		<path fill-rule="evenodd" clip-rule="evenodd" fill="#281505" d="M44.957,30.02c-1.853-1.155-3.917-1.049-5.972-1.006
			c-1.396,1.169-2.724,0.272-4.072-0.12c-1.699-0.859-3.734-0.448-5.409-1.408c-0.155-0.178-0.308-0.358-0.46-0.539
			c-1.998-2.043-3.996-4.085-5.994-6.128c-0.263-0.182-0.355-0.37-0.278-0.565c0.079-0.198,0.161-0.298,0.245-0.298
			c0.33-0.321,0.661-0.643,0.991-0.964c3.103,2.525,6.759,3.924,10.499,5.148c3.982,1.483,7.675-0.225,11.449-1.037
			c0.348-0.033,0.695-0.066,1.042-0.1c1.104,2.006-4.859,4.005-0.004,6.013C47.054,30.851,46.089,30.606,44.957,30.02z"/>
		<path fill-rule="evenodd" clip-rule="evenodd" fill="#281405" d="M44.957,30.02c0.825-0.038,1.592-0.193,2.036-1.004
			c1.679,1.492,4.268,0.187,5.869,1.911C50.229,30.592,47.412,31.889,44.957,30.02z"/>
		<path fill-rule="evenodd" clip-rule="evenodd" fill="#92490C" d="M19.001,20.035c0.019,0.331,0.011,0.662-0.022,0.992
			c-1.357-1.714-3.153-2.824-5.142-3.624c-2.725-1.096-3.486-2.795-1.791-5.345c1.346-0.051,2.692-0.103,4.038-0.155
			c1.309,1.696,2.616,3.393,3.924,5.09C20.603,18.314,19.918,19.213,19.001,20.035z"/>
		<path fill-rule="evenodd" clip-rule="evenodd" fill="#401C07" d="M34.003,25.007c-3.898-1.063-8.017-1.761-9.996-6.016
			c-0.329-1.013-0.658-2.024-0.986-3.038c3.034,1.006,4.433,4.625,7.896,4.943c2.311-0.629,3.405,1.529,5.13,2.242
			C36.7,25.221,35.998,25.821,34.003,25.007z"/>
		<path fill-rule="evenodd" clip-rule="evenodd" fill="#7B390A" d="M19.001,20.035c0.336-1.015,0.671-2.028,1.007-3.042
			c1.002,0.987,2.005,1.975,3.008,2.962c0.042,0.287,0.053,0.576,0.033,0.864C21.178,23.254,20.395,20.069,19.001,20.035z"/>
		<path fill-rule="evenodd" clip-rule="evenodd" fill="#281405" d="M34.003,25.007c1.243-0.01,1.932-0.625,2.045-1.869
			c3.303-0.012,6.605-0.024,9.908-0.036C42.223,25.313,38.502,27.599,34.003,25.007z"/>
		<path fill-rule="evenodd" clip-rule="evenodd" fill="#3D1807" d="M141.989,34.01c-2.637,2.001,2.212,3.994,0.007,5.995
			c-0.593,0.518-1.243,0.925-2.03,1.08c-1.296,0.209-2.583,0.162-3.861-0.143c-2.688-1.071-4.015-3.084-4.097-5.952
			c-0.48-4.892-2.72-6.273-6.147-3.69c-1.029,0.776-1.708,2.002-2.631,2.939c-1.286,1.308-2.767,2.82-4.667,2.307
			c-1.91-0.517-2.61-2.326-2.599-4.358c0.018-2.805-2.174-3.531-4.275-4.056c-6.629-1.653-13.25-3.692-20.199-2.718
			c-2.862,0.402-5.781-2.925-8.616,0.232c-0.244,0.271-1.732-0.684-1.101-1.599c2.274-3.294,4.67-6.451,5.181-10.655
			c0.07-0.573,1.994-0.922,3.061-1.375c3.153,3.204,10.05,4.861,13.924,3.054c2.203-1.027,2.049-4.659,5.053-5.057
			c1.897,3.42,3.68,6.907,8.5,6.76c1.083-0.034,2.307,0.499,2.468,2.002c0.271,2.531,2.23,2.543,4.056,2.59
			c3.698,0.097,7.465-0.097,7.471,5.319c0.001,0.798,0.665,2.682,2.296,1.453c2.94-2.214,3.743-0.475,4.234,2.071
			C138.442,32.424,139.7,33.752,141.989,34.01z"/>
		<path fill-rule="evenodd" clip-rule="evenodd" fill="#311206" d="M108.99,10.015c0.159,2.237-6.275,2.939-0.122,6.284
			c-5.182,0.231-9.03,0.492-12.882,0.547c-3.233,0.046-6.058-0.657-5.974-4.828c1.449,0.131,2.743-0.337,3.981-1.023
			c2.148-0.442,4.052-1.236,6.373,0.418c2.401,1.712,4.617,0.456,5.636-2.401C106.999,9.346,107.994,9.681,108.99,10.015z"/>
		<path fill-rule="evenodd" clip-rule="evenodd" fill="#5B2609" d="M132.008,34.99c1.843,1.264,1.664,4.132,3.98,5.021
			c1.138,0.821,2.634,1.35,2.591,3.145c-0.056,0.494-0.483,1.057-0.368,1.397c0.388,1.145,0.722-0.063,0.952-0.18
			c2.572-1.313,4.515-1.773,4.231,2.3c-0.125,1.806,1.314,2.946,2.43,4.16c1.345,1.463,2.819,2.862,2.445,5.144
			c-1.619,1.659-2.64,1.54-4.312-0.413c-2.016-2.354-4.266-5.151-8.157-4.327c-0.334,0.269-0.678,0.521-1.011,0.783
			c-2.424,2.197-1.363,3.468,1.158,4.352c1.059,0.579,1.888,1.37,2.363,2.497c0.122,1.705-0.717,2.704-2.319,3.138
			c-8.282-0.965-12.407-7.439-16.89-13.173c-1.61-2.06,0.14-4.422,2.215-5.71c3.147-1.954,5.768-4.057,5.872-8.237
			C127.231,33.207,127.576,33.216,132.008,34.99z"/>
		<path fill-rule="evenodd" clip-rule="evenodd" fill="#602509" d="M77,16c0.005-0.33,0.006-0.661,0.004-0.991
			c0.725-1.885,1.849-2.97,4-1.988c-0.133,0.303-0.465,0.769-0.37,0.884c3.037,3.7-0.409,6.527-1.845,8.979
			c-2.335,3.987,0.311,3.693,2.547,4.093c5.392,0.961,10.989,0.147,16.292,2.077c4.94,1.798,6.586,4.988,4.33,9.004
			c-3.007-1.31-5.62-3.484-8.957-4.067c-4.808-1.285-9.847-1.192-14.653-2.459c-1.196-0.424,0.349-1.749-0.852-2.338
			c-4.95-2.429-5.705-4.873-2.908-9.518C75.339,18.428,76.266,17.272,77,16z"/>
		<path fill-rule="evenodd" clip-rule="evenodd" fill="#3D1B09" d="M139.997,68.997c-1.275,1.532-3.179,1.323-4.568,0.891
			c-4.568-1.421-9.026-0.737-13.532,0.023c-0.35-0.59,0.208-1.747-0.103-1.736c-1.453,0.054-2.781,0.643-3.768,1.807
			c-1.578-0.157-3.666,0.726-4.004-1.962c2.25-0.752,4.939-0.686,6.547-3.802c-3.745,0.373-7.2,0.151-8.824-3.4
			c-0.729-1.596,1.812-1.584,2.243-2.811c3.434,3.949,8.413,3.153,12.778,3.848c3.243,0.516,6.045,0.822,7.852,4.032
			C135.701,67.81,137.76,68.722,139.997,68.997z"/>
		<path fill-rule="evenodd" clip-rule="evenodd" fill="#843F0B" d="M137.983,59.022c-0.663-0.673-1.325-1.345-1.987-2.018
			c-2.142-1.7-3.662-3.503-0.99-5.998l0.009,0.001c3.577-2.16,5.382,0.936,7.125,2.836c1.686,1.839,2.85,3.457,5.76,3.822
			c2.801,0.352,5.02,2.761,5.479,5.804c0.362,2.405-1.744,3.319-3.564,4.202c-1.341,0.176-2.622-0.021-3.834-0.632
			c-0.337-0.338-0.673-0.677-1.01-1.015C143.523,62.812,140.696,60.974,137.983,59.022z"/>
		<path fill-rule="evenodd" clip-rule="evenodd" fill="#672B09" d="M145.98,67.04c1.341-0.012,2.682-0.023,4.022-0.035
			c3.63,1.061,5.395,3.612,5.812,7.248c-0.887,1.473,0.049,3.647-1.807,4.757l0.003,0.001c-2.859,0.311-4.708-0.593-3.882-3.822
			c0.678-2.646-0.532-4.431-2.121-6.188C147.332,68.348,146.656,67.693,145.98,67.04z"/>
		<path fill-rule="evenodd" clip-rule="evenodd" fill="#672B09" d="M137.983,59.022c4.039,0.627,7.372,1.96,6.988,7.003
			c-4.699,2.471-6.517-1.495-8.979-4.019C136.656,61.012,137.319,60.018,137.983,59.022z"/>
		<path fill-rule="evenodd" clip-rule="evenodd" fill="#3D1B08" d="M113.991,58.005c-3.76-3.133-3.726-7.838-4.977-12.01
			C115.542,47.98,113.828,53.382,113.991,58.005z"/>
		<path fill-rule="evenodd" clip-rule="evenodd" fill="#9E4B0C" d="M81.003,13.021c-1.775-0.227-2.651,1.356-4,1.988
			c-1.01,0.313-2.02,0.625-3.029,0.937c0.008-4.027,3.438-3.205,5.71-4.056c2.065-0.773,4.178-1.052,6.365-0.855
			C84.368,11.696,82.686,12.358,81.003,13.021z"/>
		<path fill-rule="evenodd" clip-rule="evenodd" fill="#C8780F" d="M68.983,11.977c0.345,0.345,0.689,0.689,1.034,1.034
			c-0.613,0.821-1.244,2.443-2.361,1.327C66.558,13.241,68.118,12.565,68.983,11.977z"/>
		<path fill-rule="evenodd" clip-rule="evenodd" fill="#7A370A" d="M101.021,89.978c-3.527-0.507-5.29,4.201-9.034,3.058
			c-0.309-0.052-0.619-0.078-0.931-0.079c-2.292-0.995-4.553-1.219-7.009-0.359c-1.997,0.698-4.127,0.75-6.002-0.635
			c-0.7-1.312-1.686-2.328-3.043-2.963c-0.006-0.311-0.012-0.62-0.018-0.93c2.42-2.048,5.211-0.563,7.82-0.832
			c1.646,0.392,3.346,0.508,4.987,0.928c3.5,1.737,6.791,1.653,9.888-0.981c0.865-0.736,1.985-1.082,3.184-0.966
			c0.501,0.099,0.942,0.315,1.341,0.633C102.992,88.341,102.252,89.252,101.021,89.978z"/>
		<path fill-rule="evenodd" clip-rule="evenodd" fill="#481F07" d="M78.044,91.962c2.808,0.372,5.469-0.501,8.194-0.895
			c1.853-0.268,3.511,0.491,4.816,1.889c-2.989-0.292-5.832,0.665-8.746,1.006c-2.036,0.238-3.916-0.288-5.314-1.952
			C77.344,91.994,77.694,91.979,78.044,91.962z"/>
		<path fill-rule="evenodd" clip-rule="evenodd" fill="#260F05" d="M75.377,48c1.685,0.773,3.361,1.442,4.939,2.295
			c1.575,0.85,2.479,3.38,4.943,1.86c1.047,3.149,2.375,6.034,6.197,6.563c-0.566,2.351-1.019,4.771-1.654,7.042
			c-0.313,1.117-2.908,2.879-5.092,1.363c-1.157-0.804-2.693-1.739-3.62-0.895c-3.962,3.61-5.834-1.738-8.919-1.943
			c-1.313-0.088-0.716-2.084-0.735-3.405c-0.04-2.864,2.622-5.545,0.096-8.776C70.799,51.165,72.817,48.276,75.377,48z"/>
		<path fill-rule="evenodd" clip-rule="evenodd" fill="#3C1807" d="M63.012,57.001c1.894-1.134,2.75-2.36,0.734-4.263
			c-0.911-0.86-1.755-3.324-0.404-3.055c4.674,0.936,5.603-3.321,8.333-4.949c0.686-0.408,1.556-0.508,2.341-0.75
			c0.161,0.117,0.321,0.234,0.483,0.35c0.374,0.493,0.553,1.046,0.502,1.667c-5.468,1.006-5.226,2.589-5.739,8.419
			c-0.561,6.365,2.627,13.16-1.661,19.155c-1.256,1.756-2.7,3.331-4.602,4.423c-1.304,0-2.607-0.015-3.911,0.002
			c-3.295,0.041-4.896-1.429-4.249-4.822c0.352-1.846,0.101-3.557-0.843-5.173c1.387-2.978,3.811-3.374,6.698-2.753
			c1.223,0.263,2.696,1.405,3.659-0.05c0.935-1.412-0.597-2.371-1.315-3.417c-0.283-0.412-0.566-0.82-0.768-1.286
			C61.86,59.192,62.054,58.015,63.012,57.001z"/>
		<path fill-rule="evenodd" clip-rule="evenodd" fill="#381807" d="M105.976,48.972c-2.24,5.77-3.193,12.161-8.085,16.646
			c-0.992,0.909-1.91,1.883-1.908,3.367c-2.732,0.199-3.627-1.36-1.793-3.064c2.871-2.666,2.059-6.33,3.429-9.344
			c0.745-1.638-0.055-3.396-1.707-3.306C92.593,53.454,92.344,50.729,91,49c4.227-1.232,8.553,0.286,12.797-0.464
			c0.255-0.029,0.51-0.052,0.765-0.08C105.091,48.469,105.562,48.644,105.976,48.972z"/>
		<path fill-rule="evenodd" clip-rule="evenodd" fill="#502207" d="M104.963,48.963C100.313,51.008,95.657,50.041,91,49
			c-2.27-1.157-5.481-0.102-7.016-2.986c1.831-1.716,4.248-1.481,6.452-1.953c0.499-0.004,0.992,0.07,1.474,0.201
			c2.089,0.95,4.141,1.797,6.578,1.738C100.999,45.939,103.352,46.782,104.963,48.963z"/>
		<path fill-rule="evenodd" clip-rule="evenodd" fill="#682E09" d="M91.073,44.942c-2.319,0.645-4.631,1.337-7.089,1.071
			c-0.992-0.346-1.983-0.69-2.976-1.035c-2.153-1.583-4.895,0.972-6.994-0.993c0,0,0,0,0-0.001c0.006-0.343,0.012-0.687,0.018-1.03
			c1.138-1.207,2.688-1.391,4.191-1.701c2.53,0.044,5.021,0.528,7.546,0.672c1.73,0.41,3.512,0.672,5.058,1.65
			C91.257,43.969,91.337,44.425,91.073,44.942z"/>
		<path fill-rule="evenodd" clip-rule="evenodd" fill="#4D1E08" d="M74.015,43.985c2.317,0.431,4.889-0.932,6.994,0.993
			c-2.002,0.341-4.005,0.682-6.008,1.022C74.196,45.563,74.02,44.815,74.015,43.985z"/>
		<path fill-rule="evenodd" clip-rule="evenodd" fill="#4E1E08" d="M63.013,60.999c2.239,0.937,4.251,2.482,3.204,4.998
			c-1.188,2.851-3.522,1.443-5.438,0.423c-2.735-1.457-4.585,0.785-6.781,1.585c-0.954,0.372-1.617,1.038-2.006,1.98
			c-2.332,0.184-4.666-1.985-6.995,0.008c-0.333-0.33-0.665-0.661-0.998-0.991c-0.332-1.002-0.665-2.005-0.997-3.007
			c2.707-2.423,6.735-1.565,9.499-3.841c1.617-0.455,3.238-0.915,4.937-0.921C59.326,61.986,61.096,59.633,63.013,60.999z"/>
		<path fill-rule="evenodd" clip-rule="evenodd" fill="#3F1A07" d="M44.996,69.993c2.329-2.82,4.662-1.978,6.996-0.007
			C49.662,72.249,47.327,69.007,44.996,69.993z"/>
		<path fill-rule="evenodd" clip-rule="evenodd" fill="#D3770F" d="M90.964,44.062c-1.731-0.028-3.438-0.168-4.97-1.099
			c-2.091-0.747-4.49-0.474-6.352-2.04c-0.882-0.741-1.968-1.316-1.767-2.655c0.196-1.308,1.265-2.106,2.418-2.011
			c2.697,0.223,4.988-1.518,7.634-1.349c2.439,0.187,3.683,2.762,6.078,3.046c0.351,0.319,0.701,0.64,1.052,0.959
			C95.912,42.394,94.176,43.815,90.964,44.062z"/>
		<path fill-rule="evenodd" clip-rule="evenodd" fill="#502107" d="M94.006,37.954c-2.367,0.514-3.8-1.68-5.87-2.027
			c-4.193,0.087-8.144-1.72-12.347-1.57c-1.918-0.092-3.913,0.233-5.617-1.025c-0.454-3.151,2.457-2.259,3.843-3.21
			c1.438-0.235,2.843-0.295,3.981,0.86c5.215-0.064,10.496-0.455,15.004,3.008C90.818,35.252,90.818,35.252,94.006,37.954z"/>
		<path fill-rule="evenodd" clip-rule="evenodd" fill="#7E360A" d="M104.963,48.963c-3.879-2.75-9.454,0.028-12.947-3.975
			c1.965-1.394,4.195-2.392,6.003-4.021c0.971,0.378,1.94,0.755,2.91,1.133c2.816,1.425,4.133,3.729,4.026,6.868L104.963,48.963z"/>
		<path fill-rule="evenodd" clip-rule="evenodd" fill="#9C480B" d="M98.019,40.967c-0.521,3.55-2.962,4.234-6.004,4.021
			c-0.313-0.019-0.628-0.033-0.942-0.045c-0.043-0.294-0.08-0.588-0.108-0.882c1.865-1.317,3.914-2.489,4.094-5.147
			C96.52,38.914,97.502,39.604,98.019,40.967z"/>
		<path fill-rule="evenodd" clip-rule="evenodd" fill="#502207" d="M104.955,48.968c-0.733-2.646-2.158-4.888-4.025-6.869
			c4.303,0.367,4.116,4.03,5.046,6.874C105.636,48.971,105.296,48.969,104.955,48.968z"/>
		<path fill-rule="evenodd" clip-rule="evenodd" fill="#C9770F" d="M82.9,88.125c-2.646,0.997-5.276-0.264-7.917-0.056
			c-0.392-1.303-1.678-2.947,1.104-3.09c5.984-0.307,11.708-3.034,17.845-1.906c0.953,0.585,1.95,1.157,0.757,2.416
			C90.62,85.736,87.161,88.724,82.9,88.125z"/>
		<path fill-rule="evenodd" clip-rule="evenodd" fill="#572308" d="M135.964,75.051c-0.049,1.321-0.903,2.644,0.011,3.962
			c-2.538-0.083-4.937,0.321-6.974,1.99c-1.028,0.315-2.057,0.63-3.086,0.944c-1.034-1.471-2.63-0.753-3.973-1.024
			c2.176-3.98,7.675-3.113,10.009-6.862c0.491-0.595,1.14-0.719,1.863-0.626C134.742,73.691,135.526,74.142,135.964,75.051z"/>
		<path fill-rule="evenodd" clip-rule="evenodd" fill="#9E4D0C" d="M123.882,82.902c-1.522,0.934-3.01,1.947-4.865,2.111
			c-2.208,0.544-4.389,1.205-6.641,1.569c-1.3,0.079-2.504-0.329-3.709-0.73c-1.54-0.722-3.52-0.371-4.733-1.905
			C110.532,82.637,117.101,80.733,123.882,82.902z"/>
		<path fill-rule="evenodd" clip-rule="evenodd" fill="#964B0B" d="M94.929,84.951c-0.332-0.626-0.664-1.253-0.997-1.879
			c2.485-0.609,4.664,1.051,7.08,0.961c0.098,0.517,0.009,1.043-0.461,1.271c-0.59,0.287-1.315,0.082-1.938,0.351
			c0.658-0.223,1.352-0.201,1.955,0.052c0.473,0.197,0.548,0.755,0.442,1.271c-1.435-0.024-2.419,0.897-3.41,1.715
			c-3.142,2.589-6.334,2.954-9.662,0.385c1.036-1.385,2.597-1.052,3.999-1.205C93.714,87.678,95.031,87.052,94.929,84.951z"/>
		<path fill-rule="evenodd" clip-rule="evenodd" fill="#AF5E0D" d="M101.011,86.978c-0.744-0.494-1.488-0.987-2.236-1.478
			c0.743-0.487,1.49-0.978,2.237-1.468c0.974-0.027,1.948-0.056,2.922-0.085c1.683,0.343,3.636-0.639,5.048,1.031
			c-2.048,1.661-4.087,3.353-7.003,2.055C101.656,87.016,101.333,86.997,101.011,86.978z"/>
		<path fill-rule="evenodd" clip-rule="evenodd" fill="#75350B" d="M118.026,69.981c0.514-3.882,3.927-2.754,6.254-4.094
			c-0.065,2.182-1.842,2.694-2.383,4.024C120.606,69.935,119.316,69.958,118.026,69.981z"/>
		<path fill-rule="evenodd" clip-rule="evenodd" fill="#7A370B" d="M133.939,74.063c-0.663-0.001-1.325-0.003-1.988-0.004
			c-2.102-0.48-3.961,0.705-5.969,0.869c-1.322-0.606-2.644-1.212-3.965-1.817c2.173-1.521,4.853,0.26,7.053-1.083
			c1.002,0.022,2.004,0.044,3.006,0.065C132.593,72.85,134.671,72.129,133.939,74.063z"/>
		<path fill-rule="evenodd" clip-rule="evenodd" fill="#2C1506" d="M129.07,72.028c-2.14,1.739-4.735,0.505-7.053,1.082
			c-1.002-0.045-2.003-0.091-3.005-0.137C122.21,70.996,125.726,72.417,129.07,72.028z"/>
		<path fill-rule="evenodd" clip-rule="evenodd" fill="#9B510C" d="M133.939,74.063c-0.621-0.656-1.243-1.313-1.863-1.971
			c1.651,0.051,3.304,0.101,4.955,0.151c-0.23,1.112,1.626,1.48,0.979,2.742c-0.682,0.021-1.363,0.042-2.046,0.064
			C135.289,74.722,134.614,74.393,133.939,74.063z"/>
		<path fill-rule="evenodd" clip-rule="evenodd" fill="#CF7610" d="M138.01,74.986c0.322-1.146-3.986-0.64-0.979-2.743
			c1.188-0.044,1.745,0.757,2.224,1.663C138.84,74.267,138.425,74.626,138.01,74.986z"/>
		<path fill-rule="evenodd" clip-rule="evenodd" fill="#753109" d="M41.982,35.018c1.925,0.028,2.809,2.666,5.011,2
			c5.161-2.566,9.985,0.243,14.944,0.92c0.475,0.087,0.938,0.224,1.394,0.378c2.372,1.023,4.929,1.727,6.735,3.765
			c-1.425,1.954-2.737,4.095-4.953,0.626c-1.453-2.275-3.923-1.018-5.42-0.493c-2.962,1.038-5.125,0.199-7.215-1.531
			c-1.959-1.622-3.986-1.842-6.452-1.397c-1.662,0.3-3.6,0.086-5.041-1.274C41.317,37.013,41.649,36.016,41.982,35.018z"/>
		<path fill-rule="evenodd" clip-rule="evenodd" fill="#78320A" d="M57.994,61.984c-1.669,0.332-3.339,0.663-5.009,0.995
			c-1.156-1.315-0.378-2.584,0.394-3.532c2.269-2.786,2.25-5.589,0.52-8.556c0.369-0.627,0.738-1.254,1.107-1.881
			c0.33-0.008,0.66-0.018,0.99-0.029c1.406,0.065,2.112,1.184,3.014,2.007l0.021-0.002c0.817,1.607,0.212,3.773,1.969,5.013
			c0.332,0.334,0.664,0.668,0.996,1.003C63.048,60.579,59.256,60.266,57.994,61.984z"/>
		<path fill-rule="evenodd" clip-rule="evenodd" fill="#9A450B" d="M70.065,42.08c-2.811,0.025-4.784-1.884-7.075-3.061
			c3.899-2.566,8.15-1.354,12.311-1.155c1.92,0.657,3.092,1.819,2.687,4.029c-0.983,1.603-2.567,0.968-3.956,1.062
			C72.945,41.599,71.467,42.015,70.065,42.08z"/>
		<path fill-rule="evenodd" clip-rule="evenodd" fill="#5C2409" d="M57.994,61.984c-1.03-3.56,4.063-2.201,4.003-4.982
			c0.338,0,0.676-0.001,1.015-0.001c0,1.332,0,2.665,0.001,3.998C61.182,60.521,60.263,64.688,57.994,61.984z"/>
		<path fill-rule="evenodd" clip-rule="evenodd" fill="#5C2409" d="M61.001,55.999c-3.578-0.523-3.281-2.568-1.97-5.013
			C63.022,51.347,61.289,53.957,61.001,55.999z"/>
		<path fill-rule="evenodd" clip-rule="evenodd" fill="#632A09" d="M59.011,50.988c-1.455,0.008-2.463-0.655-3.014-2.007
			c0.172-1.868,1.464-2.412,3.138-2.659C60.357,47.937,58.447,49.449,59.011,50.988z"/>
		<path fill-rule="evenodd" clip-rule="evenodd" fill="#96430C" d="M53.899,50.892c3.299,1.923,4.051,4.218,1.548,7.495
			c-1.018,1.332-2.458,2.636-2.462,4.593c-2.676,3.163-6.916,1.15-9.984,3.016c-1.325-0.042-2.65-0.085-3.975-0.129
			c2.991-0.958,5.981-1.915,8.971-2.873c3.876-2.728,3.131-7.518,4.977-11.153C53.282,51.523,53.591,51.207,53.899,50.892z"/>
		<path fill-rule="evenodd" clip-rule="evenodd" fill="#6B2C0A" d="M15.946,59.935c0.393-0.38,0.785-0.761,1.179-1.144
			c2.438-0.816,4.854-1.581,7.49-0.778c3.327,1.013,2.39-1.263,2.171-2.943c1.783,0.915,2.188,3.315,4.243,3.939
			c0.003,0.297,0.01,0.594,0.019,0.89c-0.704,1.896-0.141,3.559,0.943,5.125c1.057,1.253,2.513,1.728,4.036,2.073
			c-2.032,1.712-4.026,0.796-6.021-0.086c-2.709-0.568-4.859-2.202-6.563-4.175C21.367,60.432,18.912,59.694,15.946,59.935z"/>
		<path fill-rule="evenodd" clip-rule="evenodd" fill="#A44D0C" d="M31.99,65.023c-4.427-3.391-4.446-3.491-0.943-5.124
			c1.046,0.214,2.244,0.012,2.978,1.084C32.695,62.002,32.163,63.422,31.99,65.023z"/>
		<path fill-rule="evenodd" clip-rule="evenodd" fill="#A44D0C" d="M34.997,60.992c2.077-0.124,4.121-0.046,5.997,1.015
			C38.461,64.822,36.565,63.872,34.997,60.992z"/>
		<path fill-rule="evenodd" clip-rule="evenodd" fill="#753109" d="M35.997,35.972c1.09-1.44,2.611-0.895,4.019-0.87
			C38.793,35.937,37.778,37.725,35.997,35.972z"/>
		<path fill-rule="evenodd" clip-rule="evenodd" fill="#D77B0F" d="M76.007,39.027c-4.339-0.003-8.678-0.005-13.016-0.008
			l0.028-0.08c-4.735-1.49-9.896-1.765-14.047-4.921c-1.312-0.045-2.624-0.09-3.936-0.135c-0.192-2.491,2.368-0.601,2.953-1.855
			c0.67,0.002,1.34,0.004,2.01,0.007c1.516,1.146,3.496-0.171,5.018,0.947l-0.007-0.004c2.025,0.73,3.965,1.066,6.191,0.389
			c4.714-1.435,9.487,0.462,14.249,0.147c1.268,0.301,3.31-0.833,3.647,1.114C79.46,36.733,77.631,37.96,76.007,39.027z"/>
		<path fill-rule="evenodd" clip-rule="evenodd" fill="#C3640D" d="M35.261,27.856c1.241,0.386,2.482,0.771,3.723,1.157
			c0.178,2.551,2.895,1.748,4.022,3.045c0.559,1.048-0.353,1.361-0.923,1.845c-4.684-2.564-10.1-2.337-15.034-3.944
			c0.665-1.004,1.329-2.009,1.994-3.013c0,0-0.029,0.004-0.029,0.004C30.947,28.283,33.274,26.898,35.261,27.856z"/>
		<path fill-rule="evenodd" clip-rule="evenodd" fill="#B45D0C" d="M48.972,34.019c4.683,1.641,9.365,3.281,14.047,4.921
			c-5.394-0.212-10.568-2.255-16.026-1.923C45.492,34.592,48.67,35.254,48.972,34.019z"/>
		<path fill-rule="evenodd" clip-rule="evenodd" fill="#DD7F10" d="M42.083,33.903c0.308-0.615,0.615-1.23,0.923-1.845
			c1.661-0.011,3.322-0.021,4.982-0.03c-0.984,0.619-1.969,1.238-2.953,1.856C44.052,33.891,43.068,33.897,42.083,33.903z"/>
		<path fill-rule="evenodd" clip-rule="evenodd" fill="#71360A" d="M155.003,74.995c0.245-3.86-3.424-5.271-5-7.99
			c3.236-3.556,1.58-7.884-3.751-8.864c-2.381-0.438-3.616-1.099-4.65-3.42c-1.108-2.489-3.577-3.911-6.587-3.713
			c0.179-1.799,1.415-2.556,2.688-1.522c2.569,2.086,6.745,2.191,7.697,6.392c0.258,1.137,1.712-0.138,2.602,0.113
			c2.124,0.586,3.943,2.134,6.303,1.979c3.544,0.311,6.335,1.281,5.029,5.792c-4.246,2.847-4.358,3.539-0.861,6.852
			c0.54-2.329-1.453-4.877,0.8-6.773c4.321,0.207,2.602,4.042,3.713,6.177c0.001,1.653,0.001,3.306,0.001,4.958
			c-2.009,1.986-4.008-2.859-6.019-0.01C156.322,75.558,155.668,75.631,155.003,74.995z"/>
		<path fill-rule="evenodd" clip-rule="evenodd" fill="#471A07" d="M162.985,70.016c-1.489-1.901-0.975-5.121-3.97-6.033
			l0.002,0.001c0.341-3.687-1.89-4.793-5.017-5c-3.055-4.169-3.056-7.878-0.003-10.982l0.006-0.004
			c3.979,2.982,8.156,5.746,10.984,9.993C161.023,61.45,164.7,66.182,162.985,70.016z"/>
		<path fill-rule="evenodd" clip-rule="evenodd" fill="#572408" d="M155.003,74.995c0.655-0.011,1.311-0.021,1.965-0.03
			c-1.046,1.305-0.386,3.858-2.96,4.045C155.341,77.92,153.251,75.98,155.003,74.995z"/>
		<path fill-rule="evenodd" clip-rule="evenodd" fill="#8C470B" d="M101.979,87.033c2.48-0.188,4.364-2.408,7.003-2.055
			c1.006,0.34,2.012,0.68,3.019,1.02c0.594,1.807-1.391,1.996-1.938,3.088c-2.865,1.798-6.036,0.508-9.041,0.892
			C101.34,88.996,101.659,88.015,101.979,87.033z"/>
		<path fill-rule="evenodd" clip-rule="evenodd" fill="#78360A" d="M110.062,89.086c-0.286-1.614,1.327-2.037,1.938-3.088
			c2.129-1.824,4.671-0.704,7.016-0.984c-1.648,1.356-4.175,1.603-5.025,3.969C112.681,89.017,111.371,89.052,110.062,89.086z"/>
		<path fill-rule="evenodd" clip-rule="evenodd" fill="#4F2108" d="M153.998,48.001c-2.489,3.661-0.62,7.322,0.003,10.982
			c-2.656,0.319-4.785-0.421-5.999-2.992c-0.913-1.962-2.07-3.644-3.831-5.06c-1.96-1.576-3.167-3.752-1.688-6.452
			c-1.612-0.234-2.517,0.48-3.281,1.338c-0.838,0.938-1.483,2.748-3.008,1.521c-1.776-1.431,0.544-2.086,1.034-3.091
			c0.215-0.44,0.518-0.838,0.781-1.255c0.757-0.935,0.949-2.246,1.991-2.99c0.665,0.001,1.33,0.002,1.995,0.003
			c-0.37,2.567,1.854,4.421,3.256,3.908C149.913,42.207,151.08,46.762,153.998,48.001z"/>
		<path fill-rule="evenodd" clip-rule="evenodd" fill="#6A2909" d="M77.997,30.981c-1.353,0.02-2.707,0.038-4.06,0.058
			c-2.642,0.147-5.29,2.065-7.924-0.027c-1.143-0.3-2.656,0.593-3.647-1.447c3.292-0.445,6.501-0.952,8.085-4.255
			c0.352-0.735,0.451-0.688-1.456-1.325C70.724,20.381,72.335,16.659,77,16c0.517,2.419-1.53,3.915-2.175,5.933
			c-1.604,5.02-1.204,5.778,3.873,6.088c0.923,0.056,2.028-0.355,2.716,0.839C81.028,30.742,78.587,29.441,77.997,30.981z"/>
		<path fill-rule="evenodd" clip-rule="evenodd" fill="#B45D0C" d="M75.984,33.972C70.62,34.389,65.21,33.4,59.846,34.789
			c-1.59,0.412-3.511-0.421-4.837-1.811c1.659,0.013,3.317,0.026,4.975,0.039c3.334-0.391,6.66-1.608,10.014-0.103
			c2.005,0.055,4.011,0.109,6.016,0.164c0.32,0.209,0.422,0.411,0.307,0.606C76.208,33.876,76.096,33.972,75.984,33.972z"/>
		<path fill-rule="evenodd" clip-rule="evenodd" fill="#2C1305" d="M69.998,32.915c-3.338,0.034-6.675,0.068-10.013,0.103
			c1.519-2.143,4.474,0.029,6.028-2.006c2.642,0.009,5.284,0.018,7.925,0.027C73.077,32.615,70.891,31.408,69.998,32.915z"/>
		<path fill-rule="evenodd" clip-rule="evenodd" fill="#B45D0C" d="M55.016,32.982c-1.719-0.072-3.591,0.668-5.018-0.947
			C51.745,31.961,53.559,31.525,55.016,32.982z"/>
		<path fill-rule="evenodd" clip-rule="evenodd" fill="#AD560D" d="M35.261,27.856c-2.111-0.107-4.394,0.973-6.247-0.906
			C31.136,26.979,33.325,26.545,35.261,27.856z"/>
		<path fill-rule="evenodd" clip-rule="evenodd" fill="#471A07" d="M140.001,40.002c0.009,1.444,0.038,2.903-1.992,2.99
			c-0.673-0.994-1.347-1.987-2.021-2.981C137.325,40.008,138.663,40.005,140.001,40.002z"/>
		<path fill-rule="evenodd" clip-rule="evenodd" fill="#6E2F0A" d="M135.006,51.007c-1.073,2.231,0.251,4.066,0.99,5.998
			c-1.493-0.221-3.563,0.657-3.911-1.837C131.775,52.953,132.334,51.2,135.006,51.007z"/>
		<path fill-rule="evenodd" clip-rule="evenodd" fill="#AA630D" d="M94.929,84.951c2.441,2.971-0.035,3.819-2.125,4.31
			c-1.523,0.356-3.235-0.095-4.865-0.185c-1.671-0.358-3.575,0.511-5.038-0.952C86.746,86.444,90.343,83.824,94.929,84.951z"/>
		<path fill-rule="evenodd" clip-rule="evenodd" fill="#C2660D" d="M75.984,33.972c0.012-0.298,0.021-0.596,0.03-0.894
			c4.425-0.688,8.141,1.641,12.121,2.85c-2.732-0.323-4.913,2.779-7.895,1.272c-0.273-0.138-1.193,0.515-1.474,0.997
			c-0.411,0.707,0.24,1.188,0.83,1.495c2.125,1.105,4.265,2.183,6.398,3.271c-2.742,0.191-5.4-0.241-8.005-1.068
			c-0.661-0.957-1.322-1.912-1.982-2.867C75.931,37.343,81.023,35.635,75.984,33.972z"/>
		<path fill-rule="evenodd" clip-rule="evenodd" fill="#8A450B" d="M159.016,63.982c0.274,2.804,0.549,5.607,2.968,8.999
			c-4.536-1.437-8.015-1.129-7.244-6.535c0.537-3.769,2.501-2.317,4.278-2.463L159.016,63.982z"/>
	</g>
</g>
</svg>
