<?xml version="1.0" encoding="utf-8"?>
<!-- Generator: Adobe Illustrator 16.0.0, SVG Export Plug-In . SVG Version: 6.00 Build 0)  -->
<!DOCTYPE svg PUBLIC "-//W3C//DTD SVG 1.1//EN" "http://www.w3.org/Graphics/SVG/1.1/DTD/svg11.dtd">
<svg version="1.1" id="Layer_1" xmlns="http://www.w3.org/2000/svg" xmlns:xlink="http://www.w3.org/1999/xlink" x="0px" y="0px"
	 width="176px" height="103px" viewBox="0 0 176 103" enable-background="new 0 0 176 103" xml:space="preserve">
<g>
	<g>
		<path fill-rule="evenodd" clip-rule="evenodd" fill="#945234" d="M177,65c-3.255,3.476-4.728,8.12-8.033,11.655
			c-5.288,5.657-10.729,10.99-17.748,14.462c-1.711,0.499-1.461-0.701-1.195-1.556c0.427-1.376,1.463-2.464,2.073-3.77
			c0.39-0.616,0.901-1.086,1.599-1.328c3.16,0.224,4.795-1.912,6.364-4.14c1.265-1.766,2.804-3.373,3.229-5.622
			c1.358-1.216-1.053-6.342,4.238-3.769c1.597,0.776,0.831-2.204,1.451-3.333c1.856-2.729,2.764-6.392,6.822-6.958
			c1.231,0.821,0.174,2.462,1.2,3.357C177,64.333,177,64.667,177,65z"/>
		<path fill-rule="evenodd" clip-rule="evenodd" fill="#EFCBB9" d="M96,1c6,0,12,0,18,0c0.311,0.61,0.188,1.115-0.365,1.519
			C108.47,4.16,103.192,3.186,97.954,3.19c-0.587-0.111-1.129-0.335-1.63-0.66C95.792,2.111,95.685,1.601,96,1z"/>
		<path fill-rule="evenodd" clip-rule="evenodd" fill="#BA8162" d="M177,64c-1.329-0.664-0.962-1.899-1.01-2.996
			c-0.75-0.87-1.193-1.868-1.269-3.022c-0.098-1.677-0.13-3.352,0.381-4.985c0.211-0.539,0.564-0.962,1.054-1.271
			c0.339-0.086,0.62,0.006,0.844,0.275C177,56,177,60,177,64z"/>
		<path fill-rule="evenodd" clip-rule="evenodd" fill="#F9EBE4" d="M96,1c-0.008,0.319-0.025,0.639-0.055,0.957
			c-1.098,1.274-2.608,1.353-4.122,1.433c-2.036-0.197-4.283,0.388-5.867-1.538C85.98,1.568,85.995,1.284,86,1
			C89.333,1,92.667,1,96,1z"/>
		<path fill-rule="evenodd" clip-rule="evenodd" fill="#C0866A" d="M98.115,103.063C97.98,103.363,97.941,103.676,98,104
			c-3.333,0-6.667,0-10,0c-0.062-0.293-0.113-0.588-0.152-0.886c0.334-0.473,0.773-0.811,1.314-1.021
			c0.81-0.289,1.648-0.406,2.506-0.417C93.883,101.826,96.286,101.122,98.115,103.063z"/>
		<path fill-rule="evenodd" clip-rule="evenodd" fill="#FBF1EB" d="M114.104,1.903C114.068,1.603,114.034,1.302,114,1
			c2.333,0,4.667,0,7,0c0.001,0.307,0.009,0.612,0.021,0.918C118.712,3.809,116.406,3.818,114.104,1.903z"/>
		<path fill-rule="evenodd" clip-rule="evenodd" fill="#C6764C" d="M6.208,71.034c0.042-2.797,1.185-5.324,1.955-7.941
			c6.288-1.749,12.251-0.263,15.183,3.781c-2.269,4.268-6.138,1.823-9.302,2.094c-2.114,0.182-3.982-0.063-2.388,2.891
			c0.709,0.836,1.715,1.163,2.677,1.566c2.888,1.705,5.994,3.007,8.813,4.83c2.167,2.423,4.519-0.309,6.753,0.23
			c1.568,0.651,2.612,1.953,3.826,3.05c1.179,1.847,4.219,2.736,3.022,5.817c-3.565,0.7-6.328-2.186-9.741-2.168
			c-3.052-0.84-5.462-2.905-8.22-4.305c-2.617-2.025-5.057-4.388-8.652-4.571C8.096,75.092,7.01,73.169,6.208,71.034z"/>
		<path fill-rule="evenodd" clip-rule="evenodd" fill="#F1C382" d="M8.243,61.034c-0.189-1.419-0.539-2.866,0.723-4.024
			c2.114-1.248,3.788-2.937,5.048-5.039c1.86-2.159,4.448-2.525,7.049-2.859c1.01,0.411,2.329-0.234,3.125,0.913
			c-0.214,1.456-4.802,3.769,0.806,4.077c0.445,0.135,0.853,0.341,1.228,0.616c1.005,1.767,2.925,2.998,3.104,5.258
			c-0.439,1.2-1.248,2.013-2.483,2.379c-4.177-1.998-8.412-3.503-13.045-1.446C11.954,61.297,10.126,62.563,8.243,61.034z"/>
		<path fill-rule="evenodd" clip-rule="evenodd" fill="#F0BF82" d="M20.464,31.98c-0.945-0.682-1.54-1.547-1.448-2.77
			c-0.593-1.264-0.819-2.685-1.665-3.841c-0.187-0.728-0.118-1.428,0.219-2.098c0.314-0.386,0.718-0.582,1.22-0.564
			c0.158,0.04,0.379,0.031,0.469,0.136c6.628,7.646,15.996,8.535,25.062,9.994c2.498,0.401,2.993,2.315,4.186,3.795
			c0.565,0.816,1.064,1.647,0.533,2.681c-1.083,1.15-2.454,1.617-3.99,1.688c-2.679-0.563-5.739-0.737-6.307-4.234
			c-0.221-1.358-0.803-0.482-1.18-0.454c-5.678,0.43-10.697-1.985-15.895-3.634C21.282,32.418,20.881,32.185,20.464,31.98z"/>
		<path fill-rule="evenodd" clip-rule="evenodd" fill="#F2C584" d="M8.073,11.018c0.772-1.747,1.779-3.173,4.009-2.916
			c1.083,0.351,2.014,0.929,2.739,1.819c1.147,1.371,1.773,3.074,2.873,4.475c1.688,2.338,4.274,3.893,5.669,6.486
			c0.098,0.448,0.061,0.888-0.086,1.319c-1.418,2.522-3.496,0.426-5.23,0.744l-0.061,0.07c-4.85-2.532-9.957-4.267-15.396-4.973
			C1.297,16.077,2.405,15,4.042,14.118C6.611,14.678,8.13,13.872,8.073,11.018z"/>
		<path fill-rule="evenodd" clip-rule="evenodd" fill="#884C2C" d="M20.464,31.98c0.548-0.009,1.097-0.018,1.645-0.027
			c3.317,2.535,6.664,5.028,10.077,7.43c0.845,0.978,1.499,2.146,2.723,2.76c1.356,0.832,2.887,1.448,3.668,2.983
			c0.336,0.936,0.333,1.847-0.203,2.716c-3.2,0.03-0.613,2.236-1.216,3.247c-0.359,0.325-0.77,0.551-1.24,0.672
			c-1.718,0.224-3.298-0.503-4.958-0.697c-0.477-0.075-0.944-0.191-1.408-0.319c-1.795-0.676-3.893-0.226-5.534-1.474
			c-0.703-2.151,1.264-2.088,2.307-2.796c0.633-0.552,1.966,0.258,2.142-1.133c-0.548-0.674-1.64-0.983-1.371-2.145
			c1.562-1.216,1.353-2.146-0.19-3.359C24.205,37.715,22.074,35.041,20.464,31.98z"/>
		<path fill-rule="evenodd" clip-rule="evenodd" fill="#8E4E31" d="M19.045,79.972c2.624,1.358,5.248,2.718,7.872,4.076
			c6.73,3.14,13.158,7.056,20.715,8.073c1.147,0.368,2.3,0.729,3.273,1.482c0.309,0.384,0.431,0.82,0.34,1.31
			c-0.813,1.181-2.283,0.15-3.21,0.951c-12.714-1.797-22.622-9.384-33.001-15.996C16.449,76.904,17.713,79.738,19.045,79.972z"/>
		<path fill-rule="evenodd" clip-rule="evenodd" fill="#8A4B2B" d="M60.029,98.889c-2.233,0.02-4.232-0.761-6.157-1.799
			c0.006-0.906-2.055-1.354-0.574-2.591c2.758-0.213,3.18-3.501,5.55-4.228c3.211-0.745,6.076,3.603,9.449,0.632
			c0.516,0.037,0.947,0.241,1.311,0.607c2.68,5.556,2.293,6.265-3.767,6.956C63.908,98.687,61.915,98.052,60.029,98.889z"/>
		<path fill-rule="evenodd" clip-rule="evenodd" fill="#DB9264" d="M50.01,18.141c0.617-0.086,1.235-0.171,1.853-0.256
			c1.424-0.37,1.576,0.644,1.769,1.618c-0.706,3.303-2.021,6.394,0.023,9.958c1.399,2.438-1.168,2.287-2.795,2.26
			c-0.655-0.122,0.175,0.043-0.478-0.09c-7.947-1.62-8.295-2.252-5.19-9.399c0.076-0.457,0.208-0.898,0.369-1.331
			C46.427,18.992,48.338,18.76,50.01,18.141z"/>
		<path fill-rule="evenodd" clip-rule="evenodd" fill="#F4CA89" d="M14.01,5.945c2.256-2.146,4.311-0.81,5.25,1.068
			c2.296,4.595,6.188,7.593,9.757,10.953c0.498,0.869-0.008,1.854,0.319,2.753c-0.176,0.414-0.466,0.702-0.875,0.88
			c-3.846-1.165-6.406-4.003-8.948-6.863c-1.298-1.461-2.827-2.718-3.888-4.391C14.916,8.943,14.211,7.536,14.01,5.945z"/>
		<path fill-rule="evenodd" clip-rule="evenodd" fill="#E4A781" d="M52.978,19.984c-0.003-0.896-0.243-1.665-1.115-2.1
			c4.101-5.489,9.816-8.607,16.067-10.937c1.683-0.409,1.516,0.781,1.557,1.794c-0.716,1.879-2.53,2.25-4.081,2.984
			c-2.852,1.046-5.016,2.88-6.813,5.353c-1.39,1.913-2.697,4.213-5.641,4.12c-0.262-0.275-0.344-0.548-0.249-0.815
			C52.797,20.117,52.889,19.984,52.978,19.984z"/>
		<path fill-rule="evenodd" clip-rule="evenodd" fill="#E19B6E" d="M8.243,61.034c1.912-0.35,3.825-0.699,5.737-1.05
			c5.703-0.773,10.375,1.744,12.3,6.628c-0.202,0.526-0.574,0.869-1.114,1.031c-0.832,0.149-1.571-0.035-2.202-0.61
			c-4.152-2.224-8.106-5.291-13.304-2.92c-0.285,0.13-0.988-0.659-1.497-1.021C8.189,62.406,8.216,61.721,8.243,61.034z"/>
		<path fill-rule="evenodd" clip-rule="evenodd" fill="#E7AD8F" d="M69,9c-0.017-0.861-0.244-1.611-1.069-2.051
			c5.391-3.884,11.972-3.559,18.026-5.097c1.977,0.083,3.955,0.166,5.932,0.25c-0.217,2.554-2.496,2.26-4.041,2.743
			c-3.76,1.176-7.735,1.545-11.462,2.885C73.891,7.949,71.666,9.773,69,9z"/>
		<path fill-rule="evenodd" clip-rule="evenodd" fill="#9B5939" d="M88.862,102.913c-0.338,0.067-0.676,0.134-1.014,0.201
			c-4.917-0.971-9.158-3.736-13.88-5.225c-1.739-2.022-4.65-3.346-4.042-6.771c1.711-0.796,2.638,0.598,3.8,1.347
			c2.151,2,5.072,2.371,7.572,3.612C84.41,97.623,88.123,98.675,88.862,102.913z"/>
		<path fill-rule="evenodd" clip-rule="evenodd" fill="#D7986A" d="M2.59,18.043c6.095-1.325,11.26,0.231,15.396,4.973
			c0.013,0.653,0.027,1.308,0.041,1.962c-2.311,0.539-3.119-2.484-5.309-2.229c-1.85-0.66-3.651-1.635-5.718-0.863
			C4.797,21.444,3.469,20.002,2.59,18.043z"/>
		<path fill-rule="evenodd" clip-rule="evenodd" fill="#F9D69B" d="M29.018,20.03c-1.148-0.687-0.096-1.375-0.001-2.063
			c1.197-0.949,2.064-3.131,4.063-1.089c1.016,2.881,3.717,1.084,5.482,1.954c1.771,0.875,4.195-0.222,5.65,1.775
			c-1.916,3.21-5.043,3.159-7.878,2.267C33.872,22.101,31.204,21.606,29.018,20.03z"/>
		<path fill-rule="evenodd" clip-rule="evenodd" fill="#6D2F16" d="M70.094,90.934c-0.225,3.162,4.005,3.846,3.874,6.956
			c-4.634,0.502-9.19,2.1-13.939,0.999c0.723-0.884,1.736-0.817,2.738-0.889c7.349-0.52,7.348-0.527,6.238-7.019l0.316-0.29
			c0-0.001,0.429-0.015,0.429-0.015L70.094,90.934z"/>
		<path fill-rule="evenodd" clip-rule="evenodd" fill="#E8B285" d="M43.884,20.049c-3.537,0.516-6.829-1.115-10.319-1.177
			c-1.438-0.025-1.443-1.044-0.485-1.993c5.535,1.869,11.206,1.927,16.93,1.261c-1.342,0.942-2.684,1.884-4.026,2.825
			C45.097,21.088,44.453,20.656,43.884,20.049z"/>
		<path fill-rule="evenodd" clip-rule="evenodd" fill="#985736" d="M19.045,79.972c-1.348,0.409-2.632-1.717-4.011-0.104
			c-1.674-1.023-3.349-2.047-5.023-3.07c-0.302-0.154-0.403-0.31-0.305-0.467c0.099-0.158,0.198-0.237,0.299-0.237
			C14.411,74.143,16.365,77.903,19.045,79.972z"/>
		<path fill-rule="evenodd" clip-rule="evenodd" fill="#AF6945" d="M27.097,43.197c0.944,0.615,1.889,1.23,2.833,1.846
			c-0.645,1.113-2.402,0.684-2.856,2.061c-0.986,0.607-1.971,1.216-2.957,1.823c-1.051,0.461-1.359,0.054-1.136-0.973
			C23.859,45.941,25.015,44.168,27.097,43.197z"/>
		<path fill-rule="evenodd" clip-rule="evenodd" fill="#B1704F" d="M13.059,21.905c2.237,0.084,3.1,2.391,4.968,3.072
			c0.827,1.294,1.291,2.674,0.989,4.232c-2.002-3.005-4.625-5.186-8.169-6.141C11.303,22.148,12.179,22.022,13.059,21.905z"/>
		<path fill-rule="evenodd" clip-rule="evenodd" fill="#DA976C" d="M14.01,5.945c1.827,0.72,2.057,2.28,2.081,3.949
			c-0.14,0.131-0.279,0.261-0.418,0.392c-0.587,0.087-1.103-0.231-1.664-0.297c-0.643-0.629-1.285-1.259-1.927-1.888
			C12.725,7.383,13.368,6.664,14.01,5.945z"/>
		<path fill-rule="evenodd" clip-rule="evenodd" fill="#DE9D6F" d="M8.073,11.018c1.018,0.166,2.299,0.622,1.257,1.717
			c-1.326,1.393-2.918,3.326-5.289,1.383C5.827,13.659,7.156,12.605,8.073,11.018z"/>
		<path fill-rule="evenodd" clip-rule="evenodd" fill="#DE9867" d="M14.014,51.971c-0.478,2.887-2.171,4.555-5.048,5.038
			C10.086,54.767,11.914,53.231,14.014,51.971z"/>
		<path fill-rule="evenodd" clip-rule="evenodd" fill="#BC724C" d="M22.98,47.954c0.378,0.324,0.756,0.649,1.135,0.973
			c1.986,0.291,4.183-0.637,5.93,1.027c-2.002,1.703-4.026,1.726-6.072,0.081c-1.021-0.148-2.211,0.239-2.91-0.924
			C21.702,48.726,22.341,48.34,22.98,47.954z"/>
		<path fill-rule="evenodd" clip-rule="evenodd" fill="#A66C51" d="M13.059,21.905c-0.458,0.92-1.315,1.08-2.212,1.164
			C9.564,22.675,8.282,22.28,7,21.886C9.024,20.294,11.043,20.536,13.059,21.905z"/>
		<path fill-rule="evenodd" clip-rule="evenodd" fill="#9B5C3E" d="M10.006,76.094c0.007,0.234,0.009,0.47,0.005,0.704
			c-2.634-1.02-4.579-2.493-3.804-5.764C8.043,72.293,8.737,74.409,10.006,76.094z"/>
		<path fill-rule="evenodd" clip-rule="evenodd" fill="#74371F" d="M52.971,95.027c-0.11,0.866,2.208,0.673,0.901,2.063
			c-2.089,0.279-3.938-0.591-5.836-1.226c0.752-1.091,1.926-0.812,2.981-0.916C51.691,94.396,52.34,94.475,52.971,95.027z"/>
		<path fill-rule="evenodd" clip-rule="evenodd" fill="#A36141" d="M144.262,92.125c-4.68,1.669-9.5,0.608-14.259,0.741
			c3.171-2.348,5.155-6.149,9.148-7.488c1.572-1.054,2.259-2.909,3.687-4.099c0.633-0.446,1.299-0.706,2.072-0.382
			c2.886,2.934,0.164,6.59,1.259,9.764c-1.658,1.607-3.888,0.37-5.727,1.068c-0.638,0.213,0.316,0.958,0.005,0.369
			c-0.145-0.272-0.078-0.414,0.198-0.443C141.889,91.525,143.162,91.151,144.262,92.125z"/>
		<path fill-rule="evenodd" clip-rule="evenodd" fill="#9A5738" d="M124.055,93.284c-6.352,2.238-12.702,4.477-19.054,6.715
			c-0.706,0.606-1.503,0.595-1.942-0.161c-0.418-0.72,0.064-1.464,0.577-2.071c3.456-2.371,6.951-4.685,10.81-6.391
			c3.245,0.266,6.593-1.484,9.753,0.486C124.489,92.37,124.44,92.845,124.055,93.284z"/>
		<path fill-rule="evenodd" clip-rule="evenodd" fill="#662711" d="M124.055,93.284c-0.047-0.451-0.095-0.903-0.142-1.354
			c0.534-1.516,1.917-2.065,3.151-2.791c4.184-1.072,7.468-4.399,11.932-4.781c0.73,0.305,1.3,0.711,1.005,1.643
			c-3.732,1.707-5.968,5.594-9.999,6.866C128.02,93.006,126.037,93.145,124.055,93.284z"/>
		<path fill-rule="evenodd" clip-rule="evenodd" fill="#B56D49" d="M104.013,98.131c-0.696,1.165-0.507,1.862,0.988,1.868
			c-2.035,1.606-4.337,2.613-6.886,3.063c-2.375-0.019-4.751-0.038-7.127-0.057c0.321-3.528,3.629-2.651,5.57-3.795
			c2.282-0.662,4.363-2.219,6.941-1.597C103.672,97.785,103.842,97.958,104.013,98.131z"/>
		<path fill-rule="evenodd" clip-rule="evenodd" fill="#9D5B3A" d="M144.262,92.125c-1.427-0.117-2.854-0.234-4.681-0.384
			c2.229-1.536,4.771,0.233,6.435-1.668c0.327-0.784,1.008-1.228,1.64-1.72c0.97-0.722,2.014-1.331,3.02-2.002
			c0.72-0.397,1.427-0.876,2.299-0.412c0.919,2.235-3.313,2.725-1.756,5.178C149.098,92.819,146.602,91.934,144.262,92.125z"/>
		<path fill-rule="evenodd" clip-rule="evenodd" fill="#C1744C" d="M176.156,51.725c-0.066,0.414-0.133,0.828-0.199,1.242
			c-0.151,0.06-0.4,0.209-0.44,0.166c-3.846-4.185-9.351-4.493-14.294-6.136c-1.162-1.254-1.466-2.804-1.563-4.432
			c0.068-3.663-0.279-7.329,0.083-10.992c0.693-1.184,0.407-4.325,3.1-1.579C166.702,37.592,171.573,44.57,176.156,51.725z"/>
		<path fill-rule="evenodd" clip-rule="evenodd" fill="#EDBC90" d="M137.189,5.863c2.615,0.296,4.929,1.254,6.827,3.119
			c1.328,2.578,3.901,3.804,6.017,5.532c2.077,2.204,4.3,4.332,4.021,7.76c-0.621,2.827-2.174,5.462-5.127,5.118
			c-3.034-0.354-5.97-2.055-6.376-5.866c1.302-2.194,3.387,0.582,5.057-0.944c-1.264-4.298-5.344-5.854-8.466-8.313
			c-1.5-1.182-3.735-1.588-4.02-3.995C135.318,7.045,135.132,5.487,137.189,5.863z"/>
		<path fill-rule="evenodd" clip-rule="evenodd" fill="#EDBC99" d="M137.189,5.863c-1.286,0.71-1.181,1.948-1.191,3.143
			c-2.151,1.841-4.522,1.009-6.567,0.115c-9.14-3.991-18.646-5.473-28.548-4.763c-0.821,0.059-1.646-0.14-2.442-0.396
			c-0.821-0.383-1.596-0.803-1.4-1.925c5.688-0.044,11.375-0.088,17.063-0.133c2.307,0.005,4.612,0.01,6.918,0.015
			C126.427,3.168,132.208,2.876,137.189,5.863z"/>
		<path fill-rule="evenodd" clip-rule="evenodd" fill="#C98061" d="M153.033,21.95c0.247-3.221-2.476-4.749-3.977-6.974
			c-0.054-1.812,0.969-1.524,2.079-1.067c6.054,3.796,9.358,9.593,11.707,16.085c-1.138-0.628-1.904-0.568-1.856,1.002
			c-4.059-0.392-3.34-5.006-5.932-6.688c-0.424-0.462-0.847-0.932-1.221-1.437C153.572,22.562,153.306,22.254,153.033,21.95z"/>
		<path fill-rule="evenodd" clip-rule="evenodd" fill="#E2A381" d="M151.136,13.909c-0.807,0.135-1.644,0.212-2.079,1.067
			c-2.013-1.719-4.787-2.796-5.04-5.994C146.39,10.625,148.763,12.267,151.136,13.909z"/>
		<path fill-rule="evenodd" clip-rule="evenodd" fill="#ECB47C" d="M164.271,74.905c-0.051,2.56-1.824,4.124-3.365,5.822
			c-1.995,1.981-3.956,4.026-7.132,3.772c-5.133,0.258-4.866-3.638-4.581-6.707c0.323-3.482-0.18-6.481-2.2-9.265
			c-0.205-0.446-0.289-0.918-0.24-1.408c2.64-2.177,5.327-0.956,6.268,1.308c1.972,4.742,5.892,5.396,9.993,6.168
			C163.463,74.577,163.883,74.68,164.271,74.905z"/>
		<path fill-rule="evenodd" clip-rule="evenodd" fill="#BC7045" d="M176,57.99c-0.003,1.005-0.006,2.01-0.01,3.014
			c-2.93,1.547-4.159,4.563-6.058,7.003c-3.218-1.93-4.439-5.22-5.763-8.441c0.01-0.469,0.103-0.925,0.263-1.366
			c0.543-0.993,1.313-1.843,1.847-2.848c1.41-2.173,2.782-1.522,4.443-0.16C172.258,56.451,173.429,58.613,176,57.99z"/>
		<path fill-rule="evenodd" clip-rule="evenodd" fill="#E1A172" d="M147.015,67.979c3.878,1.991,4.382,5.194,3.496,9.096
			c-0.717,3.156-0.916,6.296,3.529,6.941c0.277,0.25,0.351,0.47,0.218,0.659c-0.121,0.175-0.238,0.262-0.353,0.262
			c-0.311,0.334-0.621,0.668-0.931,1.002c-0.637,0.383-1.272,0.766-1.908,1.148c-5.541-0.716-4.96-5.139-5.421-8.934
			c-0.025-2.429-0.045-4.859,0.093-7.29c0.068-0.821,0.274-1.603,0.688-2.321C146.62,68.354,146.817,68.166,147.015,67.979z"/>
		<path fill-rule="evenodd" clip-rule="evenodd" fill="#CE8051" d="M164.992,58.997c1.647,3.004,3.294,6.007,4.941,9.01
			c0.017,0.648,0.051,1.296,0.048,1.943c-0.006,1.471,0.085,3.167-1.695,3.606c-2.052,0.507-1.848-1.825-2.844-2.731
			c-0.95,1.225,0.136,3-1.172,4.08c0.001,0-0.448,0.168-0.448,0.168c-1.303-1.405-1.138-3.177-1.236-4.886
			c0.086-2.115-0.116-4.213-0.267-6.324C162.175,61.825,162.083,59.5,164.992,58.997z"/>
		<path fill-rule="evenodd" clip-rule="evenodd" fill="#9D5B3A" d="M153.905,84.938c0.058-0.305,0.103-0.612,0.134-0.921
			c2.289-1.096,4.578-2.19,6.867-3.287C159.112,83.029,158.327,87.007,153.905,84.938z"/>
		<path fill-rule="evenodd" clip-rule="evenodd" fill="#F5CEA3" d="M97.04,2.037c0.317,0.327,0.634,0.654,0.951,0.981
			c1.909,2.463,0.503,4.427-0.954,6.387c-0.738,0.79-1.592,1.251-2.711,0.925C88.635,7.754,82.52,7.826,76.465,7.51
			c-0.164-0.175-0.326-0.353-0.488-0.53c4.866-3.056,10.967-2.083,15.913-4.878c1.352-0.047,2.704-0.096,4.057-0.144
			C96.311,1.983,96.676,2.011,97.04,2.037z"/>
		<path fill-rule="evenodd" clip-rule="evenodd" fill="#C87B4E" d="M176,57.99c-3.054,3.039-4.086-1.142-6.051-1.842
			c-1.116-0.397-1.744-2.712-2.955-0.146c-3.692-1.234-2.954-5.484-5.236-7.683c-0.109-0.488-0.01-0.933,0.292-1.331
			c1.985-0.355,3.916,1.597,6.078-0.309c1.521-1.341,2.707,0.508,3.459,1.691c1.171,1.842,2.425,3.526,4.371,4.596
			C175.972,54.642,175.985,56.315,176,57.99z"/>
		<path fill-rule="evenodd" clip-rule="evenodd" fill="#C67A51" d="M97.013,100.021c-1.67,1.677-4.664,0.683-6.024,2.985
			c-0.708-0.03-1.415-0.061-2.125-0.092c-2.832-3.015-6.004-5.449-10.106-6.558c-2.176-0.587-4.564-0.997-5.762-3.35
			c0.203-0.169,0.406-0.337,0.609-0.507C81.946,93.326,89.733,95.884,97.013,100.021z"/>
		<path fill-rule="evenodd" clip-rule="evenodd" fill="#CC7F5C" d="M22.964,67.033c0.675-0.009,1.351-0.017,2.026-0.024
			c4.606,1.585,9.097,3.564,13.781-0.195c1.773-1.425,3.179,0.885,4.66,1.738c0.649,0.27,1.267,0.594,1.85,0.987
			c0.573,0.438,1.012,0.979,1.263,1.661c-0.939,3.483-0.082,5.761,3.877,6.415c1.408,0.233,2.596,1.298,2.935,2.917
			c-0.023,0.728-0.367,1.305-0.854,1.813c-2.127,2.041-3.441-0.418-5.108-0.905c-1.978,0.606-1.544,2.634-2.29,3.945
			c-1.173,2.064-2.337,3.907-5.134,3.497c-1.219-0.267-2.311-0.732-2.958-1.891c-1.341-1.659-2.682-3.319-4.022-4.979
			c2.257-2.254-0.717-3.278-1.299-4.721c-1.655-4.095-4.908-6.46-9.402-6.91c-2.104-0.109-4.206-0.086-6.304-0.038
			c-2.285-0.271-3.333,1.786-5.005,2.669c-1.144-1.181-2.379-2.373-1.198-4.178c1.067-1.632,2.488-1.305,4.248-1.108
			C16.978,68.057,20.126,68.9,22.964,67.033z"/>
		<path fill-rule="evenodd" clip-rule="evenodd" fill="#E0986F" d="M15.008,69.01c2.661,0.005,5.321,0.01,7.981,0.015
			c1.686,1.329,3.737,2.132,5.353,3.523c1.617,1.393,3.485,2.951,1.031,5.241c-2.067,0.705-3.874,2.787-6.375,1.215
			c-3.217-1.276-6.462-2.501-9.009-4.987C12.977,72.072,15.529,70.854,15.008,69.01z"/>
		<path fill-rule="evenodd" clip-rule="evenodd" fill="#BE724A" d="M37.013,86.991c0.996,0.337,1.991,0.673,2.987,1.01
			c2.392,2.103,6.407-0.576,8.359,2.835c0.283,0.799,0.216,1.541-0.359,2.199c-8.147-0.369-14.904-3.998-21.081-8.988
			C30.637,83.812,33.539,86.382,37.013,86.991z"/>
		<path fill-rule="evenodd" clip-rule="evenodd" fill="#D58B69" d="M28.991,77.015c1.905-2.388-0.731-3.068-1.747-4.097
			c-1.34-1.355-3.409-1.949-4.254-3.894c6.75,0.966,9.416,6.255,11.935,11.532c0.995,2.085-1.142,1.135-1.935,1.455
			c-1.337-0.658-2.346-1.647-3.013-2.982C29.447,78.457,28.416,78.129,28.991,77.015z"/>
		<path fill-rule="evenodd" clip-rule="evenodd" fill="#D98F66" d="M15.008,69.01c1.03,1.947-0.732,3.326-1.019,5.007
			c-1.097-0.054-2.28,0.148-3.009-1.005C11.294,70.644,12.596,69.268,15.008,69.01z"/>
		<path fill-rule="evenodd" clip-rule="evenodd" fill="#CF845C" d="M28.991,77.015c0.329,0.672,0.658,1.343,0.987,2.014
			c-2.326-0.222-4.669,4.383-6.98-0.024C24.996,78.341,26.993,77.678,28.991,77.015z"/>
		<path fill-rule="evenodd" clip-rule="evenodd" fill="#F3C983" d="M26.992,62.018c0.377-0.954,1.041-1.625,1.992-2.011
			c0.297-0.348,0.666-0.587,1.097-0.735c1.782-0.173,3.534,0.272,5.31,0.247c2.627,0.247,5.254,0.573,7.851-0.214
			c0.393-0.195,0.789-0.38,1.174-0.588c2.049-0.906,2.129-4.229,5.019-4.103c2.232,4.189,0.441,7.806-5.337,10.813
			c-0.442,0.188-0.904,0.326-1.37,0.438c-1.785,0.371-3.76-0.243-5.375,1.041c-0.856,0.472-1.737,0.875-2.718,1.021
			C30.917,67.471,27.647,66.431,26.992,62.018z"/>
		<path fill-rule="evenodd" clip-rule="evenodd" fill="#E5A376" d="M26.992,62.018c1.959,2.809,4.478,4.722,8.013,5.008
			c-3.017,4.501-6.005,0.709-9.004-0.031c-2.656-4.651-7.171-6.117-12.021-7.01C18.837,57.338,23.134,58.273,26.992,62.018z"/>
		<path fill-rule="evenodd" clip-rule="evenodd" fill="#E6A075" d="M23.973,50.035c2.024-0.027,4.048-0.054,6.072-0.081
			c0.284,0.039,0.568,0.08,0.851,0.123c0.624,1.529-0.806,1.727-1.536,2.385c-0.383,0.217-0.785,0.389-1.198,0.539
			c-1.081,0.507-2.595,0.29-3.035,1.85c-2.807,0.962-3.759-1.525-5.524-2.519C20.74,50.373,23.04,51.666,23.973,50.035z"/>
		<path fill-rule="evenodd" clip-rule="evenodd" fill="#E6A075" d="M30.012,59.983c-0.342,0.008-0.685,0.016-1.028,0.023
			c-0.736-1.826-3.651-2.354-2.988-5.014c1.205-2.546,3.499-2.039,5.623-2.018c0.521,0.123,0.996,0.354,1.421,0.681
			C34.528,56.956,31.681,58.188,30.012,59.983z"/>
		<path fill-rule="evenodd" clip-rule="evenodd" fill="#BC724C" d="M32.024,53.918c-2.037,0.203-4.161-0.081-6.028,1.075
			c-0.292-0.039-0.582-0.086-0.869-0.142c0.108-0.685-2.691-1.045-0.26-1.938c1.297-0.478,2.708-0.648,4.067-0.957
			C30.199,52.24,32.029,51.635,32.024,53.918z"/>
		<path fill-rule="evenodd" clip-rule="evenodd" fill="#F8D294" d="M18.046,22.945c0.064-0.833,0.252-1.82,1.294-0.977
			c1.225,0.992,2.257,0.878,3.415,0.084c0.769-0.648,1.393-0.191,2.021,0.257c1.677,1.92,3.656,3.236,6.305,3.427
			c2.863,0.205,5.371,1.429,7.751,2.956c6.552,3.288,13.669,2.504,20.625,2.884c3.236,0.079,6.468,0.019,9.702,0.016
			c2.789,0.1,5.576-0.252,8.356-0.047c1.76,0.131,3.689,0.027,4.671,2.018c-1.565,2.449-4.11,1.773-6.331,1.855
			c-7.116,0.266-14.281-0.479-21.324,1.112c-2.127,0.798-4.283,1.241-6.524,0.468c-5.681-4.872-13.051-4.263-19.7-5.891
			c-2.934-0.718-4.25-2.921-6.225-4.545C20.69,25.415,19.39,24.155,18.046,22.945z"/>
		<path fill-rule="evenodd" clip-rule="evenodd" fill="#E39F73" d="M31.952,40.033c-4.207-1.565-7.367-4.405-9.843-8.079
			c5.589,0.658,10.564,4.578,16.571,3.112c0.451-0.109,1.443-0.342,1.325,0.775c-0.41,3.89,3.037,3.125,4.987,4.165
			c0.939,0.763,2.263,1.064,2.794,2.322c0.747,1.896,1.586,3.785,0.619,5.864c-1.412,1.69-2.942,1.832-4.594,0.353
			C42.469,42.079,36.283,42.346,31.952,40.033z"/>
		<path fill-rule="evenodd" clip-rule="evenodd" fill="#F2C596" d="M48.009,36.998c1.854-1.198,3.938-1.01,5.993-0.997
			c8.17,2.824,17.311,0.36,25.222,4.617c1.202,0.388,2.664,0.454,2.777,2.207c-1.154,1.605-2.931,1.922-4.69,2.273
			c-6.916-0.273-13.765-1.382-20.679-1.805c-3.307-0.076-6.463-0.425-7.632-4.291C48.669,38.334,48.339,37.666,48.009,36.998z"/>
		<path fill-rule="evenodd" clip-rule="evenodd" fill="#EBB389" d="M48.999,39.003c2.297,1.986,4.7,3.692,8.001,3
			c-3.565,4.693-6.729,4.695-10.006,0.008c-0.667-0.668-1.335-1.336-2.002-2.004C46.328,39.673,47.663,39.338,48.999,39.003z"/>
		<path fill-rule="evenodd" clip-rule="evenodd" fill="#D78E6C" d="M24.08,23.063c-0.44-0.337-0.88-0.674-1.322-1.011
			c0.082-0.198,0.161-0.398,0.235-0.601c-1.244-2.8-3.539-4.781-5.479-7.041c-0.682-1.377-2.646-2.273-1.609-4.292
			c0,0,0.185-0.223,0.185-0.224c3.478,3.386,7.062,6.673,10.36,10.225c0.889,0.956,1.641,0.703,2.521,0.821
			c2.954-1.174,5.215-0.577,6.491,2.543c0.09,1.705-0.953,2.276-2.419,2.428C29.799,25.772,26.711,25.135,24.08,23.063z"/>
		<path fill-rule="evenodd" clip-rule="evenodd" fill="#A15B3E" d="M18.074,13.886c2.585,1.905,4.351,4.345,4.919,7.564
			c-2.036-2.106-4.073-4.215-6.109-6.323C16.568,14.031,17.09,13.737,18.074,13.886z"/>
		<path fill-rule="evenodd" clip-rule="evenodd" fill="#B6714D" d="M18.074,13.886c-0.396,0.414-0.793,0.827-1.19,1.241
			c-0.958-1.712-1.917-3.425-2.875-5.138c0.707-1.074,1.276-0.084,1.896,0.128C15.972,11.752,17.364,12.623,18.074,13.886z"/>
		<path fill-rule="evenodd" clip-rule="evenodd" fill="#CD855D" d="M31.952,40.033c8.846,0.045,10.879,1.387,12.058,7.958
			c0.918,1.357,1.331,2.792,0.671,4.389c-2.396,2.146-3.147-1.327-4.892-1.428c-1.073-0.71-1.845-1.594-1.691-2.995
			c-0.063-0.977-0.127-1.954-0.19-2.931c-0.388-2.256-2.176-2.089-3.804-2.2C32.652,42.461,31.921,41.541,31.952,40.033z"/>
		<path fill-rule="evenodd" clip-rule="evenodd" fill="#6F3117" d="M38.098,47.957c0.635,0.68,1.27,1.36,1.904,2.041
			c2.368,2.963,4.358,6.115,4.968,9.956c-0.327,0.105-0.653,0.21-0.98,0.314c-1.361,0.385-2.754,0.148-4.126,0.218
			c-2.582-1.16,0.362-3.482-1.04-4.892c-0.346-1.637-1.656-2.899-1.798-4.613c-0.76-2.006-3.25-2.759-3.811-5.43
			C35.027,46.444,36.563,47.2,38.098,47.957z"/>
		<path fill-rule="evenodd" clip-rule="evenodd" fill="#995836" d="M37.026,50.981c1.691,0.839,2.236,2.471,2.817,4.077
			c-1.908,1.211-3.758,0.083-5.632-0.134c-0.441-0.21-0.861-0.457-1.266-0.731c-0.298-0.122-0.605-0.213-0.921-0.274
			c-1.029-0.655-2.059-1.309-3.089-1.963c0,0,0.032-0.002,0.032-0.002c2.166-1.395,4.668-0.2,6.925-0.898
			C36.271,51.031,36.648,51.006,37.026,50.981z"/>
		<path fill-rule="evenodd" clip-rule="evenodd" fill="#DA946A" d="M34.104,42.826c3.105-1.879,4.459,0.852,6.442,2.225
			c-1.089,1.375-1.808-0.076-2.638-0.024C36.64,44.293,35.372,43.56,34.104,42.826z"/>
		<path fill-rule="evenodd" clip-rule="evenodd" fill="#BC724C" d="M35.892,51.056c-2.106,1.857-4.617,0.595-6.925,0.898
			c0.643-0.626,1.287-1.252,1.929-1.877C32.71,49.643,34.213,50.801,35.892,51.056z"/>
		<path fill-rule="evenodd" clip-rule="evenodd" fill="#CA7C51" d="M27.073,47.104c-0.602-2.842,1.574-1.833,2.857-2.062
			C32.002,49.922,27.589,45.813,27.073,47.104z"/>
		<path fill-rule="evenodd" clip-rule="evenodd" fill="#B26A42" d="M47.999,93.035C48,92.357,48,91.679,48.001,91.001
			c-0.038-1.584,0.748-2.763,1.854-3.789c1.982-1.347,4.006-1.892,6.129-0.291c0.246,0.429,0.326,0.888,0.225,1.374
			c-1.141,2.455,0.629,7.572-5.226,5.742C49.897,93.975,48.725,94.17,47.999,93.035z"/>
		<path fill-rule="evenodd" clip-rule="evenodd" fill="#9A5733" d="M50.983,94.037c2.346-0.146,4.54-0.342,3.273-3.746
			c-0.524-1.408,0.297-2.178,1.743-2.281c1.793,0.19,3.351,0.618,3.014,2.97c-2.194,1.08-1.937,5.822-6.043,4.047
			c-0.651-0.025-1.303-0.051-1.954-0.077C51.005,94.645,50.994,94.341,50.983,94.037z"/>
		<path fill-rule="evenodd" clip-rule="evenodd" fill="#AB653E" d="M59.014,90.979c-1.005-0.99-2.009-1.98-3.014-2.97l0-0.043
			c0.673-0.771,1.544-0.853,2.479-0.716c0.44,0.089,0.866,0.228,1.28,0.393c4.656,0.846,3.638-4.199,5.973-5.757
			c0.43-0.222,0.88-0.282,1.354-0.189c1.152,0.616,1.661,1.623,1.762,2.876c0.01,0.452-0.042,0.903-0.135,1.345
			c-0.509,1.434-0.532,2.942-0.623,4.44c-0.026,0.212-0.056,0.424-0.085,0.636c0.02,2.207-0.523,3.623-3.163,2.427
			C62.925,92.551,60.959,91.789,59.014,90.979z"/>
		<path fill-rule="evenodd" clip-rule="evenodd" fill="#63260E" d="M67.956,85.983c0.05-0.305,0.094-0.61,0.131-0.918
			c0.581-0.338,1.061-0.229,1.441,0.327c0.994,1.985,0.914,3.867-0.548,5.613c0,0,0.024-0.023,0.024-0.024
			c-0.333,0.008-0.666,0.012-0.999,0.013v0.003C67.226,89.333,67.298,87.661,67.956,85.983z"/>
		<path fill-rule="evenodd" clip-rule="evenodd" fill="#E49F75" d="M59.095,32.934c-6.234-0.632-12.467-1.276-18.704-1.885
			c-1.279-0.124-2.271-0.491-2.446-1.946c0.334-0.413,0.763-0.663,1.286-0.755c0.512-0.056,1.019-0.022,1.521,0.085
			c3.291,1.161,6.58,2.337,10.12,2.497c0.662-0.397,3.695,1.194,1.57-1.502c-2.766-3.511-1.292-6.396,0.535-9.443
			c0.012,0.339,0.024,0.679,0.037,1.018c3.39,2.399,7.269,1.472,10.992,1.599c1.82,0.007,3.639,0.001,5.447,0.231
			c3.16,1.874,6.301-1.707,9.465-0.054c2.58,3.148,6.195,3.91,9.879,3.604c4.011-0.333,7.558,0.809,11.033,2.373
			c4.747,2.136,5.394,4.395,3.053,9.516c-2.114,1.166-3.661-0.464-5.469-1.031c-2.488-0.781-4.889-3.04-7.728-0.849
			c-0.886,0.482-1.821,0.502-2.782,0.336c-1.801-0.622-4.025-0.481-4.938-2.716c-4.181-2.191-8.687-0.371-12.99-1.057
			c-0.2-2.007,1.275-1.148,2.113-1.532C67.144,32.195,63.062,32.007,59.095,32.934z"/>
		<path fill-rule="evenodd" clip-rule="evenodd" fill="#B26C4E" d="M50.873,30.93c-3.795,0.279-7.482-0.069-10.916-1.883
			c0.164-0.436,0.456-0.912-0.354-1.039c-1.485-0.269-3.522,0.54-3.786-2c2.371-1.985,6.135-0.769,8.15-3.568
			c0.605-0.449,1.236-0.781,2.014-0.452c0.119,0.116,0.36,0.267,0.339,0.344C44.552,28.729,44.551,28.729,50.873,30.93z"/>
		<path fill-rule="evenodd" clip-rule="evenodd" fill="#EBB684" d="M45.979,21.987c-0.334,0.322-0.668,0.645-1.001,0.968
			c-3.3,1.376-6.603,2.533-9.946,0.112c-1.62-1.851-3.717-2.338-6.06-2.126c0.016-0.304,0.031-0.608,0.046-0.911
			c2.378,0.04,4.533,0.089,6.886,1.429c2.436,1.386,5.685,1.138,7.982-1.41c0.849-0.038,1.624,0.097,2.099,0.917
			C45.982,21.306,45.981,21.646,45.979,21.987z"/>
		<path fill-rule="evenodd" clip-rule="evenodd" fill="#EEBD89" d="M63.99,23.964c-2.588,0.012-5.181-0.057-7.765,0.059
			c-2.208,0.098-3.427-0.644-3.21-3.021c2.958-1.631,4.471-4.604,6.57-7.037c1.411-1.636,3.194-2.732,5.409-2.972
			c0.644,1.957-0.969,2.857-1.924,4.046c-1.074,1.338-2.72,2.396-1.992,4.51C61.327,21.495,64.319,21.644,63.99,23.964z"/>
		<path fill-rule="evenodd" clip-rule="evenodd" fill="#F6CF9E" d="M60.008,19.988c-1.417-1.957-0.33-3.252,1.075-4.617
			c1.4-1.36,2.615-2.911,3.911-4.378C66.33,10.328,67.665,9.664,69,9c2.197-1.119,4.358-2.362,6.978-2.021l0.043,0.05
			c-1.231,3.313-4.805,3.494-7.181,5.277c-1.837,1.379-3.521,2.502-2.55,5.137C64.84,19.885,62.737,20.71,60.008,19.988z"/>
		<path fill-rule="evenodd" clip-rule="evenodd" fill="#D88E6C" d="M26.001,66.994c3.004-0.781,5.994,2.654,9.004,0.031
			c0.668-0.345,1.336-0.689,2.004-1.034c1.853-0.964,3.841-0.266,5.758-0.469c3.242,1.3,1.503,2.888,0.258,4.447
			c-1.895-1.594-3.114-3.154-6.234-0.772c-3.953,3.018-8.304,1.046-11.801-2.189C25.327,67.004,25.664,66.999,26.001,66.994z"/>
		<path fill-rule="evenodd" clip-rule="evenodd" fill="#DF9B76" d="M72.995,93.007c-0.967-0.691-1.934-1.382-2.9-2.073l-0.051,0.032
			c-0.682-0.602-0.521-1.33-0.31-2.066c1.539-2.349,3.404-1.555,5.296-0.56c1.155,0.922,2.43,1.787,1.977,3.595
			c-1.109,1.219-2.776,0.021-3.963,0.909L72.995,93.007z"/>
		<path fill-rule="evenodd" clip-rule="evenodd" fill="#8A4B2B" d="M70.16,88.92c-0.039,0.683-0.078,1.364-0.117,2.046
			c-0.354,0.014-0.708,0.027-1.063,0.04c-0.012-1.979-0.023-3.957-0.035-5.937c-0.187-1.278,0.404-1.374,1.37-0.897
			C71.475,85.795,70.951,87.362,70.16,88.92z"/>
		<path fill-rule="evenodd" clip-rule="evenodd" fill="#C37E58" d="M146.964,70.03c-0.003,2.65-0.006,5.302-0.009,7.953
			c-1.936,3.911,1.016,7.34,1.093,11.053c-0.678,0.345-1.355,0.69-2.032,1.036c-2.674-0.476-0.751-2.33-1.003-3.509
			c-0.396-1.855,0.65-3.962-0.969-5.621c-1.297-3.948-3.148-7.56-6.307-10.378c0.867-2.318,2.996-2.685,5.003-3.24
			c0.449-0.013,0.89,0.063,1.317,0.2C145.285,68.053,146.091,69.08,146.964,70.03z"/>
		<path fill-rule="evenodd" clip-rule="evenodd" fill="#995E40" d="M137.95,70.039c4.064,2.498,7.163,5.537,6.094,10.903
			c-0.32,0.357-0.641,0.716-0.961,1.073c-1.113-1.638-0.39-3.259-0.465-4.586c-1.234,0.99,1.286,3.844-1.363,4.797
			c-1.284-0.765-1.362-2.065-1.498-3.34c-0.128-1.318,0.175-2.702-0.571-3.931c-0.808-1.131-1.994-1.521-3.302-1.683
			c-1.213-0.211-2.47-0.315-3.249-1.474c-0.313-1.273,0.24-2.081,1.375-2.586C135.465,68.817,136.835,68.825,137.95,70.039z"/>
		<path fill-rule="evenodd" clip-rule="evenodd" fill="#7A3E24" d="M141.043,82.026c1.66-1.304,0.416-3.425,1.363-5.219
			c1.102,1.819,0.411,3.577,0.676,5.208c-0.949,1.388-1.251,3.277-3.081,3.984c-0.364-0.351-0.728-0.702-1.091-1.053
			c-0.28-0.287-0.437-0.629-0.453-1.032c0.101-0.612,0.43-1.076,0.923-1.436C139.889,82.166,140.436,81.982,141.043,82.026z"/>
		<path fill-rule="evenodd" clip-rule="evenodd" fill="#CB815C" d="M127.146,90.08c-1.077,0.617-2.154,1.233-3.231,1.851
			c-3.29-0.25-6.548,1.688-9.856,0.145c-0.1-0.209-0.199-0.418-0.301-0.628c1.149-3.655,4.997-4.537,7.244-7.063
			c0.815-0.761,1.705-1.43,2.61-2.082c1.111-0.764,2.215-1.547,3.604-1.738c0.468,0.031,0.878,0.203,1.234,0.507
			c1.317,1.674,1.006,3.278-0.299,4.761C127.041,87.09,126.106,88.337,127.146,90.08z"/>
		<path fill-rule="evenodd" clip-rule="evenodd" fill="#CB815C" d="M114.058,92.075c-2.887,2.784-6.335,4.635-10.045,6.055
			c0,0.001,0.007-0.247,0.007-0.247c1.68-5.767,4.898-7.693,9.934-5.946L114.058,92.075z"/>
		<path fill-rule="evenodd" clip-rule="evenodd" fill="#DC946B" d="M127.146,90.08c-2.824-0.083-3.886-0.947-1.415-3.286
			c1.674-1.583,3.483-3.082,2.26-5.783c1.573-2.222,3.41-4.301,6.416-3.598c3.276,0.766,3.617,3.912,4.466,6.541
			c0.013,0.331,0.025,0.662,0.038,0.993C134.977,86.631,131.472,89.296,127.146,90.08z"/>
		<path fill-rule="evenodd" clip-rule="evenodd" fill="#DA916D" d="M113.953,91.937c-4.933-0.724-7.391,2.685-9.934,5.947
			c-2.336,0.711-4.671,1.424-7.007,2.137c-7.99-2.392-15.98-4.782-23.97-7.175c1.108-1.282,2.614-0.711,3.965-0.854
			c0.237-0.039,0.475-0.079,0.712-0.122c3.565-0.411,7.08,1.801,10.669,0.188c1.266-0.306,2.556-0.361,3.848-0.428
			c7.851-3.066,17.012-1.253,24.271-6.642c1.599-1.186,3.656-1.58,5.483-0.003C119.645,87.688,115.966,88.849,113.953,91.937z"/>
		<path fill-rule="evenodd" clip-rule="evenodd" fill="#CA8B5F" d="M148.048,89.036c-2.48-3.476-3.227-7.121-1.093-11.053
			c-0.535,3.895,0.836,6.929,4.11,9.104C150.06,87.737,149.054,88.387,148.048,89.036z"/>
		<path fill-rule="evenodd" clip-rule="evenodd" fill="#DD9274" d="M162.05,46.989c-0.018,0.336-0.035,0.673-0.053,1.009
			c-2.189,2.273-4.701-0.583-6.973,0.45c-0.465,0.061-0.92,0.018-1.371-0.099c-2.806-1.226-5.543-2.549-7.363-5.178
			c-3.429-6.061-3.177-6.993,1.716-11.762c1.993-1.943,3.842-4.142,5.07-6.731c0.444-0.832,0.269-1.873,0.895-2.642
			c0.346,0.32,0.692,0.642,1.038,0.963c1.22,6.9,4.922,13.062,5.971,20.013C160.872,44.463,161.276,45.775,162.05,46.989z"/>
		<path fill-rule="evenodd" clip-rule="evenodd" fill="#D2835E" d="M160.979,43.013c-2.186-6.612-7.326-12.344-5.971-20.013
			c3.381,1.627,3.319,5.829,5.978,7.996C160.984,35.001,160.982,39.007,160.979,43.013z"/>
		<path fill-rule="evenodd" clip-rule="evenodd" fill="#F3CA9A" d="M96.018,9.034c1.27-1.805,2.434-3.645,1.974-6.017
			c2.475-0.004,4.992,0.286,7.416-0.065c8.896-1.29,16.773,2.187,24.817,4.97c1.866,0.646,3.735,1.328,5.773,1.083
			c4.344,2.796,9.28,4.868,12.164,9.479c0.716,1.145,2.23,2.572,1.102,3.931c-1.122,1.35-2.729,0.282-4.062-0.326
			c-0.746-0.342-1.48-0.71-2.22-1.066c-1.345,1.198-2.804,0.74-4.264,0.306c-1.178-0.368-2.25-0.942-3.24-1.672
			c-3.651-2.751-6.751-5.237-12.404-4.152c-4.135,0.794-9.462-1.397-12.607-5.66c-2.328-3.155-4.981-3.58-8.05-1.081
			c-0.839,0.575-1.73,1.025-2.736,1.226C98.323,10.19,97.048,10.076,96.018,9.034z"/>
		<path fill-rule="evenodd" clip-rule="evenodd" fill="#E6AC87" d="M138.993,20.018c1.254,0.637,2.54,1.143,3.989,1.004
			c0.726,3.358,3.671,4.842,6.261,5.413c1.671,0.369,3.504-2.093,3.789-4.483c0.313,0.027,0.626,0.057,0.939,0.085
			c0.002,0.989,0.005,1.979,0.008,2.968c-1.068,1.671-2.396,3.139-3.982,4.293c-3.042,2.212-5.692,1.904-7.219-1.482
			C141.588,25.173,137.493,23.901,138.993,20.018z"/>
		<path fill-rule="evenodd" clip-rule="evenodd" fill="#E4A375" d="M147.008,66.99c-0.004,0.33-0.002,0.66,0.006,0.989
			c0.001,0-0.029,0.042-0.029,0.042c-0.998,0.826-1.997,0.678-2.997,0.005l-0.006-0.006c-8.809-3.817-17.726-7.47-23.752-15.545
			c-0.837-1.792-2.16-3.393-2.214-5.504c0.273-2.819,1.398-4.931,4.499-5.396c0.774,0.077,1.403,0.45,1.956,0.971
			c0.696,5.108,3.987,8.331,8.045,10.991c1.853,2.091,4.156,3.457,6.816,4.253c0.693,0.163,1.359,0.396,1.992,0.725
			C144.193,60.686,147.334,62.678,147.008,66.99z"/>
		<path fill-rule="evenodd" clip-rule="evenodd" fill="#F6CD89" d="M147.008,66.99c-1.531-3.018-3.838-5.45-6.012-7.983
			c3.111-2.228,5.464-0.648,7.498,1.659c1.926,2.184,2.048,0.185,2.608-0.971c3.821-0.791,6.352,2.091,9.474,3.295
			c3.068,1.46,2.712,4.496,3.27,7.112c-0.007,1.656-0.014,3.313-0.022,4.97c-0.781,0.397-1.447,2.108-2.335,1.001
			c-2.208-2.756-4.466-1.59-6.797-0.224C153.976,69.402,152.197,67.424,147.008,66.99z"/>
		<path fill-rule="evenodd" clip-rule="evenodd" fill="#DE996C" d="M163.846,70.103c-1.297-2.025-0.895-5.116-3.833-6.112
			c-0.877-1.594-2.158-2.921-2.999-4.543c-0.462-0.836-0.856-1.702-1.211-2.589c-0.546-2.964-4.396-5.26-1.804-8.857
			c0.339-0.001,0.678-0.003,1.018-0.004c5.007,1.692,8.434,4.965,10.047,10.051c-0.018,0.316-0.042,0.634-0.071,0.949
			C161.706,62.399,164.957,66.477,163.846,70.103z"/>
		<path fill-rule="evenodd" clip-rule="evenodd" fill="#D4855C" d="M165.063,58.048c-2.94-3.759-6.312-7.087-10.048-10.051
			c0.158-1.339,0.757-2.318,2.088-1.234c1.509,1.229,3.152,1.272,4.894,1.235c3.674,1.415,2.811,5.662,4.997,8.005
			C166.979,57.277,166.325,57.949,165.063,58.048z"/>
		<path fill-rule="evenodd" clip-rule="evenodd" fill="#D78C61" d="M143.987,68.026c0.999-0.002,1.998-0.004,2.997-0.005
			c-0.007,0.669-0.013,1.339-0.02,2.008C145.546,69.994,144.553,69.328,143.987,68.026z"/>
		<path fill-rule="evenodd" clip-rule="evenodd" fill="#FCE1AD" d="M66.001,17.002c-3.703-1.63-1.459-3.354,0.198-4.438
			c3.139-2.051,6.532-3.713,9.82-5.536C81.801,5.223,87.347,7.513,93,7.978c1.703,0.14,1.286,1.052,1.007,2.029
			c-0.154,0.191-0.309,0.382-0.46,0.576c-6.331,2.459-13.093,3.489-19.446,5.869c-0.44,0.177-0.896,0.308-1.357,0.416
			c-1.82,0.325-3.68,0.321-5.506,0.633C66.755,17.51,66.343,17.341,66.001,17.002z"/>
		<path fill-rule="evenodd" clip-rule="evenodd" fill="#E9B08C" d="M96.018,9.034c1.327-0.007,2.655-0.013,3.983-0.019
			c-0.037,2.74-2.677,3.027-4.203,4.274c-2.423,1.98-4.847,3.959-7.198,6.025c-0.749,0.522-1.562,0.926-2.401,1.274
			c-0.409,0.164-0.835,0.281-1.267,0.37c-1.979,0.058-3.654,0.951-5.289,1.956c-0.211,0.035-0.424,0.066-0.636,0.097
			c-3.108-0.643-5.69,3.529-9.007,0.984c1.335-3.332,4.315-5.173,7.335-5.792c4.312-0.885,7.509-3.313,10.889-5.662
			c1.861-0.993,3.885-1.62,5.783-2.534v-0.002C94.828,9.995,95.569,9.817,96.018,9.034z"/>
		<path fill-rule="evenodd" clip-rule="evenodd" fill="#CC8163" d="M53,81c-0.623-1.558-2.049-2.465-3.435-2.588
			c-5.559-0.493-5.422-3.48-3.564-7.408c0.606-0.338,1.373-0.485,1.847-0.082c3.59,3.053,7.854,2.433,12.032,2.314
			c2.589,0.748,4.8,0.089,6.677-1.806c1.083-0.988,2.261-1.867,3.583-2.481c1.923-0.894,3.968-1.423,4.388,1.561
			c0.392,2.78,2.36,0.528,3.347,1.26c0.383,0.335,0.607,0.752,0.683,1.255c-0.023,1.098-0.556,1.946-1.292,2.702
			c-1.63,1.464-3.558,2.251-5.717,2.522c-4.605,0.361-9.047,1.502-13.458,2.801C56.396,81.549,54.682,82.499,53,81z"/>
		<path fill-rule="evenodd" clip-rule="evenodd" fill="#C47A58" d="M53,81c6.377-1.307,12.412-4.284,19.131-3.922
			c-0.307,3.092-2.861,3.855-5.111,4.935l-0.499-0.005l-0.5,0.007c-2.146,2.231-3.339,5.577-7.027,6.001l-0.002-0.006
			c-2.907-1.333-6.185-2.232-6.992-6.009C52.333,81.668,52.667,81.334,53,81z"/>
		<path fill-rule="evenodd" clip-rule="evenodd" fill="#D88E6C" d="M59.994,74.006c-5.232,1.643-9.865,0.496-13.994-3.002
			c-0.332-0.345-0.664-0.69-0.996-1.035c-0.339-2.396,1.396-2.946,2.968-2.54c2.331,0.603,4.458-0.52,6.685-0.224
			c1.564,0.429,3.192-0.012,4.766,0.333C61.696,69.51,60.874,71.755,59.994,74.006z"/>
		<path fill-rule="evenodd" clip-rule="evenodd" fill="#E4A07A" d="M55.002,67.991c-2.625-0.071-5.104,2.623-7.942,0.251
			c-0.537-0.449-1.604,0.817-2.056,1.728c-0.66,0-1.32,0-1.979,0.001c-0.364-1.327,1.758-2.677-0.037-3.989
			c-0.321-0.222-0.426-0.44-0.315-0.656c0.109-0.214,0.218-0.321,0.328-0.321L43.003,65c2.709-0.634,5.37-1.412,7.851-2.714
			c2.653-0.462,5.56-2.551,7.589,1.138C58.468,65.826,56.708,66.888,55.002,67.991z"/>
		<path fill-rule="evenodd" clip-rule="evenodd" fill="#C67A53" d="M50,88c-0.667,1-1.333,2.001-2,3.001
			c-2.125-2.446-6.5,1.107-8.001-3c4.205-0.042,4.458-3.466,4.888-6.247c0.375-2.426,1.107-2.877,3.116-1.745
			C47.224,83.033,49.227,85.363,50,88z"/>
		<path fill-rule="evenodd" clip-rule="evenodd" fill="#BA724D" d="M50,88c-2.653-2.167-5.407-4.309-1.998-7.991
			c1.625,0.077,1.621,3.422,3.997,1.992c2.331,2.003,4.662,4.006,6.992,6.009c-0.998-0.014-1.995-0.028-2.992-0.042
			C53.99,86.103,51.996,87.119,50,88z"/>
		<path fill-rule="evenodd" clip-rule="evenodd" fill="#F1C187" d="M51.017,63.013c-2.004,3.353-5.298,1.503-8.013,1.987
			c3.636-2.359,7.882-4.359,5.906-10.025c-0.446-0.953,0.08-1.704,0.507-2.479c0.831-1.347,1.763-2.605,3.1-3.509
			c1.392-0.819,2.381-2.403,4.278-2.276c2.5,1.155,2.502,3.282,1.892,5.425C57.407,56.629,55.428,60.697,51.017,63.013z"/>
		<path fill-rule="evenodd" clip-rule="evenodd" fill="#B46C45" d="M49.949,52.976c-0.346,0.666-0.692,1.333-1.039,1.999
			c-1.883,1.21-1.362,4.321-3.94,4.979c-2.659-2.818-3.874-6.357-4.968-9.956c2.243-0.207,2.643,2.033,3.995,3.01
			c2.123,0.494,3.896-1.538,6.042-0.828c0.077,0.025,0.141,0.246,0.123,0.361C50.136,52.693,50.023,52.831,49.949,52.976z"/>
		<path fill-rule="evenodd" clip-rule="evenodd" fill="#DC9165" d="M32.945,54.193c0.316-0.069,0.635-0.102,0.958-0.098
			c0.411,0.281,0.895,0.334,1.358,0.47c1.542,0.45,3.576,0.696,3.76,2.563c0.212,2.157-2.21,1.911-3.461,2.745
			c-0.216,0.08-0.434,0.158-0.651,0.236c-1.667,1.265-3.268,0.014-4.897-0.127C29.811,57.456,33.07,56.682,32.945,54.193z"/>
		<path fill-rule="evenodd" clip-rule="evenodd" fill="#DC9165" d="M39.044,59.971c1.649,0.1,3.298,0.198,4.946,0.298
			c-3.052,1.329-6.078,1.272-9.081-0.159c0,0.001,0.249-0.264,0.249-0.264C36.486,58.908,37.782,58.912,39.044,59.971z"/>
		<path fill-rule="evenodd" clip-rule="evenodd" fill="#F1C187" d="M43,65.004c-0.005,0.326-0.009,0.652-0.013,0.978
			c-1.993,0.004-3.985,0.007-5.978,0.011C38.764,64.192,41.002,65.322,43,65.004z"/>
		<path fill-rule="evenodd" clip-rule="evenodd" fill="#FAD99D" d="M81.968,34.012c1.714,0.635,3.429,1.269,5.143,1.903
			c-1.681,3.385-5.997,3.246-8.104,6.062c-5.286-2.311-10.555-3.748-16.541-2.498c-3.014,0.629-5.592-2.356-8.465-3.478
			c0.13-1.086,0.516-1.857,1.82-1.861C64.537,34.113,73.253,34.058,81.968,34.012z"/>
		<path fill-rule="evenodd" clip-rule="evenodd" fill="#A66347" d="M36.01,25.985c1.751,1.821,4.015,0.675,6.018,1.042
			c0.245,2.54-2.204,0.779-2.901,1.816c-0.394,0.086-0.788,0.172-1.182,0.259c-3.168-1.289-6.403-2.257-9.82-2.735
			c-1.828-0.256-3.088-1.718-4.046-3.305c2.958,0.667,5.915,1.334,8.871,2.001C33.793,25.959,35.209,24.95,36.01,25.985z"/>
		<path fill-rule="evenodd" clip-rule="evenodd" fill="#C37452" d="M59.095,32.934c4.065-1.925,8.387-2.036,12.863-1.871
			c-0.456,1.636-2.49,0.549-2.98,1.893C65.684,32.948,62.389,32.94,59.095,32.934z"/>
		<path fill-rule="evenodd" clip-rule="evenodd" fill="#E5A183" d="M56.005,46.994c-0.682,1.34-1.654,2.38-3.061,2.973
			c-1.73-0.45-4.067,0.622-4.944-1.971c-0.335-1.995-0.67-3.99-1.006-5.985c3.338,4.073,6.672,1.67,10.006-0.008
			c2.892,0.511,6.491-2.072,8.594,1.969c0.121,0.231,0.776,0.469,0.814,0.419c3.381-4.38,7.083,0.008,10.592-0.404
			c0.531,1.148-0.147,1.832-0.944,2.475c-0.657,0.331-1.361,0.456-2.087,0.466c-5.45,0.956-6.005,1.65-7.318,9.174
			c-0.974,1.968-1.877,4.015-4.492,4.237c-3.565-2.783-1.792-7.351-3.558-10.786C57.95,48.282,58.152,46.592,56.005,46.994z"/>
		<path fill-rule="evenodd" clip-rule="evenodd" fill="#D58E68" d="M48,47.996c1.405,1.27,3.667,0.385,4.945,1.971
			c-0.999,1.003-1.997,2.006-2.996,3.009c-1.987-0.438-3.951,3.417-5.953,0.031c0.004-1.672,0.009-3.344,0.013-5.016
			C45.338,48.921,46.668,48.914,48,47.996z"/>
		<path fill-rule="evenodd" clip-rule="evenodd" fill="#DF9F7A" d="M75.993,45.979c0.336-0.664,0.672-1.328,1.008-1.993
			c1.659-0.319,3.317-0.639,4.975-0.958c0.211,0.081,0.422,0.161,0.636,0.236c1.43,1.342,3.116,1.557,4.938,1.088
			c2.299-0.591,4.467-0.299,6.524,0.875c1.999,1.446,3.994,0.787,6.066-0.007c-0.22-1.595-2.265-1.832-2.482-3.382
			c0.012-0.523,0.228-0.933,0.65-1.24c3.612-0.337,5.915,1.477,7.475,4.529c0.19,0.52,0.299,1.054,0.348,1.604
			c0.101,2.479-0.896,4.231-3.503,4.414c-3.396,0.237-6.798,1.21-10.219,0.182c-1.26-0.36-2.443-0.93-3.664-1.396
			c-3.525-1.264-7.188-1.992-10.843-2.763C77.144,46.966,76.468,46.632,75.993,45.979z"/>
		<path fill-rule="evenodd" clip-rule="evenodd" fill="#FBDDAB" d="M79.008,41.977c0.674-4.729,5.51-3.895,8.103-6.061
			c0.948,0.046,1.896,0.093,2.843,0.14c0.236,0.012,0.473,0.023,0.709,0.03c1.373,0.448,2.762,0.865,3.949,1.748
			c0.59,0.558,0.948,1.228,1.014,2.049c-2.342,5.284-6.936,6.343-13.653,3.152c0,0,0.005-0.007,0.004-0.007
			C81.294,41.812,80.094,42.055,79.008,41.977z"/>
		<path fill-rule="evenodd" clip-rule="evenodd" fill="#C67D5E" d="M36.01,25.985c-1.088-0.08-2.269,0.144-3.06-0.923
			c1.247-0.088,2.003-0.688,2.081-1.995c3.315-0.037,6.631-0.074,9.946-0.112C42.846,26.501,39.377,26.093,36.01,25.985z"/>
		<path fill-rule="evenodd" clip-rule="evenodd" fill="#B06842" d="M39.044,59.971c-1.296-0.04-2.593-0.081-3.887-0.124
			c-0.13-2.342,2.183-1.381,3.166-2.34c-0.683-2.159-3.311-1.827-4.419-3.412c2.105-0.451,3.988,0.477,5.941,0.964
			C40.575,56.858,41.179,58.638,39.044,59.971z"/>
		<path fill-rule="evenodd" clip-rule="evenodd" fill="#824528" d="M67.02,82.013c0.982-2.392,3.805-2.878,5.11-4.936
			c1.624-0.692,3.246-1.386,4.869-2.079c4.051-1.828,8.269-2.424,12.666-1.711c1.055,0.62,1.73,1.445,1.461,2.765
			c-1.809,0.916-3.836,0.114-5.7,0.627c-0.65,0.173,0.073,0.893-0.164,0.27c-0.069-0.181,0.069-0.352,0.378-0.3
			c1.872,0.317,4.206-1.474,5.565,1.203c-1.471,1.81-3.563,1.357-5.477,1.458c-4.82,0.255-9.404,1.283-13.542,3.888
			c-0.653,0.458-1.36,0.771-2.169,0.805c-0.356,0.355-0.712,0.711-1.068,1.067c-0.001,0-0.431-0.037-0.431-0.037
			s-0.43,0.033-0.43,0.033C67.731,84.048,67.375,83.03,67.02,82.013z"/>
		<path fill-rule="evenodd" clip-rule="evenodd" fill="#BA724D" d="M58.994,88.016c2.285-2.067,4.06-4.732,7.027-6.001
			c-0.609,2.31-1.039,4.653-2.929,6.437C61.434,90.016,60.134,90.315,58.994,88.016z"/>
		<path fill-rule="evenodd" clip-rule="evenodd" fill="#8A4B2B" d="M67.956,85.983c0.017,1.671,0.033,3.343,0.05,5.014
			C66.497,89.341,66.596,87.668,67.956,85.983z"/>
		<path fill-rule="evenodd" clip-rule="evenodd" fill="#D9926E" d="M85.003,20.006c0.327-0.014,0.654-0.021,0.981-0.021
			c5.869,0.464,11.754-0.859,17.651,0.393c2.004,0.426,3.442,1.056,4.3,2.833c1.811,3.753,4.864,6.237,8.271,8.433
			c2.991,1.927,5.194,4.036,2.936,8.143c-1.169,2.126-0.911,4.783-0.145,7.209c0.666,1.67,1.332,3.339,1.998,5.009
			c-0.896,1.676-2.284,1.522-3.147,0.313c-2.557-3.58-6.703-4.582-10.174-6.67c-1.106-0.391-1.932-1.122-2.551-2.103
			c-0.783-1.99-3.718-2.739-3.18-5.495c2.118-5.398,1.204-6.755-4.184-9.027c-4.991-2.105-10.29-0.342-15.254-1.976
			c-2.108-0.693-4.129-1.116-3.5-4.032c0,0,0.002-0.007,0.002-0.007C80.865,21.724,83.17,21.336,85.003,20.006z"/>
		<path fill-rule="evenodd" clip-rule="evenodd" fill="#EFBD95" d="M89.014,13.018c-3.304,2.881-6.458,5.601-11.273,6.262
			c-2.744,0.377-5.171,3.068-7.741,4.718c-2.003-0.011-4.006-0.021-6.009-0.033c-0.971-1.683-3.945-1.357-3.982-3.976
			c1.9-1.192,4.502-0.974,5.993-2.986c0.331-0.005,0.662-0.009,0.993-0.012c1.85-1.234,4.163,0.315,6-0.997l0.001-0.002
			c3.749-0.357,7.386-1.06,10.909-2.534C85.425,12.82,87.192,11.609,89.014,13.018z"/>
		<path fill-rule="evenodd" clip-rule="evenodd" fill="#C1744D" d="M101.943,38.048c1.321,1.681,2.643,3.362,3.964,5.043
			c-0.45,0.588-0.117,1.553-0.94,1.962c-1.842-2.176-4.146-3.556-6.964-4.058c-1.887,0.654-1.965-1.392-2.999-2.01
			c-0.354-0.299-0.709-0.597-1.063-0.896c-1.205-0.918-2.813-1.047-3.982-2.035c0,0-0.005,0-0.006,0.001
			c-0.444-1.503-1.896-3.736,1.687-2.23C95.062,35.264,98.508,36.643,101.943,38.048z"/>
		<path fill-rule="evenodd" clip-rule="evenodd" fill="#874730" d="M39.127,28.844c0.967-0.605,1.934-1.212,2.9-1.817
			c1.415,2.833-1.24,1.491-2.071,2.021C39.674,29.006,39.397,28.938,39.127,28.844z"/>
		<path fill-rule="evenodd" clip-rule="evenodd" fill="#ECBA7E" d="M70.015,84.002c0.37-0.316,0.74-0.633,1.111-0.949
			C74.49,81.08,78.135,80.357,82,80.604c2.755-0.037,5.497-0.181,8.25-0.406c2.586-0.211,5.635-0.619,6.896,2.819
			c-2.543,2.171-5.614,1.094-8.465,1.338c-2.747,0.234-5.552-0.395-8.239,0.568c-1.52,1.455-4.396,0.988-5.109,3.604
			c-0.125,0.173-0.255,0.341-0.385,0.508c-1.593-0.158-3.158-1.482-4.787-0.115C70.112,87.281,70.063,85.642,70.015,84.002z"/>
		<path fill-rule="evenodd" clip-rule="evenodd" fill="#EBB891" d="M92.001,93.008c-1.334,0.004-2.669,0.009-4.003,0.013
			c-3.744,0.505-7.333-0.645-10.994-1.029l0.004,0.001c-0.687-0.985-1.373-1.971-2.061-2.956c0,0,0.119-0.098,0.119-0.098
			c2.268-1.12,4.704-0.56,7.074-0.718C85.506,89.653,90.046,88.676,92.001,93.008z"/>
		<path fill-rule="evenodd" clip-rule="evenodd" fill="#D78C61" d="M107.993,45.016c3.715,1.543,8.095,2.022,10.133,6.26
			c0.689,1.432,1.702,1.318,2.869,0.728c5.963,7.777,15.648,10.212,22.986,16.018c-2.01,0.673-4.021,1.345-6.03,2.019
			c-1.318-0.016-2.637-0.03-3.954-0.045c-3.487,0.032-7.005,1.075-10.449-0.312c-1.844-1.985-0.023-3.231,0.938-4.651
			c0.554-0.566,1.594-0.347,2.085-1.404c-4.627-1.02-9.208-2.095-12.874-5.305c-2.662-2.565-4.151-5.903-5.966-9.033
			C106.963,47.812,106.733,46.365,107.993,45.016z"/>
		<path fill-rule="evenodd" clip-rule="evenodd" fill="#BF7C55" d="M123.02,69.031c3.643,0.502,7.479-1.19,10.978,0.963
			c-0.721,0.372-0.932,1.005-0.901,1.761c-1.595,1.914-3.495,1.706-5.493,0.8c-1.746-1.811-3.963-0.814-5.67-1.023
			c-0.979,0.109-0.295,1.18-0.396,0.521c-0.017-0.105,0.032-0.158,0.139-0.184c1.863-0.441,3.721-0.826,5.46,0.423
			c-1.587,3.038-4.523,1.686-6.911,2.135c-1.442,0.089-2.884,0.028-4.324-0.024c-2.585,0.025-5.171,0.096-7.757,0.006
			c-3.434-0.28-6.93,0.445-10.316-0.617c-0.548-0.263-0.884-0.695-1.01-1.289c2.604-3.109,6.167-1.417,9.299-1.872
			c0.822,0.012,1.647,0.078,2.461,0.249c0.811,0.17,1.56,0.567,2.395,0.648c-0.547-0.415-1.476-0.459-1.424-1.464
			c0.05-0.8,0.474-1.353,1.136-1.752c1.574-0.629,3.161-1.203,4.902-0.797C117.646,70.039,120.694,67.773,123.02,69.031z"/>
		<path fill-rule="evenodd" clip-rule="evenodd" fill="#EBB07A" d="M138.872,83.954c-0.312-0.085-0.859-0.108-0.9-0.264
			c-1.763-6.777-5.515-6.04-9.981-2.68c-0.33-0.01-0.66-0.018-0.99-0.023c-0.306-0.354-0.461-0.767-0.466-1.235
			c1.295-2.759,3.184-4.935,6.052-6.151c0.44-0.138,0.893-0.202,1.354-0.214c2.049-0.08,3.984,0.896,6.053,0.655
			c1.364,1.084,0.975,2.563,0.895,3.972c-1.031,1.457,0.31,3.382-0.944,4.796C139.586,83.191,139.229,83.572,138.872,83.954z"/>
		<path fill-rule="evenodd" clip-rule="evenodd" fill="#EAB87C" d="M134.019,73.996c-0.364,0.014-0.728,0.026-1.092,0.04
			c-3.078,1.003-6.061,2.494-9.464,1.866c-1.403-0.623-3.369-0.579-3.418-2.835c2.313-0.444,4.865,0.706,6.983-1.044l0.006,0.001
			c2.021-0.089,4.041-0.179,6.061-0.269c1.296,0.146,2.591,0.293,3.886,0.439C136.908,74.3,134.927,73.267,134.019,73.996z"/>
		<path fill-rule="evenodd" clip-rule="evenodd" fill="#F9D58D" d="M134.019,73.996c0.987-0.601,1.975-1.201,2.962-1.802
			c1.133,0.405,2.339,0.691,3.012,1.848C137.979,77.062,136.011,73.829,134.019,73.996z"/>
		<path fill-rule="evenodd" clip-rule="evenodd" fill="#DC946B" d="M139.942,82.81c0.248-1.612-0.5-3.421,0.945-4.796
			c0.051,1.338,0.103,2.675,0.154,4.013C140.676,82.287,140.31,82.548,139.942,82.81z"/>
		<path fill-rule="evenodd" clip-rule="evenodd" fill="#F2C59A" d="M92.001,93.008c-2.903-2.409-6.95-1.966-9.999-4.011
			c3.323-2.538,6.869,0.148,10.268-0.456c6.944-0.546,13.857-1.307,20.928-3.774c-0.299-1.219-3.073-0.998-2.112-2.872
			c5.38-2.249,10.483-1.794,12.969,1.143c-0.688,0.649-1.375,1.299-2.063,1.948c-1.86-0.06-3.806-0.008-5.255,1.202
			C109.503,92.225,99.964,89.739,92.001,93.008z"/>
		<path fill-rule="evenodd" clip-rule="evenodd" fill="#E8AE83" d="M124.054,83.037c-4.348-1.754-8.704-1.597-13.066-0.058
			c-3.297,2.252-7.133,2.055-10.839,2.235c-1.353,0.065-3.088-0.103-3.153-2.227c-4.802-3.385-10.05-0.083-15.017-1.003
			c-1.071-2.056,0.358-2.514,1.866-2.983c2.235-0.696,4.53-0.422,6.803-0.501c0.515-0.112,1.037-0.156,1.563-0.144
			c1.789,0.384,3.604,0.354,5.423,0.312c2.183,0.017,4.37-0.1,6.524,0.383c3.598,1.048,7.281,0.397,10.924,0.549
			c3.947,0.909,8.026-1.857,11.923,0.422c-0.002,0.321-0.003,0.644-0.004,0.965C126.019,81.671,125.036,82.354,124.054,83.037z"/>
		<path fill-rule="evenodd" clip-rule="evenodd" fill="#DF9B76" d="M77.004,91.991c3.684,0.14,7.484-0.965,10.994,1.029
			C84.089,95.285,80.606,92.995,77.004,91.991z"/>
		<path fill-rule="evenodd" clip-rule="evenodd" fill="#E1A084" d="M123.996,42.998c-0.333-0.334-0.665-0.669-0.998-1.004
			c-2.528-3.474-2.374-7.364-1.409-11.206c1.047-4.168,0.576-5.817-3.398-6.279c-5.411-0.63-8.999-4.42-13.421-6.758
			c0.918-2.5,3.252-2.474,5.285-2.994c2.145-0.153,4.289-0.273,6.375,0.42c4.008,6.578,9.553,4.429,15.041,2.622
			c1.604,0.051,3.159,0.276,4.532,1.192c0.996,0.342,1.993,0.684,2.99,1.025c0.564,3.724,4.57,5.139,5.678,8.8
			c0.668,2.213,3.543,0.328,5.142-0.434c1.569-0.747,2.792-2.224,4.167-3.38c-1.736,3.378-3.35,6.837-7.079,8.593
			c-3.22,1.516-1.341,4.213-1.198,6.359c0.063,0.932,1.327,1.799,1.303,3.043c0.285,0.247,0.389,0.503,0.309,0.768
			c-0.081,0.268-0.166,0.402-0.255,0.403c-2.563,0.543-3.767-1.436-5.287-2.834c-1.327-1.52-2.284-3.326-3.703-4.779
			c-1.604-1.654-3.47-2.972-5.398-4.195c-1.252-0.794-1.941-2.96-4.037-1.81c-1.854,1.019-2.114,2.734-1.862,4.63
			c-0.026,0.472-0.112,0.934-0.232,1.389C125.591,38.671,125.728,41.206,123.996,42.998z"/>
		<path fill-rule="evenodd" clip-rule="evenodd" fill="#E09D77" d="M146.992,44.011c0.004-0.338,0.008-0.676,0.013-1.013
			c1.877,2.302,5.29,2.458,6.994,5.003c-0.885,3.627,2.85,5.711,3.004,8.991c-0.534,0.455-1.215,0.713-1.77,0.287
			c-3.375-2.594-5.909-5.999-8.578-9.248C145.672,46.835,145.831,45.266,146.992,44.011z"/>
		<path fill-rule="evenodd" clip-rule="evenodd" fill="#E5A688" d="M110.007,15.995c-1.761,0.438-3.616,0.642-5.008,2.004
			c-1.7,3.185-4.773,1.389-7.099,1.645c-3.231,0.355-6.77,1.734-9.904-0.649c2.961-4.578,7.884-6.795,12.004-9.979
			c0.667-0.337,1.334-0.675,2.001-1.013C109.358,5.556,110.914,7.108,110.007,15.995z"/>
		<path fill-rule="evenodd" clip-rule="evenodd" fill="#ECBA93" d="M110.007,15.995c-0.361-1.223-2.347-2.089-1.61-3.327
			c3.41-5.733-1.2-4.373-3.963-4.651c-0.803-0.08-1.621-0.014-2.432-0.015c2.885-3.417,5.654-3.2,8.585,0.057
			c4.293,4.77,8.886,7.764,16.077,5.543c3.641-1.124,6.696,2.681,9.339,5.391c-1.667,0.001-3.334,0.004-5.001,0.006
			c-2.441-1.599-5.216-1.567-7.968-1.599c-2.121-0.024-4.224-0.067-6.037-1.396C114.667,16.001,112.337,15.998,110.007,15.995z"/>
		<path fill-rule="evenodd" clip-rule="evenodd" fill="#DC9A7D" d="M87.997,18.994c5.667-0.332,11.335-0.663,17.002-0.995
			c2.989,0.49,6.098,0.402,7.947,3.739c0.763,1.376,2.9,1.194,4.581,1.293c5.613,0.332,7.317,3.136,5.128,8.003
			c-1.649,3.667,0.924,7.281,0.343,10.96c-2.3,0.895-3.814,2.416-4.001,5c-1.823-3.095-3.277-6.072-0.202-9.418
			c1.83-1.991-0.621-3.061-1.722-3.792c-4.312-2.867-8.178-5.846-10.795-10.666c-1.399-2.576-5.461-1.899-8.44-2.106
			c-3.958-0.274-8.097,1.592-11.853-1.026C86.429,19.193,87.176,19.021,87.997,18.994z"/>
		<path fill-rule="evenodd" clip-rule="evenodd" fill="#F5D094" d="M151.01,59.996c0.135,1.296,2.771,2.25,0.996,3.599
			c-1.488,1.131-3.15,0.119-3.961-1.566c-1.49-3.101-4.185-3.219-7.049-3.021c-0.663-0.008-1.325-0.015-1.988-0.022
			c-2.155-2.101-4.763-3.916-4.686-7.431c0.381-1.611,0.267-3.267,0.46-4.893c0.201-1.682,0.6-3.385,2.4-3.962
			c2.153-0.689,3.362,0.609,4.096,2.479c0.135,1.966-2.41,2.629-2.185,4.779c0.405,3.861,2.818,5.104,7.694,3.719
			c1.41-0.124,2.109,0.881,2.872,1.792C150.482,56.864,151.809,58.116,151.01,59.996z"/>
		<path fill-rule="evenodd" clip-rule="evenodd" fill="#E6AD87" d="M123.996,42.998c-0.042-2.535,0.284-4.965,2.009-6.993
			c2.839,4.619,4.206,10.218,9.006,13.53c0.254,0.387,0.369,0.812,0.328,1.274c-1.144,1.031-1.889,2.484-3.343,3.194
			c-0.797-0.557-1.522-1.408-2.402-1.621C124.468,51.143,124.573,46.887,123.996,42.998z"/>
		<path fill-rule="evenodd" clip-rule="evenodd" fill="#EEBC87" d="M131.996,54.004c0.093-1.902,1.089-2.909,2.991-3.018
			c0.285,0.219,0.384,0.441,0.295,0.669c-0.089,0.229-0.18,0.343-0.273,0.343c1.333,2.329,2.666,4.658,3.999,6.987
			C136.345,57.782,133.244,57.197,131.996,54.004z"/>
		<path fill-rule="evenodd" clip-rule="evenodd" fill="#EFC189" d="M151.01,59.996c-0.668-1.333-1.336-2.667-2.004-4
			c1.486-1.791,3.184-1.791,4.606-0.132c1.24,1.445,2.966,2.041,4.385,3.138c0.957,1.548,2.346,2.921,2.016,4.988
			C156.968,62.758,154.327,60.615,151.01,59.996z"/>
		<path fill-rule="evenodd" clip-rule="evenodd" fill="#E9B286" d="M157.997,59.002c-3.429,0.29-5.085-4.726-8.991-3.006
			c-0.67-0.664-1.339-1.328-2.008-1.993c-1.852-0.617-2.045-2.432-2.796-3.848c-0.883-2.864-2.859-5.397-2.632-8.603
			c0.145-0.186,0.291-0.37,0.438-0.556c1.662,1.005,3.323,2.009,4.984,3.014c0.874,6.227,5.976,9.193,10.011,12.981
			C157.335,57.662,157.666,58.332,157.997,59.002z"/>
		<path fill-rule="evenodd" clip-rule="evenodd" fill="#F6CF9E" d="M89.014,13.018c-2.327,0.815-4.703,1.514-6.968,2.474
			c-2.991,1.269-5.945,1.89-9.05,0.5c6.63-3.306,13.803-4.706,21.011-5.982C92.706,11.615,90.666,11.994,89.014,13.018z"/>
		<path fill-rule="evenodd" clip-rule="evenodd" fill="#F6CF9E" d="M72.994,15.993c-1.752,1.824-3.994,0.698-6,0.997
			C68.753,15.21,70.992,16.312,72.994,15.993z"/>
		<path fill-rule="evenodd" clip-rule="evenodd" fill="#E19D7C" d="M85.003,20.006c-1.206,2.585-3.363,3.267-5.995,3
			C80.202,20.398,82.361,19.719,85.003,20.006z"/>
		<path fill-rule="evenodd" clip-rule="evenodd" fill="#C7785D" d="M89.003,48.999c1.003,0.35,2.007,0.699,3.011,1.049
			c1.082,0.852,2.605,1.383,2.336,3.218c-2.075,3.758-4.816,5.876-9.256,3.684c-1.027-0.508-1.947-0.501-2.541,0.563
			c-0.573,1.027-0.021,1.811,0.676,2.629c4.403,5.167,4.1,8.3-1.128,12.472c-1.304,0.673-2.586,1.577-4.081,0.435
			c-0.007-0.349-0.013-0.697-0.02-1.045c-3.206-3.111-2.48-8.048-5.284-11.351c-0.255-0.41-0.438-0.847-0.572-1.31
			c-0.616-3.535,1.458-6.011,3.356-8.557c2.542-1.84,4.7-5.154,8.422-1.572C85.36,50.596,87.212,47.597,89.003,48.999z"/>
		<path fill-rule="evenodd" clip-rule="evenodd" fill="#DD9179" d="M66.007,55.992c-0.753-4.517,0.522-7.986,4.808-10.232
			c1.341-0.703,2.159-0.143,3.19,0.259c-0.6,4.639-1.626,9.246-0.991,13.972l0.021,0.001c-0.412,4.805-4.238,7.896-6.027,12.011
			c-1.725,2.815-3.948,3.886-7.014,2.004c-1.269-1.849,0.995-4.285-1.001-6.013c-0.278-1.703,1.119-1.738,2.131-2.063
			C68.295,63.62,68.818,62.573,66.007,55.992z"/>
		<path fill-rule="evenodd" clip-rule="evenodd" fill="#D0856B" d="M67.008,72.002c0.174-4.924,3.765-8.134,6.027-12.011
			c4.041,3.018,3.266,8.026,4.966,12.012c-1.449,0.764-2.897,1.528-4.288,2.262c-0.833-0.429-0.625-1.11-0.667-1.733
			c-0.072-1.077,1.415-2.271,0.08-3.163c-1.164-0.778-2.108,0.334-3.07,0.969C69.094,70.973,68.029,71.453,67.008,72.002z"/>
		<path fill-rule="evenodd" clip-rule="evenodd" fill="#975635" d="M78.021,73.048c1.325-0.358,2.649-0.718,3.975-1.076
			c2.705-1.53,5.513-1.752,8.427-0.667c1.486,1.144,0.664,1.933-0.417,2.681c-4.37-0.1-8.594,1.666-13.007,1.013
			C77.339,74.348,77.68,73.697,78.021,73.048z"/>
		<path fill-rule="evenodd" clip-rule="evenodd" fill="#E5A28B" d="M66.007,55.992c3.43,1.013,3.307,3.744,2.89,6.398
			c-0.453,2.882-2.873,3.804-5.293,4.511c-1.514,0.442-3.359-0.496-4.612,1.092c-1.33,0.522-2.661,1.837-3.99-0.002
			c-0.207-2.236,2.029-2.643,2.997-3.999c0.827-1.84,1.863-3.47,4.003-3.994C63.978,59.303,64.538,57.192,66.007,55.992z"/>
		<path fill-rule="evenodd" clip-rule="evenodd" fill="#E9AE80" d="M62.002,59.998c-0.961,1.705-2.287,3.047-4.003,3.994
			c-1.853-3.707-4.756,0.063-6.982-0.979c2.452-3.482,5.383-6.646,6.513-10.958c0.561-2.139,0.754-3.9-1.525-5.061
			c1.171-1.372,2.404-0.609,2.554,0.511c0.474,3.522,4.392,6.143,2.607,10.267C60.939,58.295,61.699,59.245,62.002,59.998z"/>
		<path fill-rule="evenodd" clip-rule="evenodd" fill="#D78870" d="M73.014,59.99c-0.653-4.727-3.405-9.603,0.991-13.972
			c0.663-0.013,1.325-0.025,1.987-0.039c0.669,0.008,1.337,0.016,2.006,0.023c0.351,2.071-0.897,3.506-1.993,5.002
			C75.342,54.11,72.118,56.365,73.014,59.99z"/>
		<path fill-rule="evenodd" clip-rule="evenodd" fill="#AD6540" d="M107.993,45.016c0.176,1.376-0.455,2.948,0.978,4.018
			c1.676,4.111,0.646,9.312,4.979,12.349c1.036,1.07,1.814,2.305,2.33,3.704c-1.048,2.858-3.89,2.417-6.025,3.273
			c-0.443,0.192-0.908,0.252-1.388,0.201c-0.839-0.282-1.558-0.901-1.421-1.733c0.535-3.245-1.664-4.273-4.013-5.249
			c-0.573-3.336,1.979-6.24,1.303-9.591c0.392-1.987,1.514-3.938,0.273-6c-0.029-0.312-0.043-0.623-0.043-0.936
			c0.081-0.766,0.154-1.535,0.941-1.962C106.603,43.732,107.298,44.374,107.993,45.016z"/>
		<path fill-rule="evenodd" clip-rule="evenodd" fill="#D08159" d="M105.01,45.987c1.839,1.754,0.685,3.997,0.982,6.004
			c-1.243,1.661-1.583,3.745-2.575,5.528c-0.508,0.852-1.024,1.706-1.666,2.453c-2.652,3.086-3.183,2.998-5.439-0.792
			c-0.373-2.204-1.091-4.284-2.309-6.178c-0.663-0.985-1.326-1.971-1.989-2.956c3.729,1.124,7.421-0.275,11.147-0.215
			C105.593,49.871,104.794,47.488,105.01,45.987z"/>
		<path fill-rule="evenodd" clip-rule="evenodd" fill="#F2C695" d="M95.004,38.985c1.646-0.296,1.956,1.403,2.999,2.01
			c0.008,0.334,0.017,0.667,0.025,1.001c-0.646,2.052-1.169,4.226-4.05,4.035c-2.382-0.747-4.646-1.189-7.233-0.28
			c-2.112,0.742-4.417,0.351-4.773-2.716c1.625,0.135,3.336-0.012,4.857,0.458C91.23,44.854,93.766,43.183,95.004,38.985z"/>
		<path fill-rule="evenodd" clip-rule="evenodd" fill="#CB8067" d="M76.006,51.005c-0.358-2.075,0.363-3.72,1.993-5.002
			c3.775,0.604,7.549,1.214,11.004,2.996c-2.505,0.31-4.768,4.394-7.683-0.232C80.245,47.063,78.395,51.463,76.006,51.005z"/>
		<path fill-rule="evenodd" clip-rule="evenodd" fill="#EDB888" d="M93.979,46.031c1.35-1.345,2.699-2.69,4.049-4.035
			c1.87,0.941,3.903,1.694,5.112,4.801C99.741,44.869,96.887,50.142,93.979,46.031z"/>
		<path fill-rule="evenodd" clip-rule="evenodd" fill="#E49F75" d="M89.959,36.055c1.656,0.036,3.015,0.652,3.982,2.034
			C92.299,38.028,90.705,37.872,89.959,36.055z"/>
		<path fill-rule="evenodd" clip-rule="evenodd" fill="#885B43" d="M109.008,68.006c0.326-0.008,0.652-0.016,0.979-0.022
			c1.066-0.354,1.268,0.135,1.024,1.055c-0.325,0.317-0.65,0.636-0.976,0.953c-0.509,1.428-2,1.309-3.026,1.922
			c-3.313,0.607-6.821-0.899-10.021,0.925c-0.148,1.666-1.386,2.419-2.642,3.162c-1.106,0.422-2.228,1.101-3.288-0.095
			c-0.352-0.64-0.702-1.279-1.053-1.92c0.328-0.676,0.657-1.353,0.985-2.028c-0.314-0.415-0.361-0.859-0.145-1.333
			c1.313-1.687,3.173-2.077,5.153-2.186c2.125,0.258,4.399,0.798,6.232-0.588C104.651,66.021,106.78,66.748,109.008,68.006z"/>
		<path fill-rule="evenodd" clip-rule="evenodd" fill="#E39F75" d="M92.063,78.941c-3.513,0.515-7.682-1.146-10.085,3.044
			c-3.703-0.513-7.221,0.86-10.853,1.067c3.501-4.314,8.6-4.304,13.441-4.872c2.121-0.249,4.285-0.125,6.43-0.171
			C91.885,77.71,92.133,78.145,92.063,78.941z"/>
		<path fill-rule="evenodd" clip-rule="evenodd" fill="#672811" d="M92.063,78.941c-0.355-0.311-0.711-0.621-1.066-0.932
			c-1.58-2.013-4.082-0.313-6.502-1.771c2.582-0.131,4.571-0.23,6.562-0.332c1.051-0.303,2.101-0.605,3.15-0.907
			c0.302,0.27,0.582,0.56,0.847,0.866c0.776,1.232,2.903,0.918,3.155,2.753c-0.368,0.753-1.039,0.873-1.779,0.864
			c-1.473-0.205-3.053,0.497-4.413-0.554L92.063,78.941z"/>
		<path fill-rule="evenodd" clip-rule="evenodd" fill="#FAD8A4" d="M96.995,82.988c4.666,2.798,9.328-1.108,13.992-0.009
			c1.774,0.225,3.643-0.419,6.153,0.987c-7.686,5.026-16.185,4.547-24.14,6.033c0.397-2.979,2.318-2.733,3.717-2.715
			c-3.255-1.852-7.578-2.322-12.117-1.736c-1.897,0.244-3.894,1.139-5.614-0.555c0.358-2.398,2.235-1.961,3.799-1.975
			C87.522,82.979,92.259,82.995,96.995,82.988z"/>
		<path fill-rule="evenodd" clip-rule="evenodd" fill="#FCDFA9" d="M78.987,84.994c2.091-0.324,4.175-0.694,6.273-0.963
			c4.982-0.638,9.57,0.583,14.492,3.264c-2.509,1.086-5.291,0.504-6.751,2.705c-3.754,0.623-7.266-1.407-10.999-1.003
			c-2.313-0.019-4.625-0.038-6.937-0.058C71.955,83.231,78.111,86.737,78.987,84.994z"/>
		<path fill-rule="evenodd" clip-rule="evenodd" fill="#C87E55" d="M116.003,64.988c-2.009-0.087-2.018-1.527-2.013-2.977
			c-0.981-1.345-1.208-2.686,0.018-4.021c4.324,1.798,8.489,4.018,13.32,4.376c0.969,0.072,2.503,1.118,1.9,2.392
			c-1.052,2.223-2.777,0.789-4.253,0.267c-1.907,1.441-3.679,3.222-6.421,2.57C117.53,66.899,117.47,65.257,116.003,64.988z"/>
		<path fill-rule="evenodd" clip-rule="evenodd" fill="#BF744E" d="M114.008,57.99c-0.006,1.341-0.012,2.681-0.018,4.021
			c-2.655,0.188-3.561-1.154-4.211-3.678c-0.804-3.119-0.675-6.193-0.809-9.301C110.649,52.02,112.329,55.005,114.008,57.99z"/>
		<path fill-rule="evenodd" clip-rule="evenodd" fill="#DEA56E" d="M118.008,67.02c2.681,0.586,4.279-2.608,6.968-1.995
			c0.196,1.75-1.431,2.609-1.957,4.007c-1.908,1.198-4.035,1-6.137,0.958c-1.713-0.034-1.117-1.123-0.921-2.027
			C116.389,67.096,116.924,66.461,118.008,67.02z"/>
		<path fill-rule="evenodd" clip-rule="evenodd" fill="#E9B080" d="M94.204,75.845c-0.089-0.282-0.088-0.563,0.003-0.846
			c0.927-0.721,1.854-1.44,2.78-2.161l0.153,0.432c3.633,0.229,7.273,0.757,10.875-0.276c2.651,0.047,5.304,0.094,7.955,0.141
			c1.08,2.734-0.833,3.443-2.795,3.965c-1.582,0.422-3.245,0.247-4.872,0.293C103.528,77.584,98.832,77.025,94.204,75.845z"/>
		<path fill-rule="evenodd" clip-rule="evenodd" fill="#E8A878" d="M107.869,76.084c2.727-0.915,6.84,1.979,8.103-2.951
			c1.356-0.021,2.715-0.044,4.072-0.066c0.988,0.656,1.976,1.313,2.963,1.969c0.315,0.544,0.259,1.046-0.168,1.51
			c-1.575,1.441-3.53,1.701-5.544,1.793C114.121,77.726,110.24,80.046,107.869,76.084z"/>
		<path fill-rule="evenodd" clip-rule="evenodd" fill="#995C3D" d="M118.008,67.02c-0.683,0.314-1.364,0.629-2.047,0.943
			c-1.65,0.357-3.301,0.716-4.95,1.075c-0.342-0.352-0.683-0.703-1.024-1.055c2.005-0.998,4.011-1.997,6.017-2.995
			c1.151-0.351,2.436-1.785,3.439-0.232C120.1,65.772,118.274,66.095,118.008,67.02z"/>
		<path fill-rule="evenodd" clip-rule="evenodd" fill="#FBD48E" d="M108.016,72.993c-3.583,1.768-7.223,1.325-10.876,0.275
			C100.748,72.475,104.391,73.086,108.016,72.993z"/>
		<path fill-rule="evenodd" clip-rule="evenodd" fill="#995C3D" d="M107.009,71.913c1.009-0.641,2.017-1.281,3.025-1.922
			c0.639,0.471,1.276,0.941,2.605,1.922C110.356,71.913,108.683,71.913,107.009,71.913z"/>
		<path fill-rule="evenodd" clip-rule="evenodd" fill="#AA6849" d="M127.028,72.023c-1.944,0-3.888,0-5.832,0
			c1.979-0.812,3.98-1.804,5.838,0C127.034,72.024,127.028,72.023,127.028,72.023z"/>
		<path fill-rule="evenodd" clip-rule="evenodd" fill="#DA956C" d="M123.025,76.074c-0.007-0.347-0.013-0.693-0.019-1.04
			c3.348,0.07,6.519-1.623,9.921-0.999c-1.976,1.996-3.95,3.991-5.924,5.986c-4.051,0.085-7.987,1.706-12.104,0.899
			c0.203-2.366,2.273-1.815,3.646-2.276C120.226,78.081,121.854,77.493,123.025,76.074z"/>
		<path fill-rule="evenodd" clip-rule="evenodd" fill="#985331" d="M123.025,76.074c0.163,0.03,0.366,0.011,0.481,0.103
			c0.223,0.176,0.395,0.414,0.588,0.626c-2.708,2.17-5.837,3.399-9.194,4.118c-3.72,0.019-7.49,0.76-11.096-0.796
			c1.032-1.451,2.735-1.47,4.209-1.983c3.349-0.193,6.721-0.176,10.002-1.044C119.686,76.757,121.355,76.415,123.025,76.074z"/>
		<path fill-rule="evenodd" clip-rule="evenodd" fill="#824023" d="M107.974,79.038c-1.098,1.479-2.791,0.676-4.168,1.086
			c-2.208-0.07-4.415-0.142-6.622-0.213c-0.424-0.114-0.551-0.373-0.379-0.777c0.387-0.355,0.772-0.711,1.159-1.066
			C101.471,76.629,104.796,77.081,107.974,79.038z"/>
		<path fill-rule="evenodd" clip-rule="evenodd" fill="#E39F75" d="M96.805,79.134c0.118,0.263,0.243,0.522,0.378,0.777
			c-1.769-0.081-3.724,0.821-5.166-0.982C93.613,78.997,95.209,79.065,96.805,79.134z"/>
		<path fill-rule="evenodd" clip-rule="evenodd" fill="#EAB691" d="M134.984,50.008c-6.118-2.664-7.968-8.064-8.979-14.003v-0.003
			c1.352-5.711,3.105-6.371,7.929-2.84c1.588,1.163,3.199,2.208,5.067,2.832c1.313,1.481,2.769,2.876,3.007,5.003l-0.037,0.018
			c-3.623,0.851-3.623,0.851-8.521-1.916C131.811,43.037,136.188,46.131,134.984,50.008z"/>
		<path fill-rule="evenodd" clip-rule="evenodd" fill="#E5AF8B" d="M116.997,16.004c3.068-0.001,6.146,0.146,9.202-0.049
			c2.479-0.159,4.017,0.741,4.802,3.043c-2.645,0.761-4.951,2.261-8.011,2.135C119.281,20.98,117.028,20.033,116.997,16.004z"/>
		<path fill-rule="evenodd" clip-rule="evenodd" fill="#E6AD87" d="M139.001,35.994c-1.846,0.069-3.474-0.135-5.056-1.471
			c-4.468-3.773-5.053-3.587-7.94,1.479c-1.65-3.062-0.089-5.114,2.095-7.091c1.087-0.984,2.346-1.162,2.954-0.073
			C132.917,32.173,136.958,32.957,139.001,35.994z"/>
		<path fill-rule="evenodd" clip-rule="evenodd" fill="#F1C497" d="M134.984,50.008c-1.587-2.728-2.51-5.662-3.303-8.724
			c-0.426-1.644-0.705-2.808,0.56-3.97c1.879-1.727,2.054,0.656,2.86,1.299c2.033,1.619,4.366,2.214,6.869,2.401
			c1.014,2.993,2.027,5.986,3.04,8.979c-2.926,0.263-3.697-1.636-4.009-3.996c-0.889-1.329-1.659-3.194-3.643-2.455
			c-1.619,0.604-1.277,2.423-1.373,3.879c-0.104,1.563,0.543,3.31-0.978,4.576c-0.007-0.337-0.015-0.674-0.021-1.012
			C134.993,50.66,134.992,50.334,134.984,50.008z"/>
		<path fill-rule="evenodd" clip-rule="evenodd" fill="#F8D59D" d="M141.002,45.998c1.46,1.208,2.021,3.318,4.009,3.996
			c0.663,1.337,1.325,2.673,1.987,4.009c-1.403,2.733-3.996,2.432-6.052,1.68c-2.697-0.987-2.612-4.29-3.56-6.515
			C136.756,47.688,138.969,46.197,141.002,45.998z"/>
		<path fill-rule="evenodd" clip-rule="evenodd" fill="#C47355" d="M91.028,71.028c-0.008,0.31-0.021,0.62-0.038,0.929
			c-2.999,0.005-5.997,0.011-8.995,0.016c1.068-2.201,3.513-3.37,2.748-6.996c-0.388-1.835-0.429-2.942-2.03-3.596
			c-2.744-1.118-2.915-2.791-1.356-4.999c1.333-1.889,2.188-2.445,4.511-0.453c3.617,3.103,5.659-1.158,8.135-2.926
			c4.021,0.488,2.74,3.627,2.998,5.997c-0.025,2.572-1.865,4.076-3.506,5.579C91.538,66.371,90.584,68.393,91.028,71.028z"/>
		<path fill-rule="evenodd" clip-rule="evenodd" fill="#995C3D" d="M109.008,68.006c-2.803-0.861-5.062,0.459-7.506,1.571
			c-1.7,0.774-3.809,1.056-5.508-0.519c-0.391-0.852,0.133-1.251,0.781-1.593c3.928,0.201,4.398-4.205,7.247-5.442
			c1.188-0.425,2.376-0.849,3.73-1.333C108.179,63.176,108.593,65.591,109.008,68.006z"/>
		<path fill-rule="evenodd" clip-rule="evenodd" fill="#BA6F49" d="M104.022,62.023c-1.885,2.527-1.861,7.3-7.024,5.97
			c-0.775-2.222,0.632-3.661,1.906-5.088c1.611-1.806,3.124-3.661,4.081-5.909c-0.213-2.398,0.978-3.954,3.007-5.005
			C107.023,55.667,104.241,58.594,104.022,62.023z"/>
		<path fill-rule="evenodd" clip-rule="evenodd" fill="#CA7A4F" d="M102.985,56.996c-0.195,4.646-4.799,6.892-5.987,10.997
			c-0.335,0.354-0.669,0.709-1.004,1.064c-1.655,0.657-3.311,1.313-4.966,1.97c-2.236-1.884-2.173-3.62,0.011-5.637
			c2.134-1.971,3.986-4.248,5.962-6.391c1.027,1.869,2.114,3.439,3.731,0.477C101.291,58.453,101.835,57.461,102.985,56.996z"/>
		<path fill-rule="evenodd" clip-rule="evenodd" fill="#B56E4A" d="M107.974,79.038c-3.336-0.324-6.673-0.647-10.01-0.971
			c-1.416-0.465-3.843,0.78-3.76-2.222c4.586-1.676,9.099,0.888,13.667,0.237c3.236,1.786,6.781,0.492,10.145,1.014
			C114.888,78.877,111.46,79.11,107.974,79.038z"/>
	</g>
</g>
</svg>
