<?xml version="1.0" encoding="utf-8"?>
<!-- Generator: Adobe Illustrator 16.0.0, SVG Export Plug-In . SVG Version: 6.00 Build 0)  -->
<!DOCTYPE svg PUBLIC "-//W3C//DTD SVG 1.1//EN" "http://www.w3.org/Graphics/SVG/1.1/DTD/svg11.dtd">
<svg version="1.1" id="Layer_1" xmlns="http://www.w3.org/2000/svg" xmlns:xlink="http://www.w3.org/1999/xlink" x="0px" y="0px"
	 width="175.12px" height="103px" viewBox="351.94 207 175.12 103" enable-background="new 351.94 207 175.12 103"
	 xml:space="preserve">
<path fill="#F3F4F5" d="M365.755,211.771c0.021-0.067-0.918-0.65-0.896-0.718c0.08-0.273,1.74-1.019,1.962-1.235
	c0.212-0.11,0.364-0.003,0.505,0.141c0.194,0.309,3.275,0.744,3.531,1.021c0.355,0.378,2.255,2.725,2.279,3.27
	c0.04,0.221-1.67,6.686-1.582,6.893c0.12,0.394-2.218-7.67-2.267-7.184c-0.524,0.438-1.121,0.384-1.73,0.257
	c-0.4-0.169-0.76-0.383-0.9-0.833c-0.175-0.8,0.054-1.63-0.175-2.428C366.467,210.906,365.77,211.82,365.755,211.771z"/>
<path fill="#F3F4F5" d="M356.515,215.841c0.022-0.067,0.043-0.135,0.065-0.203c0.08-0.273,0.096-0.572,0.318-0.788
	c0.212-0.11,0.408-0.41,0.549-0.265c0.194,0.309,1.665-1.814,1.921-1.538c4.929-0.757,11.195-2.251,11.219-1.707
	c0.04,0.221-5.096,4.439-5.008,4.646c0.12,0.395-6.166,2.517-6.214,3.002c-0.524,0.438-1.121,0.384-1.73,0.257
	c-0.401-0.169-0.76-0.383-0.9-0.833c-0.176-0.8,0.053-1.63-0.175-2.428C356.544,215.937,356.53,215.889,356.515,215.841z"/>
<path fill="#F3F4F5" d="M355.52,216.49c0.021-0.068,0.043-0.135,0.065-0.203c0.08-0.273,0.095-0.572,0.317-0.789
	c0.212-0.11,0.364-0.003,0.505,0.141c0.194,0.309,0.257,0.688,0.513,0.964c0.355,0.378,0.651,0.786,0.675,1.331
	c0.04,0.221,0.106,0.434,0.194,0.641c0.12,0.395,0.628,0.578,0.58,1.063c-0.524,0.438-1.122,0.384-1.73,0.257
	c-0.4-0.168-0.76-0.383-0.9-0.833c-0.175-0.8,0.054-1.63-0.175-2.428C355.549,216.587,355.534,216.538,355.52,216.49z"/>
<g>
	<g>
		<path fill="#D8DBE4" d="M376.467,217.937c0.513,0.682,1.197,1.229,1.574,2.017c0.105,0.655,0.71,1.012,0.949,1.581
			c-0.297,1.06-0.92,1.31-1.712,0.649c-0.639-0.532-1.217-1.136-1.764-1.764c-0.417-0.478-0.594-1.034-0.433-1.67
			C375.377,218.195,375.823,217.898,376.467,217.937z"/>
		<path fill="#FBFBFC" d="M360.045,212.746c0.359,0.019,0.706-0.029,1.03-0.194c0.466-0.124,0.941-0.067,1.413-0.082
			c0.419,0.005,0.838,0,1.256,0.007c0.204,0.001,0.404,0.029,0.601,0.084c0.413,0.137,0.75,0.408,1.121,0.622
			c0.533,0.278,1.036,0.586,1.21,1.221c0.044,0.193,0.087,0.387-0.054,0.558c-0.332,0.204-0.65,0.019-0.979-0.005
			c-0.063,0.481,0.106,1.133-0.744,1.067c-0.326-0.223-0.339-0.64-0.571-0.92c-0.246-0.383-0.64-0.593-0.998-0.844
			c-0.29-0.371-0.733-0.287-1.118-0.377c-0.595-0.284-1.189-0.57-1.836-0.722C360.197,213.077,359.998,213.01,360.045,212.746z"/>
		<path fill="#C7CCD9" d="M375.245,218.717c-0.108,0.881,0.339,1.485,0.934,2.07c0.538,0.529,0.979,1.157,1.562,1.643
			c0.641-0.018,0.906-0.316,1.09-0.673c-0.026-0.756-1.049-0.988-0.789-1.803c0.608,0.792,1.216,1.584,1.824,2.376
			c-0.268,0.77-0.951,0.959-1.623,1.166c-0.361-0.048-0.729,0.076-1.223-0.068c-1.06-1.152-1.962-2.51-2.333-4.181
			c0.016-0.213,0.1-0.39,0.272-0.521C375.052,218.67,375.148,218.667,375.245,218.717z"/>
		<path fill="#9EA5B8" d="M376.234,227.523c-0.061,0.392-0.061,0.392-0.296,0.764c-0.56,0.108-0.816-0.52-1.368-0.545
			c-1.005,0.212-1.742,1.049-2.725,1.396c-0.297-0.108-0.543-0.314-0.838-0.427c0.109-0.755,0.825-0.669,1.288-0.935
			c0.242-0.136,0.456-0.318,0.715-0.425c0.891-0.278,1.57-1.169,2.644-0.921c0.091,0.012,0.176,0.043,0.252,0.094
			C376.15,226.812,376.161,227.178,376.234,227.523z"/>
		<path fill="#C5CAD6" d="M357.458,219.93c0.627-0.328,0.536-1.27,1.353-1.401c-0.093-0.421-0.163-0.737-0.244-1.109
			c0.3-0.056,0.578-0.108,0.877-0.165c0.124-0.226,0.245-0.446,0.372-0.678c0.465,0.198,0.746,0.491,0.863,0.936
			c-0.031,0.029-0.061,0.058-0.09,0.087c-0.518,0.238-0.042,0.665-0.181,0.976c-0.149,0.496-0.541,0.79-0.911,1.103
			c-0.419,0.28-0.853,0.529-1.353,0.639C357.849,220.304,357.469,220.443,357.458,219.93z"/>
		<path fill="#545A6C" d="M357.781,229.275c-0.39-0.271-1.418-0.463-1.808-0.733c-3.325-1.474,0.178-0.529,0.138-0.61
			c-0.148-0.332,0.152-0.704-0.092-1.026c-0.077-0.053-0.142-0.139-0.239-0.098c0.154,0.013,0.264,0.101,0.312,0.267
			c-0.333,0.658-0.794,0.528-1.287,0.213c-0.481-0.561-0.261-0.951,0.306-1.255c0.092-0.025,0.188-0.034,0.284-0.03
			c0.207,0.017,0.411,0.107,0.617,0.053c0.081-0.13-0.041-0.155-0.09-0.217c-0.104-0.091-0.156-0.202-0.154-0.339
			c0.385-0.599,1.133-0.229,1.603-0.603c0.328,0.184,0.299,0.488,0.269,0.792c-0.175,0.656-0.152,1.321-0.071,1.986
			c0.06,0.124,0.118,0.248,0.183,0.37c0.048,0.08,0.088,0.164,0.126,0.25c0.06,0.132,0.1,0.269,0.095,0.416
			C357.89,228.993,358.081,229.482,357.781,229.275z"/>
		<path fill="#F7F7F7" d="M371.657,212.34c0.321,0.173,0.074,0.629,0.397,0.801c0.316,0.585-0.505,0.582-0.507,1.129
			c0.093,0.537,0.924,0.25,1.151,0.755c-0.034,0.215-0.164,0.239-0.36,0.166c0.202,0.224,0.533,0.306,0.604,0.631
			c0.018,0.233-0.083,0.37-0.321,0.397c-0.978,0.033-1.863-0.167-2.502-0.99c-0.045-0.096-0.074-0.196-0.091-0.301
			c-0.1-0.729,0.136-1.316,0.81-1.641C371.267,213.08,371.364,212.636,371.657,212.34z"/>
		<path fill="#FDFDFD" d="M372.655,215.143c-0.447-0.432-1.387-0.099-1.531-0.934c-0.004-0.682,0.889-0.48,0.932-1.068
			c0.928,0.267,1.97,0.286,2.6,1.198c-0.61,0.5-1.172-0.145-1.861-0.06c0.312,0.361,0.717,0.582,0.904,0.981
			c0.068,0.206-0.012,0.362-0.163,0.496c-0.191,0.103-0.353,0.024-0.512-0.08C372.86,215.529,372.69,215.382,372.655,215.143z"/>
		<path fill="#C7CAD2" d="M365.444,213.36c-0.405-0.078-0.685-0.362-0.991-0.602c-0.271-0.358-0.668-0.324-1.052-0.351
			c-0.405-0.029-0.849,0.08-1.169-0.292c0.014-0.572,0.565-0.517,0.897-0.771c0.165-0.151-0.068-0.428,0.127-0.602
			c0.061-0.01,0.123-0.016,0.185-0.017c0.732-0.313,0.886,0.375,1.242,0.715c0.236,0.603,0.752,0.768,1.323,0.837
			c0.388,0.047,0.785-0.014,1.171,0.078c0.142,0.046,0.257,0.124,0.322,0.262c0.005,0.099-0.027,0.184-0.097,0.254
			C366.834,213.367,366.048,212.999,365.444,213.36z"/>
		<path fill="#9A9FAC" d="M376.236,216.395c0.062,0.318,0.124,0.636,0.186,0.954c-0.191,0.208-0.476,0.241-0.703,0.383
			c-0.412,0.191-0.73,0.607-1.256,0.524c-0.315-0.123-0.624-0.252-0.627-0.667c0.229-0.33,0.63-0.478,0.858-0.809
			c0.304-0.486-0.36-0.938-0.048-1.427c0.375-0.307,0.674,0.051,1.007,0.123C375.991,215.691,376.149,216.02,376.236,216.395z"/>
		<path fill="#FDFDFD" d="M367.469,212.702c-0.069-0.055-0.139-0.11-0.208-0.165c-0.274-0.178-0.612-0.15-0.902-0.278
			c-0.355-0.208-0.81-0.303-0.916-0.755c0.063-0.539,0.709-0.125,0.81-0.562c0.691,0.016,1.412-0.112,1.998,0.413
			c-0.077,0.097-0.224,0.126-0.263,0.273c0.232,0.308,0.506,0.593,0.683,0.949c0.092,0.226,0.152,0.446-0.127,0.638
			C368.096,213.27,367.749,213.063,367.469,212.702z"/>
		<path fill="#C8CBD1" d="M354.457,227.746c-1.096-0.541-1.659-1.48-1.956-2.617c0.342-0.272,0.659-0.185,0.964,0.066
			c0.189,0.21,0.28,0.491,0.486,0.69c0.359,0.372,0.521,0.869,0.818,1.282c0.263,0.299,0.625,0.339,0.986,0.411
			c0.213,0.042,0.497,0.126,0.224,0.447C355.452,228.039,354.91,228.132,354.457,227.746z"/>
		<path fill="#797D8B" d="M364.656,232.146c-0.136-0.129-0.271-0.258-0.408-0.387c-0.094-0.173-0.068-0.354-0.04-0.537
			c0.035-0.187,0.08-0.37,0.22-0.513c0.253-0.1,0.471,0.009,0.689,0.115c0.747,0.546,1.675,0.905,1.985,1.907
			c-0.39,0.396-0.875,0.126-1.313,0.188c-0.044,0.009-0.088,0.018-0.132,0.025c-0.077-0.068-0.154-0.136-0.231-0.204
			C365.171,232.541,364.937,232.314,364.656,232.146z"/>
		<path fill="#E6E7E9" d="M371.657,212.34c-0.021,0.257-0.043,0.515-0.06,0.714c-0.388,0.425-0.969,0.458-1.233,0.923
			c-0.175,0.305-0.085,0.642-0.111,0.965c-0.556-0.014-0.541-0.488-0.68-0.84c-0.002-0.09,0.018-0.175,0.061-0.255
			c0.157-0.207,0.368-0.365,0.524-0.574c0.083-0.097,0.179-0.179,0.288-0.245c0.204-0.114,0.43-0.197,0.563-0.406
			c0.066-0.161-0.014-0.276-0.12-0.383c-0.317-0.276-0.475-0.026-0.642,0.194c-0.054,0.067-0.118,0.122-0.191,0.165
			c-0.085,0.018-0.166,0.004-0.241-0.038c-0.111-0.123-0.174-0.272-0.23-0.425c-0.033-0.072-0.075-0.137-0.126-0.197
			c-0.001-0.065-0.002-0.131-0.004-0.196c-0.164-0.275-0.063-0.431,0.227-0.491c0.74-0.154,1.38-0.043,1.772,0.694
			C371.521,212.076,371.589,212.208,371.657,212.34z"/>
		<path fill="#DADBE0" d="M353.462,219.149c-0.001-0.699-0.121-1.479,0.976-1.427c-0.048,0.691,0.344,1.229,0.631,1.803
			c0.187,0.391,0.446,0.77,0.216,1.233c-0.774,0.082-0.959-0.476-1.125-1.055c-0.041-0.12-0.103,0.005-0.089,0.02
			c0.263,0.284,0.232,0.577-0.025,0.856C353.28,220.337,353.699,219.609,353.462,219.149z"/>
		<path fill="#D6DAE5" d="M366.253,210.942c0.076,0.101,0.152,0.201,0.281,0.371c-0.343,0.017-0.624,0.031-0.934,0.047
			c0.102,0.523,0.68,0.426,0.862,0.777c-0.828,0.487-1.279-0.178-1.813-0.593c-0.644,0.083-0.502-0.996-1.209-0.819
			C364.423,210.213,365.322,210.793,366.253,210.942z"/>
		<path fill="#959CAF" d="M352.485,224.335c-0.021-0.198-0.042-0.396-0.063-0.594c0.449-0.9,0.09-1.875,0.258-2.802
			c0.098-0.18,0.207-0.333,0.443-0.187c0.1,0.111,0.163,0.241,0.214,0.379c0.138,0.422,0.311,0.834,0.357,1.283
			c0.103,0.74-0.354,1.295-0.65,1.896C352.912,224.578,352.687,224.719,352.485,224.335z"/>
		<path fill="#E2E3E7" d="M358.677,214.971c-0.75,0.224-1.001-0.162-1.3,0.063c-0.191,0.316,0.255,0.438,0.175,0.848
			c-0.34-0.45-0.953-0.178-1.263-0.696c-0.017-1.08,1.257-0.677,1.488-1.428C358.397,214.117,357.6,214.849,358.677,214.971z"/>
		<path fill="#616571" d="M367.652,234.323c-0.261-0.196-0.521-0.391-0.782-0.587c-0.151-0.104-5.684-3.757-5.671-3.982
			c0.089-0.295,5.694,3.209,5.904,3.334c0.414,0.246,0.762-0.014,1.138-0.069c0.201,0.005,0.363,0.092,0.504,0.229
			c0.084,0.427,0.892,0.702,0.268,1.277l-0.086-0.002l-0.076,0.042C368.399,234.739,368.007,234.621,367.652,234.323z"/>
		<path fill="#6D7180" d="M368.644,233.343c-0.13-0.068-0.26-0.136-0.39-0.204c-0.114-0.108-0.16-0.244-0.163-0.397
			c0.079-0.854,0.452-1.579,0.988-2.233c0.096-0.116,0.204-0.22,0.325-0.312c0.175-0.121,0.36-0.197,0.577-0.12
			c0.258,0.2,0.205,0.439,0.084,0.687c-0.43,0.63-0.948,1.204-1.229,1.929C368.68,232.881,368.864,233.172,368.644,233.343z"/>
		<path fill="#B8BDCA" d="M367.469,212.702c0.387-0.029,0.655,0.276,0.993,0.371c0.26-0.194,0.017-0.361-0.004-0.534
			c-0.1-0.309-0.358-0.657,0.2-0.802c0.12,0.071,0.24,0.143,0.36,0.215c0.145,0.114,0.225,0.284,0.362,0.406
			c0.054,0.078,0.098,0.161,0.135,0.247c0.187,0.43,0.518,0.846,0.139,1.335v0c-0.229,0.417-0.527,0.248-0.824,0.099
			c-0.324-0.288-0.742-0.446-1.058-0.748c-0.143-0.152-0.378-0.25-0.315-0.525L367.469,212.702z"/>
		<path fill="#DADDE3" d="M356.454,218.946c0.152,0.381,0.559,0.506,0.799,0.798c-0.179,0.44,0.136,0.569,0.44,0.729
			c0.329,0.173,0.688,0.366,0.264,0.803c-0.852,0.234-1.608,0.132-2.187-0.609c-0.032-0.104-0.036-0.21-0.016-0.317
			C356.1,219.94,355.75,219.179,356.454,218.946z"/>
		<path fill="#E3E4E7" d="M355.863,216.132c0.698,0.117,0.671,0.62,0.521,1.101c-0.125,0.398-0.141,0.747,0.067,1.104
			c-0.267,0.13-0.394,0.489-0.756,0.463c-0.292-0.158-0.361-0.474-0.513-0.73c-0.038-0.076-0.066-0.156-0.088-0.238
			c-0.056-0.243-0.048-0.491-0.061-0.738c-0.011-0.121,0.007-0.24,0.016-0.36c0.134-0.266,0.269-0.533,0.402-0.799
			c0.264,0.228,0.233,0.59,0.427,0.906C355.872,216.578,355.701,216.35,355.863,216.132z"/>
		<path fill="#B7BBC6" d="M352.485,224.335c0.774-0.446,0.923-1.196,0.972-1.994c0.66,0.3,0.592,0.896,0.425,1.386
			c-0.123,0.36-0.011,0.635,0.017,0.949c-0.097,0.259-0.212,0.507-0.452,0.67c-0.289-0.19-0.613-0.224-0.946-0.217
			c-0.02-0.129-0.04-0.258-0.06-0.387C352.455,224.606,352.47,224.47,352.485,224.335z"/>
		<path fill="#7C808E" d="M359.142,229.79c-0.385-0.11-0.854-0.073-1.091-0.436c-0.111-0.237,0.031-0.362,0.208-0.472
			c0.513-0.011,0.862,0.41,1.336,0.504c0.826,0.206,1.677-0.229,2.499,0.093c0.212,0.023,0.414,0.072,0.573,0.228
			c-0.313,0.84-0.997,0.538-1.589,0.519c-0.348-0.033-0.697,0.006-1.045,0.002C359.673,230.25,359.463,229.905,359.142,229.79z"/>
		<path fill="#C5C9D5" d="M375.638,215.553c-0.281-0.042-0.562-0.084-0.833-0.125c-0.348,0.534,0.853,0.981,0.052,1.515
			c-0.454,0.093-0.594-0.211-0.705-0.554c0.158-0.544-0.621-0.908-0.287-1.487c0.473-0.339,0.933-0.213,1.388,0.04
			c0.131,0.134,0.261,0.268,0.392,0.401c0.067,0.049,0.175,0.227,0.151,0.273C375.773,215.661,375.662,215.553,375.638,215.553z"/>
		<path fill="#B8BBC4" d="M362.254,211.943c0.421,0.376,0.93,0.156,1.397,0.189c0.433,0.03,0.777,0.104,0.801,0.626
			c-0.199-0.008-0.398-0.016-0.598-0.024c-0.465-0.16-0.932-0.142-1.399-0.009c-0.463-0.038-0.966,0.239-1.382-0.173l-0.01,0.002
			c0.153-0.22,0.376-0.327,0.625-0.393c0.117-0.08,0.234-0.159,0.352-0.238C362.118,211.864,362.189,211.867,362.254,211.943z"/>
		<path fill="#BFC4D3" d="M360.678,217.513c0.142,0.063,0.258,0.214,0.458,0.125c0.464-0.574-0.686-1.19,0.023-1.762
			c0.501,0.083,0.398,0.63,0.682,0.879c0.148,0.098,0.17,0.243,0.146,0.433c0.11-0.096,0.216-0.118,0.324-0.036
			c0.075,0.127,0.08,0.258,0.028,0.395c-0.334,0.37-0.814,0.42-1.25,0.57c-0.324-0.052-0.646-0.107-0.438-0.568L360.678,217.513z"/>
		<path fill="#EDEEF1" d="M373.653,215.344c-0.431-0.352-0.862-0.704-1.376-1.123c0.89-0.635,1.614,0.33,2.379,0.118
			c0.134,0.132,0.269,0.265,0.403,0.397c-0.31,0.195-0.646,0.108-0.965,0.062c-0.285-0.041-0.357,0.075-0.345,0.32
			C373.753,215.209,373.719,215.284,373.653,215.344z"/>
		<path fill="#A6ABBA" d="M378.257,223.343c0.584-0.262,1.118-0.603,1.609-1.013c0.192,0.182,0.384,0.364,0.576,0.546
			c-0.285,0.29-0.694,0.29-1.036,0.447c-0.578,0.165-1.017,0.52-1.355,1.007c-0.207-0.132-0.286-0.326-0.269-0.564
			C377.852,223.525,378.058,223.437,378.257,223.343z"/>
		<path fill="#EEEFF4" d="M355.671,218.746c0.263-0.131,0.438-0.429,0.78-0.41c-0.115,0.204-0.117,0.407,0.003,0.609
			c-0.517,0.334,0.219,1.212-0.612,1.41c-0.612,0.009-0.587-0.511-0.736-0.885c-0.006-0.294,0.273-0.377,0.416-0.562
			C355.556,218.842,355.607,218.788,355.671,218.746z"/>
		<path fill="#DBDEE9" d="M360.45,212.946c0.671,0.108,1.266,0.389,1.806,0.794c0.046,0.18,0.008,0.276-0.202,0.206
			c-0.87-0.199-1.739-0.399-2.609-0.598C359.651,212.89,360.14,213.143,360.45,212.946z"/>
		<path fill="#D5D7DD" d="M355.662,218.942c0.113,0.076,0.182,0.166,0.088,0.302c-0.145,0.147-0.374-0.133-0.501,0.101
			c-0.09,0.059-0.176,0.054-0.257-0.018c-0.249-0.569-0.273-1.205-0.521-1.775c0.031-0.387,0.113-0.737,0.577-0.819
			c0.067,0.072,0.134,0.145,0.202,0.216c-0.154,0.333-0.159,0.663,0.009,0.993l-0.003-0.005
			C355.423,218.26,355.469,218.631,355.662,218.942z"/>
		<path fill="#656A79" d="M376.234,227.523c-0.342-0.239-0.395-0.594-0.388-0.973c-0.067-0.43,0.391-0.597,0.477-0.952
			c0.062-0.082,0.139-0.14,0.232-0.18c0.25-0.016,0.531-0.079,0.504,0.328C376.784,226.339,376.509,226.931,376.234,227.523z"/>
		<path fill="#B7BBC5" d="M354.471,217.552c0.619,0.456,0.496,1.156,0.588,1.785c0.077,0.212-0.021,0.248-0.201,0.2
			c-0.583-0.109-0.156-0.538-0.187-0.635c-0.615-0.423-0.682-0.759-0.233-1.179C354.45,217.666,354.461,217.61,354.471,217.552z"/>
		<path fill="#B7BCCA" d="M358.052,221.127c-0.042-0.504-0.555-0.37-0.808-0.593c-0.316-0.278-0.739-0.534,0.009-0.791
			c0.068,0.063,0.136,0.125,0.205,0.187c0.201,0.312,0.519,0.182,0.795,0.208c0.202,0.391,0.542,0.761,0.191,1.238
			c-0.134,0.078-0.268,0.08-0.403,0.003C357.98,221.293,357.984,221.209,358.052,221.127z"/>
		<path fill="#F7F7F7" d="M371.452,211.945c-0.365-0.295-0.786-0.489-1.241-0.573c-0.315-0.058-0.69-0.127-0.758,0.37
			c-0.137-0.111-0.217-0.24-0.091-0.498c0.496-0.098,1-0.449,1.608-0.23C371.263,211.261,371.415,211.573,371.452,211.945z"/>
		<path fill="#C2C5CE" d="M353.083,221.136c-0.009-0.132-0.019-0.264-0.028-0.396c-0.292-0.206,0.017-0.547-0.175-0.776
			c0.021-0.396,0.592-0.398,0.582-0.815c0.414,0.375,0.234,0.998,0.589,1.397c0.062,0.074,0.085,0.161,0.075,0.256
			c-0.524,0.344-0.563-0.119-0.701-0.406C353.386,220.668,353.597,221.068,353.083,221.136z"/>
		<path fill="#7E8393" d="M369.855,230.14c-0.131,0.068-0.263,0.137-0.395,0.206c-0.063-0.061-0.102-0.135-0.113-0.223
			c0.019-0.28,0.205-0.462,0.382-0.649c0.09-0.091,0.189-0.171,0.296-0.241c0.146-0.092,0.292-0.183,0.437-0.279
			c0.16-0.101,0.326-0.171,0.521-0.135c0.155,0.046,0.323,0.075,0.356,0.281c0.04,0.258-0.153,0.403-0.292,0.577
			c-0.127,0.094-0.254,0.188-0.382,0.283C370.386,229.977,370.115,230.032,369.855,230.14z"/>
		<path fill="#B7BCCB" d="M364.462,214.933c0.295,0.265,0.407,0.604,0.41,0.99c0.146,0.14,0.331,0.251,0.354,0.482
			c-0.013,0.244,0.034,0.527-0.344,0.536c-0.364-0.233-0.293-0.625-0.31-0.751c0.007,0.042-0.063,0.225-0.363,0.246
			c-0.414-0.153-0.171-0.448-0.15-0.695c-0.006-0.129-0.012-0.259-0.018-0.389C363.899,214.929,364.037,214.787,364.462,214.933z"/>
		<path fill="#E5E7EB" d="M364.058,215.741c0.306,0.208,0.058,0.394-0.024,0.585c-0.055,0.066-0.125,0.105-0.208,0.12
			c-0.081-0.001-0.158-0.02-0.232-0.05c-0.174-0.125-0.35-0.087-0.526,0.002c-0.08,0.013-0.151-0.007-0.214-0.059
			c-0.113-0.263-0.306-0.515-0.11-0.835C363.205,215.435,363.616,215.677,364.058,215.741z"/>
		<path fill="#5F6370" d="M360.047,230.158c0.275-0.358,0.666-0.169,1.007-0.212c0.214,0.274,0.545,0.332,0.836,0.47
			c0.17,0.081,2.08,1.091,1.513,0.816c-0.724-0.218-2.341-0.504-2.749-0.699c-0.201-0.054-2.723-1.048-2.874-1.258
			c0.065-0.697,2.181,0.991,2.201,0.949C360.002,230.18,360.024,230.158,360.047,230.158z"/>
		<path fill="#868993" d="M375.654,217.54c0.203-0.278,0.498-0.183,0.768-0.19c0.015,0.196,0.03,0.392,0.046,0.588
			c-0.407,0.26-0.815,0.52-1.222,0.78c-0.066,0-0.132,0.006-0.197,0.017c-0.111,0.115-0.238,0.131-0.378,0.061
			c-0.18-0.456,0.233-0.507,0.464-0.688C375.338,217.948,375.733,217.958,375.654,217.54z"/>
		<path fill="#CED0D8" d="M355.863,216.132c0.107,0.4,0.6,0.757,0.098,1.266c-0.375-0.426-0.549-0.903-0.51-1.462
			C355.732,215.698,355.751,216.01,355.863,216.132z"/>
		<path fill="#D7DBE3" d="M362.254,211.943c-0.071-0.006-0.142-0.013-0.212-0.019c0.064-0.744,1.113-0.476,1.214-1.182
			c0.046,0.218,0.092,0.437,0.144,0.683C363.007,211.602,362.631,211.772,362.254,211.943z"/>
		<path fill="#D3D8E6" d="M368.658,211.737c-0.296,0.21-0.175,0.524-0.2,0.802c-0.3-0.358-0.601-0.716-0.903-1.076
			c0.253-0.188,0.48-0.104,0.696-0.108C368.387,211.483,368.522,211.61,368.658,211.737z"/>
		<path fill="#D2D7E6" d="M364.462,214.933c-0.27,0.01-0.398,0.162-0.422,0.419c-0.258-0.271-0.516-0.542-0.773-0.813
			c-0.142-0.23,0.019-0.314,0.191-0.394C363.846,214.34,364.263,214.498,364.462,214.933z"/>
		<path fill="#E9EAED" d="M362.853,216.341c0.075-0.002,0.15-0.004,0.226-0.006c0.465,0.156,0.248,0.387,0.026,0.538
			c-0.245,0.167-0.542,0.249-0.846,0.272c-0.11,0.027-0.22,0.054-0.375,0.092c-0.017-0.188-0.03-0.334-0.043-0.48
			C362.173,216.606,362.467,216.36,362.853,216.341z"/>
		<path fill="#D0D4DC" d="M373.655,215.143c-0.037-0.218-0.353-0.313-0.242-0.654c0.555-0.022,1.067,0.418,1.646,0.247
			c0.065,0.068,0.13,0.137,0.196,0.205c-0.466,0.079-0.982-0.188-1.402,0.204C373.785,215.238,373.719,215.233,373.655,215.143z"/>
		<path fill="#D0D4DE" d="M360.45,212.946c-0.28,0.271-0.654,0.307-1.005,0.402c-0.111-0.046-0.222-0.091-0.356-0.146
			c0.23-0.437,0.596-0.438,0.955-0.456C360.18,212.813,360.315,212.88,360.45,212.946z"/>
		<path fill="#EEF1FB" d="M363.458,214.145c-0.064,0.131-0.127,0.263-0.191,0.394c-0.262-0.487-0.871-0.267-1.212-0.593
			c0.067-0.068,0.134-0.137,0.202-0.205C362.707,213.727,363.145,213.751,363.458,214.145z"/>
		<path fill="#8A90A1" d="M371.048,229.677c0.052-0.189,0.104-0.378,0.168-0.612c-0.135-0.047-0.252-0.088-0.369-0.128
			c-0.035-0.17,0.031-0.239,0.203-0.205c0.188-0.04,0.375-0.08,0.595-0.127c0.226,0.093-0.099,0.449,0.2,0.533
			C371.579,229.317,371.314,229.497,371.048,229.677z"/>
		<path fill="#767B8C" d="M377.059,225.747c-0.143-0.234-0.375-0.202-0.597-0.199c-0.12-0.262,0.122-0.35,0.237-0.5
			c0.112-0.121,0.205-0.259,0.32-0.377c0.068-0.054,0.143-0.096,0.223-0.13c0.189-0.024,0.447-0.183,0.424,0.213
			C377.464,225.085,377.261,225.416,377.059,225.747z"/>
		<path fill="#9298A8" d="M377.666,224.754c-0.125-0.224-0.286-0.03-0.429-0.036c-0.227-0.375,0.068-0.6,0.244-0.86
			c0.104-0.099,0.214-0.179,0.368-0.106c0.067,0.192,0.135,0.385,0.202,0.578C377.922,224.471,377.794,224.613,377.666,224.754z"/>
		<path fill="#777D8D" d="M369.855,230.14c0.209-0.332,0.435-0.596,0.81-0.18c-0.2,0.268-0.4,0.535-0.6,0.802
			C370.046,230.538,370.093,230.291,369.855,230.14z"/>
		<path fill="#676B77" d="M358.259,228.937c-0.069,0.139-0.139,0.278-0.208,0.417c-0.285-0.014-0.448-0.204-0.6-0.411
			c0.227-0.019,0.392-0.104,0.394-0.365C358.186,228.464,358.284,228.629,358.259,228.937z"/>
		<path fill="#FDFDFD" d="M367.368,209.859c-0.331,0.351-0.622,0.328-0.961,0.19C366.677,209.782,366.947,209.659,367.368,209.859z"
			/>
		<path fill="#5F6370" d="M363.058,231.141c-0.01-0.063-0.019-0.126-0.029-0.189c0.09-0.171,0.247-0.246,0.424-0.291
			c0.142-0.011,0.264,0.036,0.374,0.123c0.066,0.064,0.113,0.14,0.142,0.227c0.021,0.142-0.005,0.269-0.123,0.364
			C363.58,231.308,363.272,231.387,363.058,231.141z"/>
		<path fill="#9FA5B7" d="M352.881,219.965c0.271,0.211,0.149,0.51,0.175,0.776c-0.125,0.066-0.25,0.132-0.375,0.198
			C352.589,220.582,352.806,220.288,352.881,219.965z"/>
		<path fill="#6C707E" d="M363.847,231.374c0.003-0.145,0.006-0.289,0.009-0.433c0.383-0.141,0.425,0.229,0.6,0.4
			c-0.069,0.139-0.138,0.278-0.207,0.417C364.115,231.63,363.981,231.502,363.847,231.374z"/>
		<path fill="#FBFBFC" d="M361.69,212.162c-0.141,0.239-0.337,0.389-0.625,0.393c0-0.187,0.023-0.363,0.266-0.515
			C361.419,212.07,361.554,212.116,361.69,212.162z"/>
		<path fill="#FDFDFD" d="M369.261,212.339c-0.081-0.129-0.162-0.258-0.243-0.387c0.146-0.011,0.299,0.214,0.439-0.014
			c0.065,0.003,0.13,0.006,0.195,0.008C369.819,212.373,369.681,212.496,369.261,212.339z"/>
		<path fill="#ABAFB9" d="M367.456,212.765c0.134,0.124,0.268,0.248,0.401,0.372c0.098,0.758-0.874,0.783-0.966,1.411
			c-0.235,0.114-0.323-0.069-0.432-0.211c-0.23-0.438-0.671-0.658-1.015-0.977c-0.148-0.386,0.058-0.448,0.376-0.421
			C366.376,212.986,366.919,212.9,367.456,212.765z"/>
		<path fill="#D9DCE3" d="M366.459,214.337c0.121,0.078,0.242,0.154,0.362,0.231c0.142,0.082,0.2,0.216,0.228,0.368
			c0.018,0.251-0.01,0.487-0.243,0.643c-0.31,0.046-0.688-0.198-0.913,0.214c-0.1,0.136-0.199,0.271-0.313,0.396
			c-0.087,0.093-0.186,0.171-0.303,0.223c-0.088,0.021-0.161-0.004-0.22-0.072c-0.062-0.139-0.124-0.278-0.185-0.417
			c0.894-0.104,0.466-0.753,0.472-1.262c0.413,0.069,0.79,0.132,1.179,0.196C366.499,214.663,366.479,214.5,366.459,214.337z"/>
		<path fill="#C7CAD2" d="M362.456,212.725c0.468-0.286,0.935-0.299,1.399,0.009C363.389,212.731,362.923,212.728,362.456,212.725z"
			/>
		<path fill="#A0A5B7" d="M377.069,224.747c-0.07,0.135-0.14,0.271-0.209,0.406c-0.375,0.195-0.781,0.142-0.979-0.181
			c-0.732-1.194-1.889-2.084-2.425-3.414c-0.104-0.632-0.267-1.255-0.316-1.897c-0.009-0.097,0-0.193,0.022-0.289
			c0.339-0.589,0.944-0.544,1.497-0.625c0.13-0.004,0.26-0.009,0.39-0.014c-0.065,0.135-0.13,0.271-0.194,0.405
			c-0.093,0.1-0.129,0.237-0.214,0.343c-0.244,0.212-0.371,0.467-0.294,0.799c0.088,0.349,0.42,0.5,0.625,0.757
			c0.214,0.251,0.362,0.54,0.479,0.846C375.805,222.943,376.163,223.999,377.069,224.747z"/>
		<path fill="#BAC0CE" d="M375.255,221.941c-0.133-0.266-0.267-0.533-0.4-0.799c-0.316-0.573-1.013-1.104-0.2-1.802
			c0.066-0.067,0.133-0.134,0.199-0.201c0.402,1.568,1.293,2.865,2.259,4.119c0.377,0.179,0.791-0.248,1.144,0.085
			c-0.136,0.137-0.272,0.272-0.408,0.409c-0.066,0.062-0.132,0.124-0.198,0.186c-0.318,0.077-0.606,0.272-1.044,0.246
			C375.809,223.702,376.103,222.454,375.255,221.941z"/>
		<path fill="#BDC2D0" d="M373.055,227.54c-0.197,0.135-0.395,0.271-0.592,0.406c-0.679,0.096-1.338,0.206-1.781,0.838
			c-0.221,0.315-0.511,0.196-0.751-0.039c-0.217-0.207-0.365-0.455-0.445-0.744c-0.138-0.398,0.121-0.776,0.078-1.161
			c-0.244-0.337-0.558-0.106-0.836-0.129c-0.098-0.004-0.191-0.025-0.283-0.058c-0.043-0.022-0.085-0.046-0.129-0.069
			c-0.6-0.482-0.953-1.107-1.082-1.863c-0.02-0.264,0.014-0.517,0.183-0.779c0.319-0.148,0.646-0.346,1.038-0.388
			c0.389,0.956,0.912,1.823,1.686,2.519c0.445,0.4,0.253,1.002,0.487,1.502c0.821,0,1.594-0.376,2.417-0.285
			c0.051,0.053,0.069,0.107,0.056,0.164C373.085,227.511,373.071,227.54,373.055,227.54z"/>
		<path fill="#B5BBCC" d="M373.055,227.54c0-0.066,0-0.132,0-0.199c0.1-0.429,0.455-0.648,0.747-0.92
			c0.462-0.215,0.364-0.741,0.6-1.084c0.078-0.054,0.164-0.077,0.259-0.066c0.477,0.257,0.85,0.601,0.984,1.15
			c0,0.047,0,0.095-0.001,0.143C374.604,226.419,373.971,227.356,373.055,227.54z"/>
		<path fill="#B8BDCE" d="M370.054,228.542c0.122,0.096,0.244,0.192,0.413,0.325c0.438-0.832,1.147-1.041,1.996-0.921
			c-0.434,0.328-1.125,0.197-1.413,0.787c-0.068,0.068-0.135,0.136-0.203,0.204c-0.134,0.066-0.269,0.133-0.402,0.199
			C369.777,229.291,369.909,228.921,370.054,228.542z"/>
		<path fill="#767B8C" d="M376.451,225.738c0.046,0.456-0.412,0.535-0.605,0.813c-0.067,0.004-0.135,0.009-0.203,0.013l0.018-0.034
			c-0.245-0.356,0.058-0.503,0.262-0.689C376.087,225.743,376.249,225.633,376.451,225.738z"/>
		<path fill="#A6AAB8" d="M358.455,221.311c0.156-0.429-0.488-0.721-0.202-1.172c0.396-0.204,0.793-0.407,1.19-0.611
			c0.067,0.061,0.108,0.136,0.121,0.226c-0.036,0.358-0.273,0.638-0.379,0.969c-0.166,0.255-0.298,0.542-0.616,0.653
			C358.531,221.355,358.493,221.333,358.455,221.311z"/>
		<path fill="#B3B8C6" d="M360.65,217.551c0.033,0.398,0.328,0.398,0.617,0.405c0.036,0.371-0.311,0.369-0.503,0.519
			c-0.159,0.075-0.315,0.172-0.5,0.077c-0.101-0.37-0.202-0.74-0.297-1.09C360.276,217.254,360.448,217.475,360.65,217.551z"/>
		<path fill="#9195A2" d="M360.264,218.552c0.128-0.073,0.257-0.145,0.385-0.218c0.07-0.064,0.147-0.074,0.232-0.03
			c0.106,0.202,0.063,0.423,0.085,0.637c-0.001,0.088-0.022,0.172-0.058,0.253c-0.109,0.155-0.264,0.232-0.446,0.262
			c-0.368-0.023-0.602,0.419-1,0.292c-0.006-0.072-0.012-0.145-0.018-0.218C359.717,219.202,359.99,218.877,360.264,218.552z"/>
		<path fill="#AFB4C3" d="M357.695,228.33c-0.02-0.063-0.041-0.125-0.064-0.187c-0.229-0.642-0.051-1.266,0.083-1.891
			c0.047-0.094,0.124-0.152,0.228-0.174c0.449,0.156,0.262,0.612,0.466,0.975c0.294-0.542,0.612-0.345,0.897-0.024
			c0.354,0.397,0.723,0.75,1.292,0.789c0.101,0.013,0.192,0.048,0.277,0.104c0.292,0.381,0.277,0.78,0.075,1.192
			c-0.156,0.18-0.357,0.209-0.578,0.173c-0.308-0.084-0.491-0.327-0.691-0.546C359.083,228.289,358.344,228.524,357.695,228.33z"/>
		<path fill="#6A6F7E" d="M357.843,226.138c0.07,0.684-0.056,1.346-0.211,2.005c-0.062-0.065-0.124-0.129-0.186-0.194
			c-0.121-0.737-0.131-1.473,0.009-2.209c-0.03-0.273,0.097-0.586-0.197-0.793c-0.319-0.285-0.405-0.666-0.451-1.035
			c0.037-0.291,0.293-0.383,0.407-0.582c0.05-0.088,0.104-0.171,0.159-0.256c0.138-0.222,0.267-0.457,0.616-0.386
			c0.445,0.322,0.273,0.879,0.455,1.311C358.424,224.762,358.168,225.461,357.843,226.138z"/>
		<path fill="#686F85" d="M357.447,223.52c-0.146,0.112-0.291,0.225-0.454,0.351c0.032,0.361,0.339,0.674,0.267,1.076
			c-0.012,0.2-0.073,0.375-0.3,0.514c-0.327,0.116-0.758-0.372-1.103,0.079c-0.237,0.076-0.349-0.055-0.417-0.247
			c0.004-0.203,0.148-0.265,0.296-0.323c0.092-0.022,0.187-0.028,0.292-0.021c-0.212-0.151-0.471-0.262-0.433-0.588
			C356.209,223.271,356.45,223.162,357.447,223.52z"/>
		<path fill="#8E94A5" d="M355.872,225.121c-0.087,0.028-0.175,0.056-0.26,0.084c-0.042,0.212,0.11,0.267,0.243,0.335
			c0.067,0.066,0.134,0.133,0.201,0.199c0.13,0.093,0.26,0.187,0.183,0.396c-0.254,0.165-0.523,0.133-0.796,0.021
			c-0.063-0.003-0.125-0.008-0.188-0.016c-0.482,0.021-0.937-0.181-1.417-0.178c-0.387-0.043-0.384-0.334-0.392-0.618
			c0.018-0.274-0.017-0.584,0.398-0.592c0.039,0.017,0.078,0.034,0.117,0.05c0.192,0.164,0.397,0.308,0.643,0.382
			c0.188,0.072,0.292,0.091,0.449-0.143C355.296,224.682,355.654,224.536,355.872,225.121z"/>
		<path fill="#9DA3B7" d="M357.695,228.33c0.192-0.104,0.384-0.208,0.648-0.352c0.246,0.828,1.199-0.258,1.505,0.571
			c-0.374,0.318-0.016,0.633,0.044,0.899c-0.153,0.222-0.291,0.198-0.437,0.096c-0.486-0.03-0.814-0.372-1.197-0.607
			c-0.097-0.167-0.201-0.326-0.414-0.36C357.795,228.495,357.745,228.413,357.695,228.33z"/>
		<path fill="#777D90" d="M353.838,225.963c0.046-0.119,0.091-0.237,0.172-0.449c0.367,0.403,0.878,0.343,1.245,0.627
			c-0.389,0.229-0.745,0.47-0.389,0.99c-0.066,0.094-0.137,0.098-0.213,0.012C354.368,226.759,353.934,226.478,353.838,225.963z"/>
		<path fill="#9097A9" d="M354.654,227.142c0.071-0.004,0.142-0.008,0.213-0.012c0.444,0.232,0.873,0.363,1.203-0.178l-0.001,0.002
			c0.542,0.259,0.114,0.674,0.163,1.013c-0.06,0.001-0.118-0.008-0.175-0.029C355.629,227.604,354.929,227.748,354.654,227.142z"/>
		<path fill="#676B77" d="M357.455,225.741c-0.003,0.736-0.006,1.472-0.009,2.208C357.144,227.212,357.131,226.476,357.455,225.741z
			"/>
		<path fill="#434A60" d="M356.07,226.953c-0.319-0.018-0.706,0.268-0.957-0.276c0.406-0.143,0.777-0.355,0.956,0.278
			L356.07,226.953z"/>
		<path fill="#777D90" d="M355.443,226.156c0.216-0.012,0.432-0.024,0.693-0.04c-0.031-0.147-0.056-0.263-0.08-0.377
			c0.185,0.011,0.387-0.032,0.542,0.212C356.304,226.487,355.896,226.42,355.443,226.156z"/>
		<path fill="#D4D6DD" d="M370.252,215.142c0.645,0.718,1.58,0.725,2.411,0.989c-0.028,0.037-0.056,0.074-0.083,0.111
			c-0.179,0.157-0.419,0.17-0.69,0.293c0.445,0.535-0.024,0.861-0.251,1.27c-0.528,0.068-0.868-0.067-0.932-0.619
			c0.012-0.09,0.045-0.171,0.094-0.243c0.087-0.063,0.184-0.035,0.333-0.002c-0.209-0.38-0.148-0.987-0.859-0.744
			c-0.276,0.021-0.403-0.179-0.542-0.362c-0.1-0.162-0.185-0.327-0.11-0.526C369.798,215.126,369.999,215.037,370.252,215.142z"/>
		<path fill="#D8DADD" d="M370.252,215.142c-0.195,0.066-0.391,0.132-0.585,0.197c-0.143-0.004-0.263-0.067-0.375-0.147
			c-0.334-0.29-0.837-0.458-0.766-1.046c0.051-0.142,0.134-0.24,0.302-0.227c0.274,0.036,0.546,0.21,0.826,0.021
			c0.204,0.332,0.28,0.74,0.6,1.002C370.253,215.009,370.253,215.076,370.252,215.142z"/>
		<path fill="#D4D6DD" d="M372.663,216.131c0.159-0.081,0.186-0.224,0.182-0.382c0.045-0.02,0.092-0.04,0.137-0.06
			c0.312,0.165,0.633,0.32,0.712,0.705c-0.102,0.327-0.36,0.34-0.622,0.347c-0.211-0.024-0.396-0.091-0.496-0.3
			c-0.026-0.104-0.006-0.199,0.061-0.283L372.663,216.131z"/>
		<path fill="#D4D6DD" d="M372.655,215.143c0.138,0.128,0.276,0.256,0.415,0.384c-0.008,0.124-0.125,0.144-0.197,0.205l-0.027,0.017
			c-0.218-0.129-0.437-0.257-0.661-0.389C372.265,215.042,372.5,215.188,372.655,215.143z"/>
		<path fill="#BDC0CA" d="M372.872,215.732c0.065-0.068,0.131-0.137,0.197-0.205c0.128,0.074,0.257,0.148,0.385,0.222
			c0.362,0.078,0.673,0.221,0.797,0.61c0.144,0.254,0.338,0.458,0.606,0.584c-0.296,0.26-0.504,0.667-0.999,0.593
			c-0.041-0.021-0.081-0.041-0.122-0.06c-0.228-0.311-0.697-0.443-0.687-0.93c0.158-0.017,0.315-0.033,0.497-0.053
			C373.416,216.103,373.146,215.916,372.872,215.732z"/>
		<path fill="#E7E8EB" d="M374.251,216.359c-0.275-0.191-0.651-0.249-0.797-0.61c0.066-0.135,0.132-0.27,0.198-0.405
			c0.001-0.067,0.001-0.134,0.002-0.201c0.066,0,0.132,0,0.198,0.002C373.941,215.565,374.802,215.73,374.251,216.359z"/>
		<path fill="#D3D5DB" d="M364.65,211.545c0.663,0.018,1.082,0.782,1.813,0.593c0.314,0.037,0.591,0.15,0.799,0.4
			c-0.946,0.04-1.888,0.062-2.757-0.58C364.547,211.837,364.598,211.691,364.65,211.545z"/>
		<path fill="#777B89" d="M374.658,218.748c-0.295,0.6-1.044,0.137-1.398,0.598c-0.283,0.071-0.295-0.125-0.313-0.316
			c0.026-0.142,0.1-0.257,0.195-0.361c0.126-0.13,0.275-0.232,0.434-0.318c0.273-0.153,0.566-0.224,0.879-0.206
			c0.481-0.04,0.756-0.488,1.198-0.605c0.176,0.04,0.412-0.074,0.507,0.204C375.769,218.241,374.994,218.171,374.658,218.748z"/>
		<path fill="#868993" d="M374.455,218.145c-0.27,0.13-0.54,0.26-0.81,0.391c-0.398-0.169-0.622-0.433-0.484-0.893
			c0.196-0.28,0.431-0.298,0.698-0.104l0-0.002C373.93,217.865,374.307,217.892,374.455,218.145z"/>
		<path fill="#9096A5" d="M369.452,230.139c0.003,0.069,0.006,0.138,0.008,0.207c-0.067,0.066-0.135,0.132-0.203,0.198
			c-0.8,0.618-1.037,1.671-1.793,2.324c-0.154,0.02-0.292-0.012-0.399-0.133c-0.531-0.753-1.402-1.124-2.012-1.789
			c-0.945-0.554-0.652-1.469-0.651-2.288c0-0.423,0.102-0.842,0.315-1.219c0.059-0.1,0.149-0.144,0.265-0.132
			c0.702,0.685,0.047,1.583,0.346,2.329c0.559,0.485,1.061-0.194,1.592-0.057C367.759,229.793,368.659,229.727,369.452,230.139z"/>
		<path fill="#8C92A2" d="M364.854,227.344c-0.012,0.75-0.266,1.471-0.217,2.237c0.032,0.506,0.08,0.969,0.416,1.366
			c-0.2-0.067-0.399-0.135-0.599-0.203c-0.176,0.058-0.302-0.032-0.422-0.141c-0.555-0.517-0.721-1.154-0.585-1.887
			c0.166-0.435,0.072-0.972,0.501-1.307C364.242,227.266,364.534,227.104,364.854,227.344z"/>
		<path fill="#747885" d="M367.066,232.735c0.13,0.002,0.26,0.004,0.39,0.006c0.267,0.201,0.534-0.242,0.8,0
			c0,0.133-0.001,0.265-0.001,0.397c-0.212,0.135-0.425,0.27-0.637,0.404c-0.37,0.134-0.6-0.692-0.998-0.148
			c-0.327-0.185-0.654-0.369-0.981-0.553C366.078,232.317,366.604,232.954,367.066,232.735z"/>
		<path fill="#757985" d="M364.25,230.543c0.068,0.067,0.136,0.134,0.205,0.202c0,0.199,0,0.398,0,0.597
			c-0.2-0.133-0.399-0.267-0.6-0.4l0,0c-0.108-0.136-0.128-0.279-0.034-0.43C363.973,230.413,364.115,230.433,364.25,230.543z"/>
		<path fill="#9DA2B0" d="M371.247,212.733c-0.204,0.244-0.399,0.504-0.779,0.423c-0.669,0.152-0.603-0.189-0.413-0.614v0
			c0.117-0.174,0.249-0.328,0.468-0.373C370.903,212.18,371.256,212.226,371.247,212.733z"/>
		<path fill="#D8DADD" d="M369.654,213.94c0.169-0.55-0.342-0.915-0.384-1.407c0.319-0.087,0.469,0.133,0.625,0.343
			c0.039,0.22,0.201,0.345,0.364,0.469C370.244,213.735,369.911,213.799,369.654,213.94z"/>
		<path fill="#B8BDCA" d="M370.455,212.34c-0.133,0.067-0.267,0.134-0.399,0.201c0.021-0.305,0.131-0.563,0.374-0.752
			c0.325-0.075,0.496,0.098,0.617,0.355C370.89,212.33,370.61,212.146,370.455,212.34z"/>
		<path fill="#F7F7F7" d="M369.842,212.929c-0.191-0.132-0.382-0.264-0.573-0.396c-0.009-0.064-0.012-0.129-0.008-0.194
			c0.256-0.005,0.387-0.137,0.392-0.393c0.24,0.142,0.187,0.385,0.208,0.603C369.975,212.682,369.972,212.809,369.842,212.929z"/>
		<path fill="#B3B7C2" d="M370.455,212.34c0.142-0.232,0.374-0.193,0.592-0.196c0.208,0.148,0.581,0.241,0.2,0.589
			C371.097,212.373,370.795,212.32,370.455,212.34z"/>
		<path fill="#B8BDCA" d="M369.842,212.929c0.006-0.126,0.013-0.253,0.019-0.38c0.065-0.005,0.13-0.008,0.195-0.007
			c-0.001,0.297,0.015,0.583,0.412,0.614c-0.07,0.063-0.14,0.126-0.21,0.189C369.986,213.341,369.862,213.186,369.842,212.929z"/>
		<path fill="#E7E9EC" d="M354.063,220.736c-0.003-0.063-0.008-0.126-0.012-0.189c0-0.328,0-0.656,0-1.179
			c0.418,0.602,0.653,1.143,1.203,1.375c0.293,0.074,0.391,0.336,0.535,0.554c0.113,0.196,0.244,0.382,0.353,0.581
			c0.04,0.089,0.063,0.182,0.072,0.278c-0.024,0.453-0.294,0.592-0.704,0.557c-0.147-0.03-0.276-0.098-0.391-0.194
			C354.595,222.027,354.159,221.482,354.063,220.736z"/>
		<path fill="#C1C6D4" d="M355.644,221.356c-0.13-0.205-0.26-0.41-0.39-0.614c-0.132-0.401-0.264-0.803-0.396-1.205
			c0.067-0.067,0.134-0.133,0.201-0.2c0.063,0.004,0.126,0.006,0.19,0.008c0.081,0.405,0.207,0.783,0.592,1.01
			c0.001,0.066-0.001,0.132-0.007,0.198C355.69,220.802,355.956,221.148,355.644,221.356z"/>
		<path fill="#CED1D7" d="M354.063,220.736c0.387,0.552,0.774,1.104,1.162,1.656c0.333,0.673-0.146,1.518,0.452,2.134
			c0.215,0.128,0.429,0.256,0.66,0.394c-0.087,0.285-0.312,0.16-0.465,0.201c-0.173-0.191-0.382-0.218-0.618-0.133
			c-0.237,0.229,0.227,0.462-0.028,0.721c-0.252-0.12-0.512-0.243-0.771-0.367c-0.25-0.15-0.438-0.364-0.611-0.592l0.001,0.002
			c-0.145-0.21-0.29-0.42-0.448-0.649c0.624-0.555,0.313-1.16,0.059-1.763c-0.125-0.401-0.249-0.803-0.374-1.205
			c0.318-0.282,0.077-0.686,0.22-1.006C353.711,220.137,353.509,220.912,354.063,220.736z"/>
		<path fill="#7F8493" d="M368.256,232.741c-0.267,0.1-0.533,0.366-0.8,0c0.426-0.876,0.932-1.686,1.803-2.197
			C368.824,231.231,368.443,231.942,368.256,232.741z"/>
		<path fill="#868A97" d="M368.827,213.919c-0.068,0.068-0.135,0.135-0.203,0.203c-0.087,0.125-0.176,0.248-0.222,0.395
			c-0.023,0.317,0.351,0.472,0.323,0.79c-0.033,0.143-0.113,0.255-0.221,0.35c-0.607,0.337-0.859-0.096-1.118-0.514
			c-0.037-0.162,0.068-0.316,0.03-0.487c-0.18,0.035-0.197,0.233-0.326,0.315c-0.091,0.045-0.166,0.025-0.225-0.055
			c-0.015-0.116-0.029-0.231-0.044-0.347c0-0.187,0-0.374,0-0.624c0.551,0.018,0.685-0.524,1.036-0.808
			C368.132,213.458,368.714,213.397,368.827,213.919z"/>
		<path fill="#B2B7C4" d="M355.644,221.356c0.186-0.238-0.364-0.652,0.191-0.803c0.636,0.589,1.408,0.65,2.216,0.574
			c0.003,0.065,0.006,0.131,0.007,0.197c-0.062,0.126-0.168,0.208-0.282,0.281c-0.332,0.273-0.702,0.328-1.083,0.139
			c-0.292-0.145-0.484-0.066-0.637,0.196C355.796,221.832,355.676,221.626,355.644,221.356z"/>
		<path fill="#C0C4CF" d="M355.662,218.942c-0.333-0.255-0.418-0.61-0.407-1.004c0.272,0.201,0.354,0.5,0.416,0.809
			C355.664,218.811,355.661,218.877,355.662,218.942z"/>
		<path fill="#C3C7D1" d="M355.259,217.943c-0.296-0.329-0.305-0.659-0.009-0.993C355.253,217.281,355.256,217.612,355.259,217.943z
			"/>
		<path fill="#5D6271" d="M363.455,230.741c-0.091,0.173-0.255,0.198-0.426,0.21c-0.345,0.02-0.693,0.056-0.975-0.214
			c-0.188-0.448-1.085,0.001-1.001-0.792c0.565,0.161,1.11,0.142,1.617-0.191c-0.016-0.121-0.036-0.242-0.026-0.366
			c0.01-0.167,0.039-0.33,0.085-0.49c0.081-0.246,0.096-0.504,0.145-0.757c0.022-0.091,0.058-0.175,0.102-0.258
			c0.052-0.082,0.111-0.156,0.178-0.226c0.123-0.154,0.232-0.329,0.501-0.309c0.252,0.5-0.021,0.951-0.146,1.415
			C363.327,229.418,363.612,230.086,363.455,230.741z"/>
		<path fill="#83899C" d="M359.455,229.545c0.62-0.402-0.692-0.359-0.2-0.642c0.117-0.404,0.37-0.346,0.593-0.354
			c0.137,0.193,0.273,0.385,0.41,0.578c0.277,0.229,0.56,0.049,0.847,0.028c0.438-0.032,0.883-0.014,0.95,0.584
			C361.221,229.254,360.287,230.084,359.455,229.545z"/>
		<path fill="#8B91A3" d="M362.056,229.74c-0.44-0.67-1.289-0.142-1.797-0.613c0.198,0.004,0.396,0.008,0.593,0.012
			c0.24-0.152,0.165-0.517,0.437-0.648c0.609,0.218,1.015,0.737,1.558,1.052c-0.059,0.07-0.117,0.141-0.175,0.211
			C362.466,229.75,362.261,229.745,362.056,229.74z"/>
		<path fill="#AFB2BC" d="M362.258,217.145c0.105-0.266,0.304-0.387,0.587-0.407c0.257-0.018,0.471-0.086,0.233-0.403
			c0.012-0.161,0.02-0.332,0.228-0.359c0.25-0.032,0.326,0.141,0.367,0.342c-0.012,0.057-0.007,0.11,0.018,0.162
			c0.091,0.012,0.1-0.084,0.153-0.12c0.062-0.02,0.125-0.03,0.189-0.032c0.454,0.051,0.357-0.379,0.56-0.681
			c0.095,0.479,0.175,0.879,0.254,1.28c-0.025,0.036-0.05,0.072-0.075,0.109c-0.36,0.27-0.82,0.272-1.213,0.455
			c-0.155,0.071-0.311,0.142-0.488,0.114c-0.26-0.168-0.556,0.085-0.819-0.065C362.255,217.408,362.256,217.276,362.258,217.145z"/>
		<path fill="#9EA2AE" d="M362.253,217.539c0.27,0.039,0.548-0.672,0.81,0.01c0.073,0.291-0.17,0.37-0.334,0.502
			c-0.265,0.145-0.512,0.321-0.78,0.463c-0.161,0.078-0.328,0.135-0.51,0.12c-0.225-0.035-0.432-0.107-0.582-0.291
			c-0.069-0.003-0.138-0.006-0.208-0.01c0.206-0.126,0.412-0.252,0.618-0.378C361.46,217.497,361.933,217.699,362.253,217.539z"/>
		<path fill="#858B9E" d="M373.055,218.941c0,0.169,0.04,0.318,0.204,0.405c-0.003,0.065-0.005,0.129-0.007,0.195
			c-0.1,0.251-0.392,0.353-0.514,0.677c0.396,0.357,0.776,0.764,0.917,1.323c0.556,1.195,1.7,1.965,2.273,3.155
			c0.161,0.333,0.524,0.498,0.93,0.458c-0.133,0.131-0.265,0.263-0.398,0.394c-0.003,0.063-0.006,0.127-0.01,0.19
			c-0.132,0.067-0.264,0.135-0.396,0.202c-0.21-0.054-0.324-0.212-0.425-0.385c-0.491-0.743-1.067-1.427-1.414-2.095
			c-0.425-0.315-0.84-0.232-1.14-0.465c-0.403-0.378-0.139-0.978-0.428-1.353c-0.288-0.312-0.669-0.141-0.966-0.284
			c-0.214-0.204-0.138-0.451-0.107-0.692c0.024-0.243,0.059-0.484,0.13-0.719c0.245-0.463,0.31-1.016,0.688-1.415
			C372.768,218.42,372.911,218.682,373.055,218.941z"/>
		<path fill="#898E9F" d="M357.661,221.345c0.132-0.007,0.265-0.014,0.397-0.021c0.132-0.004,0.264-0.008,0.397-0.013
			c0,0,0,0.056,0,0.056c0.086,0.274,0.473,0.015,0.549,0.31c0.118,0.326,0.122,0.646-0.046,0.956
			c-0.108,0.173-0.288,0.071-0.429,0.105c-0.094,0.404,0.088,0.865-0.275,1.203c-0.376-0.282-0.052-0.762-0.311-1.088
			c-0.385-0.062-0.239,0.414-0.485,0.49c-0.308-0.122-0.408-0.382-0.24-0.624C357.512,222.297,357.447,221.78,357.661,221.345z"/>
		<path fill="#A7ACBD" d="M370.072,229.35c-0.066,0.068-0.132,0.136-0.198,0.204c-0.329,0.188-0.712,0.34-1.041,0.147
			c-0.67-0.393-1.457-0.419-2.136-0.759c-0.083-0.073-0.146-0.159-0.194-0.257c-0.149-0.257-0.096-0.574-0.308-0.828
			c-0.856-1.023-0.781-1.723,0.234-2.574c0.392-0.018,0.541,0.241,0.64,0.558c0.058,0.184,0.055,0.396,0.278,0.537
			c0.333,0.144,0.768-0.143,1.108,0.165l-0.001,0.002c0.116,0.123,0.223,0.274,0.184,0.434
			C368.321,228.256,368.995,228.922,370.072,229.35z"/>
		<path fill="#AEB4C4" d="M370.072,229.35c-0.297-0.013-0.595-0.026-0.82-0.037c-1.185-0.714-0.979-1.746-0.799-2.769
			c0.067-0.001,0.134-0.001,0.201-0.002c0.64,0.248,0.715,0.899,1,1.4c0.133,0.2,0.266,0.4,0.399,0.6
			c0.002,0.282-0.015,0.577,0.391,0.594C370.374,229.301,370.229,229.335,370.072,229.35z"/>
		<path fill="#9FA5B5" d="M366.656,228.741c0.412,0.271,0.884,0.178,1.398,0.222c0.22,0.155,0.483,0.341,0.838,0.591
			c0.268,0,0.625,0,0.982,0c-0.141,0.195-0.281,0.39-0.421,0.585c-0.831,0.059-1.627-0.089-2.397-0.398
			C366.71,229.493,366.37,229.242,366.656,228.741z"/>
		<path fill="#D6D8DE" d="M366.866,214.916c0.05,0.026,0.102,0.048,0.156,0.066c0.089,0.045,0.158,0.112,0.209,0.198
			c0.115,0.224,0.208,0.455,0.242,0.707c0.032,0.32,0.034,0.634-0.178,0.906c-0.177,0.141-0.386,0.184-0.603,0.205
			c-0.427-0.001-0.84,0.059-1.25,0.197c-0.214,0.072-0.541,0.202-0.58-0.242l-0.015-0.027c0.258-0.128,0.195-0.371,0.209-0.585
			c0.065,0,0.131,0,0.196,0c0.308-0.01,0.613-0.056,0.92-0.053c0.325-0.028,0.399-0.242,0.387-0.521
			c0.008-0.089,0.042-0.166,0.106-0.229C366.898,215.384,366.844,215.137,366.866,214.916z"/>
		<path fill="#8D909A" d="M363.845,216.359c-0.033,0.177,0.172,0.351-0.024,0.571c-0.411-0.114-0.502-0.294-0.147-0.613
			C363.729,216.336,363.786,216.35,363.845,216.359z"/>
		<path fill="#B1B6C7" d="M375.255,221.941c0.357,0.177,0.737,0.323,0.957,0.757c0.144,0.396-0.144,0.998,0.52,1.32
			c0.255-0.042,0.568-0.402,0.92-0.081c-0.138,0.26-0.276,0.521-0.414,0.781c-0.057,0.01-0.113,0.02-0.169,0.029
			c-0.288,0.146-0.454,0.063-0.634-0.218C375.917,223.719,375.459,222.89,375.255,221.941z"/>
		<path fill="#6C707E" d="M363.455,230.741c-0.311-0.667-0.312-1.334-0.002-2.002c0.028,0.04,0.057,0.08,0.086,0.119
			c-0.047,0.59,0.065,1.15,0.316,1.684c0,0.134,0,0.267,0,0.4C363.722,230.874,363.589,230.807,363.455,230.741z"/>
		<path fill="#A5A9B6" d="M366.667,215.726c0.195,0.161,0.208,0.366,0.142,0.601c-0.106,0.253-0.345,0.194-0.552,0.211
			c-0.191-0.281-0.739,0.162-0.795-0.393c0.064-0.136,0.128-0.272,0.192-0.408c0.189-0.101,0.345-0.264,0.568-0.301
			C366.443,215.422,366.542,215.595,366.667,215.726z"/>
		<path fill="#BEC4D2" d="M366.667,215.726c-0.341-0.255-0.676-0.028-1.014,0.011c0.156-0.189,0.312-0.379,0.428-0.521
			c0.358-0.063,0.472,0.129,0.585,0.322C366.664,215.601,366.664,215.664,366.667,215.726z"/>
		<path fill="#B7BCCB" d="M365.461,216.146c0.172,0.319,0.622,0.075,0.795,0.392c-0.337-0.051-0.723,0.145-1.003-0.197
			C365.323,216.276,365.392,216.211,365.461,216.146z"/>
		<path fill="#9097AA" d="M373.656,221.541c-0.409-0.453-0.745-0.976-1.31-1.283c0.233-0.384,0.465-0.683,0.906-0.717
			C373.554,220.174,373.585,220.861,373.656,221.541z"/>
		<path fill="#B0B5C4" d="M374.655,219.34c-0.44,0.657,0.175,1.197,0.2,1.802c-0.258-0.189-0.517-0.378-0.767-0.56
			C374.078,220.046,373.861,219.462,374.655,219.34z"/>
		<path fill="#C8CDDA" d="M373.857,226.544c-0.196,0.337-0.462,0.604-0.801,0.797c-0.8,0.472-1.833,0.094-2.614,0.802
			c-0.347-0.571-0.062-1.164-0.251-1.675c-0.764-0.866-1.817-1.561-1.735-2.927c0.029-0.032,0.058-0.064,0.086-0.098
			c0.225-0.12,0.468-0.215,0.62-0.44c0.11-0.096,0.227-0.144,0.36-0.042c0.372,1.445,1.316,2.519,2.082,3.49
			c0.573,0.173,0.771-0.112,1.033-0.231c0.093-0.042,0.188-0.071,0.287-0.091c0.315-0.04,0.625-0.045,0.905,0.137
			C373.917,226.351,373.926,226.443,373.857,226.544z"/>
		<path fill="#BAC0D0" d="M369.462,222.954c-0.068,0.063-0.137,0.125-0.206,0.188c-0.146,0.374-0.56,0.214-0.8,0.399v0
			c-0.171,0.366-0.435,0.565-0.818,0.439c-0.25,0.25-0.157,0.518-0.183,0.761c-0.628,0.16-1.073-0.089-1.392-0.623
			c-0.069-0.182-0.118-0.367-0.068-0.563c0.464-0.445,1.187-0.336,1.657-0.771c0.64-0.253,1.307-0.077,1.96-0.126
			c0.074,0.066,0.104,0.149,0.09,0.248C369.635,222.987,369.555,223.005,369.462,222.954z"/>
		<path fill="#B4B9CA" d="M366.244,223.921c0.119,0.694,0.821,0.527,1.211,0.821c0.108,0.725,0.594,1.24,1,1.8
			c-0.485-0.061-0.926,0.368-1.443,0.118c-0.222-0.19-0.133-0.467-0.156-0.718c0.224-0.303-0.005-0.532-0.114-0.774
			c-0.289-0.266-0.792-0.123-0.979-0.548c-0.054-0.263,0.036-0.481,0.207-0.674C366.056,223.88,366.148,223.875,366.244,223.921z"/>
		<path fill="#BBC0CE" d="M369.655,227.943c-0.533-0.324-0.597-0.984-1-1.401c0.239-0.092,0.479-0.184,0.741-0.284
			c0.247,0.125,0.445,0.333,0.605,0.643C369.777,227.197,369.579,227.529,369.655,227.943z"/>
		<path fill="#7E8597" d="M371.652,221.339c0.397-0.196,0.798-0.312,1.221-0.043c0.366,0.448,0.038,1.037,0.29,1.54
			c1.75,0.047,1.826,1.764,2.692,2.706c-0.483,0.439-0.791-0.191-1.201-0.197c-0.062-0.012-0.124-0.021-0.186-0.026
			c-0.15-0.005-0.264-0.08-0.36-0.188c-0.806-1.096-1.755-2.084-2.466-3.253c-0.042-0.134-0.064-0.271-0.052-0.412
			C371.611,221.422,371.631,221.381,371.652,221.339z"/>
		<path fill="#767C8E" d="M374.655,225.344c0.026-0.254,0.13-0.374,0.344-0.149c0.239,0.249,0.508,0.385,0.857,0.347
			c0.066,0.133,0.133,0.266,0.2,0.399c-0.115,0.208-0.431,0.281-0.395,0.589C375.326,226.135,374.99,225.739,374.655,225.344z"/>
		<path fill="#C5CAD8" d="M374.293,225.122c0.059,0.065,0.117,0.13,0.176,0.195c-0.076,0.473,0.202,1.122-0.612,1.227
			c0-0.067-0.001-0.135-0.001-0.202c-0.038-0.423-0.296-0.849,0.019-1.267C374.023,225.009,374.162,225.027,374.293,225.122z"/>
		<path fill="#80848E" d="M358.843,221.537c-0.093,0.08-0.187,0.161-0.283,0.244c-0.168-0.106-0.076-0.276-0.104-0.413
			c0.23-0.175,0.268-0.528,0.578-0.631c0.23-0.122,0.28-0.543,0.669-0.402c0.1,0.113,0.148,0.248,0.171,0.395
			c0.029,0.245,0.025,0.488-0.033,0.729c-0.029,0.093-0.077,0.176-0.14,0.25c-0.2,0.134-0.352,0.035-0.494-0.101
			c-0.058-0.075-0.045-0.184-0.113-0.264C359.014,221.412,358.971,221.531,358.843,221.537z"/>
		<path fill="#747883" d="M359.634,220.335c-0.191,0.148-0.279,0.449-0.601,0.402c-0.041-0.41,0.224-0.687,0.428-0.99
			c0.376-0.023,0.426-0.836,0.989-0.409C360.412,219.862,360.147,220.199,359.634,220.335z"/>
		<path fill="#D2D3D7" d="M361.484,218.564c0.128-0.066,0.255-0.133,0.383-0.2c0.271,0.271,0.418,0.611,0.225,0.949
			c-0.215,0.375-0.061,0.67,0.068,0.992c0.019,0.094,0.017,0.186-0.003,0.279c-0.777,0.51-1.034-0.279-1.482-0.592
			c-0.076-0.256,0.013-0.365,0.298-0.314c-0.039-0.179-0.252-0.325-0.118-0.538c0.018-0.055,0.03-0.112,0.038-0.169
			C360.941,218.62,361.19,218.56,361.484,218.564z"/>
		<path fill="#ABAEB7" d="M360.854,219.14c0.098,0.164,0.195,0.328,0.286,0.481c-0.172,0.117-0.324,0.221-0.477,0.325
			c-0.014,0.039-0.027,0.079-0.04,0.118c-0.172,0.234-0.438,0.369-0.621,0.592c-0.096,0.084-0.197,0.153-0.333,0.093
			c-0.012-0.138-0.024-0.276-0.036-0.415c0.272-0.333,0.544-0.665,0.817-0.998C360.585,219.271,360.719,219.206,360.854,219.14z"/>
		<path fill="#838792" d="M361.484,218.564c-0.197,0.136-0.395,0.271-0.592,0.406c-0.339-0.191-0.119-0.413-0.034-0.627
			C361.093,218.343,361.339,218.308,361.484,218.564z"/>
		<path fill="#BBBFCB" d="M360.459,227.939c-0.878,0.167-1.145-0.652-1.604-1.088c-0.354,0.217-0.033,0.643-0.425,0.798
			c-0.532-0.396-0.324-0.989-0.376-1.51c-0.213-0.588-0.153-1.088,0.451-1.415c0.434-0.171,0.639,0.153,0.885,0.403
			c0.378,0.385,0.709,0.839,1.297,0.932c0.202,0.026,0.399,0.166,0.606,0.015c0.23-0.026,0.42,0.054,0.578,0.219
			c0.073,0.202-0.042,0.294-0.208,0.354c0.28-0.002,0.463,0.162,0.624,0.366c0.049,0.079,0.076,0.166,0.086,0.257
			c-0.021,0.281-0.188,0.403-0.454,0.418c-0.236-0.01-0.418-0.135-0.592-0.277c-0.067-0.051-0.132-0.105-0.198-0.159
			c-0.138-0.1-0.292-0.17-0.451-0.23c-0.249-0.058-0.446-0.254-0.727-0.266C359.94,227.237,360.634,227.405,360.459,227.939z"/>
		<path fill="#ABAEB7" d="M358.658,224.74c-0.191,0.21-0.383,0.42-0.605,0.664c0,0.222,0,0.479,0,0.735c-0.07,0-0.14,0-0.21-0.001
			c-0.281-0.811,0.474-1.427,0.411-2.197c0.062-0.551-0.149-1.143,0.205-1.73c0.158,0.215,0.265,0.361,0.372,0.507
			c0.032,0.028,0.063,0.056,0.095,0.084c0.029,0.081,0.035,0.164,0.021,0.249c-0.04,0.12-0.104,0.229-0.164,0.339
			c-0.158,0.33-0.048,0.658,0.006,0.987C358.799,224.518,358.77,224.644,358.658,224.74z"/>
		<path fill="#A4ABBE" d="M360.459,227.939c-0.254-0.553-1.072-0.814-0.855-1.743c0.459,0.27,0.858,0.504,1.257,0.737
			c-0.054,0.337-0.005,0.694-0.199,1.003C360.594,227.937,360.527,227.938,360.459,227.939z"/>
		<path fill="#9399AB" d="M360.662,227.936c-0.077-0.362-0.216-0.737,0.199-1.002c0.162,0.01,0.309,0.051,0.398,0.205
			c-0.213,0.468,0.127,0.937-0.005,1.404c0.003,0.291,0.008,0.583-0.401,0.597C360.793,228.738,361.013,228.292,360.662,227.936z"/>
		<path fill="#9CA3B6" d="M357.661,221.345c0.052,0.318,0.103,0.637,0.162,0.995c-0.2,0.282-0.779,0.472-0.364,1.003
			c-0.001,0.059-0.005,0.118-0.012,0.177c-0.321,0.016-0.643,0.033-1.006,0.051c-0.246,0.308-0.505,0.631-0.763,0.955
			c-0.577-0.074-0.616-0.524-0.609-0.948c0.006-0.396,0.102-0.792,0.158-1.187c0.072,0.056,0.144,0.111,0.216,0.167
			c0.349,0.173,0.757,0.136,1.261,0.471c-0.204-0.529-0.497-0.765-0.659-1.073l0.013-0.016c-0.044-0.218-0.088-0.436-0.145-0.716
			C356.527,221.219,357.062,222.107,357.661,221.345z"/>
		<path fill="#B7BBC6" d="M353.844,224.751c0.287,0.111,0.479,0.32,0.611,0.592C354.081,225.321,353.885,225.116,353.844,224.751z"
			/>
		<path fill="#BDC0CA" d="M372.638,216.158c-0.003,0.072-0.007,0.144-0.011,0.216c-0.166,0.303-0.037,0.609-0.008,0.914
			c0.031,0.49-0.31,0.655-0.687,0.789c-0.752,0.353-1.535,0.146-2.309,0.127c-0.683-0.208-1.167-0.684-1.618-1.204
			c0.062-0.197,0.223-0.302,0.378-0.413c0.356-0.253,0.713-0.188,1.072-0.006c0.396,0.148,0.679,0.572,1.174,0.48
			c0.09-0.014,0.162,0.018,0.22,0.086c0.035,0.375,0.306,0.474,0.62,0.537c0.217-0.173,0.021-0.63,0.501-0.642
			c-0.174-0.236-0.324-0.439-0.526-0.714C371.893,216.264,372.265,216.211,372.638,216.158z"/>
		<path fill="#B8BBC3" d="M370.655,217.143c-0.639,0.583-0.795-0.281-1.199-0.4c-0.194-0.536-0.437-1.072,0.004-1.607
			c0.069,0.068,0.138,0.136,0.208,0.204c0.063,0.134,0.126,0.268,0.189,0.401C369.822,216.38,370.809,216.436,370.655,217.143z"/>
		<path fill="#E4E5E8" d="M370.257,216.14c0.312-0.725,0.62-0.297,0.875,0.027c0.214,0.273,0.115,0.625,0.114,0.948
			c-0.21,0.109-0.25-0.142-0.39-0.174C370.549,216.754,370.265,216.551,370.257,216.14z"/>
		<path fill="#CED0D6" d="M370.257,216.14c0.199,0.267,0.399,0.534,0.599,0.801c-0.002,0.069-0.003,0.138-0.005,0.207
			c-0.065-0.003-0.13-0.005-0.196-0.004c-0.209-0.5-1.009-0.664-0.799-1.402C369.99,215.874,370.123,216.008,370.257,216.14z"/>
		<path fill="#A9ACB4" d="M369.459,215.136c-0.159,0.535,0.258,1.072-0.004,1.607c-0.333-0.036-0.666-0.285-1.001-0.005
			c-0.066-0.055-0.111-0.125-0.138-0.208c-0.06-0.346,0.122-0.654,0.154-0.986c0.062-0.068,0.123-0.136,0.184-0.203
			c0.147-0.251-0.062-0.36-0.211-0.457c-0.216-0.141-0.384-0.269-0.192-0.542c0.125-0.073,0.249-0.146,0.373-0.219
			C368.617,214.695,369.285,214.712,369.459,215.136z"/>
		<path fill="#989CA9" d="M372.454,217.142c-0.244-0.325-0.393-0.627,0.173-0.768c0.141,0.058,0.282,0.115,0.423,0.172
			c0.27,0.331,0.811,0.44,0.808,0.992c-0.221,0.01-0.46-0.033-0.605,0.204C372.729,217.886,372.684,217.391,372.454,217.142z"/>
		<path fill="#888D9B" d="M369.686,218.097c0.007-0.127,0.014-0.255,0.026-0.481c0.293,0.204,0.523,0.363,0.76,0.528
			c0.467-0.073,0.922-0.145,1.378-0.216c0.274-0.129,0.554-0.112,0.828-0.042c0.326,0.209,0.501,0.503,0.582,0.862
			c-0.068,0.064-0.136,0.129-0.204,0.195c-0.309,0.032-0.391-0.27-0.587-0.401c-0.679-0.131-1.209,0.587-1.909,0.337
			c-0.088-0.001-0.175-0.014-0.26-0.035c-0.208-0.079-0.36-0.231-0.504-0.394C369.714,218.345,369.662,218.233,369.686,218.097z"/>
		<path fill="#A2A7B8" d="M373.259,218.746c-0.467,0.026-0.347-0.478-0.59-0.655c-0.241-0.215-0.542-0.128-0.819-0.165
			c0.241-0.231,0.738-0.265,0.604-0.785c0.267,0.2,0.533,0.4,0.8,0.6c-0.026,0.342,0.292,0.514,0.391,0.794
			C373.516,218.606,373.387,218.677,373.259,218.746z"/>
		<path fill="#969BAB" d="M366.656,228.741c0.134,0.333,0.267,0.667,0.4,1c-0.646-0.065-1.142,0.738-1.989,0.205
			c-0.414-0.765,0.201-1.708-0.012-2.604c0.038-0.028,0.076-0.056,0.113-0.083C365.973,227.442,366.401,228.004,366.656,228.741
			L366.656,228.741z"/>
		<path fill="#969BAB" d="M364.854,227.344c-0.268,0.066-0.535,0.131-0.803,0.197c-0.341-1.018,0.452-1.566,0.928-2.245
			c0.435,0.304,0.351,0.74,0.201,1.117c-0.125,0.314-0.1,0.617-0.124,0.927l-0.002,0.002
			C364.988,227.343,364.921,227.344,364.854,227.344z"/>
		<path fill="#6C707E" d="M365.053,225.337c-0.182,0.804-1.026,1.307-1.002,2.204c-0.339,0.333-0.098,0.855-0.395,1.201
			c-0.064,0.087-0.13,0.093-0.198,0.002l-0.005-0.005c-0.079-0.419,0.314-0.779,0.149-1.228c-0.125,0.148-0.241,0.285-0.357,0.422
			c-0.545-0.723,0.186-1.169,0.373-1.734c0.067-0.178,0.156-0.345,0.259-0.503c0.212-0.292,0.35-0.639,0.627-0.887
			c0.252-0.185,0.458-0.438,0.774-0.531c0.226,0.021,0.302,0.176,0.333,0.372c0.001,0.093-0.014,0.183-0.043,0.271
			C365.457,225.135,365.303,225.296,365.053,225.337z"/>
		<path fill="#797D8B" d="M363.459,228.744c0.065-0.002,0.131-0.003,0.197-0.002c0,0.331,0,0.661,0,0.987
			c0.207,0.283,0.4,0.548,0.594,0.813c-0.131-0.001-0.263-0.001-0.395-0.002C363.277,230.041,363.499,229.364,363.459,228.744z"/>
		<path fill="#C9CDD5" d="M356.043,221.956c0.375,0.369,1.151,0.457,0.918,1.329c-0.597-0.124-1.077-0.383-1.52-0.727
			c0.153-0.021,0.307-0.041,0.42-0.056C356.079,222.338,356.037,222.14,356.043,221.956z"/>
		<path fill="#9A9FAA" d="M368.471,215.544c0.411,0.339-0.063,0.662-0.02,0.994c-0.282,0.233-0.587,0.241-0.836,0.143
			c-0.401-0.271-0.132-0.687-0.361-0.939c-0.07-0.196-0.14-0.393-0.209-0.589c0.129-0.126,0.264-0.134,0.403-0.018
			C367.805,215.229,367.95,215.856,368.471,215.544z"/>
		<path fill="#686C7B" d="M367.448,215.134c-0.134,0.005-0.269,0.012-0.403,0.018c-0.015-0.056-0.022-0.112-0.023-0.169
			c0.083-0.421,0.061-0.958,0.745-0.74C367.961,214.685,367.562,214.852,367.448,215.134z"/>
		<path fill="#8B8E99" d="M368.252,214.342c-0.148,0.447,0.864,0.425,0.403,0.999C368.659,214.952,367.692,214.955,368.252,214.342z
			"/>
		<path fill="#868B9A" d="M363.868,226.166c0.045,0.678-0.909,1.004-0.623,1.768c-0.057,0.009-0.114,0.019-0.172,0.027
			c-0.072,0.06-0.152,0.072-0.239,0.038c-0.296-0.218-0.384-0.574-0.571-0.864l0.002,0.003c-0.381-0.618,0.162-0.759,0.513-1.001
			C363.147,225.958,363.514,225.813,363.868,226.166z"/>
		<path fill="#83899B" d="M361.254,228.543c-0.116-0.468-0.763-0.938,0.005-1.404l-0.014,0.021c0.207,0.479,0.569,0.868,0.784,1.339
			c0.197,0.195,0.452,0.148,0.692,0.164c0.131,0.05,0.229,0.118,0.143,0.279c-0.005,0.201-0.012,0.401-0.018,0.602
			C362.066,229.607,361.737,228.951,361.254,228.543z"/>
		<path fill="#696F7F" d="M362.864,228.942c-0.069-0.065-0.138-0.131-0.207-0.197c-0.304,0.091-0.471-0.096-0.624-0.311
			c-0.042-0.102-0.037-0.201,0.017-0.297c0.335-0.304,0.669-0.195,1.003,0.003C363.028,228.416,363.145,228.726,362.864,228.942z"/>
		<path fill="#747A8B" d="M363.054,228.14c-0.335,0.053-0.719-0.134-0.999,0.2c-0.141,0.031-0.258-0.013-0.268-0.162
			c-0.018-0.277,0.179-0.373,0.41-0.423c0.245-0.049,0.458,0.02,0.646,0.178c0.076,0.008,0.153,0.017,0.229,0.026
			C363.064,228.02,363.058,228.08,363.054,228.14z"/>
		<path fill="#E7E7EA" d="M364.863,216.953c0.636,0.25,1.164-0.447,1.798-0.204c0.064,0.346-0.229,0.443-0.434,0.566
			c-0.456,0.275-0.581,0.668-0.504,1.162c-0.057,0.169-0.201,0.28-0.29,0.427c-0.135,0.249,0.021,0.434,0.097,0.59
			c0.271,0.26,0.455-0.079,0.674-0.016c0.091,0.044,0.158,0.11,0.205,0.199c0.14,0.5,0.192,0.993-0.113,1.457
			c-0.281,0.09-0.554,0.213-0.853,0.252c-0.489-0.467-0.886-1.009-1.265-1.566c-0.017-0.185,0.017-0.365,0.041-0.547
			c0.013-0.287,0.2-0.542,0.153-0.85c-0.179-0.341-0.582-0.362-0.854-0.576c-0.161-0.151-0.226-0.315-0.069-0.508
			C363.888,217.089,364.361,216.969,364.863,216.953z"/>
		<path fill="#CDCED1" d="M363.45,217.337c0.011,0.165,0.046,0.316,0.209,0.402c0.187,0.173,0.449,0.244,0.638,0.482
			c-0.144,0.497-0.492,0.68-1.001,0.625c-0.373-0.204-0.589-0.519-0.662-0.935c0.143-0.121,0.287-0.242,0.43-0.363
			C363.192,217.478,363.321,217.407,363.45,217.337z"/>
		<path fill="#E8E9ED" d="M362.633,217.912c0.359,0.161,0.457,0.521,0.625,0.825c0.239,0.19,0.559,0.263,0.756,0.516
			c0.087,0.117,0.125,0.237,0.018,0.364c-0.331,0.277-0.732,0.164-1.089,0.181c-0.213,0.354-0.519,0.504-0.89,0.545
			c-0.177-0.228-0.354-0.455-0.499-0.643c-0.098-0.411,0.309-0.301,0.412-0.513c-0.032-0.261-0.066-0.542-0.101-0.823
			C362.122,218.214,362.377,218.062,362.633,217.912z"/>
		<path fill="#707584" d="M370.456,218.74c0.254-0.365,0.544,0.099,0.948,0.104c0.133-0.27,0.267-0.539,0.333-0.673
			c0.467-0.009,0.615,0.157,0.73,0.37c-0.158,0.487-0.203,1.024-0.609,1.403c-0.141-0.084-0.105-0.281-0.234-0.374
			c-0.173,0.184-0.334,0.378-0.59,0.448c-0.1,0.003-0.189-0.025-0.271-0.083C370.523,219.573,370.169,219.239,370.456,218.74z"/>
		<path fill="#5D626F" d="M371.043,219.957c0.278-0.313,0.557-0.625,0.953-1.068c-0.063,0.486-0.101,0.771-0.138,1.056
			c-0.003,0.263-0.006,0.527-0.01,0.79c-0.342,0.246-0.626,0.16-0.873-0.15C370.87,220.362,370.887,220.152,371.043,219.957z"/>
		<path fill="#707584" d="M371.071,220.534c0.237,0.152,0.492,0.238,0.778,0.201c-0.066,0.202-0.132,0.403-0.197,0.604l0.001-0.001
			c-0.074,0.072-0.161,0.111-0.266,0.11c-0.214-0.042-0.366-0.162-0.453-0.362C370.88,220.877,370.885,220.683,371.071,220.534z"/>
		<path fill="#ABAEB7" d="M358.843,221.537c0.091-0.158,0.181-0.315,0.352-0.613c0.041,0.304,0.06,0.447,0.08,0.59
			c0.085,0.255,0.368,0.435,0.285,0.754c-0.087,0.225-0.263,0.372-0.448,0.511c-0.089,0.043-0.172,0.03-0.249-0.031
			c0,0-0.031-0.029-0.031-0.03C358.835,222.324,358.839,221.93,358.843,221.537z"/>
		<path fill="#A2A8B8" d="M365.053,225.337c0.127-0.14,0.253-0.28,0.38-0.42c0.369,0.074,0.889-0.217,1.021,0.425
			c-0.46,0.59-0.769,1.222-0.526,2.043c0.185,0.109,0.405,0.239,0.589,0.347c0.199,0.35,0.117,0.685,0.138,1.008
			c-0.516-0.487-0.808-1.229-1.6-1.4c-0.159-0.106-0.319-0.213-0.555-0.371C365.123,226.568,365.089,225.953,365.053,225.337z"/>
		<path fill="#ADB2C2" d="M366.455,225.341c-0.24-0.382-0.792-0.015-1.021-0.424c0.012-0.055,0.026-0.11,0.041-0.164
			c0.087-0.137,0.15-0.315,0.374-0.224c0.241,0.374,0.716,0.076,1.083,0.451c0.165,0.248,0.254,0.603-0.075,0.962
			C366.854,225.654,366.722,225.453,366.455,225.341z"/>
		<path fill="#FBFBFB" d="M365.652,218.542c-0.445-0.491-0.269-0.903,0.182-1.253c0.259-0.202,0.55-0.361,0.827-0.54
			c0.191,0.002,0.381,0.004,0.572,0.006c0.287,0.001,0.593-0.082,0.816,0.191c0.686,0.185,1.011,0.883,1.638,1.151
			c0.065,0.079,0.13,0.158,0.195,0.236c-0.52,0.71-0.894,0.091-1.311-0.141c-0.103-0.058-0.188-0.158-0.341-0.132
			c-0.125,0.233,0.146,0.285,0.211,0.431c0.217,0.313,0.564,0.618,0.051,0.968c-0.206,0.052-0.386-0.004-0.548-0.131
			c-0.099-0.087-0.184-0.19-0.3-0.282c-0.167,0.155,0.189,0.313-0.085,0.477C366.627,219.719,366.003,219.418,365.652,218.542z"/>
		<path fill="#A3A6B0" d="M368.048,216.946c-0.272-0.063-0.595,0.09-0.816-0.191c0.007-0.338,0.015-0.676,0.022-1.014
			c0.273,0.154,0.136,0.501,0.339,0.709c0.261,0.158,0.566,0.066,0.857,0.087c0.001,0.067,0.002,0.134,0.003,0.201
			C368.368,216.903,368.209,216.927,368.048,216.946z"/>
		<path fill="#D9DDE6" d="M369.658,222.945c0.002-0.066,0.002-0.133,0-0.2c0.066-0.224,0.235-0.33,0.446-0.389
			c0.509-0.107,0.909,0.1,1.264,0.439c0.531,0.591,1.236,0.987,1.768,1.579c0.767,0.853,0.707,1.307-0.28,1.965
			c-0.066,0.001-0.132,0.002-0.198,0.003c-0.363,0.245-0.736,0.113-1.009-0.1C370.568,225.405,369.852,224.327,369.658,222.945z"/>
		<path fill="#D2D6E0" d="M369.658,222.945c0.295,0.603,0.562,1.221,0.892,1.803c0.467,0.826,1.103,1.462,2.107,1.594
			c-0.146,0.271-0.331,0.497-0.716,0.595c-1.263-0.546-1.43-2.071-2.479-2.897c0-0.36,0-0.723,0-1.086
			C369.527,222.949,369.593,222.946,369.658,222.945z"/>
		<path fill="#D2D6E0" d="M372.855,226.34c0.195-0.26,0.39-0.52,0.62-0.827c-0.177-1.328-1.653-1.571-2.219-2.571
			c0.285-0.273,0.632-0.254,0.89-0.041c0.739,0.61,1.451,1.257,1.71,2.241c-0.01,0.4,0.458,0.8,0,1.201
			C373.522,226.341,373.189,226.34,372.855,226.34z"/>
		<path fill="#BDC2D0" d="M368.455,223.541c0.267-0.133,0.534-0.267,0.801-0.399C369.19,223.676,368.77,223.503,368.455,223.541z"/>
		<path fill="#777A86" d="M370.037,222.529c-0.126,0.072-0.253,0.145-0.379,0.217c-0.643,0.304-1.35-0.004-2.002,0.21
			c-0.292-0.105-0.292-0.105-0.091-0.498c0.168-0.185,0.386-0.295,0.611-0.392c0.424-0.251,0.875-0.402,1.375-0.366
			c0.097,0,0.193,0.009,0.29,0.024c0.311,0.08,0.572,0.194,0.397,0.598C370.178,222.399,370.112,222.468,370.037,222.529z"/>
		<path fill="#A9AEBD" d="M367.652,222.539c-0.036,0.14-0.199,0.28,0.004,0.417c-0.403,0.527-1.015,0.499-1.58,0.594
			c-0.266-0.313-0.029-0.517,0.157-0.732c0.313-0.241,0.474-0.686,0.947-0.716C367.398,222.18,367.557,222.325,367.652,222.539z"/>
		<path fill="#7F838E" d="M366.451,222.935c-0.252,0.127-0.414,0.31-0.375,0.614c0.056,0.124,0.112,0.248,0.168,0.371
			c-0.059,0.011-0.119,0.02-0.178,0.027c-0.25,0.167-0.478,0.156-0.715-0.101c-0.09-0.776,0.35-1.138,0.993-1.343
			C366.576,222.645,366.556,222.784,366.451,222.935z"/>
		<path fill="#8F939E" d="M366.451,222.935c-0.408-0.215-0.442-0.191-0.967,0.683c0.039,0.381,0.343,0.298,0.583,0.33
			c-0.072,0.194-0.145,0.387-0.217,0.581c-0.125,0.075-0.25,0.149-0.375,0.224c-0.018-0.164-0.047-0.322-0.219-0.402
			c-0.28-0.105-0.571-0.188-0.819-0.367c-0.046-0.08-0.064-0.165-0.053-0.256c0.161-0.36,0.481-0.659,0.418-1.104
			c0.025-0.323-0.019-0.668,0.277-0.908c0.235-0.105,0.44,0.095,0.659,0.073c0.285-0.113,0.468-0.392,0.784-0.427
			c0.449-0.005,0.818,0.089,0.816,0.649c-0.028,0.043-0.056,0.086-0.084,0.129C366.856,222.273,366.761,222.713,366.451,222.935z"/>
		<path fill="#BCC1CF" d="M370.037,222.529c0.013-0.052,0.023-0.104,0.031-0.157c0.317-0.301,0.786-0.313,1.116-0.591
			c0.219-0.094,0.44-0.285,0.652,0.01c0.678,0.89,1.352,1.785,2.038,2.669c0.162,0.209,0.372,0.382,0.418,0.662
			c-0.146,0.006-0.292,0.013-0.437,0.02c-0.46-0.605-0.9-1.224-1.446-1.764c-0.338-0.335-0.693-0.492-1.155-0.436
			C370.9,222.654,370.508,222.475,370.037,222.529z"/>
		<path fill="#858B9E" d="M371.836,221.79c-0.228-0.078-0.396,0.065-0.576,0.159c-0.198-0.287-0.071-0.467,0.197-0.602
			c0.065-0.004,0.131-0.008,0.196-0.01C371.714,221.488,371.775,221.639,371.836,221.79z"/>
		<path fill="#F3F4F5" d="M359.642,221.744c0.021-0.067,0.043-0.135,0.065-0.203c0.08-0.273,0.095-0.572,0.318-0.788
			c0.212-0.11,0.364-0.004,0.505,0.141c0.194,0.309,0.257,0.688,0.513,0.964c0.355,0.377,0.651,0.786,0.675,1.33
			c0.04,0.221,0.106,0.435,0.194,0.641c0.12,0.395,0.628,0.578,0.579,1.064c-0.524,0.438-1.121,0.384-1.73,0.257
			c-0.4-0.169-0.76-0.383-0.899-0.833c-0.176-0.8,0.053-1.63-0.176-2.428C359.671,221.841,359.656,221.793,359.642,221.744z"/>
		<path fill="#D4D6DE" d="M360.454,220.946c-0.639-0.29-0.426,0.487-0.747,0.596c-0.012-0.264-0.025-0.528-0.038-0.792
			c0.063-0.07,0.126-0.139,0.189-0.208c0.275-0.124,0.527-0.376,0.866-0.163C360.81,220.652,360.873,220.914,360.454,220.946z"/>
		<path fill="#A5A6AD" d="M359.458,222.333c-0.061-0.273-0.123-0.546-0.183-0.819c0.123,0.077,0.245,0.153,0.368,0.229
			c0,0,0.06-0.027,0.06-0.027c0.11,0.189,0.148,0.382,0.027,0.582C359.648,222.385,359.558,222.397,359.458,222.333z"/>
		<path fill="#FBFBFC" d="M362.053,220.343c-0.027-0.452,1.075-0.186,0.493-1.023c0.542,0.366,1.021,0.274,1.496,0.233
			c0.117,0.013,0.188,0.077,0.211,0.193c0.485,0.468,1.016,0.903,1.202,1.596c-0.592,0.288-0.742-0.292-1.057-0.532
			c-0.026-0.06-0.065-0.076-0.11-0.038c0.027,0.049,0.048,0.101,0.067,0.159c0.021,0.083,0.031,0.161,0.036,0.243
			c0.011,0.255,0.063,0.515-0.147,0.778c-0.417,0.024-0.891-0.371-1.306,0.052c-0.145-0.005-0.254-0.079-0.351-0.178
			c-0.161-0.21-0.307-0.432-0.435-0.664c-0.133-0.19,0.053-0.43-0.094-0.619C362.055,220.474,362.054,220.409,362.053,220.343z"/>
		<path fill="#EAEAEB" d="M362.058,220.541c0.23,0.145,0.194,0.379,0.201,0.6c-0.583,0.561-0.826,0.093-1.085-0.274
			c-0.038,0.322,0.392,0.861-0.319,1.076c-0.315-0.259-0.411-0.606-0.401-0.996c0.235-0.146,0.197-0.383,0.204-0.605
			c-0.127-0.132-0.113-0.263,0.003-0.394c0,0,0.001,0,0.002,0C361.232,219.9,361.408,220.776,362.058,220.541z"/>
		<path fill="#D2D3D7" d="M360.661,219.947c-0.001,0.131-0.002,0.263-0.003,0.394c-0.25,0.135-0.508,0.231-0.799,0.201
			C360.001,220.175,360.363,220.103,360.661,219.947z"/>
		<path fill="#BDC1CC" d="M365.055,222.741c0.049,0.482-0.19,0.792-0.6,1c-0.189,0.15-0.169,0.433-0.364,0.58
			c-0.242,0.154-0.495,0.076-0.763-0.007c0.318,0.472,0.485,0.972,0.741,1.424c-0.067,0.143-0.134,0.285-0.201,0.427
			c-0.358-0.048-0.702-0.006-1.023,0.171c-0.328,0.137-0.657,0.223-0.987,0.007c-0.201-0.067-0.402-0.135-0.603-0.202
			c-0.478-0.047-0.632-0.359-0.644-0.786c0.067-0.07,0.149-0.114,0.246-0.128c0.534,0.024,0.792,0.7,1.461,0.585
			c-0.059-0.409,0.463-0.738,0.116-1.207c-0.223-0.221-0.465-0.423-0.647-0.682c0.29-0.789,1.056-0.713,1.667-0.922
			c0.407,0.094,0.825,0.263,1.167-0.152c0.06-0.065,0.127-0.12,0.203-0.166C364.912,222.653,364.99,222.672,365.055,222.741z"/>
		<path fill="#CCCED3" d="M358.658,224.74c-0.004-0.131-0.009-0.263-0.014-0.394c-0.048-0.051-0.066-0.104-0.054-0.158
			c0.013-0.055,0.026-0.082,0.041-0.082c0.438-0.102,0.673,0.166,0.875,0.488c0.152,0.243,0.205,0.579,0.581,0.608
			c0.088,0.018,0.17,0.05,0.249,0.094c0.24,0.231,0.373,0.504,0.317,0.846c-0.021,0.3-0.145,0.335-0.356,0.137
			C359.75,225.768,359.204,225.254,358.658,224.74z"/>
		<path fill="#CDD0D7" d="M359.023,226.26c-0.288,0.067-0.475,0.111-0.703,0.164c-0.041-0.404-0.225-0.787,0.208-1.066
			C358.948,225.512,358.897,225.88,359.023,226.26z"/>
		<path fill="#7B8193" d="M362.288,227.92c-0.113,0.032-0.226,0.063-0.315,0.088c-0.081,0.166-0.025,0.258,0.083,0.333h0
			c0.104,0.218-0.044,0.31-0.199,0.399c-0.045-0.588-0.857-0.88-0.612-1.581c0.198,0.13,0.396,0.261,0.594,0.391
			C361.97,227.696,362.322,227.575,362.288,227.92z"/>
		<path fill="#B3B8C8" d="M360.653,226.143c-0.132-0.267-0.264-0.535-0.396-0.802c-0.027-0.193,0.072-0.28,0.25-0.261
			c0.144,0.016,0.179,0.126,0.15,0.258c0.199,0.268,0.398,0.535,0.598,0.803c-0.025,0.09-0.05,0.18-0.085,0.307
			C360.979,226.335,360.816,226.239,360.653,226.143z"/>
		<path fill="#B3B8C8" d="M361.858,226.344c0.329-0.002,0.659-0.005,0.988-0.007c-0.225,0.244-0.725,0.289-0.58,0.8
			c-0.211-0.142-0.423-0.283-0.677-0.454C361.681,226.565,361.77,226.454,361.858,226.344z"/>
		<path fill="#B3B8C8" d="M362.288,227.92c-0.149-0.124-0.299-0.247-0.449-0.371c0.264-0.014,0.411-0.147,0.424-0.417
			c0.314,0.18,0.584,0.392,0.582,0.8C362.659,227.929,362.474,227.925,362.288,227.92z"/>
		<path fill="#E2E3E5" d="M360.056,225.341c-0.412,0.353-0.515-0.02-0.586-0.287c-0.122-0.453-0.387-0.747-0.808-0.92
			c-0.161-0.33-0.16-0.659,0-0.989c0.068-0.065,0.137-0.13,0.205-0.195c0.717-0.263,0.538,0.418,0.741,0.699
			C359.64,224.243,360.202,224.699,360.056,225.341z"/>
		<path fill="#CCCED3" d="M359.451,223.749c-0.328-0.169-0.028-0.797-0.584-0.799c-0.001-0.067-0.003-0.134-0.004-0.201
			c0.063-0.006,0.125-0.01,0.188-0.01c0.156-0.204,0.469-0.16,0.612-0.385c0.013-0.212,0.026-0.424,0.04-0.636
			c0.648,0.299,0.276,0.878,0.342,1.327c0.063,0.423,0.013,0.864,0.012,1.297C359.543,224.462,359.76,223.837,359.451,223.749z"/>
		<path fill="#BBBFCB" d="M358.662,223.145c0,0.33,0,0.659,0,0.989c-0.006,0.071-0.012,0.142-0.018,0.212
			C358.381,223.942,358.333,223.541,358.662,223.145z"/>
		<path fill="#B4B8C5" d="M370.456,218.74c0.133,0.4,0.267,0.8,0.4,1.2c-0.191,0.472-0.37,0.15-0.547,0.067
			c0.03,0.178,0.256,0.386,0.16,0.698c-0.134,0.23-0.337,0.363-0.644,0.266c-0.196-0.2-0.218-0.495-0.387-0.71
			c-0.158-0.234-0.274-0.491-0.412-0.736c-0.135-0.273-0.188-0.543,0.039-0.829c0.403-0.073,0.81,0.022,1.217,0.03
			C370.342,218.728,370.399,218.733,370.456,218.74z"/>
		<path fill="#E9EAED" d="M370.284,218.726c-0.322,0.431-0.724,0.057-1.083,0.097c-0.269,0.268-0.011,0.483,0.057,0.714
			c0.165,0.244,0.077,0.408-0.166,0.522c-0.509,0.032-0.715-0.214-0.646-0.709c0.436-0.387-0.175-0.528-0.19-0.81
			c-0.108-0.165-0.212-0.332-0.232-0.516c0.208-0.256,0.416-0.209,0.63-0.083c0.363,0.275,0.659,0.759,1.227,0.392
			C370.015,218.465,370.15,218.595,370.284,218.726z"/>
		<path fill="#8F93A0" d="M364.07,225.738c-0.772-0.179-0.521-0.986-1.074-1.545c0.708,0.121,1.069-0.198,1.46-0.452
			c0.001,0.068,0.002,0.137,0.003,0.205c0.261,0.292,0.331,0.622,0.194,0.993C364.459,225.205,364.264,225.472,364.07,225.738z"/>
		<path fill="#818490" d="M364.653,224.939c-0.184-0.308-0.221-0.645-0.194-0.993c0.321,0.025,0.737-0.137,0.797,0.405
			C365.119,224.613,364.927,224.818,364.653,224.939z"/>
		<path fill="#747A8B" d="M361.857,228.74c0.066-0.133,0.133-0.266,0.199-0.399c0.2,0.135,0.401,0.27,0.601,0.404
			C362.388,229.102,362.123,228.844,361.857,228.74z"/>
		<path fill="#E5E6EA" d="M365.652,218.542c0.455,0.629,1.116,0.837,1.964,0.944c-0.263-0.323-0.458-0.563-0.845-1.039
			c0.607,0.305,1.083,0.203,1.28,0.702c-0.164,0.311,0.304,0.408,0.207,0.762c-0.072,0.194-0.3,0.211-0.535,0.217
			c-0.089-0.005-0.178-0.022-0.264-0.045c-0.171-0.049-0.343-0.096-0.517-0.134c-0.282-0.048-0.502-0.2-0.688-0.409
			c-0.069,0.001-0.138,0.003-0.207,0.004c-0.547,0.013-0.801-0.264-0.791-0.802C365.34,218.582,365.488,218.545,365.652,218.542z"/>
		<path fill="#DFDFE1" d="M363.856,219.341c-0.271-0.13-0.473-0.329-0.598-0.604c0.334-0.034,0.625-0.157,0.879-0.427
			c-0.163-0.194-0.321-0.383-0.479-0.571c0.482,0.069,0.861,0.298,1.137,0.702c-0.082,0.329-0.443,0.532-0.344,0.902
			C364.252,219.522,364.056,219.148,363.856,219.341z"/>
		<path fill="#D0D2DA" d="M365.055,222.741c-0.067-0.001-0.135-0.002-0.202-0.003c-0.27-0.228-0.212-0.579-0.328-0.865
			c-0.05-0.258-0.147-0.5-0.25-0.741c-0.006-0.064-0.015-0.129-0.026-0.192c-0.125-0.23-0.144-0.405,0.203-0.388
			c0.365,0.224,0.466,0.783,1.002,0.789c0.185-0.113,0.3-0.434,0.6-0.198c0.045,0.056,0.067,0.114,0.065,0.177
			c-0.002,0.065-0.009,0.097-0.02,0.097c-0.217,0.278-0.425,0.585-0.849,0.328C364.899,222.02,365.149,222.415,365.055,222.741z"/>
		<path fill="#D1D4DE" d="M366.055,221.34c0-0.065,0-0.131,0-0.197c0.397-0.493,0.12-1.07,0.198-1.602
			c0.268,0.067,0.536,0.135,0.803,0.202c-0.017,0.419,0.092,0.829,0.11,1.177c-0.124,0.438-0.468,0.391-0.732,0.482
			C366.297,221.444,366.164,221.464,366.055,221.34z"/>
		<path fill="#F7F7F8" d="M365.255,218.743c0.194,0.336,0.46,0.601,0.791,0.802c-0.093,0.168-0.186,0.336-0.322,0.581
			C365.412,219.646,364.798,219.388,365.255,218.743z"/>
		<path fill="#D3D4D8" d="M363.856,219.341c0.2-0.319,0.397-0.055,0.596,0.003c-0.001,0.166-0.039,0.314-0.199,0.401
			c-0.07-0.064-0.141-0.128-0.211-0.192C363.98,219.482,363.918,219.411,363.856,219.341z"/>
		<path fill="#989CA8" d="M369.848,220.927c0.146-0.07,0.292-0.141,0.425-0.205c0.186-0.322-0.254-0.529-0.13-0.817
			c0.254-0.14,0.462,0.305,0.715,0.036c0.062,0.005,0.124,0.011,0.186,0.017c0.009,0.192,0.018,0.385,0.027,0.577
			c-0.003,0.202-0.006,0.403-0.01,0.605c-0.043,0.702-0.579,0.657-1.058,0.697c-0.355-0.086-0.13-0.502-0.373-0.652
			c-0.037-0.082-0.04-0.165-0.009-0.25C369.694,220.875,369.77,220.872,369.848,220.927z"/>
		<path fill="#848791" d="M369.856,221.74c0.433-0.138,0.946-0.113,1.205-0.601c0.132,0.07,0.263,0.139,0.396,0.208
			c-0.066,0.2-0.131,0.401-0.197,0.602c-0.258,0.535-0.781,0.32-1.192,0.422c0.022-0.09,0.045-0.18,0.068-0.271
			c-0.03-0.166-0.166-0.146-0.282-0.162c-0.05-0.045-0.065-0.089-0.049-0.133C369.822,221.762,369.839,221.74,369.856,221.74z"/>
		<path fill="#CBCDD2" d="M359.662,222.353c0.021,0.112,0.042,0.224,0.071,0.385c-0.262,0-0.472,0-0.683,0
			c0.017-0.255,0.15-0.393,0.408-0.404C359.526,222.34,359.594,222.346,359.662,222.353z"/>
		<path fill="#C3C7D3" d="M369.848,220.927c-0.062,0.011-0.123,0.021-0.186,0.027c-0.374-0.05-0.618,0.269-0.95,0.339
			c-0.481-0.064-0.746-0.404-0.987-0.775c-0.085-0.174-0.164-0.35-0.082-0.549c0.152-0.019,0.305-0.037,0.431-0.052
			c0.134-0.296-0.427-0.503-0.022-0.768c0.083,0.16,0.236,0.186,0.394,0.202c0.156,0.245,0.217,0.583,0.599,0.6
			c0.201,0.051,0.333,0.3,0.586,0.204C369.956,220.341,369.827,220.655,369.848,220.927z"/>
		<path fill="#EDEEF1" d="M368.654,217.942c-0.131,0.007-0.262,0.015-0.382,0.021c-0.194,0.205,0.033,0.393-0.016,0.579
			c-0.245-0.147-0.498-0.287-0.526-0.684C368.052,217.711,368.357,217.647,368.654,217.942z"/>
		<path fill="#999DAA" d="M367.85,220.344c0.206,0.329,0.475,0.595,0.804,0.8c0.241,0.278,0.596,0.007,0.859,0.177
			c0.148,0.183,0.235,0.379,0.139,0.617c-0.519-0.05-0.996,0.061-1.419,0.375c-0.507-0.543-1.124-1.025-1.063-1.889
			C367.369,220.155,367.6,220.169,367.85,220.344z"/>
		<path fill="#B7BCCB" d="M367.254,220.542c0.125,0.702,0.903,1.042,0.979,1.771c-0.194,0.076-0.388,0.151-0.582,0.227
			c-0.258-0.008-0.388-0.144-0.397-0.399v0c0.239-0.702-0.269-0.672-0.702-0.717c-0.033-0.028-0.067-0.057-0.1-0.085
			c0.181-0.119,0.362-0.238,0.539-0.355c-0.016-0.43-0.454-0.864,0.065-1.24c0.164,0.002,0.314,0.034,0.395,0.201
			C367.486,220.177,367.055,220.255,367.254,220.542z"/>
		<path fill="#8E929E" d="M369.653,221.937c-0.067-0.2-0.135-0.4-0.202-0.6c-0.033-0.172-0.006-0.282,0.206-0.196
			c0.154,0.013,0.309,0.026,0.521,0.044c-0.131,0.226-0.227,0.39-0.322,0.554c0,0.066-0.001,0.133-0.002,0.199
			C369.786,221.938,369.719,221.938,369.653,221.937z"/>
		<path fill="#B7BCCB" d="M366.055,221.34c0.132,0,0.265-0.001,0.397-0.001l0.01,0.011c0.062,0.045,0.08,0.087,0.057,0.128
			c-0.023,0.039-0.045,0.058-0.067,0.058c-0.202,0.19-0.404,0.38-0.608,0.571c-0.303,0.052-0.468-0.122-0.593-0.361
			C365.597,221.765,365.779,221.458,366.055,221.34z"/>
		<path fill="#A9AEBD" d="M366.452,221.535c0.001-0.062,0.004-0.124,0.01-0.186c0.465,0.063,1.241-0.185,0.792,0.792
			C367.227,221.621,366.877,221.528,366.452,221.535z"/>
		<path fill="#E2E5F0" d="M364.661,221.737c0.316,0.286,0.146,0.664,0.191,1.001h-0.001c-0.394,0.38-0.931,0.269-1.396,0.404
			c-0.52,0.292-1.158,0.347-1.598,0.798c-0.067,0.079-0.135,0.083-0.203,0c-0.066-0.2-0.133-0.399-0.2-0.599
			c0.163-0.199,0.253-0.492,0.648-0.433c-0.123-0.382-0.467-0.676-0.293-1.114c0.249-0.29,0.535-0.313,0.846-0.055
			c0.067,0.066,0.134,0.132,0.201,0.198C363.504,222.266,364.113,222.274,364.661,221.737z"/>
		<path fill="#E9EBEF" d="M362.657,221.74c-0.227,0.016-0.453,0.032-0.679,0.048c-0.131,0.626,0.482,0.886,0.559,1.478
			c-0.383-0.146-0.777-0.298-1.082,0.076c0.147-0.616-0.315-0.97-0.601-1.399c0.48-0.454-0.016-0.971,0.03-1.459
			c0.503,0.048,0.499,0.546,0.827,0.741c0.168-0.026,0.358-0.055,0.548-0.084C362.52,221.255,362.654,221.454,362.657,221.74z"/>
		<path fill="#E2E3E7" d="M362.463,224.527c0.27,0.04,0.492,0.209,0.337,0.455c-0.23,0.365-0.285,0.688,0.064,1
			c-0.451,0.217-0.771,0.177-1.112,0.104c-0.29-0.245-0.589-0.499-0.888-0.752c-0.125-0.125-0.13-0.254-0.014-0.388
			c0.553,0.076,1.1,0.103,1.604-0.205c-0.063-0.05-0.083-0.098-0.06-0.145C362.418,224.551,362.441,224.527,362.463,224.527z"/>
		<path fill="#CBCDD2" d="M360.85,224.946c0.004,0.129,0.009,0.259,0.014,0.388c-0.069,0.002-0.137,0.003-0.207,0.005
			c-0.134-0.2-0.268-0.205-0.4,0.002c-0.066,0-0.134,0-0.2,0c-0.214-0.526-0.627-0.977-0.605-1.592
			c0.013-0.065,0.027-0.129,0.067-0.319c0.237,0.334,0.235,0.731,0.538,0.912C360.202,224.698,360.564,224.773,360.85,224.946z"/>
		<path fill="#E9EBEF" d="M362.463,224.527c-0.003,0.071-0.005,0.143-0.008,0.214c-0.341-0.193-0.608-0.458-0.799-0.801
			c0.068,0,0.135,0,0.203,0C362.12,224.074,362.32,224.272,362.463,224.527z"/>
		<path fill="#F5F6FA" d="M364.661,221.737c-0.015,0.221-0.029,0.442-0.041,0.623c-0.358,0.254-0.488-0.171-0.738-0.146
			c-0.262-0.003-0.158,0.331-0.375,0.393c-0.293-0.138-0.496-0.379-0.649-0.668c0.251-0.109,0.138-0.515,0.459-0.565
			c0.379-0.059,0.498,0.373,0.81,0.433c0.313-0.172-0.149-0.503,0.148-0.673C364.52,221.26,364.649,221.461,364.661,221.737z"/>
		<path fill="#F5F6FA" d="M364.453,220.552c-0.173,0.074-0.193,0.228-0.204,0.388c-0.204-0.176-0.356-0.375-0.305-0.673
			C364.265,220.108,364.341,220.363,364.453,220.552z"/>
		<path fill="#D0D3DC" d="M363.456,223.142c0.371-0.462,0.892-0.403,1.396-0.404C364.603,223.62,364.079,223.552,363.456,223.142z"
			/>
		<path fill="#E5E6EA" d="M369.63,220.155c-0.339,0.345-0.427-0.03-0.585-0.204c0.166-0.089,0.207-0.242,0.212-0.414
			C369.382,219.743,369.506,219.949,369.63,220.155z"/>
		<path fill="#A7ABB8" d="M367.254,220.542c-0.35-0.336-0.021-0.448,0.197-0.597c0.063,0.006,0.127,0.013,0.191,0.023
			c0.069,0.125,0.138,0.251,0.208,0.376C367.631,220.347,367.398,220.309,367.254,220.542z"/>
		<path fill="#A7ABB8" d="M369.656,221.142c-0.069,0.065-0.137,0.13-0.206,0.196c-0.148,0.063-0.297,0.127-0.475,0.203
			c-0.12-0.148-0.221-0.272-0.321-0.396c0.34-0.042,0.612-0.443,1.008-0.19C369.659,221.016,369.657,221.079,369.656,221.142z"/>
	</g>
</g>
</svg>
